G04 #@! TF.FileFunction,Copper,L1,Top,Signal*
%FSLAX46Y46*%
G04 Gerber Fmt 4.6, Leading zero omitted, Abs format (unit mm)*
G04 Created by KiCad (PCBNEW 4.0.2-4+6225~38~ubuntu14.04.1-stable) date jeu. 24 mars 2016 21:46:02 CET*
%MOMM*%
G01*
G04 APERTURE LIST*
%ADD10C,0.150000*%
%ADD11O,1.600000X2.300000*%
%ADD12R,1.727200X2.032000*%
%ADD13O,1.727200X2.032000*%
%ADD14R,1.750060X1.750060*%
%ADD15C,3.299460*%
%ADD16O,1.998980X2.999740*%
%ADD17R,1.300000X1.300000*%
%ADD18C,1.300000*%
%ADD19R,1.397000X1.397000*%
%ADD20C,1.397000*%
%ADD21C,1.998980*%
%ADD22C,0.400000*%
%ADD23C,0.254000*%
G04 APERTURE END LIST*
D10*
X168910000Y-88900000D02*
G75*
G03X166370000Y-86360000I-2540000J0D01*
G01*
X166370000Y-127000000D02*
G75*
G03X168910000Y-124460000I0J2540000D01*
G01*
X85090000Y-124460000D02*
G75*
G03X87630000Y-127000000I2540000J0D01*
G01*
X87630000Y-86360000D02*
G75*
G03X85090000Y-88900000I0J-2540000D01*
G01*
X85090000Y-124460000D02*
X85090000Y-88900000D01*
X166370000Y-127000000D02*
X87630000Y-127000000D01*
X168910000Y-88900000D02*
X168910000Y-124460000D01*
X87630000Y-86360000D02*
X166370000Y-86360000D01*
D11*
X121285000Y-89535000D03*
X123825000Y-89535000D03*
X126365000Y-89535000D03*
X128905000Y-89535000D03*
X131445000Y-89535000D03*
X133985000Y-89535000D03*
X136525000Y-89535000D03*
X139065000Y-89535000D03*
X139065000Y-97155000D03*
X136525000Y-97155000D03*
X133985000Y-97155000D03*
X131445000Y-97155000D03*
X128905000Y-97155000D03*
X126365000Y-97155000D03*
X123825000Y-97155000D03*
X121285000Y-97155000D03*
D12*
X88265000Y-95885000D03*
D13*
X90805000Y-95885000D03*
X93345000Y-95885000D03*
X95885000Y-95885000D03*
X98425000Y-95885000D03*
D12*
X88265000Y-92075000D03*
D13*
X90805000Y-92075000D03*
X93345000Y-92075000D03*
X95885000Y-92075000D03*
X98425000Y-92075000D03*
D14*
X157520640Y-90289380D03*
X160020000Y-90233500D03*
X162519360Y-90289380D03*
D15*
X154221180Y-97790000D03*
X165818820Y-97790000D03*
D14*
X157520640Y-104790240D03*
X162519360Y-104790240D03*
D16*
X93939360Y-100429060D03*
X93939360Y-112930940D03*
X88940640Y-112930940D03*
X88940640Y-100429060D03*
X107274360Y-100429060D03*
X107274360Y-112930940D03*
X102275640Y-112930940D03*
X102275640Y-100429060D03*
X120609360Y-100429060D03*
X120609360Y-112930940D03*
X115610640Y-112930940D03*
X115610640Y-100429060D03*
X133944360Y-100429060D03*
X133944360Y-112930940D03*
X128945640Y-112930940D03*
X128945640Y-100429060D03*
X147279360Y-100429060D03*
X147279360Y-112930940D03*
X142280640Y-112930940D03*
X142280640Y-100429060D03*
X157520640Y-120550940D03*
X157520640Y-108049060D03*
X162519360Y-108049060D03*
X162519360Y-120550940D03*
D17*
X116840000Y-96520000D03*
D18*
X114340000Y-96520000D03*
D19*
X116205000Y-120015000D03*
D20*
X118745000Y-120015000D03*
X121285000Y-120015000D03*
X123825000Y-120015000D03*
X126365000Y-120015000D03*
X128905000Y-120015000D03*
X131445000Y-120015000D03*
X133985000Y-120015000D03*
X136525000Y-120015000D03*
D21*
X96520000Y-88900000D03*
X88900000Y-88900000D03*
D22*
X91440000Y-98425000D02*
X114935000Y-98425000D01*
X114935000Y-98425000D02*
X116840000Y-96520000D01*
X90805000Y-95885000D02*
X91440000Y-96520000D01*
X91440000Y-96520000D02*
X91440000Y-98425000D01*
X91440000Y-98425000D02*
X91440000Y-114935000D01*
X91440000Y-114935000D02*
X91440000Y-115570000D01*
X90805000Y-92075000D02*
X90805000Y-90805000D01*
X90805000Y-90805000D02*
X88900000Y-88900000D01*
X90805000Y-92075000D02*
X90805000Y-95885000D01*
X91440000Y-115570000D02*
X91440000Y-116840000D01*
X91440000Y-116840000D02*
X94615000Y-120015000D01*
X94615000Y-120015000D02*
X116205000Y-120015000D01*
D23*
X121285000Y-89535000D02*
X118110000Y-92710000D01*
X118110000Y-92710000D02*
X99060000Y-92710000D01*
X98425000Y-92075000D02*
X99060000Y-92710000D01*
X98425000Y-95885000D02*
X98425000Y-92075000D01*
X95885000Y-92075000D02*
X100330000Y-87630000D01*
X121920000Y-87630000D02*
X123825000Y-89535000D01*
X100330000Y-87630000D02*
X121920000Y-87630000D01*
X95885000Y-92075000D02*
X95885000Y-95885000D01*
X109855000Y-93345000D02*
X119380000Y-93345000D01*
X109220000Y-93980000D02*
X109855000Y-93345000D01*
X95250000Y-97790000D02*
X105410000Y-97790000D01*
X105410000Y-97790000D02*
X109220000Y-93980000D01*
X93345000Y-95885000D02*
X95250000Y-97790000D01*
X135255000Y-93345000D02*
X139065000Y-97155000D01*
X135255000Y-88265000D02*
X135255000Y-93345000D01*
X134620000Y-87630000D02*
X135255000Y-88265000D01*
X125730000Y-87630000D02*
X134620000Y-87630000D01*
X125095000Y-88265000D02*
X125730000Y-87630000D01*
X125095000Y-91440000D02*
X125095000Y-88265000D01*
X124460000Y-92075000D02*
X125095000Y-91440000D01*
X120650000Y-92075000D02*
X124460000Y-92075000D01*
X119380000Y-93345000D02*
X120650000Y-92075000D01*
X96520000Y-88900000D02*
X98425000Y-86995000D01*
X93345000Y-92075000D02*
X96520000Y-88900000D01*
X138430000Y-99060000D02*
X136525000Y-97155000D01*
X139700000Y-99060000D02*
X138430000Y-99060000D01*
X140970000Y-97790000D02*
X139700000Y-99060000D01*
X140970000Y-88265000D02*
X140970000Y-97790000D01*
X139700000Y-86995000D02*
X140970000Y-88265000D01*
X98425000Y-86995000D02*
X139700000Y-86995000D01*
X133985000Y-97155000D02*
X136525000Y-99695000D01*
X146050000Y-98425000D02*
X154185620Y-90289380D01*
X154185620Y-90289380D02*
X157520640Y-90289380D01*
X141605000Y-98425000D02*
X146050000Y-98425000D01*
X140335000Y-99695000D02*
X141605000Y-98425000D01*
X136525000Y-99695000D02*
X140335000Y-99695000D01*
X157520640Y-88859360D02*
X157520640Y-90289380D01*
X158115000Y-88265000D02*
X157520640Y-88859360D01*
X163195000Y-88265000D02*
X158115000Y-88265000D01*
X165100000Y-90170000D02*
X163195000Y-88265000D01*
X165100000Y-94615000D02*
X165100000Y-90170000D01*
X163195000Y-96520000D02*
X165100000Y-94615000D01*
X163195000Y-98425000D02*
X163195000Y-96520000D01*
X167005000Y-102235000D02*
X163195000Y-98425000D01*
X167005000Y-112395000D02*
X167005000Y-102235000D01*
X163830000Y-115570000D02*
X167005000Y-112395000D01*
X135255000Y-121285000D02*
X142875000Y-121285000D01*
X142875000Y-121285000D02*
X143510000Y-120650000D01*
X143510000Y-120650000D02*
X152400000Y-120650000D01*
X152400000Y-120650000D02*
X157480000Y-115570000D01*
X157480000Y-115570000D02*
X163830000Y-115570000D01*
X133985000Y-120015000D02*
X135255000Y-121285000D01*
X136525000Y-120015000D02*
X151765000Y-120015000D01*
X163830000Y-91600020D02*
X162519360Y-90289380D01*
X163830000Y-94615000D02*
X163830000Y-91600020D01*
X161925000Y-96520000D02*
X163830000Y-94615000D01*
X161925000Y-99060000D02*
X161925000Y-96520000D01*
X166370000Y-103505000D02*
X161925000Y-99060000D01*
X166370000Y-111760000D02*
X166370000Y-103505000D01*
X163195000Y-114935000D02*
X166370000Y-111760000D01*
X156845000Y-114935000D02*
X163195000Y-114935000D01*
X151765000Y-120015000D02*
X156845000Y-114935000D01*
X131445000Y-97155000D02*
X131445000Y-100965000D01*
X162519360Y-94020640D02*
X162519360Y-90289380D01*
X153670000Y-102870000D02*
X162519360Y-94020640D01*
X133350000Y-102870000D02*
X153670000Y-102870000D01*
X131445000Y-100965000D02*
X133350000Y-102870000D01*
X130175000Y-98425000D02*
X130175000Y-95885000D01*
X130175000Y-98425000D02*
X130810000Y-99060000D01*
X130810000Y-99060000D02*
X130810000Y-101600000D01*
X130810000Y-101600000D02*
X133350000Y-104140000D01*
X156870400Y-104140000D02*
X133350000Y-104140000D01*
X133985000Y-92075000D02*
X133985000Y-89535000D01*
X130175000Y-95885000D02*
X133985000Y-92075000D01*
X131445000Y-120015000D02*
X133350000Y-118110000D01*
X147459700Y-118110000D02*
X157520640Y-108049060D01*
X133350000Y-118110000D02*
X147459700Y-118110000D01*
X157520640Y-108049060D02*
X157520640Y-104790240D01*
X156870400Y-104140000D02*
X157520640Y-104790240D01*
X93939360Y-112930940D02*
X98483420Y-117475000D01*
X116205000Y-117475000D02*
X118745000Y-120015000D01*
X98483420Y-117475000D02*
X116205000Y-117475000D01*
X120650000Y-95250000D02*
X122555000Y-93345000D01*
X118745000Y-97155000D02*
X120650000Y-95250000D01*
X103505000Y-102870000D02*
X115570000Y-102870000D01*
X93939360Y-112435640D02*
X103505000Y-102870000D01*
X116840000Y-102870000D02*
X118745000Y-100965000D01*
X116205000Y-102870000D02*
X116840000Y-102870000D01*
X115570000Y-102870000D02*
X116205000Y-102870000D01*
X118745000Y-100965000D02*
X118745000Y-97155000D01*
X126365000Y-92075000D02*
X126365000Y-89535000D01*
X125095000Y-93345000D02*
X126365000Y-92075000D01*
X122555000Y-93345000D02*
X125095000Y-93345000D01*
X93939360Y-112930940D02*
X93939360Y-112435640D01*
X122555000Y-95885000D02*
X124460000Y-93980000D01*
X107274360Y-112930940D02*
X111224060Y-112930940D01*
X111224060Y-112930940D02*
X122555000Y-101600000D01*
X122555000Y-101600000D02*
X122555000Y-95885000D01*
X128905000Y-92710000D02*
X128905000Y-89535000D01*
X127635000Y-93980000D02*
X128905000Y-92710000D01*
X124460000Y-93980000D02*
X127635000Y-93980000D01*
X107274360Y-112930940D02*
X107414060Y-112930940D01*
X121285000Y-120015000D02*
X121285000Y-119380000D01*
X121285000Y-119380000D02*
X117475000Y-115570000D01*
X117475000Y-115570000D02*
X109913420Y-115570000D01*
X109913420Y-115570000D02*
X107274360Y-112930940D01*
X125095000Y-95885000D02*
X126365000Y-94615000D01*
X120609360Y-106720640D02*
X125095000Y-102235000D01*
X125095000Y-102235000D02*
X125095000Y-95885000D01*
X120609360Y-112930940D02*
X120609360Y-106720640D01*
X131445000Y-92710000D02*
X131445000Y-89535000D01*
X129540000Y-94615000D02*
X131445000Y-92710000D01*
X126365000Y-94615000D02*
X129540000Y-94615000D01*
X123825000Y-120015000D02*
X123825000Y-120650000D01*
X123825000Y-120015000D02*
X123825000Y-116146580D01*
X123825000Y-116146580D02*
X120609360Y-112930940D01*
X132080000Y-105410000D02*
X130810000Y-105410000D01*
X139758420Y-105410000D02*
X132080000Y-105410000D01*
X147279360Y-112930940D02*
X139758420Y-105410000D01*
X127000000Y-99060000D02*
X128905000Y-97155000D01*
X127000000Y-101600000D02*
X127000000Y-99060000D01*
X130810000Y-105410000D02*
X127000000Y-101600000D01*
X128905000Y-120015000D02*
X128905000Y-119380000D01*
X128905000Y-119380000D02*
X130810000Y-117475000D01*
X130810000Y-117475000D02*
X142735300Y-117475000D01*
X142735300Y-117475000D02*
X147279360Y-112930940D01*
X126365000Y-120015000D02*
X126365000Y-108585000D01*
X126365000Y-108585000D02*
X129598420Y-108585000D01*
X129598420Y-108585000D02*
X133944360Y-112930940D01*
X126365000Y-108585000D02*
X126365000Y-97155000D01*
M02*
