G04 #@! TF.FileFunction,Legend,Top*
%FSLAX46Y46*%
G04 Gerber Fmt 4.6, Leading zero omitted, Abs format (unit mm)*
G04 Created by KiCad (PCBNEW 4.0.2-4+6225~38~ubuntu14.04.1-stable) date jeu. 24 mars 2016 21:46:02 CET*
%MOMM*%
G01*
G04 APERTURE LIST*
%ADD10C,0.150000*%
%ADD11C,0.381000*%
%ADD12C,0.304800*%
G04 APERTURE END LIST*
D10*
X168910000Y-88900000D02*
G75*
G03X166370000Y-86360000I-2540000J0D01*
G01*
X166370000Y-127000000D02*
G75*
G03X168910000Y-124460000I0J2540000D01*
G01*
X85090000Y-124460000D02*
G75*
G03X87630000Y-127000000I2540000J0D01*
G01*
X87630000Y-86360000D02*
G75*
G03X85090000Y-88900000I0J-2540000D01*
G01*
X85090000Y-124460000D02*
X85090000Y-88900000D01*
X166370000Y-127000000D02*
X87630000Y-127000000D01*
X168910000Y-88900000D02*
X168910000Y-124460000D01*
X87630000Y-86360000D02*
X166370000Y-86360000D01*
D11*
X154305000Y-99695000D02*
X154305000Y-104140000D01*
X154305000Y-104140000D02*
X165735000Y-104140000D01*
X165735000Y-104140000D02*
X165735000Y-99695000D01*
X154305000Y-95885000D02*
X154305000Y-91440000D01*
X154305000Y-91440000D02*
X165735000Y-91440000D01*
X165735000Y-91440000D02*
X165735000Y-95885000D01*
X158115000Y-96520000D02*
X161925000Y-96520000D01*
X162623500Y-97853500D02*
G75*
G03X162623500Y-97853500I-2540000J0D01*
G01*
X90439240Y-100680520D02*
X92440760Y-100680520D01*
X87439500Y-112679480D02*
X85440520Y-112679480D01*
X85440520Y-112679480D02*
X85440520Y-100680520D01*
X85440520Y-100680520D02*
X87439500Y-100680520D01*
X92440760Y-112679480D02*
X90439240Y-112679480D01*
X95440500Y-100680520D02*
X97439480Y-100680520D01*
X97439480Y-100680520D02*
X97439480Y-112679480D01*
X97439480Y-112679480D02*
X95440500Y-112679480D01*
X88900000Y-105410000D02*
X88900000Y-101600000D01*
X88900000Y-111760000D02*
X88900000Y-107950000D01*
X93980000Y-107950000D02*
X93980000Y-111760000D01*
X93980000Y-101600000D02*
X93980000Y-105410000D01*
X94279806Y-106680000D02*
G75*
G03X94279806Y-106680000I-2839806J0D01*
G01*
X103774240Y-100680520D02*
X105775760Y-100680520D01*
X100774500Y-112679480D02*
X98775520Y-112679480D01*
X98775520Y-112679480D02*
X98775520Y-100680520D01*
X98775520Y-100680520D02*
X100774500Y-100680520D01*
X105775760Y-112679480D02*
X103774240Y-112679480D01*
X108775500Y-100680520D02*
X110774480Y-100680520D01*
X110774480Y-100680520D02*
X110774480Y-112679480D01*
X110774480Y-112679480D02*
X108775500Y-112679480D01*
X102235000Y-105410000D02*
X102235000Y-101600000D01*
X102235000Y-111760000D02*
X102235000Y-107950000D01*
X107315000Y-107950000D02*
X107315000Y-111760000D01*
X107315000Y-101600000D02*
X107315000Y-105410000D01*
X107614806Y-106680000D02*
G75*
G03X107614806Y-106680000I-2839806J0D01*
G01*
X117109240Y-100680520D02*
X119110760Y-100680520D01*
X114109500Y-112679480D02*
X112110520Y-112679480D01*
X112110520Y-112679480D02*
X112110520Y-100680520D01*
X112110520Y-100680520D02*
X114109500Y-100680520D01*
X119110760Y-112679480D02*
X117109240Y-112679480D01*
X122110500Y-100680520D02*
X124109480Y-100680520D01*
X124109480Y-100680520D02*
X124109480Y-112679480D01*
X124109480Y-112679480D02*
X122110500Y-112679480D01*
X115570000Y-105410000D02*
X115570000Y-101600000D01*
X115570000Y-111760000D02*
X115570000Y-107950000D01*
X120650000Y-107950000D02*
X120650000Y-111760000D01*
X120650000Y-101600000D02*
X120650000Y-105410000D01*
X120949806Y-106680000D02*
G75*
G03X120949806Y-106680000I-2839806J0D01*
G01*
X130444240Y-100680520D02*
X132445760Y-100680520D01*
X127444500Y-112679480D02*
X125445520Y-112679480D01*
X125445520Y-112679480D02*
X125445520Y-100680520D01*
X125445520Y-100680520D02*
X127444500Y-100680520D01*
X132445760Y-112679480D02*
X130444240Y-112679480D01*
X135445500Y-100680520D02*
X137444480Y-100680520D01*
X137444480Y-100680520D02*
X137444480Y-112679480D01*
X137444480Y-112679480D02*
X135445500Y-112679480D01*
X128905000Y-105410000D02*
X128905000Y-101600000D01*
X128905000Y-111760000D02*
X128905000Y-107950000D01*
X133985000Y-107950000D02*
X133985000Y-111760000D01*
X133985000Y-101600000D02*
X133985000Y-105410000D01*
X134284806Y-106680000D02*
G75*
G03X134284806Y-106680000I-2839806J0D01*
G01*
X143779240Y-100680520D02*
X145780760Y-100680520D01*
X140779500Y-112679480D02*
X138780520Y-112679480D01*
X138780520Y-112679480D02*
X138780520Y-100680520D01*
X138780520Y-100680520D02*
X140779500Y-100680520D01*
X145780760Y-112679480D02*
X143779240Y-112679480D01*
X148780500Y-100680520D02*
X150779480Y-100680520D01*
X150779480Y-100680520D02*
X150779480Y-112679480D01*
X150779480Y-112679480D02*
X148780500Y-112679480D01*
X142240000Y-105410000D02*
X142240000Y-101600000D01*
X142240000Y-111760000D02*
X142240000Y-107950000D01*
X147320000Y-107950000D02*
X147320000Y-111760000D01*
X147320000Y-101600000D02*
X147320000Y-105410000D01*
X147619806Y-106680000D02*
G75*
G03X147619806Y-106680000I-2839806J0D01*
G01*
X161020760Y-120299480D02*
X159019240Y-120299480D01*
X164020500Y-108300520D02*
X166019480Y-108300520D01*
X166019480Y-108300520D02*
X166019480Y-120299480D01*
X166019480Y-120299480D02*
X164020500Y-120299480D01*
X159019240Y-108300520D02*
X161020760Y-108300520D01*
X156019500Y-120299480D02*
X154020520Y-120299480D01*
X154020520Y-120299480D02*
X154020520Y-108300520D01*
X154020520Y-108300520D02*
X156019500Y-108300520D01*
X162560000Y-115570000D02*
X162560000Y-119380000D01*
X162560000Y-109220000D02*
X162560000Y-113030000D01*
X157480000Y-113030000D02*
X157480000Y-109220000D01*
X157480000Y-119380000D02*
X157480000Y-115570000D01*
X162859806Y-114300000D02*
G75*
G03X162859806Y-114300000I-2839806J0D01*
G01*
D12*
X157625143Y-93236143D02*
X158133143Y-93236143D01*
X158350857Y-94034429D02*
X157625143Y-94034429D01*
X157625143Y-92510429D01*
X158350857Y-92510429D01*
X159004000Y-93018429D02*
X159004000Y-94034429D01*
X159004000Y-93163571D02*
X159076572Y-93091000D01*
X159221714Y-93018429D01*
X159439429Y-93018429D01*
X159584572Y-93091000D01*
X159657143Y-93236143D01*
X159657143Y-94034429D01*
X161036000Y-93961857D02*
X160890857Y-94034429D01*
X160600571Y-94034429D01*
X160455429Y-93961857D01*
X160382857Y-93889286D01*
X160310286Y-93744143D01*
X160310286Y-93308714D01*
X160382857Y-93163571D01*
X160455429Y-93091000D01*
X160600571Y-93018429D01*
X160890857Y-93018429D01*
X161036000Y-93091000D01*
X162487429Y-94034429D02*
X161616572Y-94034429D01*
X162052000Y-94034429D02*
X162052000Y-92510429D01*
X161906857Y-92728143D01*
X161761715Y-92873286D01*
X161616572Y-92945857D01*
X92056857Y-107841143D02*
X92129429Y-107623429D01*
X92129429Y-107260572D01*
X92056857Y-107115429D01*
X91984286Y-107042858D01*
X91839143Y-106970286D01*
X91694000Y-106970286D01*
X91548857Y-107042858D01*
X91476286Y-107115429D01*
X91403714Y-107260572D01*
X91331143Y-107550858D01*
X91258571Y-107696000D01*
X91186000Y-107768572D01*
X91040857Y-107841143D01*
X90895714Y-107841143D01*
X90750571Y-107768572D01*
X90678000Y-107696000D01*
X90605429Y-107550858D01*
X90605429Y-107188000D01*
X90678000Y-106970286D01*
X92129429Y-105518857D02*
X92129429Y-106389714D01*
X92129429Y-105954286D02*
X90605429Y-105954286D01*
X90823143Y-106099429D01*
X90968286Y-106244571D01*
X91040857Y-106389714D01*
X105391857Y-107841143D02*
X105464429Y-107623429D01*
X105464429Y-107260572D01*
X105391857Y-107115429D01*
X105319286Y-107042858D01*
X105174143Y-106970286D01*
X105029000Y-106970286D01*
X104883857Y-107042858D01*
X104811286Y-107115429D01*
X104738714Y-107260572D01*
X104666143Y-107550858D01*
X104593571Y-107696000D01*
X104521000Y-107768572D01*
X104375857Y-107841143D01*
X104230714Y-107841143D01*
X104085571Y-107768572D01*
X104013000Y-107696000D01*
X103940429Y-107550858D01*
X103940429Y-107188000D01*
X104013000Y-106970286D01*
X104085571Y-106389714D02*
X104013000Y-106317143D01*
X103940429Y-106172000D01*
X103940429Y-105809143D01*
X104013000Y-105664000D01*
X104085571Y-105591429D01*
X104230714Y-105518857D01*
X104375857Y-105518857D01*
X104593571Y-105591429D01*
X105464429Y-106462286D01*
X105464429Y-105518857D01*
X118726857Y-107841143D02*
X118799429Y-107623429D01*
X118799429Y-107260572D01*
X118726857Y-107115429D01*
X118654286Y-107042858D01*
X118509143Y-106970286D01*
X118364000Y-106970286D01*
X118218857Y-107042858D01*
X118146286Y-107115429D01*
X118073714Y-107260572D01*
X118001143Y-107550858D01*
X117928571Y-107696000D01*
X117856000Y-107768572D01*
X117710857Y-107841143D01*
X117565714Y-107841143D01*
X117420571Y-107768572D01*
X117348000Y-107696000D01*
X117275429Y-107550858D01*
X117275429Y-107188000D01*
X117348000Y-106970286D01*
X117275429Y-106462286D02*
X117275429Y-105518857D01*
X117856000Y-106026857D01*
X117856000Y-105809143D01*
X117928571Y-105664000D01*
X118001143Y-105591429D01*
X118146286Y-105518857D01*
X118509143Y-105518857D01*
X118654286Y-105591429D01*
X118726857Y-105664000D01*
X118799429Y-105809143D01*
X118799429Y-106244571D01*
X118726857Y-106389714D01*
X118654286Y-106462286D01*
X132061857Y-107841143D02*
X132134429Y-107623429D01*
X132134429Y-107260572D01*
X132061857Y-107115429D01*
X131989286Y-107042858D01*
X131844143Y-106970286D01*
X131699000Y-106970286D01*
X131553857Y-107042858D01*
X131481286Y-107115429D01*
X131408714Y-107260572D01*
X131336143Y-107550858D01*
X131263571Y-107696000D01*
X131191000Y-107768572D01*
X131045857Y-107841143D01*
X130900714Y-107841143D01*
X130755571Y-107768572D01*
X130683000Y-107696000D01*
X130610429Y-107550858D01*
X130610429Y-107188000D01*
X130683000Y-106970286D01*
X131118429Y-105664000D02*
X132134429Y-105664000D01*
X130537857Y-106026857D02*
X131626429Y-106389714D01*
X131626429Y-105446286D01*
X145396857Y-107841143D02*
X145469429Y-107623429D01*
X145469429Y-107260572D01*
X145396857Y-107115429D01*
X145324286Y-107042858D01*
X145179143Y-106970286D01*
X145034000Y-106970286D01*
X144888857Y-107042858D01*
X144816286Y-107115429D01*
X144743714Y-107260572D01*
X144671143Y-107550858D01*
X144598571Y-107696000D01*
X144526000Y-107768572D01*
X144380857Y-107841143D01*
X144235714Y-107841143D01*
X144090571Y-107768572D01*
X144018000Y-107696000D01*
X143945429Y-107550858D01*
X143945429Y-107188000D01*
X144018000Y-106970286D01*
X143945429Y-105591429D02*
X143945429Y-106317143D01*
X144671143Y-106389714D01*
X144598571Y-106317143D01*
X144526000Y-106172000D01*
X144526000Y-105809143D01*
X144598571Y-105664000D01*
X144671143Y-105591429D01*
X144816286Y-105518857D01*
X145179143Y-105518857D01*
X145324286Y-105591429D01*
X145396857Y-105664000D01*
X145469429Y-105809143D01*
X145469429Y-106172000D01*
X145396857Y-106317143D01*
X145324286Y-106389714D01*
X160636857Y-115461143D02*
X160709429Y-115243429D01*
X160709429Y-114880572D01*
X160636857Y-114735429D01*
X160564286Y-114662858D01*
X160419143Y-114590286D01*
X160274000Y-114590286D01*
X160128857Y-114662858D01*
X160056286Y-114735429D01*
X159983714Y-114880572D01*
X159911143Y-115170858D01*
X159838571Y-115316000D01*
X159766000Y-115388572D01*
X159620857Y-115461143D01*
X159475714Y-115461143D01*
X159330571Y-115388572D01*
X159258000Y-115316000D01*
X159185429Y-115170858D01*
X159185429Y-114808000D01*
X159258000Y-114590286D01*
X159185429Y-113284000D02*
X159185429Y-113574286D01*
X159258000Y-113719429D01*
X159330571Y-113792000D01*
X159548286Y-113937143D01*
X159838571Y-114009714D01*
X160419143Y-114009714D01*
X160564286Y-113937143D01*
X160636857Y-113864571D01*
X160709429Y-113719429D01*
X160709429Y-113429143D01*
X160636857Y-113284000D01*
X160564286Y-113211429D01*
X160419143Y-113138857D01*
X160056286Y-113138857D01*
X159911143Y-113211429D01*
X159838571Y-113284000D01*
X159766000Y-113429143D01*
X159766000Y-113719429D01*
X159838571Y-113864571D01*
X159911143Y-113937143D01*
X160056286Y-114009714D01*
M02*
