M48
;DRILL file {KiCad 4.0.2-4+6225~38~ubuntu14.04.1-stable} date jeu. 24 mars 2016 21:46:07 CET
;FORMAT={-:-/ absolute / inch / decimal}
FMAT,2
INCH,TZ
T1C0.031
T2C0.032
T3C0.032
T4C0.039
T5C0.040
T6C0.051
T7C0.102
T8C0.126
%
G90
G05
M72
T1
X4.6Y-3.8
X4.775Y-3.525
X4.775Y-3.825
X4.875Y-3.525
X4.875Y-3.825
X4.975Y-3.525
X4.975Y-3.825
X5.075Y-3.525
X5.075Y-3.825
X5.175Y-3.525
X5.175Y-3.825
X5.275Y-3.525
X5.275Y-3.825
X5.375Y-3.525
X5.375Y-3.825
X5.475Y-3.525
X5.475Y-3.825
T2
X4.5016Y-3.8
T3
X4.575Y-4.725
X4.675Y-4.725
X4.775Y-4.725
X4.875Y-4.725
X4.975Y-4.725
X5.075Y-4.725
X5.175Y-4.725
X5.275Y-4.725
X5.375Y-4.725
T4
X3.5Y-3.5
X3.8Y-3.5
X6.2016Y-3.5547
X6.2016Y-4.1256
X6.3Y-3.5525
X6.3984Y-3.5547
X6.3984Y-4.1256
T5
X3.475Y-3.625
X3.475Y-3.775
X3.575Y-3.625
X3.575Y-3.775
X3.675Y-3.625
X3.675Y-3.775
X3.775Y-3.625
X3.775Y-3.775
X3.875Y-3.625
X3.875Y-3.775
T6
X3.5016Y-3.9539
X3.5016Y-4.4461
X3.6984Y-3.9539
X3.6984Y-4.4461
X4.0266Y-3.9539
X4.0266Y-4.4461
X4.2234Y-3.9539
X4.2234Y-4.4461
X4.5516Y-3.9539
X4.5516Y-4.4461
X4.7484Y-3.9539
X4.7484Y-4.4461
X5.0766Y-3.9539
X5.0766Y-4.4461
X5.2734Y-3.9539
X5.2734Y-4.4461
X5.6016Y-3.9539
X5.6016Y-4.4461
X5.7984Y-3.9539
X5.7984Y-4.4461
X6.2016Y-4.2539
X6.2016Y-4.7461
X6.3984Y-4.2539
X6.3984Y-4.7461
T7
X6.0717Y-3.85
X6.5283Y-3.85
T8
X4.175Y-3.55
X4.175Y-4.85
X5.875Y-3.55
X5.875Y-4.85
T0
M30
