G04 #@! TF.FileFunction,Legend,Top*
%FSLAX46Y46*%
G04 Gerber Fmt 4.6, Leading zero omitted, Abs format (unit mm)*
G04 Created by KiCad (PCBNEW 4.0.2-4+6225~38~ubuntu14.04.1-stable) date mer. 25 mai 2016 20:50:44 CEST*
%MOMM*%
G01*
G04 APERTURE LIST*
%ADD10C,0.100000*%
%ADD11C,0.150000*%
%ADD12C,0.381000*%
%ADD13C,0.200660*%
G04 APERTURE END LIST*
D10*
D11*
X104140000Y-132080000D02*
G75*
G03X106680000Y-134620000I2540000J0D01*
G01*
X200660000Y-134620000D02*
G75*
G03X203200000Y-132080000I0J2540000D01*
G01*
X203200000Y-88900000D02*
G75*
G03X200660000Y-86360000I-2540000J0D01*
G01*
X106680000Y-86360000D02*
G75*
G03X104140000Y-88900000I0J-2540000D01*
G01*
X104140000Y-132080000D02*
X104140000Y-88900000D01*
X200660000Y-134620000D02*
X106680000Y-134620000D01*
X203200000Y-88900000D02*
X203200000Y-132080000D01*
X106680000Y-86360000D02*
X200660000Y-86360000D01*
D12*
X162052000Y-123444000D02*
X159512000Y-123444000D01*
X162052000Y-120904000D02*
X159512000Y-120904000D01*
X159512000Y-120904000D02*
X159512000Y-133604000D01*
X159512000Y-133604000D02*
X162052000Y-133604000D01*
X162052000Y-133604000D02*
X162052000Y-120904000D01*
D11*
X120015000Y-92075000D02*
X120015000Y-88900000D01*
X120650000Y-88900000D02*
X120650000Y-86360000D01*
X111760000Y-93980000D02*
X116840000Y-93980000D01*
X111760000Y-100584000D02*
X116840000Y-100584000D01*
X116840000Y-102870000D02*
X116332000Y-103378000D01*
X116332000Y-103378000D02*
X116840000Y-103886000D01*
X116840000Y-104140000D02*
X116840000Y-103886000D01*
X111760000Y-104140000D02*
X111760000Y-103886000D01*
X116840000Y-102870000D02*
X116840000Y-86360000D01*
X111760000Y-104140000D02*
X114300000Y-106680000D01*
X114300000Y-106680000D02*
X116840000Y-104140000D01*
X111760000Y-102870000D02*
X112522000Y-103378000D01*
X112522000Y-103378000D02*
X111760000Y-103886000D01*
X111760000Y-86360000D02*
X111760000Y-102870000D01*
X120650000Y-95250000D02*
X120650000Y-92075000D01*
X120015000Y-98425000D02*
X120015000Y-95250000D01*
X120650000Y-101600000D02*
X120650000Y-98425000D01*
X120015000Y-104775000D02*
X120015000Y-101600000D01*
X120650000Y-107315000D02*
X120650000Y-104775000D01*
X104775000Y-104775000D02*
X104775000Y-107315000D01*
X105410000Y-101600000D02*
X105410000Y-104775000D01*
X105410000Y-98425000D02*
X104775000Y-98425000D01*
X104775000Y-98425000D02*
X104775000Y-101600000D01*
X105410000Y-95250000D02*
X105410000Y-98425000D01*
X104775000Y-92075000D02*
X104775000Y-95250000D01*
X105410000Y-88900000D02*
X105410000Y-92075000D01*
X104775000Y-86360000D02*
X104775000Y-88900000D01*
X104775000Y-104775000D02*
X120650000Y-104775000D01*
X104775000Y-101600000D02*
X120650000Y-101600000D01*
X104775000Y-98425000D02*
X120650000Y-98425000D01*
X104775000Y-95250000D02*
X120650000Y-95250000D01*
X104775000Y-92075000D02*
X120650000Y-92075000D01*
X104775000Y-88900000D02*
X120650000Y-88900000D01*
X116840000Y-110490000D02*
X118110000Y-107315000D01*
X111760000Y-110490000D02*
X110490000Y-107315000D01*
X111760000Y-110490000D02*
X116840000Y-110490000D01*
X104775000Y-86360000D02*
X120650000Y-86360000D01*
X120650000Y-107315000D02*
X104775000Y-107315000D01*
X137795000Y-92075000D02*
X137795000Y-88900000D01*
X138430000Y-88900000D02*
X138430000Y-86360000D01*
X129540000Y-93980000D02*
X134620000Y-93980000D01*
X129540000Y-100584000D02*
X134620000Y-100584000D01*
X134620000Y-102870000D02*
X134112000Y-103378000D01*
X134112000Y-103378000D02*
X134620000Y-103886000D01*
X134620000Y-104140000D02*
X134620000Y-103886000D01*
X129540000Y-104140000D02*
X129540000Y-103886000D01*
X134620000Y-102870000D02*
X134620000Y-86360000D01*
X129540000Y-104140000D02*
X132080000Y-106680000D01*
X132080000Y-106680000D02*
X134620000Y-104140000D01*
X129540000Y-102870000D02*
X130302000Y-103378000D01*
X130302000Y-103378000D02*
X129540000Y-103886000D01*
X129540000Y-86360000D02*
X129540000Y-102870000D01*
X138430000Y-95250000D02*
X138430000Y-92075000D01*
X137795000Y-98425000D02*
X137795000Y-95250000D01*
X138430000Y-101600000D02*
X138430000Y-98425000D01*
X137795000Y-104775000D02*
X137795000Y-101600000D01*
X138430000Y-107315000D02*
X138430000Y-104775000D01*
X122555000Y-104775000D02*
X122555000Y-107315000D01*
X123190000Y-101600000D02*
X123190000Y-104775000D01*
X123190000Y-98425000D02*
X122555000Y-98425000D01*
X122555000Y-98425000D02*
X122555000Y-101600000D01*
X123190000Y-95250000D02*
X123190000Y-98425000D01*
X122555000Y-92075000D02*
X122555000Y-95250000D01*
X123190000Y-88900000D02*
X123190000Y-92075000D01*
X122555000Y-86360000D02*
X122555000Y-88900000D01*
X122555000Y-104775000D02*
X138430000Y-104775000D01*
X122555000Y-101600000D02*
X138430000Y-101600000D01*
X122555000Y-98425000D02*
X138430000Y-98425000D01*
X122555000Y-95250000D02*
X138430000Y-95250000D01*
X122555000Y-92075000D02*
X138430000Y-92075000D01*
X122555000Y-88900000D02*
X138430000Y-88900000D01*
X134620000Y-110490000D02*
X135890000Y-107315000D01*
X129540000Y-110490000D02*
X128270000Y-107315000D01*
X129540000Y-110490000D02*
X134620000Y-110490000D01*
X122555000Y-86360000D02*
X138430000Y-86360000D01*
X138430000Y-107315000D02*
X122555000Y-107315000D01*
X155575000Y-92075000D02*
X155575000Y-88900000D01*
X156210000Y-88900000D02*
X156210000Y-86360000D01*
X147320000Y-93980000D02*
X152400000Y-93980000D01*
X147320000Y-100584000D02*
X152400000Y-100584000D01*
X152400000Y-102870000D02*
X151892000Y-103378000D01*
X151892000Y-103378000D02*
X152400000Y-103886000D01*
X152400000Y-104140000D02*
X152400000Y-103886000D01*
X147320000Y-104140000D02*
X147320000Y-103886000D01*
X152400000Y-102870000D02*
X152400000Y-86360000D01*
X147320000Y-104140000D02*
X149860000Y-106680000D01*
X149860000Y-106680000D02*
X152400000Y-104140000D01*
X147320000Y-102870000D02*
X148082000Y-103378000D01*
X148082000Y-103378000D02*
X147320000Y-103886000D01*
X147320000Y-86360000D02*
X147320000Y-102870000D01*
X156210000Y-95250000D02*
X156210000Y-92075000D01*
X155575000Y-98425000D02*
X155575000Y-95250000D01*
X156210000Y-101600000D02*
X156210000Y-98425000D01*
X155575000Y-104775000D02*
X155575000Y-101600000D01*
X156210000Y-107315000D02*
X156210000Y-104775000D01*
X140335000Y-104775000D02*
X140335000Y-107315000D01*
X140970000Y-101600000D02*
X140970000Y-104775000D01*
X140970000Y-98425000D02*
X140335000Y-98425000D01*
X140335000Y-98425000D02*
X140335000Y-101600000D01*
X140970000Y-95250000D02*
X140970000Y-98425000D01*
X140335000Y-92075000D02*
X140335000Y-95250000D01*
X140970000Y-88900000D02*
X140970000Y-92075000D01*
X140335000Y-86360000D02*
X140335000Y-88900000D01*
X140335000Y-104775000D02*
X156210000Y-104775000D01*
X140335000Y-101600000D02*
X156210000Y-101600000D01*
X140335000Y-98425000D02*
X156210000Y-98425000D01*
X140335000Y-95250000D02*
X156210000Y-95250000D01*
X140335000Y-92075000D02*
X156210000Y-92075000D01*
X140335000Y-88900000D02*
X156210000Y-88900000D01*
X152400000Y-110490000D02*
X153670000Y-107315000D01*
X147320000Y-110490000D02*
X146050000Y-107315000D01*
X147320000Y-110490000D02*
X152400000Y-110490000D01*
X140335000Y-86360000D02*
X156210000Y-86360000D01*
X156210000Y-107315000D02*
X140335000Y-107315000D01*
X201295000Y-92075000D02*
X201295000Y-88900000D01*
X201930000Y-88900000D02*
X201930000Y-86360000D01*
X193040000Y-93980000D02*
X198120000Y-93980000D01*
X193040000Y-100584000D02*
X198120000Y-100584000D01*
X198120000Y-102870000D02*
X197612000Y-103378000D01*
X197612000Y-103378000D02*
X198120000Y-103886000D01*
X198120000Y-104140000D02*
X198120000Y-103886000D01*
X193040000Y-104140000D02*
X193040000Y-103886000D01*
X198120000Y-102870000D02*
X198120000Y-86360000D01*
X193040000Y-104140000D02*
X195580000Y-106680000D01*
X195580000Y-106680000D02*
X198120000Y-104140000D01*
X193040000Y-102870000D02*
X193802000Y-103378000D01*
X193802000Y-103378000D02*
X193040000Y-103886000D01*
X193040000Y-86360000D02*
X193040000Y-102870000D01*
X201930000Y-95250000D02*
X201930000Y-92075000D01*
X201295000Y-98425000D02*
X201295000Y-95250000D01*
X201930000Y-101600000D02*
X201930000Y-98425000D01*
X201295000Y-104775000D02*
X201295000Y-101600000D01*
X201930000Y-107315000D02*
X201930000Y-104775000D01*
X186055000Y-104775000D02*
X186055000Y-107315000D01*
X186690000Y-101600000D02*
X186690000Y-104775000D01*
X186690000Y-98425000D02*
X186055000Y-98425000D01*
X186055000Y-98425000D02*
X186055000Y-101600000D01*
X186690000Y-95250000D02*
X186690000Y-98425000D01*
X186055000Y-92075000D02*
X186055000Y-95250000D01*
X186690000Y-88900000D02*
X186690000Y-92075000D01*
X186055000Y-86360000D02*
X186055000Y-88900000D01*
X186055000Y-104775000D02*
X201930000Y-104775000D01*
X186055000Y-101600000D02*
X201930000Y-101600000D01*
X186055000Y-98425000D02*
X201930000Y-98425000D01*
X186055000Y-95250000D02*
X201930000Y-95250000D01*
X186055000Y-92075000D02*
X201930000Y-92075000D01*
X186055000Y-88900000D02*
X201930000Y-88900000D01*
X198120000Y-110490000D02*
X199390000Y-107315000D01*
X193040000Y-110490000D02*
X191770000Y-107315000D01*
X193040000Y-110490000D02*
X198120000Y-110490000D01*
X186055000Y-86360000D02*
X201930000Y-86360000D01*
X201930000Y-107315000D02*
X186055000Y-107315000D01*
X183515000Y-92075000D02*
X183515000Y-88900000D01*
X184150000Y-88900000D02*
X184150000Y-86360000D01*
X175260000Y-93980000D02*
X180340000Y-93980000D01*
X175260000Y-100584000D02*
X180340000Y-100584000D01*
X180340000Y-102870000D02*
X179832000Y-103378000D01*
X179832000Y-103378000D02*
X180340000Y-103886000D01*
X180340000Y-104140000D02*
X180340000Y-103886000D01*
X175260000Y-104140000D02*
X175260000Y-103886000D01*
X180340000Y-102870000D02*
X180340000Y-86360000D01*
X175260000Y-104140000D02*
X177800000Y-106680000D01*
X177800000Y-106680000D02*
X180340000Y-104140000D01*
X175260000Y-102870000D02*
X176022000Y-103378000D01*
X176022000Y-103378000D02*
X175260000Y-103886000D01*
X175260000Y-86360000D02*
X175260000Y-102870000D01*
X184150000Y-95250000D02*
X184150000Y-92075000D01*
X183515000Y-98425000D02*
X183515000Y-95250000D01*
X184150000Y-101600000D02*
X184150000Y-98425000D01*
X183515000Y-104775000D02*
X183515000Y-101600000D01*
X184150000Y-107315000D02*
X184150000Y-104775000D01*
X168275000Y-104775000D02*
X168275000Y-107315000D01*
X168910000Y-101600000D02*
X168910000Y-104775000D01*
X168910000Y-98425000D02*
X168275000Y-98425000D01*
X168275000Y-98425000D02*
X168275000Y-101600000D01*
X168910000Y-95250000D02*
X168910000Y-98425000D01*
X168275000Y-92075000D02*
X168275000Y-95250000D01*
X168910000Y-88900000D02*
X168910000Y-92075000D01*
X168275000Y-86360000D02*
X168275000Y-88900000D01*
X168275000Y-104775000D02*
X184150000Y-104775000D01*
X168275000Y-101600000D02*
X184150000Y-101600000D01*
X168275000Y-98425000D02*
X184150000Y-98425000D01*
X168275000Y-95250000D02*
X184150000Y-95250000D01*
X168275000Y-92075000D02*
X184150000Y-92075000D01*
X168275000Y-88900000D02*
X184150000Y-88900000D01*
X180340000Y-110490000D02*
X181610000Y-107315000D01*
X175260000Y-110490000D02*
X173990000Y-107315000D01*
X175260000Y-110490000D02*
X180340000Y-110490000D01*
X168275000Y-86360000D02*
X184150000Y-86360000D01*
X184150000Y-107315000D02*
X168275000Y-107315000D01*
X169184000Y-117344000D02*
X169184000Y-114344000D01*
X171684000Y-114344000D02*
X171684000Y-117344000D01*
X187599000Y-119249000D02*
X187599000Y-116249000D01*
X190099000Y-116249000D02*
X190099000Y-119249000D01*
X167894000Y-130556000D02*
X170434000Y-130556000D01*
X165074000Y-130276000D02*
X166624000Y-130276000D01*
X167894000Y-130556000D02*
X167894000Y-133096000D01*
X166624000Y-133376000D02*
X165074000Y-133376000D01*
X165074000Y-133376000D02*
X165074000Y-130276000D01*
X167894000Y-133096000D02*
X170434000Y-133096000D01*
X170434000Y-133096000D02*
X170434000Y-130556000D01*
X172974000Y-133096000D02*
X170434000Y-133096000D01*
X175794000Y-133376000D02*
X174244000Y-133376000D01*
X172974000Y-133096000D02*
X172974000Y-130556000D01*
X174244000Y-130276000D02*
X175794000Y-130276000D01*
X175794000Y-130276000D02*
X175794000Y-133376000D01*
X172974000Y-130556000D02*
X170434000Y-130556000D01*
X170434000Y-130556000D02*
X170434000Y-133096000D01*
X107950000Y-130810000D02*
X110490000Y-130810000D01*
X105130000Y-130530000D02*
X106680000Y-130530000D01*
X107950000Y-130810000D02*
X107950000Y-133350000D01*
X106680000Y-133630000D02*
X105130000Y-133630000D01*
X105130000Y-133630000D02*
X105130000Y-130530000D01*
X107950000Y-133350000D02*
X110490000Y-133350000D01*
X110490000Y-133350000D02*
X110490000Y-130810000D01*
X113030000Y-133350000D02*
X110490000Y-133350000D01*
X115850000Y-133630000D02*
X114300000Y-133630000D01*
X113030000Y-133350000D02*
X113030000Y-130810000D01*
X114300000Y-130530000D02*
X115850000Y-130530000D01*
X115850000Y-130530000D02*
X115850000Y-133630000D01*
X113030000Y-130810000D02*
X110490000Y-130810000D01*
X110490000Y-130810000D02*
X110490000Y-133350000D01*
X125730000Y-130810000D02*
X128270000Y-130810000D01*
X122910000Y-130530000D02*
X124460000Y-130530000D01*
X125730000Y-130810000D02*
X125730000Y-133350000D01*
X124460000Y-133630000D02*
X122910000Y-133630000D01*
X122910000Y-133630000D02*
X122910000Y-130530000D01*
X125730000Y-133350000D02*
X128270000Y-133350000D01*
X128270000Y-133350000D02*
X128270000Y-130810000D01*
X130810000Y-133350000D02*
X128270000Y-133350000D01*
X133630000Y-133630000D02*
X132080000Y-133630000D01*
X130810000Y-133350000D02*
X130810000Y-130810000D01*
X132080000Y-130530000D02*
X133630000Y-130530000D01*
X133630000Y-130530000D02*
X133630000Y-133630000D01*
X130810000Y-130810000D02*
X128270000Y-130810000D01*
X128270000Y-130810000D02*
X128270000Y-133350000D01*
X143510000Y-130810000D02*
X146050000Y-130810000D01*
X140690000Y-130530000D02*
X142240000Y-130530000D01*
X143510000Y-130810000D02*
X143510000Y-133350000D01*
X142240000Y-133630000D02*
X140690000Y-133630000D01*
X140690000Y-133630000D02*
X140690000Y-130530000D01*
X143510000Y-133350000D02*
X146050000Y-133350000D01*
X146050000Y-133350000D02*
X146050000Y-130810000D01*
X148590000Y-133350000D02*
X146050000Y-133350000D01*
X151410000Y-133630000D02*
X149860000Y-133630000D01*
X148590000Y-133350000D02*
X148590000Y-130810000D01*
X149860000Y-130530000D02*
X151410000Y-130530000D01*
X151410000Y-130530000D02*
X151410000Y-133630000D01*
X148590000Y-130810000D02*
X146050000Y-130810000D01*
X146050000Y-130810000D02*
X146050000Y-133350000D01*
X105410000Y-119380000D02*
X105410000Y-114300000D01*
X105410000Y-114300000D02*
X107950000Y-114300000D01*
X107950000Y-114300000D02*
X107950000Y-119380000D01*
X107950000Y-119380000D02*
X105410000Y-119380000D01*
X113030000Y-119380000D02*
X113030000Y-114300000D01*
X113030000Y-114300000D02*
X115570000Y-114300000D01*
X115570000Y-114300000D02*
X115570000Y-119380000D01*
X115570000Y-119380000D02*
X113030000Y-119380000D01*
X123190000Y-119380000D02*
X123190000Y-114300000D01*
X123190000Y-114300000D02*
X125730000Y-114300000D01*
X125730000Y-114300000D02*
X125730000Y-119380000D01*
X125730000Y-119380000D02*
X123190000Y-119380000D01*
X130810000Y-119380000D02*
X130810000Y-114300000D01*
X130810000Y-114300000D02*
X133350000Y-114300000D01*
X133350000Y-114300000D02*
X133350000Y-119380000D01*
X133350000Y-119380000D02*
X130810000Y-119380000D01*
X140970000Y-119380000D02*
X140970000Y-114300000D01*
X140970000Y-114300000D02*
X143510000Y-114300000D01*
X143510000Y-114300000D02*
X143510000Y-119380000D01*
X143510000Y-119380000D02*
X140970000Y-119380000D01*
X147320000Y-119380000D02*
X147320000Y-114300000D01*
X147320000Y-114300000D02*
X149860000Y-114300000D01*
X149860000Y-114300000D02*
X149860000Y-119380000D01*
X149860000Y-119380000D02*
X147320000Y-119380000D01*
X158750000Y-96520000D02*
X158750000Y-91440000D01*
X158750000Y-91440000D02*
X161290000Y-91440000D01*
X161290000Y-91440000D02*
X161290000Y-96520000D01*
X161290000Y-96520000D02*
X158750000Y-96520000D01*
X161925000Y-96520000D02*
X161925000Y-91440000D01*
X161925000Y-91440000D02*
X164465000Y-91440000D01*
X164465000Y-91440000D02*
X164465000Y-96520000D01*
X164465000Y-96520000D02*
X161925000Y-96520000D01*
X171704000Y-120904000D02*
X171704000Y-115824000D01*
X171704000Y-115824000D02*
X174244000Y-115824000D01*
X174244000Y-115824000D02*
X174244000Y-120904000D01*
X174244000Y-120904000D02*
X171704000Y-120904000D01*
X184404000Y-120904000D02*
X184404000Y-115824000D01*
X184404000Y-115824000D02*
X186944000Y-115824000D01*
X186944000Y-115824000D02*
X186944000Y-120904000D01*
X186944000Y-120904000D02*
X184404000Y-120904000D01*
D12*
X162052000Y-110236000D02*
X159512000Y-110236000D01*
X162052000Y-107696000D02*
X159512000Y-107696000D01*
X159512000Y-107696000D02*
X159512000Y-120396000D01*
X159512000Y-120396000D02*
X162052000Y-120396000D01*
X162052000Y-120396000D02*
X162052000Y-107696000D01*
D11*
X175649000Y-114799000D02*
X175649000Y-116069000D01*
X182999000Y-114799000D02*
X182999000Y-116069000D01*
X182999000Y-127009000D02*
X182999000Y-125739000D01*
X175649000Y-127009000D02*
X175649000Y-125739000D01*
X175649000Y-114799000D02*
X182999000Y-114799000D01*
X175649000Y-127009000D02*
X182999000Y-127009000D01*
X175649000Y-116069000D02*
X174714000Y-116069000D01*
X190145000Y-123135000D02*
X196443000Y-123135000D01*
X190151000Y-122995000D02*
X196437000Y-122995000D01*
X190164000Y-122855000D02*
X192848000Y-122855000D01*
X193740000Y-122855000D02*
X196424000Y-122855000D01*
X190183000Y-122715000D02*
X192638000Y-122715000D01*
X193950000Y-122715000D02*
X196405000Y-122715000D01*
X190209000Y-122575000D02*
X192505000Y-122575000D01*
X194083000Y-122575000D02*
X196379000Y-122575000D01*
X190241000Y-122435000D02*
X192414000Y-122435000D01*
X194174000Y-122435000D02*
X196347000Y-122435000D01*
X190280000Y-122295000D02*
X192352000Y-122295000D01*
X194236000Y-122295000D02*
X196308000Y-122295000D01*
X190326000Y-122155000D02*
X192313000Y-122155000D01*
X194275000Y-122155000D02*
X196262000Y-122155000D01*
X190379000Y-122015000D02*
X192296000Y-122015000D01*
X194292000Y-122015000D02*
X196209000Y-122015000D01*
X190441000Y-121875000D02*
X192298000Y-121875000D01*
X194290000Y-121875000D02*
X196147000Y-121875000D01*
X190511000Y-121735000D02*
X192320000Y-121735000D01*
X194268000Y-121735000D02*
X196077000Y-121735000D01*
X190590000Y-121595000D02*
X192363000Y-121595000D01*
X194225000Y-121595000D02*
X195998000Y-121595000D01*
X190678000Y-121455000D02*
X192431000Y-121455000D01*
X194157000Y-121455000D02*
X195910000Y-121455000D01*
X190778000Y-121315000D02*
X192530000Y-121315000D01*
X194058000Y-121315000D02*
X195810000Y-121315000D01*
X190890000Y-121175000D02*
X192675000Y-121175000D01*
X193913000Y-121175000D02*
X195698000Y-121175000D01*
X191015000Y-121035000D02*
X192914000Y-121035000D01*
X193674000Y-121035000D02*
X195573000Y-121035000D01*
X191158000Y-120895000D02*
X195430000Y-120895000D01*
X191320000Y-120755000D02*
X195268000Y-120755000D01*
X191508000Y-120615000D02*
X195080000Y-120615000D01*
X191731000Y-120475000D02*
X194857000Y-120475000D01*
X192007000Y-120335000D02*
X194581000Y-120335000D01*
X192382000Y-120195000D02*
X194206000Y-120195000D01*
X194294000Y-121960000D02*
G75*
G03X194294000Y-121960000I-1000000J0D01*
G01*
X196481500Y-123210000D02*
G75*
G03X196481500Y-123210000I-3187500J0D01*
G01*
X185446000Y-130120000D02*
X191744000Y-130120000D01*
X185452000Y-129980000D02*
X191738000Y-129980000D01*
X185465000Y-129840000D02*
X188149000Y-129840000D01*
X189041000Y-129840000D02*
X191725000Y-129840000D01*
X185484000Y-129700000D02*
X187939000Y-129700000D01*
X189251000Y-129700000D02*
X191706000Y-129700000D01*
X185510000Y-129560000D02*
X187806000Y-129560000D01*
X189384000Y-129560000D02*
X191680000Y-129560000D01*
X185542000Y-129420000D02*
X187715000Y-129420000D01*
X189475000Y-129420000D02*
X191648000Y-129420000D01*
X185581000Y-129280000D02*
X187653000Y-129280000D01*
X189537000Y-129280000D02*
X191609000Y-129280000D01*
X185627000Y-129140000D02*
X187614000Y-129140000D01*
X189576000Y-129140000D02*
X191563000Y-129140000D01*
X185680000Y-129000000D02*
X187597000Y-129000000D01*
X189593000Y-129000000D02*
X191510000Y-129000000D01*
X185742000Y-128860000D02*
X187599000Y-128860000D01*
X189591000Y-128860000D02*
X191448000Y-128860000D01*
X185812000Y-128720000D02*
X187621000Y-128720000D01*
X189569000Y-128720000D02*
X191378000Y-128720000D01*
X185891000Y-128580000D02*
X187664000Y-128580000D01*
X189526000Y-128580000D02*
X191299000Y-128580000D01*
X185979000Y-128440000D02*
X187732000Y-128440000D01*
X189458000Y-128440000D02*
X191211000Y-128440000D01*
X186079000Y-128300000D02*
X187831000Y-128300000D01*
X189359000Y-128300000D02*
X191111000Y-128300000D01*
X186191000Y-128160000D02*
X187976000Y-128160000D01*
X189214000Y-128160000D02*
X190999000Y-128160000D01*
X186316000Y-128020000D02*
X188215000Y-128020000D01*
X188975000Y-128020000D02*
X190874000Y-128020000D01*
X186459000Y-127880000D02*
X190731000Y-127880000D01*
X186621000Y-127740000D02*
X190569000Y-127740000D01*
X186809000Y-127600000D02*
X190381000Y-127600000D01*
X187032000Y-127460000D02*
X190158000Y-127460000D01*
X187308000Y-127320000D02*
X189882000Y-127320000D01*
X187683000Y-127180000D02*
X189507000Y-127180000D01*
X189595000Y-128945000D02*
G75*
G03X189595000Y-128945000I-1000000J0D01*
G01*
X191782500Y-130195000D02*
G75*
G03X191782500Y-130195000I-3187500J0D01*
G01*
X183130000Y-114534000D02*
X180130000Y-114534000D01*
X180130000Y-112034000D02*
X183130000Y-112034000D01*
X170438000Y-124226000D02*
X173438000Y-124226000D01*
X173438000Y-126726000D02*
X170438000Y-126726000D01*
X197104000Y-133604000D02*
X202184000Y-133604000D01*
X202184000Y-133604000D02*
X202184000Y-131064000D01*
X202184000Y-131064000D02*
X197104000Y-131064000D01*
X194284000Y-130784000D02*
X195834000Y-130784000D01*
X197104000Y-131064000D02*
X197104000Y-133604000D01*
X195834000Y-133884000D02*
X194284000Y-133884000D01*
X194284000Y-133884000D02*
X194284000Y-130784000D01*
X165100000Y-103886000D02*
X165100000Y-106426000D01*
X165380000Y-101066000D02*
X165380000Y-102616000D01*
X165100000Y-103886000D02*
X162560000Y-103886000D01*
X162280000Y-102616000D02*
X162280000Y-101066000D01*
X162280000Y-101066000D02*
X165380000Y-101066000D01*
X162560000Y-103886000D02*
X162560000Y-106426000D01*
X162560000Y-106426000D02*
X165100000Y-106426000D01*
X161290000Y-103759000D02*
X161290000Y-106299000D01*
X161570000Y-100939000D02*
X161570000Y-102489000D01*
X161290000Y-103759000D02*
X158750000Y-103759000D01*
X158470000Y-102489000D02*
X158470000Y-100939000D01*
X158470000Y-100939000D02*
X161570000Y-100939000D01*
X158750000Y-103759000D02*
X158750000Y-106299000D01*
X158750000Y-106299000D02*
X161290000Y-106299000D01*
D13*
X158694725Y-128802795D02*
X158218172Y-129136382D01*
X158694725Y-129374658D02*
X157693965Y-129374658D01*
X157693965Y-128993416D01*
X157741620Y-128898105D01*
X157789275Y-128850450D01*
X157884586Y-128802795D01*
X158027551Y-128802795D01*
X158122862Y-128850450D01*
X158170517Y-128898105D01*
X158218172Y-128993416D01*
X158218172Y-129374658D01*
X158694725Y-127802035D02*
X158218172Y-128135622D01*
X158694725Y-128373898D02*
X157693965Y-128373898D01*
X157693965Y-127992656D01*
X157741620Y-127897345D01*
X157789275Y-127849690D01*
X157884586Y-127802035D01*
X158027551Y-127802035D01*
X158122862Y-127849690D01*
X158170517Y-127897345D01*
X158218172Y-127992656D01*
X158218172Y-128373898D01*
X158694725Y-126848930D02*
X158694725Y-127420793D01*
X158694725Y-127134862D02*
X157693965Y-127134862D01*
X157836930Y-127230172D01*
X157932241Y-127325483D01*
X157979896Y-127420793D01*
X157693965Y-126229412D02*
X157693965Y-126134101D01*
X157741620Y-126038791D01*
X157789275Y-125991136D01*
X157884586Y-125943480D01*
X158075207Y-125895825D01*
X158313483Y-125895825D01*
X158504104Y-125943480D01*
X158599414Y-125991136D01*
X158647070Y-126038791D01*
X158694725Y-126134101D01*
X158694725Y-126229412D01*
X158647070Y-126324722D01*
X158599414Y-126372378D01*
X158504104Y-126420033D01*
X158313483Y-126467688D01*
X158075207Y-126467688D01*
X157884586Y-126420033D01*
X157789275Y-126372378D01*
X157741620Y-126324722D01*
X157693965Y-126229412D01*
X158694725Y-125466928D02*
X157693965Y-125466928D01*
X158313483Y-125371617D02*
X158694725Y-125085686D01*
X158027551Y-125085686D02*
X158408793Y-125466928D01*
D11*
X113966667Y-87336381D02*
X113966667Y-88050667D01*
X113919047Y-88193524D01*
X113823809Y-88288762D01*
X113680952Y-88336381D01*
X113585714Y-88336381D01*
X114966667Y-88336381D02*
X114395238Y-88336381D01*
X114680952Y-88336381D02*
X114680952Y-87336381D01*
X114585714Y-87479238D01*
X114490476Y-87574476D01*
X114395238Y-87622095D01*
X106958000Y-88034762D02*
X107100857Y-88082381D01*
X107338953Y-88082381D01*
X107434191Y-88034762D01*
X107481810Y-87987143D01*
X107529429Y-87891905D01*
X107529429Y-87796667D01*
X107481810Y-87701429D01*
X107434191Y-87653810D01*
X107338953Y-87606190D01*
X107148476Y-87558571D01*
X107053238Y-87510952D01*
X107005619Y-87463333D01*
X106958000Y-87368095D01*
X106958000Y-87272857D01*
X107005619Y-87177619D01*
X107053238Y-87130000D01*
X107148476Y-87082381D01*
X107386572Y-87082381D01*
X107529429Y-87130000D01*
X107958000Y-88082381D02*
X107958000Y-87082381D01*
X108434190Y-88082381D02*
X108434190Y-87082381D01*
X108672285Y-87082381D01*
X108815143Y-87130000D01*
X108910381Y-87225238D01*
X108958000Y-87320476D01*
X109005619Y-87510952D01*
X109005619Y-87653810D01*
X108958000Y-87844286D01*
X108910381Y-87939524D01*
X108815143Y-88034762D01*
X108672285Y-88082381D01*
X108434190Y-88082381D01*
X109386571Y-87177619D02*
X109434190Y-87130000D01*
X109529428Y-87082381D01*
X109767524Y-87082381D01*
X109862762Y-87130000D01*
X109910381Y-87177619D01*
X109958000Y-87272857D01*
X109958000Y-87368095D01*
X109910381Y-87510952D01*
X109338952Y-88082381D01*
X109958000Y-88082381D01*
X131746667Y-87336381D02*
X131746667Y-88050667D01*
X131699047Y-88193524D01*
X131603809Y-88288762D01*
X131460952Y-88336381D01*
X131365714Y-88336381D01*
X132175238Y-87431619D02*
X132222857Y-87384000D01*
X132318095Y-87336381D01*
X132556191Y-87336381D01*
X132651429Y-87384000D01*
X132699048Y-87431619D01*
X132746667Y-87526857D01*
X132746667Y-87622095D01*
X132699048Y-87764952D01*
X132127619Y-88336381D01*
X132746667Y-88336381D01*
X124738000Y-88034762D02*
X124880857Y-88082381D01*
X125118953Y-88082381D01*
X125214191Y-88034762D01*
X125261810Y-87987143D01*
X125309429Y-87891905D01*
X125309429Y-87796667D01*
X125261810Y-87701429D01*
X125214191Y-87653810D01*
X125118953Y-87606190D01*
X124928476Y-87558571D01*
X124833238Y-87510952D01*
X124785619Y-87463333D01*
X124738000Y-87368095D01*
X124738000Y-87272857D01*
X124785619Y-87177619D01*
X124833238Y-87130000D01*
X124928476Y-87082381D01*
X125166572Y-87082381D01*
X125309429Y-87130000D01*
X125738000Y-88082381D02*
X125738000Y-87082381D01*
X126214190Y-88082381D02*
X126214190Y-87082381D01*
X126452285Y-87082381D01*
X126595143Y-87130000D01*
X126690381Y-87225238D01*
X126738000Y-87320476D01*
X126785619Y-87510952D01*
X126785619Y-87653810D01*
X126738000Y-87844286D01*
X126690381Y-87939524D01*
X126595143Y-88034762D01*
X126452285Y-88082381D01*
X126214190Y-88082381D01*
X127118952Y-87082381D02*
X127738000Y-87082381D01*
X127404666Y-87463333D01*
X127547524Y-87463333D01*
X127642762Y-87510952D01*
X127690381Y-87558571D01*
X127738000Y-87653810D01*
X127738000Y-87891905D01*
X127690381Y-87987143D01*
X127642762Y-88034762D01*
X127547524Y-88082381D01*
X127261809Y-88082381D01*
X127166571Y-88034762D01*
X127118952Y-87987143D01*
X149526667Y-87336381D02*
X149526667Y-88050667D01*
X149479047Y-88193524D01*
X149383809Y-88288762D01*
X149240952Y-88336381D01*
X149145714Y-88336381D01*
X149907619Y-87336381D02*
X150526667Y-87336381D01*
X150193333Y-87717333D01*
X150336191Y-87717333D01*
X150431429Y-87764952D01*
X150479048Y-87812571D01*
X150526667Y-87907810D01*
X150526667Y-88145905D01*
X150479048Y-88241143D01*
X150431429Y-88288762D01*
X150336191Y-88336381D01*
X150050476Y-88336381D01*
X149955238Y-88288762D01*
X149907619Y-88241143D01*
X142518000Y-88034762D02*
X142660857Y-88082381D01*
X142898953Y-88082381D01*
X142994191Y-88034762D01*
X143041810Y-87987143D01*
X143089429Y-87891905D01*
X143089429Y-87796667D01*
X143041810Y-87701429D01*
X142994191Y-87653810D01*
X142898953Y-87606190D01*
X142708476Y-87558571D01*
X142613238Y-87510952D01*
X142565619Y-87463333D01*
X142518000Y-87368095D01*
X142518000Y-87272857D01*
X142565619Y-87177619D01*
X142613238Y-87130000D01*
X142708476Y-87082381D01*
X142946572Y-87082381D01*
X143089429Y-87130000D01*
X143518000Y-88082381D02*
X143518000Y-87082381D01*
X143994190Y-88082381D02*
X143994190Y-87082381D01*
X144232285Y-87082381D01*
X144375143Y-87130000D01*
X144470381Y-87225238D01*
X144518000Y-87320476D01*
X144565619Y-87510952D01*
X144565619Y-87653810D01*
X144518000Y-87844286D01*
X144470381Y-87939524D01*
X144375143Y-88034762D01*
X144232285Y-88082381D01*
X143994190Y-88082381D01*
X145422762Y-87415714D02*
X145422762Y-88082381D01*
X145184666Y-87034762D02*
X144946571Y-87749048D01*
X145565619Y-87749048D01*
X195246667Y-87336381D02*
X195246667Y-88050667D01*
X195199047Y-88193524D01*
X195103809Y-88288762D01*
X194960952Y-88336381D01*
X194865714Y-88336381D01*
X196151429Y-87669714D02*
X196151429Y-88336381D01*
X195913333Y-87288762D02*
X195675238Y-88003048D01*
X196294286Y-88003048D01*
X185872381Y-93431905D02*
X184872381Y-93431905D01*
X185586667Y-93098571D01*
X184872381Y-92765238D01*
X185872381Y-92765238D01*
X185872381Y-91860476D02*
X185348571Y-91860476D01*
X185253333Y-91908095D01*
X185205714Y-92003333D01*
X185205714Y-92193810D01*
X185253333Y-92289048D01*
X185824762Y-91860476D02*
X185872381Y-91955714D01*
X185872381Y-92193810D01*
X185824762Y-92289048D01*
X185729524Y-92336667D01*
X185634286Y-92336667D01*
X185539048Y-92289048D01*
X185491429Y-92193810D01*
X185491429Y-91955714D01*
X185443810Y-91860476D01*
X185872381Y-91384286D02*
X185205714Y-91384286D01*
X184872381Y-91384286D02*
X184920000Y-91431905D01*
X184967619Y-91384286D01*
X184920000Y-91336667D01*
X184872381Y-91384286D01*
X184967619Y-91384286D01*
X185205714Y-90908096D02*
X185872381Y-90908096D01*
X185300952Y-90908096D02*
X185253333Y-90860477D01*
X185205714Y-90765239D01*
X185205714Y-90622381D01*
X185253333Y-90527143D01*
X185348571Y-90479524D01*
X185872381Y-90479524D01*
X185872381Y-88765238D02*
X185872381Y-89241429D01*
X184872381Y-89241429D01*
X185824762Y-88050952D02*
X185872381Y-88146190D01*
X185872381Y-88336667D01*
X185824762Y-88431905D01*
X185729524Y-88479524D01*
X185348571Y-88479524D01*
X185253333Y-88431905D01*
X185205714Y-88336667D01*
X185205714Y-88146190D01*
X185253333Y-88050952D01*
X185348571Y-88003333D01*
X185443810Y-88003333D01*
X185539048Y-88479524D01*
X185205714Y-87717619D02*
X185205714Y-87336667D01*
X185872381Y-87574762D02*
X185015238Y-87574762D01*
X184920000Y-87527143D01*
X184872381Y-87431905D01*
X184872381Y-87336667D01*
X185205714Y-87146190D02*
X185205714Y-86765238D01*
X184872381Y-87003333D02*
X185729524Y-87003333D01*
X185824762Y-86955714D01*
X185872381Y-86860476D01*
X185872381Y-86765238D01*
X177466667Y-87336381D02*
X177466667Y-88050667D01*
X177419047Y-88193524D01*
X177323809Y-88288762D01*
X177180952Y-88336381D01*
X177085714Y-88336381D01*
X178419048Y-87336381D02*
X177942857Y-87336381D01*
X177895238Y-87812571D01*
X177942857Y-87764952D01*
X178038095Y-87717333D01*
X178276191Y-87717333D01*
X178371429Y-87764952D01*
X178419048Y-87812571D01*
X178466667Y-87907810D01*
X178466667Y-88145905D01*
X178419048Y-88241143D01*
X178371429Y-88288762D01*
X178276191Y-88336381D01*
X178038095Y-88336381D01*
X177942857Y-88288762D01*
X177895238Y-88241143D01*
X167457381Y-94590714D02*
X166457381Y-94590714D01*
X167171667Y-94257380D01*
X166457381Y-93924047D01*
X167457381Y-93924047D01*
X167457381Y-93019285D02*
X166933571Y-93019285D01*
X166838333Y-93066904D01*
X166790714Y-93162142D01*
X166790714Y-93352619D01*
X166838333Y-93447857D01*
X167409762Y-93019285D02*
X167457381Y-93114523D01*
X167457381Y-93352619D01*
X167409762Y-93447857D01*
X167314524Y-93495476D01*
X167219286Y-93495476D01*
X167124048Y-93447857D01*
X167076429Y-93352619D01*
X167076429Y-93114523D01*
X167028810Y-93019285D01*
X167457381Y-92543095D02*
X166790714Y-92543095D01*
X166457381Y-92543095D02*
X166505000Y-92590714D01*
X166552619Y-92543095D01*
X166505000Y-92495476D01*
X166457381Y-92543095D01*
X166552619Y-92543095D01*
X166790714Y-92066905D02*
X167457381Y-92066905D01*
X166885952Y-92066905D02*
X166838333Y-92019286D01*
X166790714Y-91924048D01*
X166790714Y-91781190D01*
X166838333Y-91685952D01*
X166933571Y-91638333D01*
X167457381Y-91638333D01*
X167457381Y-89828809D02*
X166981190Y-90162143D01*
X167457381Y-90400238D02*
X166457381Y-90400238D01*
X166457381Y-90019285D01*
X166505000Y-89924047D01*
X166552619Y-89876428D01*
X166647857Y-89828809D01*
X166790714Y-89828809D01*
X166885952Y-89876428D01*
X166933571Y-89924047D01*
X166981190Y-90019285D01*
X166981190Y-90400238D01*
X167457381Y-89400238D02*
X166790714Y-89400238D01*
X166457381Y-89400238D02*
X166505000Y-89447857D01*
X166552619Y-89400238D01*
X166505000Y-89352619D01*
X166457381Y-89400238D01*
X166552619Y-89400238D01*
X166790714Y-88495476D02*
X167600238Y-88495476D01*
X167695476Y-88543095D01*
X167743095Y-88590714D01*
X167790714Y-88685953D01*
X167790714Y-88828810D01*
X167743095Y-88924048D01*
X167409762Y-88495476D02*
X167457381Y-88590714D01*
X167457381Y-88781191D01*
X167409762Y-88876429D01*
X167362143Y-88924048D01*
X167266905Y-88971667D01*
X166981190Y-88971667D01*
X166885952Y-88924048D01*
X166838333Y-88876429D01*
X166790714Y-88781191D01*
X166790714Y-88590714D01*
X166838333Y-88495476D01*
X167457381Y-88019286D02*
X166457381Y-88019286D01*
X167457381Y-87590714D02*
X166933571Y-87590714D01*
X166838333Y-87638333D01*
X166790714Y-87733571D01*
X166790714Y-87876429D01*
X166838333Y-87971667D01*
X166885952Y-88019286D01*
X166790714Y-87257381D02*
X166790714Y-86876429D01*
X166457381Y-87114524D02*
X167314524Y-87114524D01*
X167409762Y-87066905D01*
X167457381Y-86971667D01*
X167457381Y-86876429D01*
X170267334Y-119356143D02*
X170219715Y-119403762D01*
X170076858Y-119451381D01*
X169981620Y-119451381D01*
X169838762Y-119403762D01*
X169743524Y-119308524D01*
X169695905Y-119213286D01*
X169648286Y-119022810D01*
X169648286Y-118879952D01*
X169695905Y-118689476D01*
X169743524Y-118594238D01*
X169838762Y-118499000D01*
X169981620Y-118451381D01*
X170076858Y-118451381D01*
X170219715Y-118499000D01*
X170267334Y-118546619D01*
X171219715Y-119451381D02*
X170648286Y-119451381D01*
X170934000Y-119451381D02*
X170934000Y-118451381D01*
X170838762Y-118594238D01*
X170743524Y-118689476D01*
X170648286Y-118737095D01*
X168346381Y-116943047D02*
X168346381Y-117514476D01*
X168346381Y-117228762D02*
X167346381Y-117228762D01*
X167489238Y-117324000D01*
X167584476Y-117419238D01*
X167632095Y-117514476D01*
X167346381Y-116324000D02*
X167346381Y-116228761D01*
X167394000Y-116133523D01*
X167441619Y-116085904D01*
X167536857Y-116038285D01*
X167727333Y-115990666D01*
X167965429Y-115990666D01*
X168155905Y-116038285D01*
X168251143Y-116085904D01*
X168298762Y-116133523D01*
X168346381Y-116228761D01*
X168346381Y-116324000D01*
X168298762Y-116419238D01*
X168251143Y-116466857D01*
X168155905Y-116514476D01*
X167965429Y-116562095D01*
X167727333Y-116562095D01*
X167536857Y-116514476D01*
X167441619Y-116466857D01*
X167394000Y-116419238D01*
X167346381Y-116324000D01*
X167346381Y-115371619D02*
X167346381Y-115276380D01*
X167394000Y-115181142D01*
X167441619Y-115133523D01*
X167536857Y-115085904D01*
X167727333Y-115038285D01*
X167965429Y-115038285D01*
X168155905Y-115085904D01*
X168251143Y-115133523D01*
X168298762Y-115181142D01*
X168346381Y-115276380D01*
X168346381Y-115371619D01*
X168298762Y-115466857D01*
X168251143Y-115514476D01*
X168155905Y-115562095D01*
X167965429Y-115609714D01*
X167727333Y-115609714D01*
X167536857Y-115562095D01*
X167441619Y-115514476D01*
X167394000Y-115466857D01*
X167346381Y-115371619D01*
X167679714Y-114609714D02*
X168679714Y-114609714D01*
X167727333Y-114609714D02*
X167679714Y-114514476D01*
X167679714Y-114323999D01*
X167727333Y-114228761D01*
X167774952Y-114181142D01*
X167870190Y-114133523D01*
X168155905Y-114133523D01*
X168251143Y-114181142D01*
X168298762Y-114228761D01*
X168346381Y-114323999D01*
X168346381Y-114514476D01*
X168298762Y-114609714D01*
X188682334Y-121261143D02*
X188634715Y-121308762D01*
X188491858Y-121356381D01*
X188396620Y-121356381D01*
X188253762Y-121308762D01*
X188158524Y-121213524D01*
X188110905Y-121118286D01*
X188063286Y-120927810D01*
X188063286Y-120784952D01*
X188110905Y-120594476D01*
X188158524Y-120499238D01*
X188253762Y-120404000D01*
X188396620Y-120356381D01*
X188491858Y-120356381D01*
X188634715Y-120404000D01*
X188682334Y-120451619D01*
X189063286Y-120451619D02*
X189110905Y-120404000D01*
X189206143Y-120356381D01*
X189444239Y-120356381D01*
X189539477Y-120404000D01*
X189587096Y-120451619D01*
X189634715Y-120546857D01*
X189634715Y-120642095D01*
X189587096Y-120784952D01*
X189015667Y-121356381D01*
X189634715Y-121356381D01*
X191714381Y-118721047D02*
X191714381Y-119292476D01*
X191714381Y-119006762D02*
X190714381Y-119006762D01*
X190857238Y-119102000D01*
X190952476Y-119197238D01*
X191000095Y-119292476D01*
X190714381Y-118102000D02*
X190714381Y-118006761D01*
X190762000Y-117911523D01*
X190809619Y-117863904D01*
X190904857Y-117816285D01*
X191095333Y-117768666D01*
X191333429Y-117768666D01*
X191523905Y-117816285D01*
X191619143Y-117863904D01*
X191666762Y-117911523D01*
X191714381Y-118006761D01*
X191714381Y-118102000D01*
X191666762Y-118197238D01*
X191619143Y-118244857D01*
X191523905Y-118292476D01*
X191333429Y-118340095D01*
X191095333Y-118340095D01*
X190904857Y-118292476D01*
X190809619Y-118244857D01*
X190762000Y-118197238D01*
X190714381Y-118102000D01*
X190714381Y-117149619D02*
X190714381Y-117054380D01*
X190762000Y-116959142D01*
X190809619Y-116911523D01*
X190904857Y-116863904D01*
X191095333Y-116816285D01*
X191333429Y-116816285D01*
X191523905Y-116863904D01*
X191619143Y-116911523D01*
X191666762Y-116959142D01*
X191714381Y-117054380D01*
X191714381Y-117149619D01*
X191666762Y-117244857D01*
X191619143Y-117292476D01*
X191523905Y-117340095D01*
X191333429Y-117387714D01*
X191095333Y-117387714D01*
X190904857Y-117340095D01*
X190809619Y-117292476D01*
X190762000Y-117244857D01*
X190714381Y-117149619D01*
X191047714Y-116387714D02*
X192047714Y-116387714D01*
X191095333Y-116387714D02*
X191047714Y-116292476D01*
X191047714Y-116101999D01*
X191095333Y-116006761D01*
X191142952Y-115959142D01*
X191238190Y-115911523D01*
X191523905Y-115911523D01*
X191619143Y-115959142D01*
X191666762Y-116006761D01*
X191714381Y-116101999D01*
X191714381Y-116292476D01*
X191666762Y-116387714D01*
X164743048Y-129738381D02*
X164743048Y-128738381D01*
X165219238Y-129738381D02*
X165219238Y-128738381D01*
X165790667Y-129738381D01*
X165790667Y-128738381D01*
X166790667Y-129738381D02*
X166219238Y-129738381D01*
X166504952Y-129738381D02*
X166504952Y-128738381D01*
X166409714Y-128881238D01*
X166314476Y-128976476D01*
X166219238Y-129024095D01*
X167695429Y-129738381D02*
X167219238Y-129738381D01*
X167219238Y-128738381D01*
X168552572Y-129738381D02*
X167981143Y-129738381D01*
X168266857Y-129738381D02*
X168266857Y-128738381D01*
X168171619Y-128881238D01*
X168076381Y-128976476D01*
X167981143Y-129024095D01*
X172267810Y-129738381D02*
X172267810Y-128738381D01*
X172744000Y-129738381D02*
X172744000Y-128738381D01*
X173315429Y-129738381D01*
X173315429Y-128738381D01*
X174315429Y-129738381D02*
X173744000Y-129738381D01*
X174029714Y-129738381D02*
X174029714Y-128738381D01*
X173934476Y-128881238D01*
X173839238Y-128976476D01*
X173744000Y-129024095D01*
X175315429Y-129738381D02*
X174982095Y-129262190D01*
X174744000Y-129738381D02*
X174744000Y-128738381D01*
X175124953Y-128738381D01*
X175220191Y-128786000D01*
X175267810Y-128833619D01*
X175315429Y-128928857D01*
X175315429Y-129071714D01*
X175267810Y-129166952D01*
X175220191Y-129214571D01*
X175124953Y-129262190D01*
X174744000Y-129262190D01*
X176267810Y-129738381D02*
X175696381Y-129738381D01*
X175982095Y-129738381D02*
X175982095Y-128738381D01*
X175886857Y-128881238D01*
X175791619Y-128976476D01*
X175696381Y-129024095D01*
X104799048Y-129992381D02*
X104799048Y-128992381D01*
X105275238Y-129992381D02*
X105275238Y-128992381D01*
X105846667Y-129992381D01*
X105846667Y-128992381D01*
X106275238Y-129087619D02*
X106322857Y-129040000D01*
X106418095Y-128992381D01*
X106656191Y-128992381D01*
X106751429Y-129040000D01*
X106799048Y-129087619D01*
X106846667Y-129182857D01*
X106846667Y-129278095D01*
X106799048Y-129420952D01*
X106227619Y-129992381D01*
X106846667Y-129992381D01*
X107751429Y-129992381D02*
X107275238Y-129992381D01*
X107275238Y-128992381D01*
X108608572Y-129992381D02*
X108037143Y-129992381D01*
X108322857Y-129992381D02*
X108322857Y-128992381D01*
X108227619Y-129135238D01*
X108132381Y-129230476D01*
X108037143Y-129278095D01*
X112323810Y-129992381D02*
X112323810Y-128992381D01*
X112800000Y-129992381D02*
X112800000Y-128992381D01*
X113371429Y-129992381D01*
X113371429Y-128992381D01*
X113800000Y-129087619D02*
X113847619Y-129040000D01*
X113942857Y-128992381D01*
X114180953Y-128992381D01*
X114276191Y-129040000D01*
X114323810Y-129087619D01*
X114371429Y-129182857D01*
X114371429Y-129278095D01*
X114323810Y-129420952D01*
X113752381Y-129992381D01*
X114371429Y-129992381D01*
X115371429Y-129992381D02*
X115038095Y-129516190D01*
X114800000Y-129992381D02*
X114800000Y-128992381D01*
X115180953Y-128992381D01*
X115276191Y-129040000D01*
X115323810Y-129087619D01*
X115371429Y-129182857D01*
X115371429Y-129325714D01*
X115323810Y-129420952D01*
X115276191Y-129468571D01*
X115180953Y-129516190D01*
X114800000Y-129516190D01*
X116323810Y-129992381D02*
X115752381Y-129992381D01*
X116038095Y-129992381D02*
X116038095Y-128992381D01*
X115942857Y-129135238D01*
X115847619Y-129230476D01*
X115752381Y-129278095D01*
X122579048Y-129992381D02*
X122579048Y-128992381D01*
X123055238Y-129992381D02*
X123055238Y-128992381D01*
X123626667Y-129992381D01*
X123626667Y-128992381D01*
X124007619Y-128992381D02*
X124626667Y-128992381D01*
X124293333Y-129373333D01*
X124436191Y-129373333D01*
X124531429Y-129420952D01*
X124579048Y-129468571D01*
X124626667Y-129563810D01*
X124626667Y-129801905D01*
X124579048Y-129897143D01*
X124531429Y-129944762D01*
X124436191Y-129992381D01*
X124150476Y-129992381D01*
X124055238Y-129944762D01*
X124007619Y-129897143D01*
X125531429Y-129992381D02*
X125055238Y-129992381D01*
X125055238Y-128992381D01*
X126388572Y-129992381D02*
X125817143Y-129992381D01*
X126102857Y-129992381D02*
X126102857Y-128992381D01*
X126007619Y-129135238D01*
X125912381Y-129230476D01*
X125817143Y-129278095D01*
X130103810Y-129992381D02*
X130103810Y-128992381D01*
X130580000Y-129992381D02*
X130580000Y-128992381D01*
X131151429Y-129992381D01*
X131151429Y-128992381D01*
X131532381Y-128992381D02*
X132151429Y-128992381D01*
X131818095Y-129373333D01*
X131960953Y-129373333D01*
X132056191Y-129420952D01*
X132103810Y-129468571D01*
X132151429Y-129563810D01*
X132151429Y-129801905D01*
X132103810Y-129897143D01*
X132056191Y-129944762D01*
X131960953Y-129992381D01*
X131675238Y-129992381D01*
X131580000Y-129944762D01*
X131532381Y-129897143D01*
X133151429Y-129992381D02*
X132818095Y-129516190D01*
X132580000Y-129992381D02*
X132580000Y-128992381D01*
X132960953Y-128992381D01*
X133056191Y-129040000D01*
X133103810Y-129087619D01*
X133151429Y-129182857D01*
X133151429Y-129325714D01*
X133103810Y-129420952D01*
X133056191Y-129468571D01*
X132960953Y-129516190D01*
X132580000Y-129516190D01*
X134103810Y-129992381D02*
X133532381Y-129992381D01*
X133818095Y-129992381D02*
X133818095Y-128992381D01*
X133722857Y-129135238D01*
X133627619Y-129230476D01*
X133532381Y-129278095D01*
X140359048Y-129992381D02*
X140359048Y-128992381D01*
X140835238Y-129992381D02*
X140835238Y-128992381D01*
X141406667Y-129992381D01*
X141406667Y-128992381D01*
X142311429Y-129325714D02*
X142311429Y-129992381D01*
X142073333Y-128944762D02*
X141835238Y-129659048D01*
X142454286Y-129659048D01*
X143311429Y-129992381D02*
X142835238Y-129992381D01*
X142835238Y-128992381D01*
X144168572Y-129992381D02*
X143597143Y-129992381D01*
X143882857Y-129992381D02*
X143882857Y-128992381D01*
X143787619Y-129135238D01*
X143692381Y-129230476D01*
X143597143Y-129278095D01*
X147883810Y-129992381D02*
X147883810Y-128992381D01*
X148360000Y-129992381D02*
X148360000Y-128992381D01*
X148931429Y-129992381D01*
X148931429Y-128992381D01*
X149836191Y-129325714D02*
X149836191Y-129992381D01*
X149598095Y-128944762D02*
X149360000Y-129659048D01*
X149979048Y-129659048D01*
X150931429Y-129992381D02*
X150598095Y-129516190D01*
X150360000Y-129992381D02*
X150360000Y-128992381D01*
X150740953Y-128992381D01*
X150836191Y-129040000D01*
X150883810Y-129087619D01*
X150931429Y-129182857D01*
X150931429Y-129325714D01*
X150883810Y-129420952D01*
X150836191Y-129468571D01*
X150740953Y-129516190D01*
X150360000Y-129516190D01*
X151883810Y-129992381D02*
X151312381Y-129992381D01*
X151598095Y-129992381D02*
X151598095Y-128992381D01*
X151502857Y-129135238D01*
X151407619Y-129230476D01*
X151312381Y-129278095D01*
X106513334Y-123007381D02*
X106180000Y-122531190D01*
X105941905Y-123007381D02*
X105941905Y-122007381D01*
X106322858Y-122007381D01*
X106418096Y-122055000D01*
X106465715Y-122102619D01*
X106513334Y-122197857D01*
X106513334Y-122340714D01*
X106465715Y-122435952D01*
X106418096Y-122483571D01*
X106322858Y-122531190D01*
X105941905Y-122531190D01*
X107465715Y-123007381D02*
X106894286Y-123007381D01*
X107180000Y-123007381D02*
X107180000Y-122007381D01*
X107084762Y-122150238D01*
X106989524Y-122245476D01*
X106894286Y-122293095D01*
X106465714Y-117601904D02*
X107132381Y-117601904D01*
X106084762Y-117840000D02*
X106799048Y-118078095D01*
X106799048Y-117459047D01*
X106132381Y-117173333D02*
X106132381Y-116506666D01*
X107132381Y-116935238D01*
X106132381Y-115935238D02*
X106132381Y-115839999D01*
X106180000Y-115744761D01*
X106227619Y-115697142D01*
X106322857Y-115649523D01*
X106513333Y-115601904D01*
X106751429Y-115601904D01*
X106941905Y-115649523D01*
X107037143Y-115697142D01*
X107084762Y-115744761D01*
X107132381Y-115839999D01*
X107132381Y-115935238D01*
X107084762Y-116030476D01*
X107037143Y-116078095D01*
X106941905Y-116125714D01*
X106751429Y-116173333D01*
X106513333Y-116173333D01*
X106322857Y-116125714D01*
X106227619Y-116078095D01*
X106180000Y-116030476D01*
X106132381Y-115935238D01*
X114133334Y-123007381D02*
X113800000Y-122531190D01*
X113561905Y-123007381D02*
X113561905Y-122007381D01*
X113942858Y-122007381D01*
X114038096Y-122055000D01*
X114085715Y-122102619D01*
X114133334Y-122197857D01*
X114133334Y-122340714D01*
X114085715Y-122435952D01*
X114038096Y-122483571D01*
X113942858Y-122531190D01*
X113561905Y-122531190D01*
X114514286Y-122102619D02*
X114561905Y-122055000D01*
X114657143Y-122007381D01*
X114895239Y-122007381D01*
X114990477Y-122055000D01*
X115038096Y-122102619D01*
X115085715Y-122197857D01*
X115085715Y-122293095D01*
X115038096Y-122435952D01*
X114466667Y-123007381D01*
X115085715Y-123007381D01*
X114085714Y-117601904D02*
X114752381Y-117601904D01*
X113704762Y-117840000D02*
X114419048Y-118078095D01*
X114419048Y-117459047D01*
X113752381Y-117173333D02*
X113752381Y-116506666D01*
X114752381Y-116935238D01*
X113752381Y-115935238D02*
X113752381Y-115839999D01*
X113800000Y-115744761D01*
X113847619Y-115697142D01*
X113942857Y-115649523D01*
X114133333Y-115601904D01*
X114371429Y-115601904D01*
X114561905Y-115649523D01*
X114657143Y-115697142D01*
X114704762Y-115744761D01*
X114752381Y-115839999D01*
X114752381Y-115935238D01*
X114704762Y-116030476D01*
X114657143Y-116078095D01*
X114561905Y-116125714D01*
X114371429Y-116173333D01*
X114133333Y-116173333D01*
X113942857Y-116125714D01*
X113847619Y-116078095D01*
X113800000Y-116030476D01*
X113752381Y-115935238D01*
X124293334Y-123007381D02*
X123960000Y-122531190D01*
X123721905Y-123007381D02*
X123721905Y-122007381D01*
X124102858Y-122007381D01*
X124198096Y-122055000D01*
X124245715Y-122102619D01*
X124293334Y-122197857D01*
X124293334Y-122340714D01*
X124245715Y-122435952D01*
X124198096Y-122483571D01*
X124102858Y-122531190D01*
X123721905Y-122531190D01*
X124626667Y-122007381D02*
X125245715Y-122007381D01*
X124912381Y-122388333D01*
X125055239Y-122388333D01*
X125150477Y-122435952D01*
X125198096Y-122483571D01*
X125245715Y-122578810D01*
X125245715Y-122816905D01*
X125198096Y-122912143D01*
X125150477Y-122959762D01*
X125055239Y-123007381D01*
X124769524Y-123007381D01*
X124674286Y-122959762D01*
X124626667Y-122912143D01*
X124245714Y-117601904D02*
X124912381Y-117601904D01*
X123864762Y-117840000D02*
X124579048Y-118078095D01*
X124579048Y-117459047D01*
X123912381Y-117173333D02*
X123912381Y-116506666D01*
X124912381Y-116935238D01*
X123912381Y-115935238D02*
X123912381Y-115839999D01*
X123960000Y-115744761D01*
X124007619Y-115697142D01*
X124102857Y-115649523D01*
X124293333Y-115601904D01*
X124531429Y-115601904D01*
X124721905Y-115649523D01*
X124817143Y-115697142D01*
X124864762Y-115744761D01*
X124912381Y-115839999D01*
X124912381Y-115935238D01*
X124864762Y-116030476D01*
X124817143Y-116078095D01*
X124721905Y-116125714D01*
X124531429Y-116173333D01*
X124293333Y-116173333D01*
X124102857Y-116125714D01*
X124007619Y-116078095D01*
X123960000Y-116030476D01*
X123912381Y-115935238D01*
X131913334Y-123007381D02*
X131580000Y-122531190D01*
X131341905Y-123007381D02*
X131341905Y-122007381D01*
X131722858Y-122007381D01*
X131818096Y-122055000D01*
X131865715Y-122102619D01*
X131913334Y-122197857D01*
X131913334Y-122340714D01*
X131865715Y-122435952D01*
X131818096Y-122483571D01*
X131722858Y-122531190D01*
X131341905Y-122531190D01*
X132770477Y-122340714D02*
X132770477Y-123007381D01*
X132532381Y-121959762D02*
X132294286Y-122674048D01*
X132913334Y-122674048D01*
X131865714Y-117601904D02*
X132532381Y-117601904D01*
X131484762Y-117840000D02*
X132199048Y-118078095D01*
X132199048Y-117459047D01*
X131532381Y-117173333D02*
X131532381Y-116506666D01*
X132532381Y-116935238D01*
X131532381Y-115935238D02*
X131532381Y-115839999D01*
X131580000Y-115744761D01*
X131627619Y-115697142D01*
X131722857Y-115649523D01*
X131913333Y-115601904D01*
X132151429Y-115601904D01*
X132341905Y-115649523D01*
X132437143Y-115697142D01*
X132484762Y-115744761D01*
X132532381Y-115839999D01*
X132532381Y-115935238D01*
X132484762Y-116030476D01*
X132437143Y-116078095D01*
X132341905Y-116125714D01*
X132151429Y-116173333D01*
X131913333Y-116173333D01*
X131722857Y-116125714D01*
X131627619Y-116078095D01*
X131580000Y-116030476D01*
X131532381Y-115935238D01*
X142073334Y-123007381D02*
X141740000Y-122531190D01*
X141501905Y-123007381D02*
X141501905Y-122007381D01*
X141882858Y-122007381D01*
X141978096Y-122055000D01*
X142025715Y-122102619D01*
X142073334Y-122197857D01*
X142073334Y-122340714D01*
X142025715Y-122435952D01*
X141978096Y-122483571D01*
X141882858Y-122531190D01*
X141501905Y-122531190D01*
X142978096Y-122007381D02*
X142501905Y-122007381D01*
X142454286Y-122483571D01*
X142501905Y-122435952D01*
X142597143Y-122388333D01*
X142835239Y-122388333D01*
X142930477Y-122435952D01*
X142978096Y-122483571D01*
X143025715Y-122578810D01*
X143025715Y-122816905D01*
X142978096Y-122912143D01*
X142930477Y-122959762D01*
X142835239Y-123007381D01*
X142597143Y-123007381D01*
X142501905Y-122959762D01*
X142454286Y-122912143D01*
X142025714Y-117601904D02*
X142692381Y-117601904D01*
X141644762Y-117840000D02*
X142359048Y-118078095D01*
X142359048Y-117459047D01*
X141692381Y-117173333D02*
X141692381Y-116506666D01*
X142692381Y-116935238D01*
X141692381Y-115935238D02*
X141692381Y-115839999D01*
X141740000Y-115744761D01*
X141787619Y-115697142D01*
X141882857Y-115649523D01*
X142073333Y-115601904D01*
X142311429Y-115601904D01*
X142501905Y-115649523D01*
X142597143Y-115697142D01*
X142644762Y-115744761D01*
X142692381Y-115839999D01*
X142692381Y-115935238D01*
X142644762Y-116030476D01*
X142597143Y-116078095D01*
X142501905Y-116125714D01*
X142311429Y-116173333D01*
X142073333Y-116173333D01*
X141882857Y-116125714D01*
X141787619Y-116078095D01*
X141740000Y-116030476D01*
X141692381Y-115935238D01*
X148423334Y-123007381D02*
X148090000Y-122531190D01*
X147851905Y-123007381D02*
X147851905Y-122007381D01*
X148232858Y-122007381D01*
X148328096Y-122055000D01*
X148375715Y-122102619D01*
X148423334Y-122197857D01*
X148423334Y-122340714D01*
X148375715Y-122435952D01*
X148328096Y-122483571D01*
X148232858Y-122531190D01*
X147851905Y-122531190D01*
X149280477Y-122007381D02*
X149090000Y-122007381D01*
X148994762Y-122055000D01*
X148947143Y-122102619D01*
X148851905Y-122245476D01*
X148804286Y-122435952D01*
X148804286Y-122816905D01*
X148851905Y-122912143D01*
X148899524Y-122959762D01*
X148994762Y-123007381D01*
X149185239Y-123007381D01*
X149280477Y-122959762D01*
X149328096Y-122912143D01*
X149375715Y-122816905D01*
X149375715Y-122578810D01*
X149328096Y-122483571D01*
X149280477Y-122435952D01*
X149185239Y-122388333D01*
X148994762Y-122388333D01*
X148899524Y-122435952D01*
X148851905Y-122483571D01*
X148804286Y-122578810D01*
X148375714Y-117601904D02*
X149042381Y-117601904D01*
X147994762Y-117840000D02*
X148709048Y-118078095D01*
X148709048Y-117459047D01*
X148042381Y-117173333D02*
X148042381Y-116506666D01*
X149042381Y-116935238D01*
X148042381Y-115935238D02*
X148042381Y-115839999D01*
X148090000Y-115744761D01*
X148137619Y-115697142D01*
X148232857Y-115649523D01*
X148423333Y-115601904D01*
X148661429Y-115601904D01*
X148851905Y-115649523D01*
X148947143Y-115697142D01*
X148994762Y-115744761D01*
X149042381Y-115839999D01*
X149042381Y-115935238D01*
X148994762Y-116030476D01*
X148947143Y-116078095D01*
X148851905Y-116125714D01*
X148661429Y-116173333D01*
X148423333Y-116173333D01*
X148232857Y-116125714D01*
X148137619Y-116078095D01*
X148090000Y-116030476D01*
X148042381Y-115935238D01*
X159853334Y-100147381D02*
X159520000Y-99671190D01*
X159281905Y-100147381D02*
X159281905Y-99147381D01*
X159662858Y-99147381D01*
X159758096Y-99195000D01*
X159805715Y-99242619D01*
X159853334Y-99337857D01*
X159853334Y-99480714D01*
X159805715Y-99575952D01*
X159758096Y-99623571D01*
X159662858Y-99671190D01*
X159281905Y-99671190D01*
X160186667Y-99147381D02*
X160853334Y-99147381D01*
X160424762Y-100147381D01*
X159805714Y-94741904D02*
X160472381Y-94741904D01*
X159424762Y-94980000D02*
X160139048Y-95218095D01*
X160139048Y-94599047D01*
X159472381Y-94313333D02*
X159472381Y-93646666D01*
X160472381Y-94075238D01*
X159472381Y-93075238D02*
X159472381Y-92979999D01*
X159520000Y-92884761D01*
X159567619Y-92837142D01*
X159662857Y-92789523D01*
X159853333Y-92741904D01*
X160091429Y-92741904D01*
X160281905Y-92789523D01*
X160377143Y-92837142D01*
X160424762Y-92884761D01*
X160472381Y-92979999D01*
X160472381Y-93075238D01*
X160424762Y-93170476D01*
X160377143Y-93218095D01*
X160281905Y-93265714D01*
X160091429Y-93313333D01*
X159853333Y-93313333D01*
X159662857Y-93265714D01*
X159567619Y-93218095D01*
X159520000Y-93170476D01*
X159472381Y-93075238D01*
X163028334Y-100147381D02*
X162695000Y-99671190D01*
X162456905Y-100147381D02*
X162456905Y-99147381D01*
X162837858Y-99147381D01*
X162933096Y-99195000D01*
X162980715Y-99242619D01*
X163028334Y-99337857D01*
X163028334Y-99480714D01*
X162980715Y-99575952D01*
X162933096Y-99623571D01*
X162837858Y-99671190D01*
X162456905Y-99671190D01*
X163599762Y-99575952D02*
X163504524Y-99528333D01*
X163456905Y-99480714D01*
X163409286Y-99385476D01*
X163409286Y-99337857D01*
X163456905Y-99242619D01*
X163504524Y-99195000D01*
X163599762Y-99147381D01*
X163790239Y-99147381D01*
X163885477Y-99195000D01*
X163933096Y-99242619D01*
X163980715Y-99337857D01*
X163980715Y-99385476D01*
X163933096Y-99480714D01*
X163885477Y-99528333D01*
X163790239Y-99575952D01*
X163599762Y-99575952D01*
X163504524Y-99623571D01*
X163456905Y-99671190D01*
X163409286Y-99766429D01*
X163409286Y-99956905D01*
X163456905Y-100052143D01*
X163504524Y-100099762D01*
X163599762Y-100147381D01*
X163790239Y-100147381D01*
X163885477Y-100099762D01*
X163933096Y-100052143D01*
X163980715Y-99956905D01*
X163980715Y-99766429D01*
X163933096Y-99671190D01*
X163885477Y-99623571D01*
X163790239Y-99575952D01*
X162980714Y-94741904D02*
X163647381Y-94741904D01*
X162599762Y-94980000D02*
X163314048Y-95218095D01*
X163314048Y-94599047D01*
X162647381Y-94313333D02*
X162647381Y-93646666D01*
X163647381Y-94075238D01*
X162647381Y-93075238D02*
X162647381Y-92979999D01*
X162695000Y-92884761D01*
X162742619Y-92837142D01*
X162837857Y-92789523D01*
X163028333Y-92741904D01*
X163266429Y-92741904D01*
X163456905Y-92789523D01*
X163552143Y-92837142D01*
X163599762Y-92884761D01*
X163647381Y-92979999D01*
X163647381Y-93075238D01*
X163599762Y-93170476D01*
X163552143Y-93218095D01*
X163456905Y-93265714D01*
X163266429Y-93313333D01*
X163028333Y-93313333D01*
X162837857Y-93265714D01*
X162742619Y-93218095D01*
X162695000Y-93170476D01*
X162647381Y-93075238D01*
X172807334Y-112466381D02*
X172474000Y-111990190D01*
X172235905Y-112466381D02*
X172235905Y-111466381D01*
X172616858Y-111466381D01*
X172712096Y-111514000D01*
X172759715Y-111561619D01*
X172807334Y-111656857D01*
X172807334Y-111799714D01*
X172759715Y-111894952D01*
X172712096Y-111942571D01*
X172616858Y-111990190D01*
X172235905Y-111990190D01*
X173283524Y-112466381D02*
X173474000Y-112466381D01*
X173569239Y-112418762D01*
X173616858Y-112371143D01*
X173712096Y-112228286D01*
X173759715Y-112037810D01*
X173759715Y-111656857D01*
X173712096Y-111561619D01*
X173664477Y-111514000D01*
X173569239Y-111466381D01*
X173378762Y-111466381D01*
X173283524Y-111514000D01*
X173235905Y-111561619D01*
X173188286Y-111656857D01*
X173188286Y-111894952D01*
X173235905Y-111990190D01*
X173283524Y-112037810D01*
X173378762Y-112085429D01*
X173569239Y-112085429D01*
X173664477Y-112037810D01*
X173712096Y-111990190D01*
X173759715Y-111894952D01*
X173426381Y-118959238D02*
X173426381Y-119530667D01*
X173426381Y-119244953D02*
X172426381Y-119244953D01*
X172569238Y-119340191D01*
X172664476Y-119435429D01*
X172712095Y-119530667D01*
X172426381Y-118340191D02*
X172426381Y-118244952D01*
X172474000Y-118149714D01*
X172521619Y-118102095D01*
X172616857Y-118054476D01*
X172807333Y-118006857D01*
X173045429Y-118006857D01*
X173235905Y-118054476D01*
X173331143Y-118102095D01*
X173378762Y-118149714D01*
X173426381Y-118244952D01*
X173426381Y-118340191D01*
X173378762Y-118435429D01*
X173331143Y-118483048D01*
X173235905Y-118530667D01*
X173045429Y-118578286D01*
X172807333Y-118578286D01*
X172616857Y-118530667D01*
X172521619Y-118483048D01*
X172474000Y-118435429D01*
X172426381Y-118340191D01*
X173426381Y-117578286D02*
X172426381Y-117578286D01*
X173045429Y-117483048D02*
X173426381Y-117197333D01*
X172759714Y-117197333D02*
X173140667Y-117578286D01*
X185666143Y-124531381D02*
X185332809Y-124055190D01*
X185094714Y-124531381D02*
X185094714Y-123531381D01*
X185475667Y-123531381D01*
X185570905Y-123579000D01*
X185618524Y-123626619D01*
X185666143Y-123721857D01*
X185666143Y-123864714D01*
X185618524Y-123959952D01*
X185570905Y-124007571D01*
X185475667Y-124055190D01*
X185094714Y-124055190D01*
X186618524Y-124531381D02*
X186047095Y-124531381D01*
X186332809Y-124531381D02*
X186332809Y-123531381D01*
X186237571Y-123674238D01*
X186142333Y-123769476D01*
X186047095Y-123817095D01*
X187237571Y-123531381D02*
X187332810Y-123531381D01*
X187428048Y-123579000D01*
X187475667Y-123626619D01*
X187523286Y-123721857D01*
X187570905Y-123912333D01*
X187570905Y-124150429D01*
X187523286Y-124340905D01*
X187475667Y-124436143D01*
X187428048Y-124483762D01*
X187332810Y-124531381D01*
X187237571Y-124531381D01*
X187142333Y-124483762D01*
X187094714Y-124436143D01*
X187047095Y-124340905D01*
X186999476Y-124150429D01*
X186999476Y-123912333D01*
X187047095Y-123721857D01*
X187094714Y-123626619D01*
X187142333Y-123579000D01*
X187237571Y-123531381D01*
X186126381Y-118959238D02*
X186126381Y-119530667D01*
X186126381Y-119244953D02*
X185126381Y-119244953D01*
X185269238Y-119340191D01*
X185364476Y-119435429D01*
X185412095Y-119530667D01*
X185126381Y-118340191D02*
X185126381Y-118244952D01*
X185174000Y-118149714D01*
X185221619Y-118102095D01*
X185316857Y-118054476D01*
X185507333Y-118006857D01*
X185745429Y-118006857D01*
X185935905Y-118054476D01*
X186031143Y-118102095D01*
X186078762Y-118149714D01*
X186126381Y-118244952D01*
X186126381Y-118340191D01*
X186078762Y-118435429D01*
X186031143Y-118483048D01*
X185935905Y-118530667D01*
X185745429Y-118578286D01*
X185507333Y-118578286D01*
X185316857Y-118530667D01*
X185221619Y-118483048D01*
X185174000Y-118435429D01*
X185126381Y-118340191D01*
X186126381Y-117578286D02*
X185126381Y-117578286D01*
X185745429Y-117483048D02*
X186126381Y-117197333D01*
X185459714Y-117197333D02*
X185840667Y-117578286D01*
D13*
X158694725Y-115594795D02*
X158218172Y-115928382D01*
X158694725Y-116166658D02*
X157693965Y-116166658D01*
X157693965Y-115785416D01*
X157741620Y-115690105D01*
X157789275Y-115642450D01*
X157884586Y-115594795D01*
X158027551Y-115594795D01*
X158122862Y-115642450D01*
X158170517Y-115690105D01*
X158218172Y-115785416D01*
X158218172Y-116166658D01*
X158694725Y-114594035D02*
X158218172Y-114927622D01*
X158694725Y-115165898D02*
X157693965Y-115165898D01*
X157693965Y-114784656D01*
X157741620Y-114689345D01*
X157789275Y-114641690D01*
X157884586Y-114594035D01*
X158027551Y-114594035D01*
X158122862Y-114641690D01*
X158170517Y-114689345D01*
X158218172Y-114784656D01*
X158218172Y-115165898D01*
X158694725Y-113640930D02*
X158694725Y-114212793D01*
X158694725Y-113926862D02*
X157693965Y-113926862D01*
X157836930Y-114022172D01*
X157932241Y-114117483D01*
X157979896Y-114212793D01*
X157693965Y-113021412D02*
X157693965Y-112926101D01*
X157741620Y-112830791D01*
X157789275Y-112783136D01*
X157884586Y-112735480D01*
X158075207Y-112687825D01*
X158313483Y-112687825D01*
X158504104Y-112735480D01*
X158599414Y-112783136D01*
X158647070Y-112830791D01*
X158694725Y-112926101D01*
X158694725Y-113021412D01*
X158647070Y-113116722D01*
X158599414Y-113164378D01*
X158504104Y-113212033D01*
X158313483Y-113259688D01*
X158075207Y-113259688D01*
X157884586Y-113212033D01*
X157789275Y-113164378D01*
X157741620Y-113116722D01*
X157693965Y-113021412D01*
X158694725Y-112258928D02*
X157693965Y-112258928D01*
X158313483Y-112163617D02*
X158694725Y-111877686D01*
X158027551Y-111877686D02*
X158408793Y-112258928D01*
D11*
X177927095Y-118451381D02*
X177927095Y-119260905D01*
X177974714Y-119356143D01*
X178022333Y-119403762D01*
X178117571Y-119451381D01*
X178308048Y-119451381D01*
X178403286Y-119403762D01*
X178450905Y-119356143D01*
X178498524Y-119260905D01*
X178498524Y-118451381D01*
X179498524Y-119451381D02*
X178927095Y-119451381D01*
X179212809Y-119451381D02*
X179212809Y-118451381D01*
X179117571Y-118594238D01*
X179022333Y-118689476D01*
X178927095Y-118737095D01*
X177204952Y-116546381D02*
X177776381Y-116546381D01*
X177490666Y-117546381D02*
X177490666Y-116546381D01*
X178585905Y-117546381D02*
X178109714Y-117546381D01*
X178109714Y-116546381D01*
X179109714Y-116546381D02*
X179204953Y-116546381D01*
X179300191Y-116594000D01*
X179347810Y-116641619D01*
X179395429Y-116736857D01*
X179443048Y-116927333D01*
X179443048Y-117165429D01*
X179395429Y-117355905D01*
X179347810Y-117451143D01*
X179300191Y-117498762D01*
X179204953Y-117546381D01*
X179109714Y-117546381D01*
X179014476Y-117498762D01*
X178966857Y-117451143D01*
X178919238Y-117355905D01*
X178871619Y-117165429D01*
X178871619Y-116927333D01*
X178919238Y-116736857D01*
X178966857Y-116641619D01*
X179014476Y-116594000D01*
X179109714Y-116546381D01*
X179776381Y-116546381D02*
X180443048Y-116546381D01*
X180014476Y-117546381D01*
X180776381Y-116641619D02*
X180824000Y-116594000D01*
X180919238Y-116546381D01*
X181157334Y-116546381D01*
X181252572Y-116594000D01*
X181300191Y-116641619D01*
X181347810Y-116736857D01*
X181347810Y-116832095D01*
X181300191Y-116974952D01*
X180728762Y-117546381D01*
X181347810Y-117546381D01*
X197953334Y-123547143D02*
X197905715Y-123594762D01*
X197762858Y-123642381D01*
X197667620Y-123642381D01*
X197524762Y-123594762D01*
X197429524Y-123499524D01*
X197381905Y-123404286D01*
X197334286Y-123213810D01*
X197334286Y-123070952D01*
X197381905Y-122880476D01*
X197429524Y-122785238D01*
X197524762Y-122690000D01*
X197667620Y-122642381D01*
X197762858Y-122642381D01*
X197905715Y-122690000D01*
X197953334Y-122737619D01*
X198286667Y-122642381D02*
X198953334Y-122642381D01*
X198524762Y-123642381D01*
X193270381Y-119324381D02*
X192698952Y-119324381D01*
X192984666Y-119324381D02*
X192984666Y-118324381D01*
X192889428Y-118467238D01*
X192794190Y-118562476D01*
X192698952Y-118610095D01*
X193889428Y-118324381D02*
X193984667Y-118324381D01*
X194079905Y-118372000D01*
X194127524Y-118419619D01*
X194175143Y-118514857D01*
X194222762Y-118705333D01*
X194222762Y-118943429D01*
X194175143Y-119133905D01*
X194127524Y-119229143D01*
X194079905Y-119276762D01*
X193984667Y-119324381D01*
X193889428Y-119324381D01*
X193794190Y-119276762D01*
X193746571Y-119229143D01*
X193698952Y-119133905D01*
X193651333Y-118943429D01*
X193651333Y-118705333D01*
X193698952Y-118514857D01*
X193746571Y-118419619D01*
X193794190Y-118372000D01*
X193889428Y-118324381D01*
X194841809Y-118324381D02*
X194937048Y-118324381D01*
X195032286Y-118372000D01*
X195079905Y-118419619D01*
X195127524Y-118514857D01*
X195175143Y-118705333D01*
X195175143Y-118943429D01*
X195127524Y-119133905D01*
X195079905Y-119229143D01*
X195032286Y-119276762D01*
X194937048Y-119324381D01*
X194841809Y-119324381D01*
X194746571Y-119276762D01*
X194698952Y-119229143D01*
X194651333Y-119133905D01*
X194603714Y-118943429D01*
X194603714Y-118705333D01*
X194651333Y-118514857D01*
X194698952Y-118419619D01*
X194746571Y-118372000D01*
X194841809Y-118324381D01*
X196032286Y-118657714D02*
X196032286Y-119324381D01*
X195603714Y-118657714D02*
X195603714Y-119181524D01*
X195651333Y-119276762D01*
X195746571Y-119324381D01*
X195889429Y-119324381D01*
X195984667Y-119276762D01*
X196032286Y-119229143D01*
X196841810Y-118800571D02*
X196508476Y-118800571D01*
X196508476Y-119324381D02*
X196508476Y-118324381D01*
X196984667Y-118324381D01*
X183729334Y-131167143D02*
X183681715Y-131214762D01*
X183538858Y-131262381D01*
X183443620Y-131262381D01*
X183300762Y-131214762D01*
X183205524Y-131119524D01*
X183157905Y-131024286D01*
X183110286Y-130833810D01*
X183110286Y-130690952D01*
X183157905Y-130500476D01*
X183205524Y-130405238D01*
X183300762Y-130310000D01*
X183443620Y-130262381D01*
X183538858Y-130262381D01*
X183681715Y-130310000D01*
X183729334Y-130357619D01*
X184300762Y-130690952D02*
X184205524Y-130643333D01*
X184157905Y-130595714D01*
X184110286Y-130500476D01*
X184110286Y-130452857D01*
X184157905Y-130357619D01*
X184205524Y-130310000D01*
X184300762Y-130262381D01*
X184491239Y-130262381D01*
X184586477Y-130310000D01*
X184634096Y-130357619D01*
X184681715Y-130452857D01*
X184681715Y-130500476D01*
X184634096Y-130595714D01*
X184586477Y-130643333D01*
X184491239Y-130690952D01*
X184300762Y-130690952D01*
X184205524Y-130738571D01*
X184157905Y-130786190D01*
X184110286Y-130881429D01*
X184110286Y-131071905D01*
X184157905Y-131167143D01*
X184205524Y-131214762D01*
X184300762Y-131262381D01*
X184491239Y-131262381D01*
X184586477Y-131214762D01*
X184634096Y-131167143D01*
X184681715Y-131071905D01*
X184681715Y-130881429D01*
X184634096Y-130786190D01*
X184586477Y-130738571D01*
X184491239Y-130690952D01*
X186920381Y-126436381D02*
X186348952Y-126436381D01*
X186634666Y-126436381D02*
X186634666Y-125436381D01*
X186539428Y-125579238D01*
X186444190Y-125674476D01*
X186348952Y-125722095D01*
X187539428Y-125436381D02*
X187634667Y-125436381D01*
X187729905Y-125484000D01*
X187777524Y-125531619D01*
X187825143Y-125626857D01*
X187872762Y-125817333D01*
X187872762Y-126055429D01*
X187825143Y-126245905D01*
X187777524Y-126341143D01*
X187729905Y-126388762D01*
X187634667Y-126436381D01*
X187539428Y-126436381D01*
X187444190Y-126388762D01*
X187396571Y-126341143D01*
X187348952Y-126245905D01*
X187301333Y-126055429D01*
X187301333Y-125817333D01*
X187348952Y-125626857D01*
X187396571Y-125531619D01*
X187444190Y-125484000D01*
X187539428Y-125436381D01*
X188491809Y-125436381D02*
X188587048Y-125436381D01*
X188682286Y-125484000D01*
X188729905Y-125531619D01*
X188777524Y-125626857D01*
X188825143Y-125817333D01*
X188825143Y-126055429D01*
X188777524Y-126245905D01*
X188729905Y-126341143D01*
X188682286Y-126388762D01*
X188587048Y-126436381D01*
X188491809Y-126436381D01*
X188396571Y-126388762D01*
X188348952Y-126341143D01*
X188301333Y-126245905D01*
X188253714Y-126055429D01*
X188253714Y-125817333D01*
X188301333Y-125626857D01*
X188348952Y-125531619D01*
X188396571Y-125484000D01*
X188491809Y-125436381D01*
X189682286Y-125769714D02*
X189682286Y-126436381D01*
X189253714Y-125769714D02*
X189253714Y-126293524D01*
X189301333Y-126388762D01*
X189396571Y-126436381D01*
X189539429Y-126436381D01*
X189634667Y-126388762D01*
X189682286Y-126341143D01*
X190491810Y-125912571D02*
X190158476Y-125912571D01*
X190158476Y-126436381D02*
X190158476Y-125436381D01*
X190634667Y-125436381D01*
X181463334Y-116141143D02*
X181415715Y-116188762D01*
X181272858Y-116236381D01*
X181177620Y-116236381D01*
X181034762Y-116188762D01*
X180939524Y-116093524D01*
X180891905Y-115998286D01*
X180844286Y-115807810D01*
X180844286Y-115664952D01*
X180891905Y-115474476D01*
X180939524Y-115379238D01*
X181034762Y-115284000D01*
X181177620Y-115236381D01*
X181272858Y-115236381D01*
X181415715Y-115284000D01*
X181463334Y-115331619D01*
X181939524Y-116236381D02*
X182130000Y-116236381D01*
X182225239Y-116188762D01*
X182272858Y-116141143D01*
X182368096Y-115998286D01*
X182415715Y-115807810D01*
X182415715Y-115426857D01*
X182368096Y-115331619D01*
X182320477Y-115284000D01*
X182225239Y-115236381D01*
X182034762Y-115236381D01*
X181939524Y-115284000D01*
X181891905Y-115331619D01*
X181844286Y-115426857D01*
X181844286Y-115664952D01*
X181891905Y-115760190D01*
X181939524Y-115807810D01*
X182034762Y-115855429D01*
X182225239Y-115855429D01*
X182320477Y-115807810D01*
X182368096Y-115760190D01*
X182415715Y-115664952D01*
X180510953Y-111236381D02*
X179939524Y-111236381D01*
X180225238Y-111236381D02*
X180225238Y-110236381D01*
X180130000Y-110379238D01*
X180034762Y-110474476D01*
X179939524Y-110522095D01*
X181130000Y-110236381D02*
X181225239Y-110236381D01*
X181320477Y-110284000D01*
X181368096Y-110331619D01*
X181415715Y-110426857D01*
X181463334Y-110617333D01*
X181463334Y-110855429D01*
X181415715Y-111045905D01*
X181368096Y-111141143D01*
X181320477Y-111188762D01*
X181225239Y-111236381D01*
X181130000Y-111236381D01*
X181034762Y-111188762D01*
X180987143Y-111141143D01*
X180939524Y-111045905D01*
X180891905Y-110855429D01*
X180891905Y-110617333D01*
X180939524Y-110426857D01*
X180987143Y-110331619D01*
X181034762Y-110284000D01*
X181130000Y-110236381D01*
X182082381Y-110236381D02*
X182177620Y-110236381D01*
X182272858Y-110284000D01*
X182320477Y-110331619D01*
X182368096Y-110426857D01*
X182415715Y-110617333D01*
X182415715Y-110855429D01*
X182368096Y-111045905D01*
X182320477Y-111141143D01*
X182272858Y-111188762D01*
X182177620Y-111236381D01*
X182082381Y-111236381D01*
X181987143Y-111188762D01*
X181939524Y-111141143D01*
X181891905Y-111045905D01*
X181844286Y-110855429D01*
X181844286Y-110617333D01*
X181891905Y-110426857D01*
X181939524Y-110331619D01*
X181987143Y-110284000D01*
X182082381Y-110236381D01*
X182844286Y-110569714D02*
X182844286Y-111236381D01*
X182844286Y-110664952D02*
X182891905Y-110617333D01*
X182987143Y-110569714D01*
X183130001Y-110569714D01*
X183225239Y-110617333D01*
X183272858Y-110712571D01*
X183272858Y-111236381D01*
X169140143Y-126118857D02*
X169187762Y-126166476D01*
X169235381Y-126309333D01*
X169235381Y-126404571D01*
X169187762Y-126547429D01*
X169092524Y-126642667D01*
X168997286Y-126690286D01*
X168806810Y-126737905D01*
X168663952Y-126737905D01*
X168473476Y-126690286D01*
X168378238Y-126642667D01*
X168283000Y-126547429D01*
X168235381Y-126404571D01*
X168235381Y-126309333D01*
X168283000Y-126166476D01*
X168330619Y-126118857D01*
X169235381Y-125166476D02*
X169235381Y-125737905D01*
X169235381Y-125452191D02*
X168235381Y-125452191D01*
X168378238Y-125547429D01*
X168473476Y-125642667D01*
X168521095Y-125737905D01*
X168235381Y-124547429D02*
X168235381Y-124452190D01*
X168283000Y-124356952D01*
X168330619Y-124309333D01*
X168425857Y-124261714D01*
X168616333Y-124214095D01*
X168854429Y-124214095D01*
X169044905Y-124261714D01*
X169140143Y-124309333D01*
X169187762Y-124356952D01*
X169235381Y-124452190D01*
X169235381Y-124547429D01*
X169187762Y-124642667D01*
X169140143Y-124690286D01*
X169044905Y-124737905D01*
X168854429Y-124785524D01*
X168616333Y-124785524D01*
X168425857Y-124737905D01*
X168330619Y-124690286D01*
X168283000Y-124642667D01*
X168235381Y-124547429D01*
X170818953Y-128428381D02*
X170247524Y-128428381D01*
X170533238Y-128428381D02*
X170533238Y-127428381D01*
X170438000Y-127571238D01*
X170342762Y-127666476D01*
X170247524Y-127714095D01*
X171438000Y-127428381D02*
X171533239Y-127428381D01*
X171628477Y-127476000D01*
X171676096Y-127523619D01*
X171723715Y-127618857D01*
X171771334Y-127809333D01*
X171771334Y-128047429D01*
X171723715Y-128237905D01*
X171676096Y-128333143D01*
X171628477Y-128380762D01*
X171533239Y-128428381D01*
X171438000Y-128428381D01*
X171342762Y-128380762D01*
X171295143Y-128333143D01*
X171247524Y-128237905D01*
X171199905Y-128047429D01*
X171199905Y-127809333D01*
X171247524Y-127618857D01*
X171295143Y-127523619D01*
X171342762Y-127476000D01*
X171438000Y-127428381D01*
X172390381Y-127428381D02*
X172485620Y-127428381D01*
X172580858Y-127476000D01*
X172628477Y-127523619D01*
X172676096Y-127618857D01*
X172723715Y-127809333D01*
X172723715Y-128047429D01*
X172676096Y-128237905D01*
X172628477Y-128333143D01*
X172580858Y-128380762D01*
X172485620Y-128428381D01*
X172390381Y-128428381D01*
X172295143Y-128380762D01*
X172247524Y-128333143D01*
X172199905Y-128237905D01*
X172152286Y-128047429D01*
X172152286Y-127809333D01*
X172199905Y-127618857D01*
X172247524Y-127523619D01*
X172295143Y-127476000D01*
X172390381Y-127428381D01*
X173152286Y-127761714D02*
X173152286Y-128428381D01*
X173152286Y-127856952D02*
X173199905Y-127809333D01*
X173295143Y-127761714D01*
X173438001Y-127761714D01*
X173533239Y-127809333D01*
X173580858Y-127904571D01*
X173580858Y-128428381D01*
X193492381Y-132818095D02*
X192492381Y-132818095D01*
X192492381Y-132437142D01*
X192540000Y-132341904D01*
X192587619Y-132294285D01*
X192682857Y-132246666D01*
X192825714Y-132246666D01*
X192920952Y-132294285D01*
X192968571Y-132341904D01*
X193016190Y-132437142D01*
X193016190Y-132818095D01*
X193492381Y-131294285D02*
X193492381Y-131865714D01*
X193492381Y-131580000D02*
X192492381Y-131580000D01*
X192635238Y-131675238D01*
X192730476Y-131770476D01*
X192778095Y-131865714D01*
X193485095Y-128865381D02*
X193818428Y-129865381D01*
X194151762Y-128865381D01*
X194866048Y-129817762D02*
X194770810Y-129865381D01*
X194580333Y-129865381D01*
X194485095Y-129817762D01*
X194437476Y-129722524D01*
X194437476Y-129341571D01*
X194485095Y-129246333D01*
X194580333Y-129198714D01*
X194770810Y-129198714D01*
X194866048Y-129246333D01*
X194913667Y-129341571D01*
X194913667Y-129436810D01*
X194437476Y-129532048D01*
X195723191Y-129817762D02*
X195627953Y-129865381D01*
X195437476Y-129865381D01*
X195342238Y-129817762D01*
X195294619Y-129722524D01*
X195294619Y-129341571D01*
X195342238Y-129246333D01*
X195437476Y-129198714D01*
X195627953Y-129198714D01*
X195723191Y-129246333D01*
X195770810Y-129341571D01*
X195770810Y-129436810D01*
X195294619Y-129532048D01*
X197485096Y-128913000D02*
X197389858Y-128865381D01*
X197247001Y-128865381D01*
X197104143Y-128913000D01*
X197008905Y-129008238D01*
X196961286Y-129103476D01*
X196913667Y-129293952D01*
X196913667Y-129436810D01*
X196961286Y-129627286D01*
X197008905Y-129722524D01*
X197104143Y-129817762D01*
X197247001Y-129865381D01*
X197342239Y-129865381D01*
X197485096Y-129817762D01*
X197532715Y-129770143D01*
X197532715Y-129436810D01*
X197342239Y-129436810D01*
X197961286Y-129865381D02*
X197961286Y-128865381D01*
X198532715Y-129865381D01*
X198532715Y-128865381D01*
X199008905Y-129865381D02*
X199008905Y-128865381D01*
X199247000Y-128865381D01*
X199389858Y-128913000D01*
X199485096Y-129008238D01*
X199532715Y-129103476D01*
X199580334Y-129293952D01*
X199580334Y-129436810D01*
X199532715Y-129627286D01*
X199485096Y-129722524D01*
X199389858Y-129817762D01*
X199247000Y-129865381D01*
X199008905Y-129865381D01*
X200627953Y-128865381D02*
X200961286Y-129865381D01*
X201294620Y-128865381D01*
X202056525Y-129817762D02*
X201961287Y-129865381D01*
X201770810Y-129865381D01*
X201675572Y-129817762D01*
X201627953Y-129770143D01*
X201580334Y-129674905D01*
X201580334Y-129389190D01*
X201627953Y-129293952D01*
X201675572Y-129246333D01*
X201770810Y-129198714D01*
X201961287Y-129198714D01*
X202056525Y-129246333D01*
X202913668Y-129817762D02*
X202818430Y-129865381D01*
X202627953Y-129865381D01*
X202532715Y-129817762D01*
X202485096Y-129770143D01*
X202437477Y-129674905D01*
X202437477Y-129389190D01*
X202485096Y-129293952D01*
X202532715Y-129246333D01*
X202627953Y-129198714D01*
X202818430Y-129198714D01*
X202913668Y-129246333D01*
X166949381Y-105893952D02*
X165949381Y-105893952D01*
X166949381Y-105417762D02*
X165949381Y-105417762D01*
X166949381Y-104846333D01*
X165949381Y-104846333D01*
X166949381Y-103846333D02*
X166949381Y-104417762D01*
X166949381Y-104132048D02*
X165949381Y-104132048D01*
X166092238Y-104227286D01*
X166187476Y-104322524D01*
X166235095Y-104417762D01*
X166949381Y-102941571D02*
X166949381Y-103417762D01*
X165949381Y-103417762D01*
X166044619Y-102655857D02*
X165997000Y-102608238D01*
X165949381Y-102513000D01*
X165949381Y-102274904D01*
X165997000Y-102179666D01*
X166044619Y-102132047D01*
X166139857Y-102084428D01*
X166235095Y-102084428D01*
X166377952Y-102132047D01*
X166949381Y-102703476D01*
X166949381Y-102084428D01*
X158186381Y-105862190D02*
X157186381Y-105862190D01*
X158186381Y-105386000D02*
X157186381Y-105386000D01*
X158186381Y-104814571D01*
X157186381Y-104814571D01*
X158186381Y-103814571D02*
X158186381Y-104386000D01*
X158186381Y-104100286D02*
X157186381Y-104100286D01*
X157329238Y-104195524D01*
X157424476Y-104290762D01*
X157472095Y-104386000D01*
X158186381Y-102814571D02*
X157710190Y-103147905D01*
X158186381Y-103386000D02*
X157186381Y-103386000D01*
X157186381Y-103005047D01*
X157234000Y-102909809D01*
X157281619Y-102862190D01*
X157376857Y-102814571D01*
X157519714Y-102814571D01*
X157614952Y-102862190D01*
X157662571Y-102909809D01*
X157710190Y-103005047D01*
X157710190Y-103386000D01*
X157281619Y-102433619D02*
X157234000Y-102386000D01*
X157186381Y-102290762D01*
X157186381Y-102052666D01*
X157234000Y-101957428D01*
X157281619Y-101909809D01*
X157376857Y-101862190D01*
X157472095Y-101862190D01*
X157614952Y-101909809D01*
X158186381Y-102481238D01*
X158186381Y-101862190D01*
M02*
