G04 #@! TF.FileFunction,Copper,L1,Top,Signal*
%FSLAX46Y46*%
G04 Gerber Fmt 4.6, Leading zero omitted, Abs format (unit mm)*
G04 Created by KiCad (PCBNEW 4.0.2-4+6225~38~ubuntu14.04.1-stable) date mer. 25 mai 2016 20:50:44 CEST*
%MOMM*%
G01*
G04 APERTURE LIST*
%ADD10C,0.100000*%
%ADD11C,0.150000*%
%ADD12C,1.524000*%
%ADD13C,2.200000*%
%ADD14R,1.300000X1.300000*%
%ADD15C,1.300000*%
%ADD16R,2.032000X2.032000*%
%ADD17O,2.032000X2.032000*%
%ADD18C,1.998980*%
%ADD19O,1.600000X1.600000*%
%ADD20R,1.727200X2.032000*%
%ADD21O,1.727200X2.032000*%
%ADD22C,0.400000*%
%ADD23C,0.250000*%
G04 APERTURE END LIST*
D10*
D11*
X104140000Y-132080000D02*
G75*
G03X106680000Y-134620000I2540000J0D01*
G01*
X200660000Y-134620000D02*
G75*
G03X203200000Y-132080000I0J2540000D01*
G01*
X203200000Y-88900000D02*
G75*
G03X200660000Y-86360000I-2540000J0D01*
G01*
X106680000Y-86360000D02*
G75*
G03X104140000Y-88900000I0J-2540000D01*
G01*
X104140000Y-132080000D02*
X104140000Y-88900000D01*
X200660000Y-134620000D02*
X106680000Y-134620000D01*
X203200000Y-88900000D02*
X203200000Y-132080000D01*
X106680000Y-86360000D02*
X200660000Y-86360000D01*
D12*
X160782000Y-122174000D03*
X160782000Y-124714000D03*
X160782000Y-127254000D03*
X160782000Y-129794000D03*
X160782000Y-132334000D03*
D13*
X118500000Y-93810000D03*
X107070000Y-103310000D03*
X107070000Y-96960000D03*
X107070000Y-90610000D03*
X118500000Y-103310000D03*
X118500000Y-90610000D03*
X118500000Y-96960000D03*
X107070000Y-93810000D03*
X136280000Y-93810000D03*
X124850000Y-103310000D03*
X124850000Y-96960000D03*
X124850000Y-90610000D03*
X136280000Y-103310000D03*
X136280000Y-90610000D03*
X136280000Y-96960000D03*
X124850000Y-93810000D03*
X154060000Y-93810000D03*
X142630000Y-103310000D03*
X142630000Y-96960000D03*
X142630000Y-90610000D03*
X154060000Y-103310000D03*
X154060000Y-90610000D03*
X154060000Y-96960000D03*
X142630000Y-93810000D03*
X199780000Y-93810000D03*
X188350000Y-103310000D03*
X188350000Y-90610000D03*
X199780000Y-103310000D03*
X199780000Y-90610000D03*
X188350000Y-93810000D03*
X182000000Y-93810000D03*
X170570000Y-103310000D03*
X170570000Y-90610000D03*
X182000000Y-103310000D03*
X182000000Y-90610000D03*
X170570000Y-93810000D03*
D14*
X170434000Y-117094000D03*
D15*
X170434000Y-114594000D03*
D14*
X188849000Y-118999000D03*
D15*
X188849000Y-116499000D03*
D16*
X166624000Y-131826000D03*
D17*
X169164000Y-131826000D03*
D16*
X174244000Y-131826000D03*
D17*
X171704000Y-131826000D03*
D16*
X106680000Y-132080000D03*
D17*
X109220000Y-132080000D03*
D16*
X114300000Y-132080000D03*
D17*
X111760000Y-132080000D03*
D16*
X124460000Y-132080000D03*
D17*
X127000000Y-132080000D03*
D16*
X132080000Y-132080000D03*
D17*
X129540000Y-132080000D03*
D16*
X142240000Y-132080000D03*
D17*
X144780000Y-132080000D03*
D16*
X149860000Y-132080000D03*
D17*
X147320000Y-132080000D03*
D18*
X106680000Y-120650000D03*
X106680000Y-113030000D03*
X114300000Y-120650000D03*
X114300000Y-113030000D03*
X124460000Y-120650000D03*
X124460000Y-113030000D03*
X132080000Y-120650000D03*
X132080000Y-113030000D03*
X142240000Y-120650000D03*
X142240000Y-113030000D03*
X148590000Y-120650000D03*
X148590000Y-113030000D03*
X160020000Y-97790000D03*
X160020000Y-90170000D03*
X163195000Y-97790000D03*
X163195000Y-90170000D03*
X172974000Y-122174000D03*
X172974000Y-114554000D03*
X185674000Y-122174000D03*
X185674000Y-114554000D03*
D12*
X160782000Y-108966000D03*
X160782000Y-111506000D03*
X160782000Y-114046000D03*
X160782000Y-116586000D03*
X160782000Y-119126000D03*
D19*
X175514000Y-117094000D03*
X175514000Y-119634000D03*
X175514000Y-122174000D03*
X175514000Y-124714000D03*
X183134000Y-124714000D03*
X183134000Y-122174000D03*
X183134000Y-119634000D03*
X183134000Y-117094000D03*
D15*
X193294000Y-121960000D03*
D14*
X193294000Y-124460000D03*
D15*
X188595000Y-128945000D03*
D14*
X188595000Y-131445000D03*
X182880000Y-113284000D03*
D15*
X180380000Y-113284000D03*
D14*
X170688000Y-125476000D03*
D15*
X173188000Y-125476000D03*
D20*
X195834000Y-132334000D03*
D21*
X198374000Y-132334000D03*
X200914000Y-132334000D03*
D16*
X163830000Y-102616000D03*
D17*
X163830000Y-105156000D03*
D16*
X160020000Y-102489000D03*
D17*
X160020000Y-105029000D03*
D22*
X106680000Y-113030000D02*
X106680000Y-103700000D01*
X106680000Y-103700000D02*
X107070000Y-103310000D01*
X114300000Y-113030000D02*
X114300000Y-104190000D01*
X114300000Y-104190000D02*
X107070000Y-96960000D01*
D23*
X107070000Y-96960000D02*
X107120000Y-96960000D01*
D22*
X124460000Y-113030000D02*
X124460000Y-103700000D01*
X124460000Y-103700000D02*
X124850000Y-103310000D01*
D23*
X124850000Y-112640000D02*
X124460000Y-113030000D01*
D22*
X124850000Y-96960000D02*
X132080000Y-104190000D01*
X132080000Y-104190000D02*
X132080000Y-113030000D01*
X142240000Y-113030000D02*
X142240000Y-103700000D01*
X142240000Y-103700000D02*
X142630000Y-103310000D01*
D23*
X142630000Y-112640000D02*
X142240000Y-113030000D01*
D22*
X148590000Y-113030000D02*
X148590000Y-102920000D01*
X148590000Y-102920000D02*
X142630000Y-96960000D01*
X160782000Y-108966000D02*
X168910000Y-117094000D01*
X168910000Y-117094000D02*
X170434000Y-117094000D01*
X172466000Y-119126000D02*
X172974000Y-119634000D01*
X172974000Y-119634000D02*
X172974000Y-122174000D01*
X175514000Y-119634000D02*
X175006000Y-119126000D01*
X175006000Y-119126000D02*
X172466000Y-119126000D01*
X172466000Y-119126000D02*
X170434000Y-117094000D01*
X160020000Y-102616000D02*
X160020000Y-97790000D01*
X172974000Y-114554000D02*
X175514000Y-117094000D01*
X170434000Y-114594000D02*
X170474000Y-114554000D01*
X170474000Y-114554000D02*
X172974000Y-114554000D01*
X160020000Y-102616000D02*
X161925000Y-104521000D01*
X161925000Y-106085000D02*
X170434000Y-114594000D01*
X161925000Y-104521000D02*
X161925000Y-106085000D01*
D23*
X172934000Y-114594000D02*
X172974000Y-114554000D01*
D22*
X160782000Y-122174000D02*
X164211000Y-122174000D01*
X165862000Y-123825000D02*
X174244000Y-123825000D01*
X174244000Y-123825000D02*
X174625000Y-123444000D01*
X174625000Y-123444000D02*
X181864000Y-123444000D01*
X181864000Y-123444000D02*
X183134000Y-122174000D01*
X164211000Y-122174000D02*
X165862000Y-123825000D01*
X188849000Y-118999000D02*
X185674000Y-122174000D01*
X185674000Y-122174000D02*
X183134000Y-122174000D01*
X163830000Y-102616000D02*
X169926000Y-108712000D01*
X169926000Y-108712000D02*
X181864000Y-108712000D01*
X163830000Y-102616000D02*
X163830000Y-98425000D01*
X163830000Y-98425000D02*
X163195000Y-97790000D01*
X188849000Y-116499000D02*
X187619000Y-116499000D01*
X187619000Y-116499000D02*
X185674000Y-114554000D01*
X185674000Y-112522000D02*
X185674000Y-114554000D01*
X181864000Y-108712000D02*
X185674000Y-112522000D01*
X163195000Y-97790000D02*
X163830000Y-98425000D01*
X160782000Y-124714000D02*
X166624000Y-130556000D01*
X166624000Y-130556000D02*
X166624000Y-131826000D01*
X160782000Y-119126000D02*
X159258000Y-120650000D01*
X171704000Y-129286000D02*
X174244000Y-131826000D01*
X168910000Y-129286000D02*
X171704000Y-129286000D01*
X163068000Y-123444000D02*
X168910000Y-129286000D01*
X160401000Y-123444000D02*
X163068000Y-123444000D01*
X159258000Y-122301000D02*
X160401000Y-123444000D01*
X159258000Y-120650000D02*
X159258000Y-122301000D01*
X106680000Y-132080000D02*
X106680000Y-120650000D01*
X114300000Y-132080000D02*
X114300000Y-120650000D01*
X124460000Y-132080000D02*
X124460000Y-120650000D01*
X132080000Y-132080000D02*
X132080000Y-120650000D01*
X142240000Y-132080000D02*
X142240000Y-120650000D01*
X149860000Y-132080000D02*
X149860000Y-121920000D01*
X149860000Y-121920000D02*
X148590000Y-120650000D01*
X151130000Y-118872000D02*
X151384000Y-118872000D01*
X118500000Y-113928000D02*
X123444000Y-118872000D01*
X123444000Y-118872000D02*
X151130000Y-118872000D01*
X118500000Y-103310000D02*
X118500000Y-113928000D01*
X154940000Y-126492000D02*
X160782000Y-132334000D01*
X154940000Y-122428000D02*
X154940000Y-126492000D01*
X151384000Y-118872000D02*
X154940000Y-122428000D01*
X147574000Y-95377000D02*
X148971000Y-95377000D01*
X120083000Y-95377000D02*
X129159000Y-95377000D01*
X129159000Y-95377000D02*
X133350000Y-99568000D01*
X133350000Y-99568000D02*
X136779000Y-99568000D01*
X136779000Y-99568000D02*
X140970000Y-95377000D01*
X140970000Y-95377000D02*
X147574000Y-95377000D01*
X118500000Y-96960000D02*
X120083000Y-95377000D01*
X155575000Y-111379000D02*
X160782000Y-116586000D01*
X155575000Y-101981000D02*
X155575000Y-111379000D01*
X148971000Y-95377000D02*
X155575000Y-101981000D01*
X150876000Y-117602000D02*
X152400000Y-117602000D01*
X136280000Y-113928000D02*
X139954000Y-117602000D01*
X139954000Y-117602000D02*
X150876000Y-117602000D01*
X136280000Y-103310000D02*
X136280000Y-113928000D01*
X156464000Y-125476000D02*
X160782000Y-129794000D01*
X156464000Y-121666000D02*
X156464000Y-125476000D01*
X152400000Y-117602000D02*
X156464000Y-121666000D01*
X146050000Y-92202000D02*
X147066000Y-92202000D01*
X141038000Y-92202000D02*
X146050000Y-92202000D01*
X160782000Y-114046000D02*
X156337000Y-109601000D01*
X156337000Y-102489000D02*
X156337000Y-109601000D01*
X141038000Y-92202000D02*
X136280000Y-96960000D01*
X156337000Y-101473000D02*
X156337000Y-102489000D01*
X147066000Y-92202000D02*
X156337000Y-101473000D01*
X154060000Y-103310000D02*
X154060000Y-115706000D01*
X158242000Y-124714000D02*
X160782000Y-127254000D01*
X158242000Y-119888000D02*
X158242000Y-124714000D01*
X154060000Y-115706000D02*
X158242000Y-119888000D01*
X154060000Y-96960000D02*
X157099000Y-99999000D01*
X157099000Y-107823000D02*
X160782000Y-111506000D01*
X157099000Y-99999000D02*
X157099000Y-107823000D01*
X154060000Y-96960000D02*
X154237000Y-96960000D01*
X183134000Y-117094000D02*
X183769000Y-117729000D01*
X190881000Y-122047000D02*
X193294000Y-124460000D01*
X190881000Y-118491000D02*
X190881000Y-122047000D01*
X190119000Y-117729000D02*
X190881000Y-118491000D01*
X183769000Y-117729000D02*
X190119000Y-117729000D01*
X193294000Y-124460000D02*
X193294000Y-124714000D01*
X193294000Y-124714000D02*
X200914000Y-132334000D01*
X182880000Y-113284000D02*
X183134000Y-113538000D01*
X183134000Y-113538000D02*
X183134000Y-117094000D01*
X188595000Y-128945000D02*
X179745000Y-128945000D01*
X179745000Y-128945000D02*
X175514000Y-124714000D01*
X195834000Y-132334000D02*
X192445000Y-128945000D01*
X192445000Y-128945000D02*
X188595000Y-128945000D01*
X173188000Y-125476000D02*
X173950000Y-124714000D01*
X173950000Y-124714000D02*
X175514000Y-124714000D01*
X163195000Y-90170000D02*
X163195000Y-90297000D01*
X163195000Y-90297000D02*
X170942000Y-98044000D01*
X170942000Y-98044000D02*
X183084000Y-98044000D01*
X183084000Y-98044000D02*
X188350000Y-103310000D01*
X160020000Y-90170000D02*
X170570000Y-100720000D01*
X170570000Y-100720000D02*
X170570000Y-103310000D01*
M02*
