M48
;DRILL file {KiCad 4.0.2-4+6225~38~ubuntu14.04.1-stable} date mer. 25 mai 2016 20:50:51 CEST
;FORMAT={-:-/ absolute / inch / decimal}
FMAT,2
INCH,TZ
T1C0.031
T2C0.032
T3C0.032
T4C0.039
T5C0.040
T6C0.059
T7C0.079
%
G90
G05
M72
T1
X6.71Y-4.61
X6.72Y-4.94
X6.91Y-4.61
X6.91Y-4.71
X6.91Y-4.81
X6.91Y-4.91
X7.2Y-4.46
X7.21Y-4.61
X7.21Y-4.71
X7.21Y-4.81
X7.21Y-4.91
X7.425Y-5.0766
X7.425Y-5.175
X7.435Y-4.685
X7.61Y-4.8016
X7.61Y-4.9
T2
X6.71Y-4.5116
X6.8184Y-4.94
X7.1016Y-4.46
X7.435Y-4.5866
T3
X6.33Y-4.29
X6.33Y-4.39
X6.33Y-4.49
X6.33Y-4.59
X6.33Y-4.69
X6.33Y-4.81
X6.33Y-4.91
X6.33Y-5.01
X6.33Y-5.11
X6.33Y-5.21
T4
X4.2Y-4.45
X4.2Y-4.75
X4.5Y-4.45
X4.5Y-4.75
X4.9Y-4.45
X4.9Y-4.75
X5.2Y-4.45
X5.2Y-4.75
X5.6Y-4.45
X5.6Y-4.75
X5.85Y-4.45
X5.85Y-4.75
X6.3Y-3.55
X6.3Y-3.85
X6.425Y-3.55
X6.425Y-3.85
X6.81Y-4.51
X6.81Y-4.81
X7.31Y-4.51
X7.31Y-4.81
T5
X4.2Y-5.2
X4.3Y-5.2
X4.4Y-5.2
X4.5Y-5.2
X4.9Y-5.2
X5.Y-5.2
X5.1Y-5.2
X5.2Y-5.2
X5.6Y-5.2
X5.7Y-5.2
X5.8Y-5.2
X5.9Y-5.2
X6.3Y-4.035
X6.3Y-4.135
X6.45Y-4.04
X6.45Y-4.14
X6.56Y-5.19
X6.66Y-5.19
X6.76Y-5.19
X6.86Y-5.19
X7.71Y-5.21
X7.81Y-5.21
X7.91Y-5.21
T6
X4.2154Y-3.5673
X4.2154Y-3.8173
X4.2154Y-4.0673
X4.6654Y-3.5673
X4.6654Y-3.8173
X4.6654Y-4.0673
X4.9154Y-3.5673
X4.9154Y-3.8173
X4.9154Y-4.0673
X5.3654Y-3.5673
X5.3654Y-3.8173
X5.3654Y-4.0673
X5.6154Y-3.5673
X5.6154Y-3.8173
X5.6154Y-4.0673
X6.0654Y-3.5673
X6.0654Y-3.8173
X6.0654Y-4.0673
X6.7154Y-3.5673
X6.7154Y-4.0673
X7.1654Y-3.5673
X7.1654Y-4.0673
X7.4154Y-3.5673
X7.4154Y-4.0673
X7.8654Y-3.5673
X7.8654Y-4.0673
T7
X4.2154Y-3.6933
X4.6654Y-3.6933
X4.9154Y-3.6933
X5.3654Y-3.6933
X5.6154Y-3.6933
X6.0654Y-3.6933
X6.7154Y-3.6933
X7.1654Y-3.6933
X7.4154Y-3.6933
X7.8654Y-3.6933
T0
M30
