G04 #@! TF.FileFunction,Legend,Bot*
%FSLAX46Y46*%
G04 Gerber Fmt 4.6, Leading zero omitted, Abs format (unit mm)*
G04 Created by KiCad (PCBNEW 4.0.2-4+6225~38~ubuntu14.04.1-stable) date mer. 25 mai 2016 20:50:44 CEST*
%MOMM*%
G01*
G04 APERTURE LIST*
%ADD10C,0.100000*%
%ADD11C,0.300000*%
%ADD12C,0.150000*%
G04 APERTURE END LIST*
D10*
D11*
X148039999Y-126972143D02*
X147825713Y-127043571D01*
X147468570Y-127043571D01*
X147325713Y-126972143D01*
X147254284Y-126900714D01*
X147182856Y-126757857D01*
X147182856Y-126615000D01*
X147254284Y-126472143D01*
X147325713Y-126400714D01*
X147468570Y-126329286D01*
X147754284Y-126257857D01*
X147897142Y-126186429D01*
X147968570Y-126115000D01*
X148039999Y-125972143D01*
X148039999Y-125829286D01*
X147968570Y-125686429D01*
X147897142Y-125615000D01*
X147754284Y-125543571D01*
X147397142Y-125543571D01*
X147182856Y-125615000D01*
X146539999Y-127043571D02*
X146539999Y-125543571D01*
X145825713Y-127043571D02*
X145825713Y-125543571D01*
X145468570Y-125543571D01*
X145254285Y-125615000D01*
X145111427Y-125757857D01*
X145039999Y-125900714D01*
X144968570Y-126186429D01*
X144968570Y-126400714D01*
X145039999Y-126686429D01*
X145111427Y-126829286D01*
X145254285Y-126972143D01*
X145468570Y-127043571D01*
X145825713Y-127043571D01*
X144325713Y-127043571D02*
X144325713Y-125543571D01*
X143825713Y-126615000D01*
X143325713Y-125543571D01*
X143325713Y-127043571D01*
X142611427Y-127043571D02*
X142611427Y-126043571D01*
X142611427Y-125543571D02*
X142682856Y-125615000D01*
X142611427Y-125686429D01*
X142539999Y-125615000D01*
X142611427Y-125543571D01*
X142611427Y-125686429D01*
X142039998Y-127043571D02*
X141254284Y-126043571D01*
X142039998Y-126043571D02*
X141254284Y-127043571D01*
X140111427Y-126972143D02*
X140254284Y-127043571D01*
X140539998Y-127043571D01*
X140682855Y-126972143D01*
X140754284Y-126829286D01*
X140754284Y-126257857D01*
X140682855Y-126115000D01*
X140539998Y-126043571D01*
X140254284Y-126043571D01*
X140111427Y-126115000D01*
X140039998Y-126257857D01*
X140039998Y-126400714D01*
X140754284Y-126543571D01*
X139397141Y-127043571D02*
X139397141Y-126043571D01*
X139397141Y-126329286D02*
X139325713Y-126186429D01*
X139254284Y-126115000D01*
X139111427Y-126043571D01*
X138968570Y-126043571D01*
X137468570Y-126043571D02*
X137111427Y-127043571D01*
X136754285Y-126043571D01*
X135897142Y-125543571D02*
X135754285Y-125543571D01*
X135611428Y-125615000D01*
X135539999Y-125686429D01*
X135468570Y-125829286D01*
X135397142Y-126115000D01*
X135397142Y-126472143D01*
X135468570Y-126757857D01*
X135539999Y-126900714D01*
X135611428Y-126972143D01*
X135754285Y-127043571D01*
X135897142Y-127043571D01*
X136039999Y-126972143D01*
X136111428Y-126900714D01*
X136182856Y-126757857D01*
X136254285Y-126472143D01*
X136254285Y-126115000D01*
X136182856Y-125829286D01*
X136111428Y-125686429D01*
X136039999Y-125615000D01*
X135897142Y-125543571D01*
X134754285Y-126900714D02*
X134682857Y-126972143D01*
X134754285Y-127043571D01*
X134825714Y-126972143D01*
X134754285Y-126900714D01*
X134754285Y-127043571D01*
X134111428Y-125686429D02*
X134039999Y-125615000D01*
X133897142Y-125543571D01*
X133539999Y-125543571D01*
X133397142Y-125615000D01*
X133325713Y-125686429D01*
X133254285Y-125829286D01*
X133254285Y-125972143D01*
X133325713Y-126186429D01*
X134182856Y-127043571D01*
X133254285Y-127043571D01*
X131611428Y-127043571D02*
X130825714Y-126043571D01*
X131611428Y-126043571D02*
X130825714Y-127043571D01*
X129611428Y-127043571D02*
X129611428Y-126257857D01*
X129682857Y-126115000D01*
X129825714Y-126043571D01*
X130111428Y-126043571D01*
X130254285Y-126115000D01*
X129611428Y-126972143D02*
X129754285Y-127043571D01*
X130111428Y-127043571D01*
X130254285Y-126972143D01*
X130325714Y-126829286D01*
X130325714Y-126686429D01*
X130254285Y-126543571D01*
X130111428Y-126472143D01*
X129754285Y-126472143D01*
X129611428Y-126400714D01*
X129039999Y-126043571D02*
X128682856Y-127043571D01*
X128325714Y-126043571D01*
X127754285Y-127043571D02*
X127754285Y-126043571D01*
X127754285Y-125543571D02*
X127825714Y-125615000D01*
X127754285Y-125686429D01*
X127682857Y-125615000D01*
X127754285Y-125543571D01*
X127754285Y-125686429D01*
X126468571Y-126972143D02*
X126611428Y-127043571D01*
X126897142Y-127043571D01*
X127039999Y-126972143D01*
X127111428Y-126829286D01*
X127111428Y-126257857D01*
X127039999Y-126115000D01*
X126897142Y-126043571D01*
X126611428Y-126043571D01*
X126468571Y-126115000D01*
X126397142Y-126257857D01*
X126397142Y-126400714D01*
X127111428Y-126543571D01*
X125754285Y-127043571D02*
X125754285Y-126043571D01*
X125754285Y-126329286D02*
X125682857Y-126186429D01*
X125611428Y-126115000D01*
X125468571Y-126043571D01*
X125325714Y-126043571D01*
X123682857Y-127043571D02*
X123682857Y-125543571D01*
X123040000Y-127043571D02*
X123040000Y-126257857D01*
X123111429Y-126115000D01*
X123254286Y-126043571D01*
X123468571Y-126043571D01*
X123611429Y-126115000D01*
X123682857Y-126186429D01*
X122111428Y-127043571D02*
X122254286Y-126972143D01*
X122325714Y-126900714D01*
X122397143Y-126757857D01*
X122397143Y-126329286D01*
X122325714Y-126186429D01*
X122254286Y-126115000D01*
X122111428Y-126043571D01*
X121897143Y-126043571D01*
X121754286Y-126115000D01*
X121682857Y-126186429D01*
X121611428Y-126329286D01*
X121611428Y-126757857D01*
X121682857Y-126900714D01*
X121754286Y-126972143D01*
X121897143Y-127043571D01*
X122111428Y-127043571D01*
X121040000Y-126972143D02*
X120897143Y-127043571D01*
X120611428Y-127043571D01*
X120468571Y-126972143D01*
X120397143Y-126829286D01*
X120397143Y-126757857D01*
X120468571Y-126615000D01*
X120611428Y-126543571D01*
X120825714Y-126543571D01*
X120968571Y-126472143D01*
X121040000Y-126329286D01*
X121040000Y-126257857D01*
X120968571Y-126115000D01*
X120825714Y-126043571D01*
X120611428Y-126043571D01*
X120468571Y-126115000D01*
X119897142Y-127043571D02*
X119111428Y-126043571D01*
X119897142Y-126043571D02*
X119111428Y-127043571D01*
X117968571Y-126972143D02*
X118111428Y-127043571D01*
X118397142Y-127043571D01*
X118539999Y-126972143D01*
X118611428Y-126829286D01*
X118611428Y-126257857D01*
X118539999Y-126115000D01*
X118397142Y-126043571D01*
X118111428Y-126043571D01*
X117968571Y-126115000D01*
X117897142Y-126257857D01*
X117897142Y-126400714D01*
X118611428Y-126543571D01*
X116182857Y-125686429D02*
X116111428Y-125615000D01*
X115968571Y-125543571D01*
X115611428Y-125543571D01*
X115468571Y-125615000D01*
X115397142Y-125686429D01*
X115325714Y-125829286D01*
X115325714Y-125972143D01*
X115397142Y-126186429D01*
X116254285Y-127043571D01*
X115325714Y-127043571D01*
X114397143Y-125543571D02*
X114254286Y-125543571D01*
X114111429Y-125615000D01*
X114040000Y-125686429D01*
X113968571Y-125829286D01*
X113897143Y-126115000D01*
X113897143Y-126472143D01*
X113968571Y-126757857D01*
X114040000Y-126900714D01*
X114111429Y-126972143D01*
X114254286Y-127043571D01*
X114397143Y-127043571D01*
X114540000Y-126972143D01*
X114611429Y-126900714D01*
X114682857Y-126757857D01*
X114754286Y-126472143D01*
X114754286Y-126115000D01*
X114682857Y-125829286D01*
X114611429Y-125686429D01*
X114540000Y-125615000D01*
X114397143Y-125543571D01*
X112468572Y-127043571D02*
X113325715Y-127043571D01*
X112897143Y-127043571D02*
X112897143Y-125543571D01*
X113040000Y-125757857D01*
X113182858Y-125900714D01*
X113325715Y-125972143D01*
X111182858Y-125543571D02*
X111468572Y-125543571D01*
X111611429Y-125615000D01*
X111682858Y-125686429D01*
X111825715Y-125900714D01*
X111897144Y-126186429D01*
X111897144Y-126757857D01*
X111825715Y-126900714D01*
X111754287Y-126972143D01*
X111611429Y-127043571D01*
X111325715Y-127043571D01*
X111182858Y-126972143D01*
X111111429Y-126900714D01*
X111040001Y-126757857D01*
X111040001Y-126400714D01*
X111111429Y-126257857D01*
X111182858Y-126186429D01*
X111325715Y-126115000D01*
X111611429Y-126115000D01*
X111754287Y-126186429D01*
X111825715Y-126257857D01*
X111897144Y-126400714D01*
D12*
X104140000Y-132080000D02*
G75*
G03X106680000Y-134620000I2540000J0D01*
G01*
X200660000Y-134620000D02*
G75*
G03X203200000Y-132080000I0J2540000D01*
G01*
X203200000Y-88900000D02*
G75*
G03X200660000Y-86360000I-2540000J0D01*
G01*
X106680000Y-86360000D02*
G75*
G03X104140000Y-88900000I0J-2540000D01*
G01*
X104140000Y-132080000D02*
X104140000Y-88900000D01*
X200660000Y-134620000D02*
X106680000Y-134620000D01*
X203200000Y-88900000D02*
X203200000Y-132080000D01*
X106680000Y-86360000D02*
X200660000Y-86360000D01*
M02*
