G04 #@! TF.FileFunction,Copper,L2,Bot,Signal*
%FSLAX46Y46*%
G04 Gerber Fmt 4.6, Leading zero omitted, Abs format (unit mm)*
G04 Created by KiCad (PCBNEW 4.0.2-4+6225~38~ubuntu14.04.1-stable) date mer. 25 mai 2016 20:50:44 CEST*
%MOMM*%
G01*
G04 APERTURE LIST*
%ADD10C,0.100000*%
%ADD11C,0.150000*%
%ADD12C,1.524000*%
%ADD13C,2.200000*%
%ADD14R,1.300000X1.300000*%
%ADD15C,1.300000*%
%ADD16R,2.032000X2.032000*%
%ADD17O,2.032000X2.032000*%
%ADD18C,1.998980*%
%ADD19O,1.600000X1.600000*%
%ADD20R,1.727200X2.032000*%
%ADD21O,1.727200X2.032000*%
%ADD22C,0.250000*%
%ADD23C,0.400000*%
%ADD24C,0.254000*%
G04 APERTURE END LIST*
D10*
D11*
X104140000Y-132080000D02*
G75*
G03X106680000Y-134620000I2540000J0D01*
G01*
X200660000Y-134620000D02*
G75*
G03X203200000Y-132080000I0J2540000D01*
G01*
X203200000Y-88900000D02*
G75*
G03X200660000Y-86360000I-2540000J0D01*
G01*
X106680000Y-86360000D02*
G75*
G03X104140000Y-88900000I0J-2540000D01*
G01*
X104140000Y-132080000D02*
X104140000Y-88900000D01*
X200660000Y-134620000D02*
X106680000Y-134620000D01*
X203200000Y-88900000D02*
X203200000Y-132080000D01*
X106680000Y-86360000D02*
X200660000Y-86360000D01*
D12*
X160782000Y-122174000D03*
X160782000Y-124714000D03*
X160782000Y-127254000D03*
X160782000Y-129794000D03*
X160782000Y-132334000D03*
D13*
X118500000Y-93810000D03*
X107070000Y-103310000D03*
X107070000Y-96960000D03*
X107070000Y-90610000D03*
X118500000Y-103310000D03*
X118500000Y-90610000D03*
X118500000Y-96960000D03*
X107070000Y-93810000D03*
X136280000Y-93810000D03*
X124850000Y-103310000D03*
X124850000Y-96960000D03*
X124850000Y-90610000D03*
X136280000Y-103310000D03*
X136280000Y-90610000D03*
X136280000Y-96960000D03*
X124850000Y-93810000D03*
X154060000Y-93810000D03*
X142630000Y-103310000D03*
X142630000Y-96960000D03*
X142630000Y-90610000D03*
X154060000Y-103310000D03*
X154060000Y-90610000D03*
X154060000Y-96960000D03*
X142630000Y-93810000D03*
X199780000Y-93810000D03*
X188350000Y-103310000D03*
X188350000Y-90610000D03*
X199780000Y-103310000D03*
X199780000Y-90610000D03*
X188350000Y-93810000D03*
X182000000Y-93810000D03*
X170570000Y-103310000D03*
X170570000Y-90610000D03*
X182000000Y-103310000D03*
X182000000Y-90610000D03*
X170570000Y-93810000D03*
D14*
X170434000Y-117094000D03*
D15*
X170434000Y-114594000D03*
D14*
X188849000Y-118999000D03*
D15*
X188849000Y-116499000D03*
D16*
X166624000Y-131826000D03*
D17*
X169164000Y-131826000D03*
D16*
X174244000Y-131826000D03*
D17*
X171704000Y-131826000D03*
D16*
X106680000Y-132080000D03*
D17*
X109220000Y-132080000D03*
D16*
X114300000Y-132080000D03*
D17*
X111760000Y-132080000D03*
D16*
X124460000Y-132080000D03*
D17*
X127000000Y-132080000D03*
D16*
X132080000Y-132080000D03*
D17*
X129540000Y-132080000D03*
D16*
X142240000Y-132080000D03*
D17*
X144780000Y-132080000D03*
D16*
X149860000Y-132080000D03*
D17*
X147320000Y-132080000D03*
D18*
X106680000Y-120650000D03*
X106680000Y-113030000D03*
X114300000Y-120650000D03*
X114300000Y-113030000D03*
X124460000Y-120650000D03*
X124460000Y-113030000D03*
X132080000Y-120650000D03*
X132080000Y-113030000D03*
X142240000Y-120650000D03*
X142240000Y-113030000D03*
X148590000Y-120650000D03*
X148590000Y-113030000D03*
X160020000Y-97790000D03*
X160020000Y-90170000D03*
X163195000Y-97790000D03*
X163195000Y-90170000D03*
X172974000Y-122174000D03*
X172974000Y-114554000D03*
X185674000Y-122174000D03*
X185674000Y-114554000D03*
D12*
X160782000Y-108966000D03*
X160782000Y-111506000D03*
X160782000Y-114046000D03*
X160782000Y-116586000D03*
X160782000Y-119126000D03*
D19*
X175514000Y-117094000D03*
X175514000Y-119634000D03*
X175514000Y-122174000D03*
X175514000Y-124714000D03*
X183134000Y-124714000D03*
X183134000Y-122174000D03*
X183134000Y-119634000D03*
X183134000Y-117094000D03*
D15*
X193294000Y-121960000D03*
D14*
X193294000Y-124460000D03*
D15*
X188595000Y-128945000D03*
D14*
X188595000Y-131445000D03*
X182880000Y-113284000D03*
D15*
X180380000Y-113284000D03*
D14*
X170688000Y-125476000D03*
D15*
X173188000Y-125476000D03*
D20*
X195834000Y-132334000D03*
D21*
X198374000Y-132334000D03*
X200914000Y-132334000D03*
D16*
X163830000Y-102616000D03*
D17*
X163830000Y-105156000D03*
D16*
X160020000Y-102489000D03*
D17*
X160020000Y-105029000D03*
D22*
X124850000Y-96960000D02*
X124655000Y-96960000D01*
D23*
X183134000Y-119634000D02*
X185674000Y-117094000D01*
X185674000Y-117094000D02*
X185674000Y-114554000D01*
D24*
G36*
X201354989Y-87222152D02*
X201944170Y-87615830D01*
X202337848Y-88205011D01*
X202438000Y-88708509D01*
X202438000Y-132271491D01*
X202412600Y-132399185D01*
X202412600Y-132149255D01*
X202298526Y-131575766D01*
X201973670Y-131089585D01*
X201487489Y-130764729D01*
X200914000Y-130650655D01*
X200340511Y-130764729D01*
X199854330Y-131089585D01*
X199647539Y-131399069D01*
X199276036Y-130983268D01*
X198748791Y-130729291D01*
X198733026Y-130726642D01*
X198501000Y-130847783D01*
X198501000Y-132207000D01*
X198521000Y-132207000D01*
X198521000Y-132461000D01*
X198501000Y-132461000D01*
X198501000Y-132481000D01*
X198247000Y-132481000D01*
X198247000Y-132461000D01*
X198227000Y-132461000D01*
X198227000Y-132207000D01*
X198247000Y-132207000D01*
X198247000Y-130847783D01*
X198014974Y-130726642D01*
X197999209Y-130729291D01*
X197471964Y-130983268D01*
X197315093Y-131158845D01*
X197300762Y-131082683D01*
X197161690Y-130866559D01*
X196949490Y-130721569D01*
X196697600Y-130670560D01*
X194970400Y-130670560D01*
X194735083Y-130714838D01*
X194518959Y-130853910D01*
X194373969Y-131066110D01*
X194322960Y-131318000D01*
X194322960Y-133350000D01*
X194367238Y-133585317D01*
X194506310Y-133801441D01*
X194589087Y-133858000D01*
X106488509Y-133858000D01*
X105985011Y-133757848D01*
X105963448Y-133743440D01*
X107696000Y-133743440D01*
X107931317Y-133699162D01*
X108147441Y-133560090D01*
X108258840Y-133397052D01*
X108355182Y-133486385D01*
X108837056Y-133685975D01*
X109093000Y-133566836D01*
X109093000Y-132207000D01*
X109347000Y-132207000D01*
X109347000Y-133566836D01*
X109602944Y-133685975D01*
X110084818Y-133486385D01*
X110490000Y-133110679D01*
X110895182Y-133486385D01*
X111377056Y-133685975D01*
X111633000Y-133566836D01*
X111633000Y-132207000D01*
X109347000Y-132207000D01*
X109093000Y-132207000D01*
X109073000Y-132207000D01*
X109073000Y-131953000D01*
X109093000Y-131953000D01*
X109093000Y-130593164D01*
X109347000Y-130593164D01*
X109347000Y-131953000D01*
X111633000Y-131953000D01*
X111633000Y-130593164D01*
X111887000Y-130593164D01*
X111887000Y-131953000D01*
X111907000Y-131953000D01*
X111907000Y-132207000D01*
X111887000Y-132207000D01*
X111887000Y-133566836D01*
X112142944Y-133685975D01*
X112624818Y-133486385D01*
X112722398Y-133395903D01*
X112819910Y-133547441D01*
X113032110Y-133692431D01*
X113284000Y-133743440D01*
X115316000Y-133743440D01*
X115551317Y-133699162D01*
X115767441Y-133560090D01*
X115912431Y-133347890D01*
X115963440Y-133096000D01*
X115963440Y-131064000D01*
X122796560Y-131064000D01*
X122796560Y-133096000D01*
X122840838Y-133331317D01*
X122979910Y-133547441D01*
X123192110Y-133692431D01*
X123444000Y-133743440D01*
X125476000Y-133743440D01*
X125711317Y-133699162D01*
X125927441Y-133560090D01*
X126038840Y-133397052D01*
X126135182Y-133486385D01*
X126617056Y-133685975D01*
X126873000Y-133566836D01*
X126873000Y-132207000D01*
X127127000Y-132207000D01*
X127127000Y-133566836D01*
X127382944Y-133685975D01*
X127864818Y-133486385D01*
X128270000Y-133110679D01*
X128675182Y-133486385D01*
X129157056Y-133685975D01*
X129413000Y-133566836D01*
X129413000Y-132207000D01*
X127127000Y-132207000D01*
X126873000Y-132207000D01*
X126853000Y-132207000D01*
X126853000Y-131953000D01*
X126873000Y-131953000D01*
X126873000Y-130593164D01*
X127127000Y-130593164D01*
X127127000Y-131953000D01*
X129413000Y-131953000D01*
X129413000Y-130593164D01*
X129667000Y-130593164D01*
X129667000Y-131953000D01*
X129687000Y-131953000D01*
X129687000Y-132207000D01*
X129667000Y-132207000D01*
X129667000Y-133566836D01*
X129922944Y-133685975D01*
X130404818Y-133486385D01*
X130502398Y-133395903D01*
X130599910Y-133547441D01*
X130812110Y-133692431D01*
X131064000Y-133743440D01*
X133096000Y-133743440D01*
X133331317Y-133699162D01*
X133547441Y-133560090D01*
X133692431Y-133347890D01*
X133743440Y-133096000D01*
X133743440Y-131064000D01*
X140576560Y-131064000D01*
X140576560Y-133096000D01*
X140620838Y-133331317D01*
X140759910Y-133547441D01*
X140972110Y-133692431D01*
X141224000Y-133743440D01*
X143256000Y-133743440D01*
X143491317Y-133699162D01*
X143707441Y-133560090D01*
X143818840Y-133397052D01*
X143915182Y-133486385D01*
X144397056Y-133685975D01*
X144653000Y-133566836D01*
X144653000Y-132207000D01*
X144907000Y-132207000D01*
X144907000Y-133566836D01*
X145162944Y-133685975D01*
X145644818Y-133486385D01*
X146050000Y-133110679D01*
X146455182Y-133486385D01*
X146937056Y-133685975D01*
X147193000Y-133566836D01*
X147193000Y-132207000D01*
X144907000Y-132207000D01*
X144653000Y-132207000D01*
X144633000Y-132207000D01*
X144633000Y-131953000D01*
X144653000Y-131953000D01*
X144653000Y-130593164D01*
X144907000Y-130593164D01*
X144907000Y-131953000D01*
X147193000Y-131953000D01*
X147193000Y-130593164D01*
X147447000Y-130593164D01*
X147447000Y-131953000D01*
X147467000Y-131953000D01*
X147467000Y-132207000D01*
X147447000Y-132207000D01*
X147447000Y-133566836D01*
X147702944Y-133685975D01*
X148184818Y-133486385D01*
X148282398Y-133395903D01*
X148379910Y-133547441D01*
X148592110Y-133692431D01*
X148844000Y-133743440D01*
X150876000Y-133743440D01*
X151111317Y-133699162D01*
X151327441Y-133560090D01*
X151472431Y-133347890D01*
X151523440Y-133096000D01*
X151523440Y-131064000D01*
X151479162Y-130828683D01*
X151340090Y-130612559D01*
X151127890Y-130467569D01*
X150876000Y-130416560D01*
X148844000Y-130416560D01*
X148608683Y-130460838D01*
X148392559Y-130599910D01*
X148281160Y-130762948D01*
X148184818Y-130673615D01*
X147702944Y-130474025D01*
X147447000Y-130593164D01*
X147193000Y-130593164D01*
X146937056Y-130474025D01*
X146455182Y-130673615D01*
X146050000Y-131049321D01*
X145644818Y-130673615D01*
X145162944Y-130474025D01*
X144907000Y-130593164D01*
X144653000Y-130593164D01*
X144397056Y-130474025D01*
X143915182Y-130673615D01*
X143817602Y-130764097D01*
X143720090Y-130612559D01*
X143507890Y-130467569D01*
X143256000Y-130416560D01*
X141224000Y-130416560D01*
X140988683Y-130460838D01*
X140772559Y-130599910D01*
X140627569Y-130812110D01*
X140576560Y-131064000D01*
X133743440Y-131064000D01*
X133699162Y-130828683D01*
X133560090Y-130612559D01*
X133347890Y-130467569D01*
X133096000Y-130416560D01*
X131064000Y-130416560D01*
X130828683Y-130460838D01*
X130612559Y-130599910D01*
X130501160Y-130762948D01*
X130404818Y-130673615D01*
X129922944Y-130474025D01*
X129667000Y-130593164D01*
X129413000Y-130593164D01*
X129157056Y-130474025D01*
X128675182Y-130673615D01*
X128270000Y-131049321D01*
X127864818Y-130673615D01*
X127382944Y-130474025D01*
X127127000Y-130593164D01*
X126873000Y-130593164D01*
X126617056Y-130474025D01*
X126135182Y-130673615D01*
X126037602Y-130764097D01*
X125940090Y-130612559D01*
X125727890Y-130467569D01*
X125476000Y-130416560D01*
X123444000Y-130416560D01*
X123208683Y-130460838D01*
X122992559Y-130599910D01*
X122847569Y-130812110D01*
X122796560Y-131064000D01*
X115963440Y-131064000D01*
X115919162Y-130828683D01*
X115780090Y-130612559D01*
X115567890Y-130467569D01*
X115316000Y-130416560D01*
X113284000Y-130416560D01*
X113048683Y-130460838D01*
X112832559Y-130599910D01*
X112721160Y-130762948D01*
X112624818Y-130673615D01*
X112142944Y-130474025D01*
X111887000Y-130593164D01*
X111633000Y-130593164D01*
X111377056Y-130474025D01*
X110895182Y-130673615D01*
X110490000Y-131049321D01*
X110084818Y-130673615D01*
X109602944Y-130474025D01*
X109347000Y-130593164D01*
X109093000Y-130593164D01*
X108837056Y-130474025D01*
X108355182Y-130673615D01*
X108257602Y-130764097D01*
X108160090Y-130612559D01*
X107947890Y-130467569D01*
X107696000Y-130416560D01*
X105664000Y-130416560D01*
X105428683Y-130460838D01*
X105212559Y-130599910D01*
X105067569Y-130812110D01*
X105016560Y-131064000D01*
X105016560Y-132796552D01*
X105002152Y-132774989D01*
X104902000Y-132271491D01*
X104902000Y-122450661D01*
X159384758Y-122450661D01*
X159596990Y-122964303D01*
X159989630Y-123357629D01*
X160197512Y-123443949D01*
X159991697Y-123528990D01*
X159598371Y-123921630D01*
X159385243Y-124434900D01*
X159384758Y-124990661D01*
X159596990Y-125504303D01*
X159989630Y-125897629D01*
X160197512Y-125983949D01*
X159991697Y-126068990D01*
X159598371Y-126461630D01*
X159385243Y-126974900D01*
X159384758Y-127530661D01*
X159596990Y-128044303D01*
X159989630Y-128437629D01*
X160197512Y-128523949D01*
X159991697Y-128608990D01*
X159598371Y-129001630D01*
X159385243Y-129514900D01*
X159384758Y-130070661D01*
X159596990Y-130584303D01*
X159989630Y-130977629D01*
X160197512Y-131063949D01*
X159991697Y-131148990D01*
X159598371Y-131541630D01*
X159385243Y-132054900D01*
X159384758Y-132610661D01*
X159596990Y-133124303D01*
X159989630Y-133517629D01*
X160502900Y-133730757D01*
X161058661Y-133731242D01*
X161572303Y-133519010D01*
X161965629Y-133126370D01*
X162178757Y-132613100D01*
X162179242Y-132057339D01*
X161967010Y-131543697D01*
X161574370Y-131150371D01*
X161366488Y-131064051D01*
X161572303Y-130979010D01*
X161741608Y-130810000D01*
X164960560Y-130810000D01*
X164960560Y-132842000D01*
X165004838Y-133077317D01*
X165143910Y-133293441D01*
X165356110Y-133438431D01*
X165608000Y-133489440D01*
X167640000Y-133489440D01*
X167875317Y-133445162D01*
X168091441Y-133306090D01*
X168202840Y-133143052D01*
X168299182Y-133232385D01*
X168781056Y-133431975D01*
X169037000Y-133312836D01*
X169037000Y-131953000D01*
X169291000Y-131953000D01*
X169291000Y-133312836D01*
X169546944Y-133431975D01*
X170028818Y-133232385D01*
X170434000Y-132856679D01*
X170839182Y-133232385D01*
X171321056Y-133431975D01*
X171577000Y-133312836D01*
X171577000Y-131953000D01*
X169291000Y-131953000D01*
X169037000Y-131953000D01*
X169017000Y-131953000D01*
X169017000Y-131699000D01*
X169037000Y-131699000D01*
X169037000Y-130339164D01*
X169291000Y-130339164D01*
X169291000Y-131699000D01*
X171577000Y-131699000D01*
X171577000Y-130339164D01*
X171831000Y-130339164D01*
X171831000Y-131699000D01*
X171851000Y-131699000D01*
X171851000Y-131953000D01*
X171831000Y-131953000D01*
X171831000Y-133312836D01*
X172086944Y-133431975D01*
X172568818Y-133232385D01*
X172666398Y-133141903D01*
X172763910Y-133293441D01*
X172976110Y-133438431D01*
X173228000Y-133489440D01*
X175260000Y-133489440D01*
X175495317Y-133445162D01*
X175711441Y-133306090D01*
X175856431Y-133093890D01*
X175907440Y-132842000D01*
X175907440Y-131730750D01*
X187310000Y-131730750D01*
X187310000Y-132221309D01*
X187406673Y-132454698D01*
X187585301Y-132633327D01*
X187818690Y-132730000D01*
X188309250Y-132730000D01*
X188468000Y-132571250D01*
X188468000Y-131572000D01*
X188722000Y-131572000D01*
X188722000Y-132571250D01*
X188880750Y-132730000D01*
X189371310Y-132730000D01*
X189604699Y-132633327D01*
X189783327Y-132454698D01*
X189880000Y-132221309D01*
X189880000Y-131730750D01*
X189721250Y-131572000D01*
X188722000Y-131572000D01*
X188468000Y-131572000D01*
X187468750Y-131572000D01*
X187310000Y-131730750D01*
X175907440Y-131730750D01*
X175907440Y-130810000D01*
X175863162Y-130574683D01*
X175724090Y-130358559D01*
X175511890Y-130213569D01*
X175260000Y-130162560D01*
X173228000Y-130162560D01*
X172992683Y-130206838D01*
X172776559Y-130345910D01*
X172665160Y-130508948D01*
X172568818Y-130419615D01*
X172086944Y-130220025D01*
X171831000Y-130339164D01*
X171577000Y-130339164D01*
X171321056Y-130220025D01*
X170839182Y-130419615D01*
X170434000Y-130795321D01*
X170028818Y-130419615D01*
X169546944Y-130220025D01*
X169291000Y-130339164D01*
X169037000Y-130339164D01*
X168781056Y-130220025D01*
X168299182Y-130419615D01*
X168201602Y-130510097D01*
X168104090Y-130358559D01*
X167891890Y-130213569D01*
X167640000Y-130162560D01*
X165608000Y-130162560D01*
X165372683Y-130206838D01*
X165156559Y-130345910D01*
X165011569Y-130558110D01*
X164960560Y-130810000D01*
X161741608Y-130810000D01*
X161965629Y-130586370D01*
X162178757Y-130073100D01*
X162179242Y-129517339D01*
X162047907Y-129199481D01*
X187309777Y-129199481D01*
X187504995Y-129671943D01*
X187866155Y-130033735D01*
X188170235Y-130160000D01*
X187818690Y-130160000D01*
X187585301Y-130256673D01*
X187406673Y-130435302D01*
X187310000Y-130668691D01*
X187310000Y-131159250D01*
X187468750Y-131318000D01*
X188468000Y-131318000D01*
X188468000Y-131298000D01*
X188722000Y-131298000D01*
X188722000Y-131318000D01*
X189721250Y-131318000D01*
X189880000Y-131159250D01*
X189880000Y-130668691D01*
X189783327Y-130435302D01*
X189604699Y-130256673D01*
X189371310Y-130160000D01*
X189019433Y-130160000D01*
X189321943Y-130035005D01*
X189683735Y-129673845D01*
X189879777Y-129201724D01*
X189880223Y-128690519D01*
X189685005Y-128218057D01*
X189323845Y-127856265D01*
X188851724Y-127660223D01*
X188340519Y-127659777D01*
X187868057Y-127854995D01*
X187506265Y-128216155D01*
X187310223Y-128688276D01*
X187309777Y-129199481D01*
X162047907Y-129199481D01*
X161967010Y-129003697D01*
X161574370Y-128610371D01*
X161366488Y-128524051D01*
X161572303Y-128439010D01*
X161965629Y-128046370D01*
X162178757Y-127533100D01*
X162179242Y-126977339D01*
X161967010Y-126463697D01*
X161574370Y-126070371D01*
X161366488Y-125984051D01*
X161572303Y-125899010D01*
X161709802Y-125761750D01*
X169403000Y-125761750D01*
X169403000Y-126252310D01*
X169499673Y-126485699D01*
X169678302Y-126664327D01*
X169911691Y-126761000D01*
X170402250Y-126761000D01*
X170561000Y-126602250D01*
X170561000Y-125603000D01*
X169561750Y-125603000D01*
X169403000Y-125761750D01*
X161709802Y-125761750D01*
X161965629Y-125506370D01*
X162178757Y-124993100D01*
X162179013Y-124699690D01*
X169403000Y-124699690D01*
X169403000Y-125190250D01*
X169561750Y-125349000D01*
X170561000Y-125349000D01*
X170561000Y-124349750D01*
X170815000Y-124349750D01*
X170815000Y-125349000D01*
X170835000Y-125349000D01*
X170835000Y-125603000D01*
X170815000Y-125603000D01*
X170815000Y-126602250D01*
X170973750Y-126761000D01*
X171464309Y-126761000D01*
X171697698Y-126664327D01*
X171876327Y-126485699D01*
X171973000Y-126252310D01*
X171973000Y-125900433D01*
X172097995Y-126202943D01*
X172459155Y-126564735D01*
X172931276Y-126760777D01*
X173442481Y-126761223D01*
X173914943Y-126566005D01*
X174276735Y-126204845D01*
X174472777Y-125732724D01*
X174472780Y-125729761D01*
X174936736Y-126039767D01*
X175485887Y-126149000D01*
X175542113Y-126149000D01*
X176091264Y-126039767D01*
X176556811Y-125728698D01*
X176867880Y-125263151D01*
X176907684Y-125063039D01*
X181742096Y-125063039D01*
X181902959Y-125451423D01*
X182278866Y-125866389D01*
X182784959Y-126105914D01*
X183007000Y-125984629D01*
X183007000Y-124841000D01*
X183261000Y-124841000D01*
X183261000Y-125984629D01*
X183483041Y-126105914D01*
X183989134Y-125866389D01*
X184365041Y-125451423D01*
X184525904Y-125063039D01*
X184403915Y-124841000D01*
X183261000Y-124841000D01*
X183007000Y-124841000D01*
X181864085Y-124841000D01*
X181742096Y-125063039D01*
X176907684Y-125063039D01*
X176977113Y-124714000D01*
X176867880Y-124164849D01*
X176556811Y-123699302D01*
X176152297Y-123429014D01*
X176369134Y-123326389D01*
X176745041Y-122911423D01*
X176905904Y-122523039D01*
X176783915Y-122301000D01*
X175641000Y-122301000D01*
X175641000Y-122321000D01*
X175387000Y-122321000D01*
X175387000Y-122301000D01*
X175367000Y-122301000D01*
X175367000Y-122047000D01*
X175387000Y-122047000D01*
X175387000Y-122027000D01*
X175641000Y-122027000D01*
X175641000Y-122047000D01*
X176783915Y-122047000D01*
X176905904Y-121824961D01*
X176745041Y-121436577D01*
X176369134Y-121021611D01*
X176152297Y-120918986D01*
X176556811Y-120648698D01*
X176867880Y-120183151D01*
X176977113Y-119634000D01*
X176867880Y-119084849D01*
X176556811Y-118619302D01*
X176174725Y-118364000D01*
X176556811Y-118108698D01*
X176867880Y-117643151D01*
X176977113Y-117094000D01*
X176867880Y-116544849D01*
X176556811Y-116079302D01*
X176091264Y-115768233D01*
X175542113Y-115659000D01*
X175485887Y-115659000D01*
X174936736Y-115768233D01*
X174471189Y-116079302D01*
X174160120Y-116544849D01*
X174050887Y-117094000D01*
X174160120Y-117643151D01*
X174471189Y-118108698D01*
X174853275Y-118364000D01*
X174471189Y-118619302D01*
X174160120Y-119084849D01*
X174050887Y-119634000D01*
X174160120Y-120183151D01*
X174471189Y-120648698D01*
X174875703Y-120918986D01*
X174658866Y-121021611D01*
X174389314Y-121319171D01*
X174360462Y-121249345D01*
X173901073Y-120789154D01*
X173300547Y-120539794D01*
X172650306Y-120539226D01*
X172049345Y-120787538D01*
X171589154Y-121246927D01*
X171339794Y-121847453D01*
X171339226Y-122497694D01*
X171587538Y-123098655D01*
X172046927Y-123558846D01*
X172647453Y-123808206D01*
X173297694Y-123808774D01*
X173898655Y-123560462D01*
X174358846Y-123101073D01*
X174388992Y-123028473D01*
X174658866Y-123326389D01*
X174875703Y-123429014D01*
X174471189Y-123699302D01*
X174160120Y-124164849D01*
X174082809Y-124553519D01*
X173916845Y-124387265D01*
X173444724Y-124191223D01*
X172933519Y-124190777D01*
X172461057Y-124385995D01*
X172099265Y-124747155D01*
X171973000Y-125051235D01*
X171973000Y-124699690D01*
X171876327Y-124466301D01*
X171697698Y-124287673D01*
X171464309Y-124191000D01*
X170973750Y-124191000D01*
X170815000Y-124349750D01*
X170561000Y-124349750D01*
X170402250Y-124191000D01*
X169911691Y-124191000D01*
X169678302Y-124287673D01*
X169499673Y-124466301D01*
X169403000Y-124699690D01*
X162179013Y-124699690D01*
X162179242Y-124437339D01*
X161967010Y-123923697D01*
X161574370Y-123530371D01*
X161366488Y-123444051D01*
X161572303Y-123359010D01*
X161965629Y-122966370D01*
X162178757Y-122453100D01*
X162179242Y-121897339D01*
X161967010Y-121383697D01*
X161574370Y-120990371D01*
X161061100Y-120777243D01*
X160505339Y-120776758D01*
X159991697Y-120988990D01*
X159598371Y-121381630D01*
X159385243Y-121894900D01*
X159384758Y-122450661D01*
X104902000Y-122450661D01*
X104902000Y-120973694D01*
X105045226Y-120973694D01*
X105293538Y-121574655D01*
X105752927Y-122034846D01*
X106353453Y-122284206D01*
X107003694Y-122284774D01*
X107604655Y-122036462D01*
X108064846Y-121577073D01*
X108314206Y-120976547D01*
X108314208Y-120973694D01*
X112665226Y-120973694D01*
X112913538Y-121574655D01*
X113372927Y-122034846D01*
X113973453Y-122284206D01*
X114623694Y-122284774D01*
X115224655Y-122036462D01*
X115684846Y-121577073D01*
X115934206Y-120976547D01*
X115934208Y-120973694D01*
X122825226Y-120973694D01*
X123073538Y-121574655D01*
X123532927Y-122034846D01*
X124133453Y-122284206D01*
X124783694Y-122284774D01*
X125384655Y-122036462D01*
X125844846Y-121577073D01*
X126094206Y-120976547D01*
X126094208Y-120973694D01*
X130445226Y-120973694D01*
X130693538Y-121574655D01*
X131152927Y-122034846D01*
X131753453Y-122284206D01*
X132403694Y-122284774D01*
X133004655Y-122036462D01*
X133464846Y-121577073D01*
X133714206Y-120976547D01*
X133714208Y-120973694D01*
X140605226Y-120973694D01*
X140853538Y-121574655D01*
X141312927Y-122034846D01*
X141913453Y-122284206D01*
X142563694Y-122284774D01*
X143164655Y-122036462D01*
X143624846Y-121577073D01*
X143874206Y-120976547D01*
X143874208Y-120973694D01*
X146955226Y-120973694D01*
X147203538Y-121574655D01*
X147662927Y-122034846D01*
X148263453Y-122284206D01*
X148913694Y-122284774D01*
X149514655Y-122036462D01*
X149974846Y-121577073D01*
X150224206Y-120976547D01*
X150224774Y-120326306D01*
X149976462Y-119725345D01*
X149517073Y-119265154D01*
X148916547Y-119015794D01*
X148266306Y-119015226D01*
X147665345Y-119263538D01*
X147205154Y-119722927D01*
X146955794Y-120323453D01*
X146955226Y-120973694D01*
X143874208Y-120973694D01*
X143874774Y-120326306D01*
X143626462Y-119725345D01*
X143167073Y-119265154D01*
X142566547Y-119015794D01*
X141916306Y-119015226D01*
X141315345Y-119263538D01*
X140855154Y-119722927D01*
X140605794Y-120323453D01*
X140605226Y-120973694D01*
X133714208Y-120973694D01*
X133714774Y-120326306D01*
X133466462Y-119725345D01*
X133007073Y-119265154D01*
X132406547Y-119015794D01*
X131756306Y-119015226D01*
X131155345Y-119263538D01*
X130695154Y-119722927D01*
X130445794Y-120323453D01*
X130445226Y-120973694D01*
X126094208Y-120973694D01*
X126094774Y-120326306D01*
X125846462Y-119725345D01*
X125387073Y-119265154D01*
X124786547Y-119015794D01*
X124136306Y-119015226D01*
X123535345Y-119263538D01*
X123075154Y-119722927D01*
X122825794Y-120323453D01*
X122825226Y-120973694D01*
X115934208Y-120973694D01*
X115934774Y-120326306D01*
X115686462Y-119725345D01*
X115227073Y-119265154D01*
X114626547Y-119015794D01*
X113976306Y-119015226D01*
X113375345Y-119263538D01*
X112915154Y-119722927D01*
X112665794Y-120323453D01*
X112665226Y-120973694D01*
X108314208Y-120973694D01*
X108314774Y-120326306D01*
X108066462Y-119725345D01*
X107607073Y-119265154D01*
X107006547Y-119015794D01*
X106356306Y-119015226D01*
X105755345Y-119263538D01*
X105295154Y-119722927D01*
X105045794Y-120323453D01*
X105045226Y-120973694D01*
X104902000Y-120973694D01*
X104902000Y-113353694D01*
X105045226Y-113353694D01*
X105293538Y-113954655D01*
X105752927Y-114414846D01*
X106353453Y-114664206D01*
X107003694Y-114664774D01*
X107604655Y-114416462D01*
X108064846Y-113957073D01*
X108314206Y-113356547D01*
X108314208Y-113353694D01*
X112665226Y-113353694D01*
X112913538Y-113954655D01*
X113372927Y-114414846D01*
X113973453Y-114664206D01*
X114623694Y-114664774D01*
X115224655Y-114416462D01*
X115684846Y-113957073D01*
X115934206Y-113356547D01*
X115934208Y-113353694D01*
X122825226Y-113353694D01*
X123073538Y-113954655D01*
X123532927Y-114414846D01*
X124133453Y-114664206D01*
X124783694Y-114664774D01*
X125384655Y-114416462D01*
X125844846Y-113957073D01*
X126094206Y-113356547D01*
X126094208Y-113353694D01*
X130445226Y-113353694D01*
X130693538Y-113954655D01*
X131152927Y-114414846D01*
X131753453Y-114664206D01*
X132403694Y-114664774D01*
X133004655Y-114416462D01*
X133464846Y-113957073D01*
X133714206Y-113356547D01*
X133714208Y-113353694D01*
X140605226Y-113353694D01*
X140853538Y-113954655D01*
X141312927Y-114414846D01*
X141913453Y-114664206D01*
X142563694Y-114664774D01*
X143164655Y-114416462D01*
X143624846Y-113957073D01*
X143874206Y-113356547D01*
X143874208Y-113353694D01*
X146955226Y-113353694D01*
X147203538Y-113954655D01*
X147662927Y-114414846D01*
X148263453Y-114664206D01*
X148913694Y-114664774D01*
X149514655Y-114416462D01*
X149974846Y-113957073D01*
X150224206Y-113356547D01*
X150224774Y-112706306D01*
X149976462Y-112105345D01*
X149517073Y-111645154D01*
X148916547Y-111395794D01*
X148266306Y-111395226D01*
X147665345Y-111643538D01*
X147205154Y-112102927D01*
X146955794Y-112703453D01*
X146955226Y-113353694D01*
X143874208Y-113353694D01*
X143874774Y-112706306D01*
X143626462Y-112105345D01*
X143167073Y-111645154D01*
X142566547Y-111395794D01*
X141916306Y-111395226D01*
X141315345Y-111643538D01*
X140855154Y-112102927D01*
X140605794Y-112703453D01*
X140605226Y-113353694D01*
X133714208Y-113353694D01*
X133714774Y-112706306D01*
X133466462Y-112105345D01*
X133007073Y-111645154D01*
X132406547Y-111395794D01*
X131756306Y-111395226D01*
X131155345Y-111643538D01*
X130695154Y-112102927D01*
X130445794Y-112703453D01*
X130445226Y-113353694D01*
X126094208Y-113353694D01*
X126094774Y-112706306D01*
X125846462Y-112105345D01*
X125387073Y-111645154D01*
X124786547Y-111395794D01*
X124136306Y-111395226D01*
X123535345Y-111643538D01*
X123075154Y-112102927D01*
X122825794Y-112703453D01*
X122825226Y-113353694D01*
X115934208Y-113353694D01*
X115934774Y-112706306D01*
X115686462Y-112105345D01*
X115227073Y-111645154D01*
X114626547Y-111395794D01*
X113976306Y-111395226D01*
X113375345Y-111643538D01*
X112915154Y-112102927D01*
X112665794Y-112703453D01*
X112665226Y-113353694D01*
X108314208Y-113353694D01*
X108314774Y-112706306D01*
X108066462Y-112105345D01*
X107607073Y-111645154D01*
X107006547Y-111395794D01*
X106356306Y-111395226D01*
X105755345Y-111643538D01*
X105295154Y-112102927D01*
X105045794Y-112703453D01*
X105045226Y-113353694D01*
X104902000Y-113353694D01*
X104902000Y-109242661D01*
X159384758Y-109242661D01*
X159596990Y-109756303D01*
X159989630Y-110149629D01*
X160197512Y-110235949D01*
X159991697Y-110320990D01*
X159598371Y-110713630D01*
X159385243Y-111226900D01*
X159384758Y-111782661D01*
X159596990Y-112296303D01*
X159989630Y-112689629D01*
X160197512Y-112775949D01*
X159991697Y-112860990D01*
X159598371Y-113253630D01*
X159385243Y-113766900D01*
X159384758Y-114322661D01*
X159596990Y-114836303D01*
X159989630Y-115229629D01*
X160197512Y-115315949D01*
X159991697Y-115400990D01*
X159598371Y-115793630D01*
X159385243Y-116306900D01*
X159384758Y-116862661D01*
X159596990Y-117376303D01*
X159989630Y-117769629D01*
X160197512Y-117855949D01*
X159991697Y-117940990D01*
X159598371Y-118333630D01*
X159385243Y-118846900D01*
X159384758Y-119402661D01*
X159596990Y-119916303D01*
X159989630Y-120309629D01*
X160502900Y-120522757D01*
X161058661Y-120523242D01*
X161572303Y-120311010D01*
X161965629Y-119918370D01*
X162178757Y-119405100D01*
X162179242Y-118849339D01*
X161967010Y-118335697D01*
X161574370Y-117942371D01*
X161366488Y-117856051D01*
X161572303Y-117771010D01*
X161965629Y-117378370D01*
X162178757Y-116865100D01*
X162179124Y-116444000D01*
X169136560Y-116444000D01*
X169136560Y-117744000D01*
X169180838Y-117979317D01*
X169319910Y-118195441D01*
X169532110Y-118340431D01*
X169784000Y-118391440D01*
X171084000Y-118391440D01*
X171319317Y-118347162D01*
X171535441Y-118208090D01*
X171680431Y-117995890D01*
X171731440Y-117744000D01*
X171731440Y-116444000D01*
X171687162Y-116208683D01*
X171548090Y-115992559D01*
X171335890Y-115847569D01*
X171084000Y-115796560D01*
X170888540Y-115796560D01*
X171160943Y-115684005D01*
X171522735Y-115322845D01*
X171522947Y-115322334D01*
X171587538Y-115478655D01*
X172046927Y-115938846D01*
X172647453Y-116188206D01*
X173297694Y-116188774D01*
X173898655Y-115940462D01*
X174358846Y-115481073D01*
X174608206Y-114880547D01*
X174608774Y-114230306D01*
X174589235Y-114183016D01*
X179660590Y-114183016D01*
X179716271Y-114413611D01*
X180199078Y-114581622D01*
X180709428Y-114552083D01*
X181043729Y-114413611D01*
X181099410Y-114183016D01*
X180380000Y-113463605D01*
X179660590Y-114183016D01*
X174589235Y-114183016D01*
X174360462Y-113629345D01*
X173901073Y-113169154D01*
X173741945Y-113103078D01*
X179082378Y-113103078D01*
X179111917Y-113613428D01*
X179250389Y-113947729D01*
X179480984Y-114003410D01*
X180200395Y-113284000D01*
X180559605Y-113284000D01*
X181279016Y-114003410D01*
X181509611Y-113947729D01*
X181582560Y-113738098D01*
X181582560Y-113934000D01*
X181626838Y-114169317D01*
X181765910Y-114385441D01*
X181978110Y-114530431D01*
X182230000Y-114581440D01*
X183530000Y-114581440D01*
X183765317Y-114537162D01*
X183981441Y-114398090D01*
X184039719Y-114312797D01*
X184039226Y-114877694D01*
X184287538Y-115478655D01*
X184746927Y-115938846D01*
X184839000Y-115977078D01*
X184839000Y-116748132D01*
X184579861Y-117007271D01*
X184487880Y-116544849D01*
X184176811Y-116079302D01*
X183711264Y-115768233D01*
X183162113Y-115659000D01*
X183105887Y-115659000D01*
X182556736Y-115768233D01*
X182091189Y-116079302D01*
X181780120Y-116544849D01*
X181670887Y-117094000D01*
X181780120Y-117643151D01*
X182091189Y-118108698D01*
X182473275Y-118364000D01*
X182091189Y-118619302D01*
X181780120Y-119084849D01*
X181670887Y-119634000D01*
X181780120Y-120183151D01*
X182091189Y-120648698D01*
X182473275Y-120904000D01*
X182091189Y-121159302D01*
X181780120Y-121624849D01*
X181670887Y-122174000D01*
X181780120Y-122723151D01*
X182091189Y-123188698D01*
X182495703Y-123458986D01*
X182278866Y-123561611D01*
X181902959Y-123976577D01*
X181742096Y-124364961D01*
X181864085Y-124587000D01*
X183007000Y-124587000D01*
X183007000Y-124567000D01*
X183261000Y-124567000D01*
X183261000Y-124587000D01*
X184403915Y-124587000D01*
X184525904Y-124364961D01*
X184365041Y-123976577D01*
X184214144Y-123810000D01*
X191996560Y-123810000D01*
X191996560Y-125110000D01*
X192040838Y-125345317D01*
X192179910Y-125561441D01*
X192392110Y-125706431D01*
X192644000Y-125757440D01*
X193944000Y-125757440D01*
X194179317Y-125713162D01*
X194395441Y-125574090D01*
X194540431Y-125361890D01*
X194591440Y-125110000D01*
X194591440Y-123810000D01*
X194547162Y-123574683D01*
X194408090Y-123358559D01*
X194195890Y-123213569D01*
X193944000Y-123162560D01*
X193781615Y-123162560D01*
X193957729Y-123089611D01*
X194013410Y-122859016D01*
X193294000Y-122139605D01*
X192574590Y-122859016D01*
X192630271Y-123089611D01*
X192839902Y-123162560D01*
X192644000Y-123162560D01*
X192408683Y-123206838D01*
X192192559Y-123345910D01*
X192047569Y-123558110D01*
X191996560Y-123810000D01*
X184214144Y-123810000D01*
X183989134Y-123561611D01*
X183772297Y-123458986D01*
X184176811Y-123188698D01*
X184268218Y-123051898D01*
X184287538Y-123098655D01*
X184746927Y-123558846D01*
X185347453Y-123808206D01*
X185997694Y-123808774D01*
X186598655Y-123560462D01*
X187058846Y-123101073D01*
X187308206Y-122500547D01*
X187308774Y-121850306D01*
X187279344Y-121779078D01*
X191996378Y-121779078D01*
X192025917Y-122289428D01*
X192164389Y-122623729D01*
X192394984Y-122679410D01*
X193114395Y-121960000D01*
X193473605Y-121960000D01*
X194193016Y-122679410D01*
X194423611Y-122623729D01*
X194591622Y-122140922D01*
X194562083Y-121630572D01*
X194423611Y-121296271D01*
X194193016Y-121240590D01*
X193473605Y-121960000D01*
X193114395Y-121960000D01*
X192394984Y-121240590D01*
X192164389Y-121296271D01*
X191996378Y-121779078D01*
X187279344Y-121779078D01*
X187060462Y-121249345D01*
X186872430Y-121060984D01*
X192574590Y-121060984D01*
X193294000Y-121780395D01*
X194013410Y-121060984D01*
X193957729Y-120830389D01*
X193474922Y-120662378D01*
X192964572Y-120691917D01*
X192630271Y-120830389D01*
X192574590Y-121060984D01*
X186872430Y-121060984D01*
X186601073Y-120789154D01*
X186000547Y-120539794D01*
X185350306Y-120539226D01*
X184749345Y-120787538D01*
X184289154Y-121246927D01*
X184268537Y-121296579D01*
X184176811Y-121159302D01*
X183794725Y-120904000D01*
X184176811Y-120648698D01*
X184487880Y-120183151D01*
X184597113Y-119634000D01*
X184550286Y-119398582D01*
X185599868Y-118349000D01*
X187551560Y-118349000D01*
X187551560Y-119649000D01*
X187595838Y-119884317D01*
X187734910Y-120100441D01*
X187947110Y-120245431D01*
X188199000Y-120296440D01*
X189499000Y-120296440D01*
X189734317Y-120252162D01*
X189950441Y-120113090D01*
X190095431Y-119900890D01*
X190146440Y-119649000D01*
X190146440Y-118349000D01*
X190102162Y-118113683D01*
X189963090Y-117897559D01*
X189750890Y-117752569D01*
X189499000Y-117701560D01*
X189303540Y-117701560D01*
X189575943Y-117589005D01*
X189937735Y-117227845D01*
X190133777Y-116755724D01*
X190134223Y-116244519D01*
X189939005Y-115772057D01*
X189577845Y-115410265D01*
X189105724Y-115214223D01*
X188594519Y-115213777D01*
X188122057Y-115408995D01*
X187760265Y-115770155D01*
X187564223Y-116242276D01*
X187563777Y-116753481D01*
X187758995Y-117225943D01*
X188120155Y-117587735D01*
X188394276Y-117701560D01*
X188199000Y-117701560D01*
X187963683Y-117745838D01*
X187747559Y-117884910D01*
X187602569Y-118097110D01*
X187551560Y-118349000D01*
X185599868Y-118349000D01*
X186264434Y-117684434D01*
X186292018Y-117643151D01*
X186445439Y-117413541D01*
X186509000Y-117094000D01*
X186509000Y-115977507D01*
X186598655Y-115940462D01*
X187058846Y-115481073D01*
X187308206Y-114880547D01*
X187308774Y-114230306D01*
X187060462Y-113629345D01*
X186601073Y-113169154D01*
X186000547Y-112919794D01*
X185350306Y-112919226D01*
X184749345Y-113167538D01*
X184289154Y-113626927D01*
X184177440Y-113895964D01*
X184177440Y-112634000D01*
X184133162Y-112398683D01*
X183994090Y-112182559D01*
X183781890Y-112037569D01*
X183530000Y-111986560D01*
X182230000Y-111986560D01*
X181994683Y-112030838D01*
X181778559Y-112169910D01*
X181633569Y-112382110D01*
X181582560Y-112634000D01*
X181582560Y-112796385D01*
X181509611Y-112620271D01*
X181279016Y-112564590D01*
X180559605Y-113284000D01*
X180200395Y-113284000D01*
X179480984Y-112564590D01*
X179250389Y-112620271D01*
X179082378Y-113103078D01*
X173741945Y-113103078D01*
X173300547Y-112919794D01*
X172650306Y-112919226D01*
X172049345Y-113167538D01*
X171589154Y-113626927D01*
X171499596Y-113842606D01*
X171162845Y-113505265D01*
X170690724Y-113309223D01*
X170179519Y-113308777D01*
X169707057Y-113503995D01*
X169345265Y-113865155D01*
X169149223Y-114337276D01*
X169148777Y-114848481D01*
X169343995Y-115320943D01*
X169705155Y-115682735D01*
X169979276Y-115796560D01*
X169784000Y-115796560D01*
X169548683Y-115840838D01*
X169332559Y-115979910D01*
X169187569Y-116192110D01*
X169136560Y-116444000D01*
X162179124Y-116444000D01*
X162179242Y-116309339D01*
X161967010Y-115795697D01*
X161574370Y-115402371D01*
X161366488Y-115316051D01*
X161572303Y-115231010D01*
X161965629Y-114838370D01*
X162178757Y-114325100D01*
X162179242Y-113769339D01*
X161967010Y-113255697D01*
X161574370Y-112862371D01*
X161366488Y-112776051D01*
X161572303Y-112691010D01*
X161878863Y-112384984D01*
X179660590Y-112384984D01*
X180380000Y-113104395D01*
X181099410Y-112384984D01*
X181043729Y-112154389D01*
X180560922Y-111986378D01*
X180050572Y-112015917D01*
X179716271Y-112154389D01*
X179660590Y-112384984D01*
X161878863Y-112384984D01*
X161965629Y-112298370D01*
X162178757Y-111785100D01*
X162179242Y-111229339D01*
X161967010Y-110715697D01*
X161574370Y-110322371D01*
X161366488Y-110236051D01*
X161572303Y-110151010D01*
X161965629Y-109758370D01*
X162178757Y-109245100D01*
X162179242Y-108689339D01*
X161967010Y-108175697D01*
X161574370Y-107782371D01*
X161061100Y-107569243D01*
X160505339Y-107568758D01*
X159991697Y-107780990D01*
X159598371Y-108173630D01*
X159385243Y-108686900D01*
X159384758Y-109242661D01*
X104902000Y-109242661D01*
X104902000Y-105411944D01*
X158414025Y-105411944D01*
X158613615Y-105893818D01*
X159051621Y-106366188D01*
X159637054Y-106634983D01*
X159893000Y-106516367D01*
X159893000Y-105156000D01*
X160147000Y-105156000D01*
X160147000Y-106516367D01*
X160402946Y-106634983D01*
X160988379Y-106366188D01*
X161426385Y-105893818D01*
X161573372Y-105538944D01*
X162224025Y-105538944D01*
X162423615Y-106020818D01*
X162861621Y-106493188D01*
X163447054Y-106761983D01*
X163703000Y-106643367D01*
X163703000Y-105283000D01*
X163957000Y-105283000D01*
X163957000Y-106643367D01*
X164212946Y-106761983D01*
X164798379Y-106493188D01*
X165236385Y-106020818D01*
X165435975Y-105538944D01*
X165316836Y-105283000D01*
X163957000Y-105283000D01*
X163703000Y-105283000D01*
X162343164Y-105283000D01*
X162224025Y-105538944D01*
X161573372Y-105538944D01*
X161625975Y-105411944D01*
X161506836Y-105156000D01*
X160147000Y-105156000D01*
X159893000Y-105156000D01*
X158533164Y-105156000D01*
X158414025Y-105411944D01*
X104902000Y-105411944D01*
X104902000Y-103653599D01*
X105334699Y-103653599D01*
X105598281Y-104291515D01*
X106085918Y-104780004D01*
X106723373Y-105044699D01*
X107413599Y-105045301D01*
X108051515Y-104781719D01*
X108540004Y-104294082D01*
X108804699Y-103656627D01*
X108804701Y-103653599D01*
X116764699Y-103653599D01*
X117028281Y-104291515D01*
X117515918Y-104780004D01*
X118153373Y-105044699D01*
X118843599Y-105045301D01*
X119481515Y-104781719D01*
X119970004Y-104294082D01*
X120234699Y-103656627D01*
X120234701Y-103653599D01*
X123114699Y-103653599D01*
X123378281Y-104291515D01*
X123865918Y-104780004D01*
X124503373Y-105044699D01*
X125193599Y-105045301D01*
X125831515Y-104781719D01*
X126320004Y-104294082D01*
X126584699Y-103656627D01*
X126584701Y-103653599D01*
X134544699Y-103653599D01*
X134808281Y-104291515D01*
X135295918Y-104780004D01*
X135933373Y-105044699D01*
X136623599Y-105045301D01*
X137261515Y-104781719D01*
X137750004Y-104294082D01*
X138014699Y-103656627D01*
X138014701Y-103653599D01*
X140894699Y-103653599D01*
X141158281Y-104291515D01*
X141645918Y-104780004D01*
X142283373Y-105044699D01*
X142973599Y-105045301D01*
X143611515Y-104781719D01*
X144100004Y-104294082D01*
X144364699Y-103656627D01*
X144364701Y-103653599D01*
X152324699Y-103653599D01*
X152588281Y-104291515D01*
X153075918Y-104780004D01*
X153713373Y-105044699D01*
X154403599Y-105045301D01*
X155041515Y-104781719D01*
X155530004Y-104294082D01*
X155794699Y-103656627D01*
X155795301Y-102966401D01*
X155531719Y-102328485D01*
X155044082Y-101839996D01*
X154406627Y-101575301D01*
X153716401Y-101574699D01*
X153078485Y-101838281D01*
X152589996Y-102325918D01*
X152325301Y-102963373D01*
X152324699Y-103653599D01*
X144364701Y-103653599D01*
X144365301Y-102966401D01*
X144101719Y-102328485D01*
X143614082Y-101839996D01*
X142976627Y-101575301D01*
X142286401Y-101574699D01*
X141648485Y-101838281D01*
X141159996Y-102325918D01*
X140895301Y-102963373D01*
X140894699Y-103653599D01*
X138014701Y-103653599D01*
X138015301Y-102966401D01*
X137751719Y-102328485D01*
X137264082Y-101839996D01*
X136626627Y-101575301D01*
X135936401Y-101574699D01*
X135298485Y-101838281D01*
X134809996Y-102325918D01*
X134545301Y-102963373D01*
X134544699Y-103653599D01*
X126584701Y-103653599D01*
X126585301Y-102966401D01*
X126321719Y-102328485D01*
X125834082Y-101839996D01*
X125196627Y-101575301D01*
X124506401Y-101574699D01*
X123868485Y-101838281D01*
X123379996Y-102325918D01*
X123115301Y-102963373D01*
X123114699Y-103653599D01*
X120234701Y-103653599D01*
X120235301Y-102966401D01*
X119971719Y-102328485D01*
X119484082Y-101839996D01*
X118846627Y-101575301D01*
X118156401Y-101574699D01*
X117518485Y-101838281D01*
X117029996Y-102325918D01*
X116765301Y-102963373D01*
X116764699Y-103653599D01*
X108804701Y-103653599D01*
X108805301Y-102966401D01*
X108541719Y-102328485D01*
X108054082Y-101839996D01*
X107416627Y-101575301D01*
X106726401Y-101574699D01*
X106088485Y-101838281D01*
X105599996Y-102325918D01*
X105335301Y-102963373D01*
X105334699Y-103653599D01*
X104902000Y-103653599D01*
X104902000Y-101473000D01*
X158356560Y-101473000D01*
X158356560Y-103505000D01*
X158400838Y-103740317D01*
X158539910Y-103956441D01*
X158702948Y-104067840D01*
X158613615Y-104164182D01*
X158414025Y-104646056D01*
X158533164Y-104902000D01*
X159893000Y-104902000D01*
X159893000Y-104882000D01*
X160147000Y-104882000D01*
X160147000Y-104902000D01*
X161506836Y-104902000D01*
X161625975Y-104646056D01*
X161426385Y-104164182D01*
X161335903Y-104066602D01*
X161487441Y-103969090D01*
X161632431Y-103756890D01*
X161683440Y-103505000D01*
X161683440Y-101600000D01*
X162166560Y-101600000D01*
X162166560Y-103632000D01*
X162210838Y-103867317D01*
X162349910Y-104083441D01*
X162512948Y-104194840D01*
X162423615Y-104291182D01*
X162224025Y-104773056D01*
X162343164Y-105029000D01*
X163703000Y-105029000D01*
X163703000Y-105009000D01*
X163957000Y-105009000D01*
X163957000Y-105029000D01*
X165316836Y-105029000D01*
X165435975Y-104773056D01*
X165236385Y-104291182D01*
X165145903Y-104193602D01*
X165297441Y-104096090D01*
X165442431Y-103883890D01*
X165489066Y-103653599D01*
X168834699Y-103653599D01*
X169098281Y-104291515D01*
X169585918Y-104780004D01*
X170223373Y-105044699D01*
X170913599Y-105045301D01*
X171551515Y-104781719D01*
X172040004Y-104294082D01*
X172304699Y-103656627D01*
X172304701Y-103653599D01*
X180264699Y-103653599D01*
X180528281Y-104291515D01*
X181015918Y-104780004D01*
X181653373Y-105044699D01*
X182343599Y-105045301D01*
X182981515Y-104781719D01*
X183470004Y-104294082D01*
X183734699Y-103656627D01*
X183734701Y-103653599D01*
X186614699Y-103653599D01*
X186878281Y-104291515D01*
X187365918Y-104780004D01*
X188003373Y-105044699D01*
X188693599Y-105045301D01*
X189331515Y-104781719D01*
X189820004Y-104294082D01*
X190084699Y-103656627D01*
X190084701Y-103653599D01*
X198044699Y-103653599D01*
X198308281Y-104291515D01*
X198795918Y-104780004D01*
X199433373Y-105044699D01*
X200123599Y-105045301D01*
X200761515Y-104781719D01*
X201250004Y-104294082D01*
X201514699Y-103656627D01*
X201515301Y-102966401D01*
X201251719Y-102328485D01*
X200764082Y-101839996D01*
X200126627Y-101575301D01*
X199436401Y-101574699D01*
X198798485Y-101838281D01*
X198309996Y-102325918D01*
X198045301Y-102963373D01*
X198044699Y-103653599D01*
X190084701Y-103653599D01*
X190085301Y-102966401D01*
X189821719Y-102328485D01*
X189334082Y-101839996D01*
X188696627Y-101575301D01*
X188006401Y-101574699D01*
X187368485Y-101838281D01*
X186879996Y-102325918D01*
X186615301Y-102963373D01*
X186614699Y-103653599D01*
X183734701Y-103653599D01*
X183735301Y-102966401D01*
X183471719Y-102328485D01*
X182984082Y-101839996D01*
X182346627Y-101575301D01*
X181656401Y-101574699D01*
X181018485Y-101838281D01*
X180529996Y-102325918D01*
X180265301Y-102963373D01*
X180264699Y-103653599D01*
X172304701Y-103653599D01*
X172305301Y-102966401D01*
X172041719Y-102328485D01*
X171554082Y-101839996D01*
X170916627Y-101575301D01*
X170226401Y-101574699D01*
X169588485Y-101838281D01*
X169099996Y-102325918D01*
X168835301Y-102963373D01*
X168834699Y-103653599D01*
X165489066Y-103653599D01*
X165493440Y-103632000D01*
X165493440Y-101600000D01*
X165449162Y-101364683D01*
X165310090Y-101148559D01*
X165097890Y-101003569D01*
X164846000Y-100952560D01*
X162814000Y-100952560D01*
X162578683Y-100996838D01*
X162362559Y-101135910D01*
X162217569Y-101348110D01*
X162166560Y-101600000D01*
X161683440Y-101600000D01*
X161683440Y-101473000D01*
X161639162Y-101237683D01*
X161500090Y-101021559D01*
X161287890Y-100876569D01*
X161036000Y-100825560D01*
X159004000Y-100825560D01*
X158768683Y-100869838D01*
X158552559Y-101008910D01*
X158407569Y-101221110D01*
X158356560Y-101473000D01*
X104902000Y-101473000D01*
X104902000Y-94153599D01*
X105334699Y-94153599D01*
X105598281Y-94791515D01*
X106085918Y-95280004D01*
X106338610Y-95384931D01*
X106088485Y-95488281D01*
X105599996Y-95975918D01*
X105335301Y-96613373D01*
X105334699Y-97303599D01*
X105598281Y-97941515D01*
X106085918Y-98430004D01*
X106723373Y-98694699D01*
X107413599Y-98695301D01*
X108051515Y-98431719D01*
X108540004Y-97944082D01*
X108804699Y-97306627D01*
X108805301Y-96616401D01*
X108541719Y-95978485D01*
X108054082Y-95489996D01*
X107801390Y-95385069D01*
X108051515Y-95281719D01*
X108540004Y-94794082D01*
X108804699Y-94156627D01*
X108804701Y-94153599D01*
X116764699Y-94153599D01*
X117028281Y-94791515D01*
X117515918Y-95280004D01*
X117768610Y-95384931D01*
X117518485Y-95488281D01*
X117029996Y-95975918D01*
X116765301Y-96613373D01*
X116764699Y-97303599D01*
X117028281Y-97941515D01*
X117515918Y-98430004D01*
X118153373Y-98694699D01*
X118843599Y-98695301D01*
X119481515Y-98431719D01*
X119970004Y-97944082D01*
X120234699Y-97306627D01*
X120235301Y-96616401D01*
X119971719Y-95978485D01*
X119484082Y-95489996D01*
X119231390Y-95385069D01*
X119481515Y-95281719D01*
X119970004Y-94794082D01*
X120234699Y-94156627D01*
X120234701Y-94153599D01*
X123114699Y-94153599D01*
X123378281Y-94791515D01*
X123865918Y-95280004D01*
X124118610Y-95384931D01*
X123868485Y-95488281D01*
X123379996Y-95975918D01*
X123115301Y-96613373D01*
X123114699Y-97303599D01*
X123378281Y-97941515D01*
X123865918Y-98430004D01*
X124503373Y-98694699D01*
X125193599Y-98695301D01*
X125831515Y-98431719D01*
X126320004Y-97944082D01*
X126584699Y-97306627D01*
X126585301Y-96616401D01*
X126321719Y-95978485D01*
X125834082Y-95489996D01*
X125581390Y-95385069D01*
X125831515Y-95281719D01*
X126320004Y-94794082D01*
X126584699Y-94156627D01*
X126584701Y-94153599D01*
X134544699Y-94153599D01*
X134808281Y-94791515D01*
X135295918Y-95280004D01*
X135548610Y-95384931D01*
X135298485Y-95488281D01*
X134809996Y-95975918D01*
X134545301Y-96613373D01*
X134544699Y-97303599D01*
X134808281Y-97941515D01*
X135295918Y-98430004D01*
X135933373Y-98694699D01*
X136623599Y-98695301D01*
X137261515Y-98431719D01*
X137750004Y-97944082D01*
X138014699Y-97306627D01*
X138015301Y-96616401D01*
X137751719Y-95978485D01*
X137264082Y-95489996D01*
X137011390Y-95385069D01*
X137261515Y-95281719D01*
X137750004Y-94794082D01*
X138014699Y-94156627D01*
X138014701Y-94153599D01*
X140894699Y-94153599D01*
X141158281Y-94791515D01*
X141645918Y-95280004D01*
X141898610Y-95384931D01*
X141648485Y-95488281D01*
X141159996Y-95975918D01*
X140895301Y-96613373D01*
X140894699Y-97303599D01*
X141158281Y-97941515D01*
X141645918Y-98430004D01*
X142283373Y-98694699D01*
X142973599Y-98695301D01*
X143611515Y-98431719D01*
X144100004Y-97944082D01*
X144364699Y-97306627D01*
X144365301Y-96616401D01*
X144101719Y-95978485D01*
X143614082Y-95489996D01*
X143361390Y-95385069D01*
X143611515Y-95281719D01*
X144100004Y-94794082D01*
X144364699Y-94156627D01*
X144364701Y-94153599D01*
X152324699Y-94153599D01*
X152588281Y-94791515D01*
X153075918Y-95280004D01*
X153328610Y-95384931D01*
X153078485Y-95488281D01*
X152589996Y-95975918D01*
X152325301Y-96613373D01*
X152324699Y-97303599D01*
X152588281Y-97941515D01*
X153075918Y-98430004D01*
X153713373Y-98694699D01*
X154403599Y-98695301D01*
X155041515Y-98431719D01*
X155360095Y-98113694D01*
X158385226Y-98113694D01*
X158633538Y-98714655D01*
X159092927Y-99174846D01*
X159693453Y-99424206D01*
X160343694Y-99424774D01*
X160944655Y-99176462D01*
X161404846Y-98717073D01*
X161607691Y-98228568D01*
X161808538Y-98714655D01*
X162267927Y-99174846D01*
X162868453Y-99424206D01*
X163518694Y-99424774D01*
X164119655Y-99176462D01*
X164579846Y-98717073D01*
X164829206Y-98116547D01*
X164829774Y-97466306D01*
X164581462Y-96865345D01*
X164122073Y-96405154D01*
X163521547Y-96155794D01*
X162871306Y-96155226D01*
X162270345Y-96403538D01*
X161810154Y-96862927D01*
X161607309Y-97351432D01*
X161406462Y-96865345D01*
X160947073Y-96405154D01*
X160346547Y-96155794D01*
X159696306Y-96155226D01*
X159095345Y-96403538D01*
X158635154Y-96862927D01*
X158385794Y-97463453D01*
X158385226Y-98113694D01*
X155360095Y-98113694D01*
X155530004Y-97944082D01*
X155794699Y-97306627D01*
X155795301Y-96616401D01*
X155531719Y-95978485D01*
X155044082Y-95489996D01*
X154791390Y-95385069D01*
X155041515Y-95281719D01*
X155530004Y-94794082D01*
X155794699Y-94156627D01*
X155794701Y-94153599D01*
X168834699Y-94153599D01*
X169098281Y-94791515D01*
X169585918Y-95280004D01*
X170223373Y-95544699D01*
X170913599Y-95545301D01*
X171551515Y-95281719D01*
X172040004Y-94794082D01*
X172304699Y-94156627D01*
X172304701Y-94153599D01*
X180264699Y-94153599D01*
X180528281Y-94791515D01*
X181015918Y-95280004D01*
X181653373Y-95544699D01*
X182343599Y-95545301D01*
X182981515Y-95281719D01*
X183470004Y-94794082D01*
X183734699Y-94156627D01*
X183734701Y-94153599D01*
X186614699Y-94153599D01*
X186878281Y-94791515D01*
X187365918Y-95280004D01*
X188003373Y-95544699D01*
X188693599Y-95545301D01*
X189331515Y-95281719D01*
X189820004Y-94794082D01*
X190084699Y-94156627D01*
X190084701Y-94153599D01*
X198044699Y-94153599D01*
X198308281Y-94791515D01*
X198795918Y-95280004D01*
X199433373Y-95544699D01*
X200123599Y-95545301D01*
X200761515Y-95281719D01*
X201250004Y-94794082D01*
X201514699Y-94156627D01*
X201515301Y-93466401D01*
X201251719Y-92828485D01*
X200764082Y-92339996D01*
X200464495Y-92215596D01*
X200714359Y-92112099D01*
X200825263Y-91834868D01*
X199780000Y-90789605D01*
X198734737Y-91834868D01*
X198845641Y-92112099D01*
X199107374Y-92210651D01*
X198798485Y-92338281D01*
X198309996Y-92825918D01*
X198045301Y-93463373D01*
X198044699Y-94153599D01*
X190084701Y-94153599D01*
X190085301Y-93466401D01*
X189821719Y-92828485D01*
X189334082Y-92339996D01*
X189034495Y-92215596D01*
X189284359Y-92112099D01*
X189395263Y-91834868D01*
X188350000Y-90789605D01*
X187304737Y-91834868D01*
X187415641Y-92112099D01*
X187677374Y-92210651D01*
X187368485Y-92338281D01*
X186879996Y-92825918D01*
X186615301Y-93463373D01*
X186614699Y-94153599D01*
X183734701Y-94153599D01*
X183735301Y-93466401D01*
X183471719Y-92828485D01*
X182984082Y-92339996D01*
X182684495Y-92215596D01*
X182934359Y-92112099D01*
X183045263Y-91834868D01*
X182000000Y-90789605D01*
X180954737Y-91834868D01*
X181065641Y-92112099D01*
X181327374Y-92210651D01*
X181018485Y-92338281D01*
X180529996Y-92825918D01*
X180265301Y-93463373D01*
X180264699Y-94153599D01*
X172304701Y-94153599D01*
X172305301Y-93466401D01*
X172041719Y-92828485D01*
X171554082Y-92339996D01*
X171254495Y-92215596D01*
X171504359Y-92112099D01*
X171615263Y-91834868D01*
X170570000Y-90789605D01*
X169524737Y-91834868D01*
X169635641Y-92112099D01*
X169897374Y-92210651D01*
X169588485Y-92338281D01*
X169099996Y-92825918D01*
X168835301Y-93463373D01*
X168834699Y-94153599D01*
X155794701Y-94153599D01*
X155795301Y-93466401D01*
X155531719Y-92828485D01*
X155044082Y-92339996D01*
X154744495Y-92215596D01*
X154994359Y-92112099D01*
X155105263Y-91834868D01*
X154060000Y-90789605D01*
X153014737Y-91834868D01*
X153125641Y-92112099D01*
X153387374Y-92210651D01*
X153078485Y-92338281D01*
X152589996Y-92825918D01*
X152325301Y-93463373D01*
X152324699Y-94153599D01*
X144364701Y-94153599D01*
X144365301Y-93466401D01*
X144101719Y-92828485D01*
X143614082Y-92339996D01*
X143314495Y-92215596D01*
X143564359Y-92112099D01*
X143675263Y-91834868D01*
X142630000Y-90789605D01*
X141584737Y-91834868D01*
X141695641Y-92112099D01*
X141957374Y-92210651D01*
X141648485Y-92338281D01*
X141159996Y-92825918D01*
X140895301Y-93463373D01*
X140894699Y-94153599D01*
X138014701Y-94153599D01*
X138015301Y-93466401D01*
X137751719Y-92828485D01*
X137264082Y-92339996D01*
X136964495Y-92215596D01*
X137214359Y-92112099D01*
X137325263Y-91834868D01*
X136280000Y-90789605D01*
X135234737Y-91834868D01*
X135345641Y-92112099D01*
X135607374Y-92210651D01*
X135298485Y-92338281D01*
X134809996Y-92825918D01*
X134545301Y-93463373D01*
X134544699Y-94153599D01*
X126584701Y-94153599D01*
X126585301Y-93466401D01*
X126321719Y-92828485D01*
X125834082Y-92339996D01*
X125534495Y-92215596D01*
X125784359Y-92112099D01*
X125895263Y-91834868D01*
X124850000Y-90789605D01*
X123804737Y-91834868D01*
X123915641Y-92112099D01*
X124177374Y-92210651D01*
X123868485Y-92338281D01*
X123379996Y-92825918D01*
X123115301Y-93463373D01*
X123114699Y-94153599D01*
X120234701Y-94153599D01*
X120235301Y-93466401D01*
X119971719Y-92828485D01*
X119484082Y-92339996D01*
X119184495Y-92215596D01*
X119434359Y-92112099D01*
X119545263Y-91834868D01*
X118500000Y-90789605D01*
X117454737Y-91834868D01*
X117565641Y-92112099D01*
X117827374Y-92210651D01*
X117518485Y-92338281D01*
X117029996Y-92825918D01*
X116765301Y-93463373D01*
X116764699Y-94153599D01*
X108804701Y-94153599D01*
X108805301Y-93466401D01*
X108541719Y-92828485D01*
X108054082Y-92339996D01*
X107754495Y-92215596D01*
X108004359Y-92112099D01*
X108115263Y-91834868D01*
X107070000Y-90789605D01*
X106024737Y-91834868D01*
X106135641Y-92112099D01*
X106397374Y-92210651D01*
X106088485Y-92338281D01*
X105599996Y-92825918D01*
X105335301Y-93463373D01*
X105334699Y-94153599D01*
X104902000Y-94153599D01*
X104902000Y-90321593D01*
X105324677Y-90321593D01*
X105347164Y-91011453D01*
X105567901Y-91544359D01*
X105845132Y-91655263D01*
X106890395Y-90610000D01*
X107249605Y-90610000D01*
X108294868Y-91655263D01*
X108572099Y-91544359D01*
X108815323Y-90898407D01*
X108796521Y-90321593D01*
X116754677Y-90321593D01*
X116777164Y-91011453D01*
X116997901Y-91544359D01*
X117275132Y-91655263D01*
X118320395Y-90610000D01*
X118679605Y-90610000D01*
X119724868Y-91655263D01*
X120002099Y-91544359D01*
X120245323Y-90898407D01*
X120226521Y-90321593D01*
X123104677Y-90321593D01*
X123127164Y-91011453D01*
X123347901Y-91544359D01*
X123625132Y-91655263D01*
X124670395Y-90610000D01*
X125029605Y-90610000D01*
X126074868Y-91655263D01*
X126352099Y-91544359D01*
X126595323Y-90898407D01*
X126576521Y-90321593D01*
X134534677Y-90321593D01*
X134557164Y-91011453D01*
X134777901Y-91544359D01*
X135055132Y-91655263D01*
X136100395Y-90610000D01*
X136459605Y-90610000D01*
X137504868Y-91655263D01*
X137782099Y-91544359D01*
X138025323Y-90898407D01*
X138006521Y-90321593D01*
X140884677Y-90321593D01*
X140907164Y-91011453D01*
X141127901Y-91544359D01*
X141405132Y-91655263D01*
X142450395Y-90610000D01*
X142809605Y-90610000D01*
X143854868Y-91655263D01*
X144132099Y-91544359D01*
X144375323Y-90898407D01*
X144356521Y-90321593D01*
X152314677Y-90321593D01*
X152337164Y-91011453D01*
X152557901Y-91544359D01*
X152835132Y-91655263D01*
X153880395Y-90610000D01*
X154239605Y-90610000D01*
X155284868Y-91655263D01*
X155562099Y-91544359D01*
X155805323Y-90898407D01*
X155792131Y-90493694D01*
X158385226Y-90493694D01*
X158633538Y-91094655D01*
X159092927Y-91554846D01*
X159693453Y-91804206D01*
X160343694Y-91804774D01*
X160944655Y-91556462D01*
X161404846Y-91097073D01*
X161607691Y-90608568D01*
X161808538Y-91094655D01*
X162267927Y-91554846D01*
X162868453Y-91804206D01*
X163518694Y-91804774D01*
X164119655Y-91556462D01*
X164579846Y-91097073D01*
X164829206Y-90496547D01*
X164829358Y-90321593D01*
X168824677Y-90321593D01*
X168847164Y-91011453D01*
X169067901Y-91544359D01*
X169345132Y-91655263D01*
X170390395Y-90610000D01*
X170749605Y-90610000D01*
X171794868Y-91655263D01*
X172072099Y-91544359D01*
X172315323Y-90898407D01*
X172296521Y-90321593D01*
X180254677Y-90321593D01*
X180277164Y-91011453D01*
X180497901Y-91544359D01*
X180775132Y-91655263D01*
X181820395Y-90610000D01*
X182179605Y-90610000D01*
X183224868Y-91655263D01*
X183502099Y-91544359D01*
X183745323Y-90898407D01*
X183726521Y-90321593D01*
X186604677Y-90321593D01*
X186627164Y-91011453D01*
X186847901Y-91544359D01*
X187125132Y-91655263D01*
X188170395Y-90610000D01*
X188529605Y-90610000D01*
X189574868Y-91655263D01*
X189852099Y-91544359D01*
X190095323Y-90898407D01*
X190076521Y-90321593D01*
X198034677Y-90321593D01*
X198057164Y-91011453D01*
X198277901Y-91544359D01*
X198555132Y-91655263D01*
X199600395Y-90610000D01*
X199959605Y-90610000D01*
X201004868Y-91655263D01*
X201282099Y-91544359D01*
X201525323Y-90898407D01*
X201502836Y-90208547D01*
X201282099Y-89675641D01*
X201004868Y-89564737D01*
X199959605Y-90610000D01*
X199600395Y-90610000D01*
X198555132Y-89564737D01*
X198277901Y-89675641D01*
X198034677Y-90321593D01*
X190076521Y-90321593D01*
X190072836Y-90208547D01*
X189852099Y-89675641D01*
X189574868Y-89564737D01*
X188529605Y-90610000D01*
X188170395Y-90610000D01*
X187125132Y-89564737D01*
X186847901Y-89675641D01*
X186604677Y-90321593D01*
X183726521Y-90321593D01*
X183722836Y-90208547D01*
X183502099Y-89675641D01*
X183224868Y-89564737D01*
X182179605Y-90610000D01*
X181820395Y-90610000D01*
X180775132Y-89564737D01*
X180497901Y-89675641D01*
X180254677Y-90321593D01*
X172296521Y-90321593D01*
X172292836Y-90208547D01*
X172072099Y-89675641D01*
X171794868Y-89564737D01*
X170749605Y-90610000D01*
X170390395Y-90610000D01*
X169345132Y-89564737D01*
X169067901Y-89675641D01*
X168824677Y-90321593D01*
X164829358Y-90321593D01*
X164829774Y-89846306D01*
X164639221Y-89385132D01*
X169524737Y-89385132D01*
X170570000Y-90430395D01*
X171615263Y-89385132D01*
X180954737Y-89385132D01*
X182000000Y-90430395D01*
X183045263Y-89385132D01*
X187304737Y-89385132D01*
X188350000Y-90430395D01*
X189395263Y-89385132D01*
X198734737Y-89385132D01*
X199780000Y-90430395D01*
X200825263Y-89385132D01*
X200714359Y-89107901D01*
X200068407Y-88864677D01*
X199378547Y-88887164D01*
X198845641Y-89107901D01*
X198734737Y-89385132D01*
X189395263Y-89385132D01*
X189284359Y-89107901D01*
X188638407Y-88864677D01*
X187948547Y-88887164D01*
X187415641Y-89107901D01*
X187304737Y-89385132D01*
X183045263Y-89385132D01*
X182934359Y-89107901D01*
X182288407Y-88864677D01*
X181598547Y-88887164D01*
X181065641Y-89107901D01*
X180954737Y-89385132D01*
X171615263Y-89385132D01*
X171504359Y-89107901D01*
X170858407Y-88864677D01*
X170168547Y-88887164D01*
X169635641Y-89107901D01*
X169524737Y-89385132D01*
X164639221Y-89385132D01*
X164581462Y-89245345D01*
X164122073Y-88785154D01*
X163521547Y-88535794D01*
X162871306Y-88535226D01*
X162270345Y-88783538D01*
X161810154Y-89242927D01*
X161607309Y-89731432D01*
X161406462Y-89245345D01*
X160947073Y-88785154D01*
X160346547Y-88535794D01*
X159696306Y-88535226D01*
X159095345Y-88783538D01*
X158635154Y-89242927D01*
X158385794Y-89843453D01*
X158385226Y-90493694D01*
X155792131Y-90493694D01*
X155782836Y-90208547D01*
X155562099Y-89675641D01*
X155284868Y-89564737D01*
X154239605Y-90610000D01*
X153880395Y-90610000D01*
X152835132Y-89564737D01*
X152557901Y-89675641D01*
X152314677Y-90321593D01*
X144356521Y-90321593D01*
X144352836Y-90208547D01*
X144132099Y-89675641D01*
X143854868Y-89564737D01*
X142809605Y-90610000D01*
X142450395Y-90610000D01*
X141405132Y-89564737D01*
X141127901Y-89675641D01*
X140884677Y-90321593D01*
X138006521Y-90321593D01*
X138002836Y-90208547D01*
X137782099Y-89675641D01*
X137504868Y-89564737D01*
X136459605Y-90610000D01*
X136100395Y-90610000D01*
X135055132Y-89564737D01*
X134777901Y-89675641D01*
X134534677Y-90321593D01*
X126576521Y-90321593D01*
X126572836Y-90208547D01*
X126352099Y-89675641D01*
X126074868Y-89564737D01*
X125029605Y-90610000D01*
X124670395Y-90610000D01*
X123625132Y-89564737D01*
X123347901Y-89675641D01*
X123104677Y-90321593D01*
X120226521Y-90321593D01*
X120222836Y-90208547D01*
X120002099Y-89675641D01*
X119724868Y-89564737D01*
X118679605Y-90610000D01*
X118320395Y-90610000D01*
X117275132Y-89564737D01*
X116997901Y-89675641D01*
X116754677Y-90321593D01*
X108796521Y-90321593D01*
X108792836Y-90208547D01*
X108572099Y-89675641D01*
X108294868Y-89564737D01*
X107249605Y-90610000D01*
X106890395Y-90610000D01*
X105845132Y-89564737D01*
X105567901Y-89675641D01*
X105324677Y-90321593D01*
X104902000Y-90321593D01*
X104902000Y-89385132D01*
X106024737Y-89385132D01*
X107070000Y-90430395D01*
X108115263Y-89385132D01*
X117454737Y-89385132D01*
X118500000Y-90430395D01*
X119545263Y-89385132D01*
X123804737Y-89385132D01*
X124850000Y-90430395D01*
X125895263Y-89385132D01*
X135234737Y-89385132D01*
X136280000Y-90430395D01*
X137325263Y-89385132D01*
X141584737Y-89385132D01*
X142630000Y-90430395D01*
X143675263Y-89385132D01*
X153014737Y-89385132D01*
X154060000Y-90430395D01*
X155105263Y-89385132D01*
X154994359Y-89107901D01*
X154348407Y-88864677D01*
X153658547Y-88887164D01*
X153125641Y-89107901D01*
X153014737Y-89385132D01*
X143675263Y-89385132D01*
X143564359Y-89107901D01*
X142918407Y-88864677D01*
X142228547Y-88887164D01*
X141695641Y-89107901D01*
X141584737Y-89385132D01*
X137325263Y-89385132D01*
X137214359Y-89107901D01*
X136568407Y-88864677D01*
X135878547Y-88887164D01*
X135345641Y-89107901D01*
X135234737Y-89385132D01*
X125895263Y-89385132D01*
X125784359Y-89107901D01*
X125138407Y-88864677D01*
X124448547Y-88887164D01*
X123915641Y-89107901D01*
X123804737Y-89385132D01*
X119545263Y-89385132D01*
X119434359Y-89107901D01*
X118788407Y-88864677D01*
X118098547Y-88887164D01*
X117565641Y-89107901D01*
X117454737Y-89385132D01*
X108115263Y-89385132D01*
X108004359Y-89107901D01*
X107358407Y-88864677D01*
X106668547Y-88887164D01*
X106135641Y-89107901D01*
X106024737Y-89385132D01*
X104902000Y-89385132D01*
X104902000Y-88708509D01*
X105002152Y-88205011D01*
X105395830Y-87615830D01*
X105985011Y-87222152D01*
X106488509Y-87122000D01*
X200851491Y-87122000D01*
X201354989Y-87222152D01*
X201354989Y-87222152D01*
G37*
X201354989Y-87222152D02*
X201944170Y-87615830D01*
X202337848Y-88205011D01*
X202438000Y-88708509D01*
X202438000Y-132271491D01*
X202412600Y-132399185D01*
X202412600Y-132149255D01*
X202298526Y-131575766D01*
X201973670Y-131089585D01*
X201487489Y-130764729D01*
X200914000Y-130650655D01*
X200340511Y-130764729D01*
X199854330Y-131089585D01*
X199647539Y-131399069D01*
X199276036Y-130983268D01*
X198748791Y-130729291D01*
X198733026Y-130726642D01*
X198501000Y-130847783D01*
X198501000Y-132207000D01*
X198521000Y-132207000D01*
X198521000Y-132461000D01*
X198501000Y-132461000D01*
X198501000Y-132481000D01*
X198247000Y-132481000D01*
X198247000Y-132461000D01*
X198227000Y-132461000D01*
X198227000Y-132207000D01*
X198247000Y-132207000D01*
X198247000Y-130847783D01*
X198014974Y-130726642D01*
X197999209Y-130729291D01*
X197471964Y-130983268D01*
X197315093Y-131158845D01*
X197300762Y-131082683D01*
X197161690Y-130866559D01*
X196949490Y-130721569D01*
X196697600Y-130670560D01*
X194970400Y-130670560D01*
X194735083Y-130714838D01*
X194518959Y-130853910D01*
X194373969Y-131066110D01*
X194322960Y-131318000D01*
X194322960Y-133350000D01*
X194367238Y-133585317D01*
X194506310Y-133801441D01*
X194589087Y-133858000D01*
X106488509Y-133858000D01*
X105985011Y-133757848D01*
X105963448Y-133743440D01*
X107696000Y-133743440D01*
X107931317Y-133699162D01*
X108147441Y-133560090D01*
X108258840Y-133397052D01*
X108355182Y-133486385D01*
X108837056Y-133685975D01*
X109093000Y-133566836D01*
X109093000Y-132207000D01*
X109347000Y-132207000D01*
X109347000Y-133566836D01*
X109602944Y-133685975D01*
X110084818Y-133486385D01*
X110490000Y-133110679D01*
X110895182Y-133486385D01*
X111377056Y-133685975D01*
X111633000Y-133566836D01*
X111633000Y-132207000D01*
X109347000Y-132207000D01*
X109093000Y-132207000D01*
X109073000Y-132207000D01*
X109073000Y-131953000D01*
X109093000Y-131953000D01*
X109093000Y-130593164D01*
X109347000Y-130593164D01*
X109347000Y-131953000D01*
X111633000Y-131953000D01*
X111633000Y-130593164D01*
X111887000Y-130593164D01*
X111887000Y-131953000D01*
X111907000Y-131953000D01*
X111907000Y-132207000D01*
X111887000Y-132207000D01*
X111887000Y-133566836D01*
X112142944Y-133685975D01*
X112624818Y-133486385D01*
X112722398Y-133395903D01*
X112819910Y-133547441D01*
X113032110Y-133692431D01*
X113284000Y-133743440D01*
X115316000Y-133743440D01*
X115551317Y-133699162D01*
X115767441Y-133560090D01*
X115912431Y-133347890D01*
X115963440Y-133096000D01*
X115963440Y-131064000D01*
X122796560Y-131064000D01*
X122796560Y-133096000D01*
X122840838Y-133331317D01*
X122979910Y-133547441D01*
X123192110Y-133692431D01*
X123444000Y-133743440D01*
X125476000Y-133743440D01*
X125711317Y-133699162D01*
X125927441Y-133560090D01*
X126038840Y-133397052D01*
X126135182Y-133486385D01*
X126617056Y-133685975D01*
X126873000Y-133566836D01*
X126873000Y-132207000D01*
X127127000Y-132207000D01*
X127127000Y-133566836D01*
X127382944Y-133685975D01*
X127864818Y-133486385D01*
X128270000Y-133110679D01*
X128675182Y-133486385D01*
X129157056Y-133685975D01*
X129413000Y-133566836D01*
X129413000Y-132207000D01*
X127127000Y-132207000D01*
X126873000Y-132207000D01*
X126853000Y-132207000D01*
X126853000Y-131953000D01*
X126873000Y-131953000D01*
X126873000Y-130593164D01*
X127127000Y-130593164D01*
X127127000Y-131953000D01*
X129413000Y-131953000D01*
X129413000Y-130593164D01*
X129667000Y-130593164D01*
X129667000Y-131953000D01*
X129687000Y-131953000D01*
X129687000Y-132207000D01*
X129667000Y-132207000D01*
X129667000Y-133566836D01*
X129922944Y-133685975D01*
X130404818Y-133486385D01*
X130502398Y-133395903D01*
X130599910Y-133547441D01*
X130812110Y-133692431D01*
X131064000Y-133743440D01*
X133096000Y-133743440D01*
X133331317Y-133699162D01*
X133547441Y-133560090D01*
X133692431Y-133347890D01*
X133743440Y-133096000D01*
X133743440Y-131064000D01*
X140576560Y-131064000D01*
X140576560Y-133096000D01*
X140620838Y-133331317D01*
X140759910Y-133547441D01*
X140972110Y-133692431D01*
X141224000Y-133743440D01*
X143256000Y-133743440D01*
X143491317Y-133699162D01*
X143707441Y-133560090D01*
X143818840Y-133397052D01*
X143915182Y-133486385D01*
X144397056Y-133685975D01*
X144653000Y-133566836D01*
X144653000Y-132207000D01*
X144907000Y-132207000D01*
X144907000Y-133566836D01*
X145162944Y-133685975D01*
X145644818Y-133486385D01*
X146050000Y-133110679D01*
X146455182Y-133486385D01*
X146937056Y-133685975D01*
X147193000Y-133566836D01*
X147193000Y-132207000D01*
X144907000Y-132207000D01*
X144653000Y-132207000D01*
X144633000Y-132207000D01*
X144633000Y-131953000D01*
X144653000Y-131953000D01*
X144653000Y-130593164D01*
X144907000Y-130593164D01*
X144907000Y-131953000D01*
X147193000Y-131953000D01*
X147193000Y-130593164D01*
X147447000Y-130593164D01*
X147447000Y-131953000D01*
X147467000Y-131953000D01*
X147467000Y-132207000D01*
X147447000Y-132207000D01*
X147447000Y-133566836D01*
X147702944Y-133685975D01*
X148184818Y-133486385D01*
X148282398Y-133395903D01*
X148379910Y-133547441D01*
X148592110Y-133692431D01*
X148844000Y-133743440D01*
X150876000Y-133743440D01*
X151111317Y-133699162D01*
X151327441Y-133560090D01*
X151472431Y-133347890D01*
X151523440Y-133096000D01*
X151523440Y-131064000D01*
X151479162Y-130828683D01*
X151340090Y-130612559D01*
X151127890Y-130467569D01*
X150876000Y-130416560D01*
X148844000Y-130416560D01*
X148608683Y-130460838D01*
X148392559Y-130599910D01*
X148281160Y-130762948D01*
X148184818Y-130673615D01*
X147702944Y-130474025D01*
X147447000Y-130593164D01*
X147193000Y-130593164D01*
X146937056Y-130474025D01*
X146455182Y-130673615D01*
X146050000Y-131049321D01*
X145644818Y-130673615D01*
X145162944Y-130474025D01*
X144907000Y-130593164D01*
X144653000Y-130593164D01*
X144397056Y-130474025D01*
X143915182Y-130673615D01*
X143817602Y-130764097D01*
X143720090Y-130612559D01*
X143507890Y-130467569D01*
X143256000Y-130416560D01*
X141224000Y-130416560D01*
X140988683Y-130460838D01*
X140772559Y-130599910D01*
X140627569Y-130812110D01*
X140576560Y-131064000D01*
X133743440Y-131064000D01*
X133699162Y-130828683D01*
X133560090Y-130612559D01*
X133347890Y-130467569D01*
X133096000Y-130416560D01*
X131064000Y-130416560D01*
X130828683Y-130460838D01*
X130612559Y-130599910D01*
X130501160Y-130762948D01*
X130404818Y-130673615D01*
X129922944Y-130474025D01*
X129667000Y-130593164D01*
X129413000Y-130593164D01*
X129157056Y-130474025D01*
X128675182Y-130673615D01*
X128270000Y-131049321D01*
X127864818Y-130673615D01*
X127382944Y-130474025D01*
X127127000Y-130593164D01*
X126873000Y-130593164D01*
X126617056Y-130474025D01*
X126135182Y-130673615D01*
X126037602Y-130764097D01*
X125940090Y-130612559D01*
X125727890Y-130467569D01*
X125476000Y-130416560D01*
X123444000Y-130416560D01*
X123208683Y-130460838D01*
X122992559Y-130599910D01*
X122847569Y-130812110D01*
X122796560Y-131064000D01*
X115963440Y-131064000D01*
X115919162Y-130828683D01*
X115780090Y-130612559D01*
X115567890Y-130467569D01*
X115316000Y-130416560D01*
X113284000Y-130416560D01*
X113048683Y-130460838D01*
X112832559Y-130599910D01*
X112721160Y-130762948D01*
X112624818Y-130673615D01*
X112142944Y-130474025D01*
X111887000Y-130593164D01*
X111633000Y-130593164D01*
X111377056Y-130474025D01*
X110895182Y-130673615D01*
X110490000Y-131049321D01*
X110084818Y-130673615D01*
X109602944Y-130474025D01*
X109347000Y-130593164D01*
X109093000Y-130593164D01*
X108837056Y-130474025D01*
X108355182Y-130673615D01*
X108257602Y-130764097D01*
X108160090Y-130612559D01*
X107947890Y-130467569D01*
X107696000Y-130416560D01*
X105664000Y-130416560D01*
X105428683Y-130460838D01*
X105212559Y-130599910D01*
X105067569Y-130812110D01*
X105016560Y-131064000D01*
X105016560Y-132796552D01*
X105002152Y-132774989D01*
X104902000Y-132271491D01*
X104902000Y-122450661D01*
X159384758Y-122450661D01*
X159596990Y-122964303D01*
X159989630Y-123357629D01*
X160197512Y-123443949D01*
X159991697Y-123528990D01*
X159598371Y-123921630D01*
X159385243Y-124434900D01*
X159384758Y-124990661D01*
X159596990Y-125504303D01*
X159989630Y-125897629D01*
X160197512Y-125983949D01*
X159991697Y-126068990D01*
X159598371Y-126461630D01*
X159385243Y-126974900D01*
X159384758Y-127530661D01*
X159596990Y-128044303D01*
X159989630Y-128437629D01*
X160197512Y-128523949D01*
X159991697Y-128608990D01*
X159598371Y-129001630D01*
X159385243Y-129514900D01*
X159384758Y-130070661D01*
X159596990Y-130584303D01*
X159989630Y-130977629D01*
X160197512Y-131063949D01*
X159991697Y-131148990D01*
X159598371Y-131541630D01*
X159385243Y-132054900D01*
X159384758Y-132610661D01*
X159596990Y-133124303D01*
X159989630Y-133517629D01*
X160502900Y-133730757D01*
X161058661Y-133731242D01*
X161572303Y-133519010D01*
X161965629Y-133126370D01*
X162178757Y-132613100D01*
X162179242Y-132057339D01*
X161967010Y-131543697D01*
X161574370Y-131150371D01*
X161366488Y-131064051D01*
X161572303Y-130979010D01*
X161741608Y-130810000D01*
X164960560Y-130810000D01*
X164960560Y-132842000D01*
X165004838Y-133077317D01*
X165143910Y-133293441D01*
X165356110Y-133438431D01*
X165608000Y-133489440D01*
X167640000Y-133489440D01*
X167875317Y-133445162D01*
X168091441Y-133306090D01*
X168202840Y-133143052D01*
X168299182Y-133232385D01*
X168781056Y-133431975D01*
X169037000Y-133312836D01*
X169037000Y-131953000D01*
X169291000Y-131953000D01*
X169291000Y-133312836D01*
X169546944Y-133431975D01*
X170028818Y-133232385D01*
X170434000Y-132856679D01*
X170839182Y-133232385D01*
X171321056Y-133431975D01*
X171577000Y-133312836D01*
X171577000Y-131953000D01*
X169291000Y-131953000D01*
X169037000Y-131953000D01*
X169017000Y-131953000D01*
X169017000Y-131699000D01*
X169037000Y-131699000D01*
X169037000Y-130339164D01*
X169291000Y-130339164D01*
X169291000Y-131699000D01*
X171577000Y-131699000D01*
X171577000Y-130339164D01*
X171831000Y-130339164D01*
X171831000Y-131699000D01*
X171851000Y-131699000D01*
X171851000Y-131953000D01*
X171831000Y-131953000D01*
X171831000Y-133312836D01*
X172086944Y-133431975D01*
X172568818Y-133232385D01*
X172666398Y-133141903D01*
X172763910Y-133293441D01*
X172976110Y-133438431D01*
X173228000Y-133489440D01*
X175260000Y-133489440D01*
X175495317Y-133445162D01*
X175711441Y-133306090D01*
X175856431Y-133093890D01*
X175907440Y-132842000D01*
X175907440Y-131730750D01*
X187310000Y-131730750D01*
X187310000Y-132221309D01*
X187406673Y-132454698D01*
X187585301Y-132633327D01*
X187818690Y-132730000D01*
X188309250Y-132730000D01*
X188468000Y-132571250D01*
X188468000Y-131572000D01*
X188722000Y-131572000D01*
X188722000Y-132571250D01*
X188880750Y-132730000D01*
X189371310Y-132730000D01*
X189604699Y-132633327D01*
X189783327Y-132454698D01*
X189880000Y-132221309D01*
X189880000Y-131730750D01*
X189721250Y-131572000D01*
X188722000Y-131572000D01*
X188468000Y-131572000D01*
X187468750Y-131572000D01*
X187310000Y-131730750D01*
X175907440Y-131730750D01*
X175907440Y-130810000D01*
X175863162Y-130574683D01*
X175724090Y-130358559D01*
X175511890Y-130213569D01*
X175260000Y-130162560D01*
X173228000Y-130162560D01*
X172992683Y-130206838D01*
X172776559Y-130345910D01*
X172665160Y-130508948D01*
X172568818Y-130419615D01*
X172086944Y-130220025D01*
X171831000Y-130339164D01*
X171577000Y-130339164D01*
X171321056Y-130220025D01*
X170839182Y-130419615D01*
X170434000Y-130795321D01*
X170028818Y-130419615D01*
X169546944Y-130220025D01*
X169291000Y-130339164D01*
X169037000Y-130339164D01*
X168781056Y-130220025D01*
X168299182Y-130419615D01*
X168201602Y-130510097D01*
X168104090Y-130358559D01*
X167891890Y-130213569D01*
X167640000Y-130162560D01*
X165608000Y-130162560D01*
X165372683Y-130206838D01*
X165156559Y-130345910D01*
X165011569Y-130558110D01*
X164960560Y-130810000D01*
X161741608Y-130810000D01*
X161965629Y-130586370D01*
X162178757Y-130073100D01*
X162179242Y-129517339D01*
X162047907Y-129199481D01*
X187309777Y-129199481D01*
X187504995Y-129671943D01*
X187866155Y-130033735D01*
X188170235Y-130160000D01*
X187818690Y-130160000D01*
X187585301Y-130256673D01*
X187406673Y-130435302D01*
X187310000Y-130668691D01*
X187310000Y-131159250D01*
X187468750Y-131318000D01*
X188468000Y-131318000D01*
X188468000Y-131298000D01*
X188722000Y-131298000D01*
X188722000Y-131318000D01*
X189721250Y-131318000D01*
X189880000Y-131159250D01*
X189880000Y-130668691D01*
X189783327Y-130435302D01*
X189604699Y-130256673D01*
X189371310Y-130160000D01*
X189019433Y-130160000D01*
X189321943Y-130035005D01*
X189683735Y-129673845D01*
X189879777Y-129201724D01*
X189880223Y-128690519D01*
X189685005Y-128218057D01*
X189323845Y-127856265D01*
X188851724Y-127660223D01*
X188340519Y-127659777D01*
X187868057Y-127854995D01*
X187506265Y-128216155D01*
X187310223Y-128688276D01*
X187309777Y-129199481D01*
X162047907Y-129199481D01*
X161967010Y-129003697D01*
X161574370Y-128610371D01*
X161366488Y-128524051D01*
X161572303Y-128439010D01*
X161965629Y-128046370D01*
X162178757Y-127533100D01*
X162179242Y-126977339D01*
X161967010Y-126463697D01*
X161574370Y-126070371D01*
X161366488Y-125984051D01*
X161572303Y-125899010D01*
X161709802Y-125761750D01*
X169403000Y-125761750D01*
X169403000Y-126252310D01*
X169499673Y-126485699D01*
X169678302Y-126664327D01*
X169911691Y-126761000D01*
X170402250Y-126761000D01*
X170561000Y-126602250D01*
X170561000Y-125603000D01*
X169561750Y-125603000D01*
X169403000Y-125761750D01*
X161709802Y-125761750D01*
X161965629Y-125506370D01*
X162178757Y-124993100D01*
X162179013Y-124699690D01*
X169403000Y-124699690D01*
X169403000Y-125190250D01*
X169561750Y-125349000D01*
X170561000Y-125349000D01*
X170561000Y-124349750D01*
X170815000Y-124349750D01*
X170815000Y-125349000D01*
X170835000Y-125349000D01*
X170835000Y-125603000D01*
X170815000Y-125603000D01*
X170815000Y-126602250D01*
X170973750Y-126761000D01*
X171464309Y-126761000D01*
X171697698Y-126664327D01*
X171876327Y-126485699D01*
X171973000Y-126252310D01*
X171973000Y-125900433D01*
X172097995Y-126202943D01*
X172459155Y-126564735D01*
X172931276Y-126760777D01*
X173442481Y-126761223D01*
X173914943Y-126566005D01*
X174276735Y-126204845D01*
X174472777Y-125732724D01*
X174472780Y-125729761D01*
X174936736Y-126039767D01*
X175485887Y-126149000D01*
X175542113Y-126149000D01*
X176091264Y-126039767D01*
X176556811Y-125728698D01*
X176867880Y-125263151D01*
X176907684Y-125063039D01*
X181742096Y-125063039D01*
X181902959Y-125451423D01*
X182278866Y-125866389D01*
X182784959Y-126105914D01*
X183007000Y-125984629D01*
X183007000Y-124841000D01*
X183261000Y-124841000D01*
X183261000Y-125984629D01*
X183483041Y-126105914D01*
X183989134Y-125866389D01*
X184365041Y-125451423D01*
X184525904Y-125063039D01*
X184403915Y-124841000D01*
X183261000Y-124841000D01*
X183007000Y-124841000D01*
X181864085Y-124841000D01*
X181742096Y-125063039D01*
X176907684Y-125063039D01*
X176977113Y-124714000D01*
X176867880Y-124164849D01*
X176556811Y-123699302D01*
X176152297Y-123429014D01*
X176369134Y-123326389D01*
X176745041Y-122911423D01*
X176905904Y-122523039D01*
X176783915Y-122301000D01*
X175641000Y-122301000D01*
X175641000Y-122321000D01*
X175387000Y-122321000D01*
X175387000Y-122301000D01*
X175367000Y-122301000D01*
X175367000Y-122047000D01*
X175387000Y-122047000D01*
X175387000Y-122027000D01*
X175641000Y-122027000D01*
X175641000Y-122047000D01*
X176783915Y-122047000D01*
X176905904Y-121824961D01*
X176745041Y-121436577D01*
X176369134Y-121021611D01*
X176152297Y-120918986D01*
X176556811Y-120648698D01*
X176867880Y-120183151D01*
X176977113Y-119634000D01*
X176867880Y-119084849D01*
X176556811Y-118619302D01*
X176174725Y-118364000D01*
X176556811Y-118108698D01*
X176867880Y-117643151D01*
X176977113Y-117094000D01*
X176867880Y-116544849D01*
X176556811Y-116079302D01*
X176091264Y-115768233D01*
X175542113Y-115659000D01*
X175485887Y-115659000D01*
X174936736Y-115768233D01*
X174471189Y-116079302D01*
X174160120Y-116544849D01*
X174050887Y-117094000D01*
X174160120Y-117643151D01*
X174471189Y-118108698D01*
X174853275Y-118364000D01*
X174471189Y-118619302D01*
X174160120Y-119084849D01*
X174050887Y-119634000D01*
X174160120Y-120183151D01*
X174471189Y-120648698D01*
X174875703Y-120918986D01*
X174658866Y-121021611D01*
X174389314Y-121319171D01*
X174360462Y-121249345D01*
X173901073Y-120789154D01*
X173300547Y-120539794D01*
X172650306Y-120539226D01*
X172049345Y-120787538D01*
X171589154Y-121246927D01*
X171339794Y-121847453D01*
X171339226Y-122497694D01*
X171587538Y-123098655D01*
X172046927Y-123558846D01*
X172647453Y-123808206D01*
X173297694Y-123808774D01*
X173898655Y-123560462D01*
X174358846Y-123101073D01*
X174388992Y-123028473D01*
X174658866Y-123326389D01*
X174875703Y-123429014D01*
X174471189Y-123699302D01*
X174160120Y-124164849D01*
X174082809Y-124553519D01*
X173916845Y-124387265D01*
X173444724Y-124191223D01*
X172933519Y-124190777D01*
X172461057Y-124385995D01*
X172099265Y-124747155D01*
X171973000Y-125051235D01*
X171973000Y-124699690D01*
X171876327Y-124466301D01*
X171697698Y-124287673D01*
X171464309Y-124191000D01*
X170973750Y-124191000D01*
X170815000Y-124349750D01*
X170561000Y-124349750D01*
X170402250Y-124191000D01*
X169911691Y-124191000D01*
X169678302Y-124287673D01*
X169499673Y-124466301D01*
X169403000Y-124699690D01*
X162179013Y-124699690D01*
X162179242Y-124437339D01*
X161967010Y-123923697D01*
X161574370Y-123530371D01*
X161366488Y-123444051D01*
X161572303Y-123359010D01*
X161965629Y-122966370D01*
X162178757Y-122453100D01*
X162179242Y-121897339D01*
X161967010Y-121383697D01*
X161574370Y-120990371D01*
X161061100Y-120777243D01*
X160505339Y-120776758D01*
X159991697Y-120988990D01*
X159598371Y-121381630D01*
X159385243Y-121894900D01*
X159384758Y-122450661D01*
X104902000Y-122450661D01*
X104902000Y-120973694D01*
X105045226Y-120973694D01*
X105293538Y-121574655D01*
X105752927Y-122034846D01*
X106353453Y-122284206D01*
X107003694Y-122284774D01*
X107604655Y-122036462D01*
X108064846Y-121577073D01*
X108314206Y-120976547D01*
X108314208Y-120973694D01*
X112665226Y-120973694D01*
X112913538Y-121574655D01*
X113372927Y-122034846D01*
X113973453Y-122284206D01*
X114623694Y-122284774D01*
X115224655Y-122036462D01*
X115684846Y-121577073D01*
X115934206Y-120976547D01*
X115934208Y-120973694D01*
X122825226Y-120973694D01*
X123073538Y-121574655D01*
X123532927Y-122034846D01*
X124133453Y-122284206D01*
X124783694Y-122284774D01*
X125384655Y-122036462D01*
X125844846Y-121577073D01*
X126094206Y-120976547D01*
X126094208Y-120973694D01*
X130445226Y-120973694D01*
X130693538Y-121574655D01*
X131152927Y-122034846D01*
X131753453Y-122284206D01*
X132403694Y-122284774D01*
X133004655Y-122036462D01*
X133464846Y-121577073D01*
X133714206Y-120976547D01*
X133714208Y-120973694D01*
X140605226Y-120973694D01*
X140853538Y-121574655D01*
X141312927Y-122034846D01*
X141913453Y-122284206D01*
X142563694Y-122284774D01*
X143164655Y-122036462D01*
X143624846Y-121577073D01*
X143874206Y-120976547D01*
X143874208Y-120973694D01*
X146955226Y-120973694D01*
X147203538Y-121574655D01*
X147662927Y-122034846D01*
X148263453Y-122284206D01*
X148913694Y-122284774D01*
X149514655Y-122036462D01*
X149974846Y-121577073D01*
X150224206Y-120976547D01*
X150224774Y-120326306D01*
X149976462Y-119725345D01*
X149517073Y-119265154D01*
X148916547Y-119015794D01*
X148266306Y-119015226D01*
X147665345Y-119263538D01*
X147205154Y-119722927D01*
X146955794Y-120323453D01*
X146955226Y-120973694D01*
X143874208Y-120973694D01*
X143874774Y-120326306D01*
X143626462Y-119725345D01*
X143167073Y-119265154D01*
X142566547Y-119015794D01*
X141916306Y-119015226D01*
X141315345Y-119263538D01*
X140855154Y-119722927D01*
X140605794Y-120323453D01*
X140605226Y-120973694D01*
X133714208Y-120973694D01*
X133714774Y-120326306D01*
X133466462Y-119725345D01*
X133007073Y-119265154D01*
X132406547Y-119015794D01*
X131756306Y-119015226D01*
X131155345Y-119263538D01*
X130695154Y-119722927D01*
X130445794Y-120323453D01*
X130445226Y-120973694D01*
X126094208Y-120973694D01*
X126094774Y-120326306D01*
X125846462Y-119725345D01*
X125387073Y-119265154D01*
X124786547Y-119015794D01*
X124136306Y-119015226D01*
X123535345Y-119263538D01*
X123075154Y-119722927D01*
X122825794Y-120323453D01*
X122825226Y-120973694D01*
X115934208Y-120973694D01*
X115934774Y-120326306D01*
X115686462Y-119725345D01*
X115227073Y-119265154D01*
X114626547Y-119015794D01*
X113976306Y-119015226D01*
X113375345Y-119263538D01*
X112915154Y-119722927D01*
X112665794Y-120323453D01*
X112665226Y-120973694D01*
X108314208Y-120973694D01*
X108314774Y-120326306D01*
X108066462Y-119725345D01*
X107607073Y-119265154D01*
X107006547Y-119015794D01*
X106356306Y-119015226D01*
X105755345Y-119263538D01*
X105295154Y-119722927D01*
X105045794Y-120323453D01*
X105045226Y-120973694D01*
X104902000Y-120973694D01*
X104902000Y-113353694D01*
X105045226Y-113353694D01*
X105293538Y-113954655D01*
X105752927Y-114414846D01*
X106353453Y-114664206D01*
X107003694Y-114664774D01*
X107604655Y-114416462D01*
X108064846Y-113957073D01*
X108314206Y-113356547D01*
X108314208Y-113353694D01*
X112665226Y-113353694D01*
X112913538Y-113954655D01*
X113372927Y-114414846D01*
X113973453Y-114664206D01*
X114623694Y-114664774D01*
X115224655Y-114416462D01*
X115684846Y-113957073D01*
X115934206Y-113356547D01*
X115934208Y-113353694D01*
X122825226Y-113353694D01*
X123073538Y-113954655D01*
X123532927Y-114414846D01*
X124133453Y-114664206D01*
X124783694Y-114664774D01*
X125384655Y-114416462D01*
X125844846Y-113957073D01*
X126094206Y-113356547D01*
X126094208Y-113353694D01*
X130445226Y-113353694D01*
X130693538Y-113954655D01*
X131152927Y-114414846D01*
X131753453Y-114664206D01*
X132403694Y-114664774D01*
X133004655Y-114416462D01*
X133464846Y-113957073D01*
X133714206Y-113356547D01*
X133714208Y-113353694D01*
X140605226Y-113353694D01*
X140853538Y-113954655D01*
X141312927Y-114414846D01*
X141913453Y-114664206D01*
X142563694Y-114664774D01*
X143164655Y-114416462D01*
X143624846Y-113957073D01*
X143874206Y-113356547D01*
X143874208Y-113353694D01*
X146955226Y-113353694D01*
X147203538Y-113954655D01*
X147662927Y-114414846D01*
X148263453Y-114664206D01*
X148913694Y-114664774D01*
X149514655Y-114416462D01*
X149974846Y-113957073D01*
X150224206Y-113356547D01*
X150224774Y-112706306D01*
X149976462Y-112105345D01*
X149517073Y-111645154D01*
X148916547Y-111395794D01*
X148266306Y-111395226D01*
X147665345Y-111643538D01*
X147205154Y-112102927D01*
X146955794Y-112703453D01*
X146955226Y-113353694D01*
X143874208Y-113353694D01*
X143874774Y-112706306D01*
X143626462Y-112105345D01*
X143167073Y-111645154D01*
X142566547Y-111395794D01*
X141916306Y-111395226D01*
X141315345Y-111643538D01*
X140855154Y-112102927D01*
X140605794Y-112703453D01*
X140605226Y-113353694D01*
X133714208Y-113353694D01*
X133714774Y-112706306D01*
X133466462Y-112105345D01*
X133007073Y-111645154D01*
X132406547Y-111395794D01*
X131756306Y-111395226D01*
X131155345Y-111643538D01*
X130695154Y-112102927D01*
X130445794Y-112703453D01*
X130445226Y-113353694D01*
X126094208Y-113353694D01*
X126094774Y-112706306D01*
X125846462Y-112105345D01*
X125387073Y-111645154D01*
X124786547Y-111395794D01*
X124136306Y-111395226D01*
X123535345Y-111643538D01*
X123075154Y-112102927D01*
X122825794Y-112703453D01*
X122825226Y-113353694D01*
X115934208Y-113353694D01*
X115934774Y-112706306D01*
X115686462Y-112105345D01*
X115227073Y-111645154D01*
X114626547Y-111395794D01*
X113976306Y-111395226D01*
X113375345Y-111643538D01*
X112915154Y-112102927D01*
X112665794Y-112703453D01*
X112665226Y-113353694D01*
X108314208Y-113353694D01*
X108314774Y-112706306D01*
X108066462Y-112105345D01*
X107607073Y-111645154D01*
X107006547Y-111395794D01*
X106356306Y-111395226D01*
X105755345Y-111643538D01*
X105295154Y-112102927D01*
X105045794Y-112703453D01*
X105045226Y-113353694D01*
X104902000Y-113353694D01*
X104902000Y-109242661D01*
X159384758Y-109242661D01*
X159596990Y-109756303D01*
X159989630Y-110149629D01*
X160197512Y-110235949D01*
X159991697Y-110320990D01*
X159598371Y-110713630D01*
X159385243Y-111226900D01*
X159384758Y-111782661D01*
X159596990Y-112296303D01*
X159989630Y-112689629D01*
X160197512Y-112775949D01*
X159991697Y-112860990D01*
X159598371Y-113253630D01*
X159385243Y-113766900D01*
X159384758Y-114322661D01*
X159596990Y-114836303D01*
X159989630Y-115229629D01*
X160197512Y-115315949D01*
X159991697Y-115400990D01*
X159598371Y-115793630D01*
X159385243Y-116306900D01*
X159384758Y-116862661D01*
X159596990Y-117376303D01*
X159989630Y-117769629D01*
X160197512Y-117855949D01*
X159991697Y-117940990D01*
X159598371Y-118333630D01*
X159385243Y-118846900D01*
X159384758Y-119402661D01*
X159596990Y-119916303D01*
X159989630Y-120309629D01*
X160502900Y-120522757D01*
X161058661Y-120523242D01*
X161572303Y-120311010D01*
X161965629Y-119918370D01*
X162178757Y-119405100D01*
X162179242Y-118849339D01*
X161967010Y-118335697D01*
X161574370Y-117942371D01*
X161366488Y-117856051D01*
X161572303Y-117771010D01*
X161965629Y-117378370D01*
X162178757Y-116865100D01*
X162179124Y-116444000D01*
X169136560Y-116444000D01*
X169136560Y-117744000D01*
X169180838Y-117979317D01*
X169319910Y-118195441D01*
X169532110Y-118340431D01*
X169784000Y-118391440D01*
X171084000Y-118391440D01*
X171319317Y-118347162D01*
X171535441Y-118208090D01*
X171680431Y-117995890D01*
X171731440Y-117744000D01*
X171731440Y-116444000D01*
X171687162Y-116208683D01*
X171548090Y-115992559D01*
X171335890Y-115847569D01*
X171084000Y-115796560D01*
X170888540Y-115796560D01*
X171160943Y-115684005D01*
X171522735Y-115322845D01*
X171522947Y-115322334D01*
X171587538Y-115478655D01*
X172046927Y-115938846D01*
X172647453Y-116188206D01*
X173297694Y-116188774D01*
X173898655Y-115940462D01*
X174358846Y-115481073D01*
X174608206Y-114880547D01*
X174608774Y-114230306D01*
X174589235Y-114183016D01*
X179660590Y-114183016D01*
X179716271Y-114413611D01*
X180199078Y-114581622D01*
X180709428Y-114552083D01*
X181043729Y-114413611D01*
X181099410Y-114183016D01*
X180380000Y-113463605D01*
X179660590Y-114183016D01*
X174589235Y-114183016D01*
X174360462Y-113629345D01*
X173901073Y-113169154D01*
X173741945Y-113103078D01*
X179082378Y-113103078D01*
X179111917Y-113613428D01*
X179250389Y-113947729D01*
X179480984Y-114003410D01*
X180200395Y-113284000D01*
X180559605Y-113284000D01*
X181279016Y-114003410D01*
X181509611Y-113947729D01*
X181582560Y-113738098D01*
X181582560Y-113934000D01*
X181626838Y-114169317D01*
X181765910Y-114385441D01*
X181978110Y-114530431D01*
X182230000Y-114581440D01*
X183530000Y-114581440D01*
X183765317Y-114537162D01*
X183981441Y-114398090D01*
X184039719Y-114312797D01*
X184039226Y-114877694D01*
X184287538Y-115478655D01*
X184746927Y-115938846D01*
X184839000Y-115977078D01*
X184839000Y-116748132D01*
X184579861Y-117007271D01*
X184487880Y-116544849D01*
X184176811Y-116079302D01*
X183711264Y-115768233D01*
X183162113Y-115659000D01*
X183105887Y-115659000D01*
X182556736Y-115768233D01*
X182091189Y-116079302D01*
X181780120Y-116544849D01*
X181670887Y-117094000D01*
X181780120Y-117643151D01*
X182091189Y-118108698D01*
X182473275Y-118364000D01*
X182091189Y-118619302D01*
X181780120Y-119084849D01*
X181670887Y-119634000D01*
X181780120Y-120183151D01*
X182091189Y-120648698D01*
X182473275Y-120904000D01*
X182091189Y-121159302D01*
X181780120Y-121624849D01*
X181670887Y-122174000D01*
X181780120Y-122723151D01*
X182091189Y-123188698D01*
X182495703Y-123458986D01*
X182278866Y-123561611D01*
X181902959Y-123976577D01*
X181742096Y-124364961D01*
X181864085Y-124587000D01*
X183007000Y-124587000D01*
X183007000Y-124567000D01*
X183261000Y-124567000D01*
X183261000Y-124587000D01*
X184403915Y-124587000D01*
X184525904Y-124364961D01*
X184365041Y-123976577D01*
X184214144Y-123810000D01*
X191996560Y-123810000D01*
X191996560Y-125110000D01*
X192040838Y-125345317D01*
X192179910Y-125561441D01*
X192392110Y-125706431D01*
X192644000Y-125757440D01*
X193944000Y-125757440D01*
X194179317Y-125713162D01*
X194395441Y-125574090D01*
X194540431Y-125361890D01*
X194591440Y-125110000D01*
X194591440Y-123810000D01*
X194547162Y-123574683D01*
X194408090Y-123358559D01*
X194195890Y-123213569D01*
X193944000Y-123162560D01*
X193781615Y-123162560D01*
X193957729Y-123089611D01*
X194013410Y-122859016D01*
X193294000Y-122139605D01*
X192574590Y-122859016D01*
X192630271Y-123089611D01*
X192839902Y-123162560D01*
X192644000Y-123162560D01*
X192408683Y-123206838D01*
X192192559Y-123345910D01*
X192047569Y-123558110D01*
X191996560Y-123810000D01*
X184214144Y-123810000D01*
X183989134Y-123561611D01*
X183772297Y-123458986D01*
X184176811Y-123188698D01*
X184268218Y-123051898D01*
X184287538Y-123098655D01*
X184746927Y-123558846D01*
X185347453Y-123808206D01*
X185997694Y-123808774D01*
X186598655Y-123560462D01*
X187058846Y-123101073D01*
X187308206Y-122500547D01*
X187308774Y-121850306D01*
X187279344Y-121779078D01*
X191996378Y-121779078D01*
X192025917Y-122289428D01*
X192164389Y-122623729D01*
X192394984Y-122679410D01*
X193114395Y-121960000D01*
X193473605Y-121960000D01*
X194193016Y-122679410D01*
X194423611Y-122623729D01*
X194591622Y-122140922D01*
X194562083Y-121630572D01*
X194423611Y-121296271D01*
X194193016Y-121240590D01*
X193473605Y-121960000D01*
X193114395Y-121960000D01*
X192394984Y-121240590D01*
X192164389Y-121296271D01*
X191996378Y-121779078D01*
X187279344Y-121779078D01*
X187060462Y-121249345D01*
X186872430Y-121060984D01*
X192574590Y-121060984D01*
X193294000Y-121780395D01*
X194013410Y-121060984D01*
X193957729Y-120830389D01*
X193474922Y-120662378D01*
X192964572Y-120691917D01*
X192630271Y-120830389D01*
X192574590Y-121060984D01*
X186872430Y-121060984D01*
X186601073Y-120789154D01*
X186000547Y-120539794D01*
X185350306Y-120539226D01*
X184749345Y-120787538D01*
X184289154Y-121246927D01*
X184268537Y-121296579D01*
X184176811Y-121159302D01*
X183794725Y-120904000D01*
X184176811Y-120648698D01*
X184487880Y-120183151D01*
X184597113Y-119634000D01*
X184550286Y-119398582D01*
X185599868Y-118349000D01*
X187551560Y-118349000D01*
X187551560Y-119649000D01*
X187595838Y-119884317D01*
X187734910Y-120100441D01*
X187947110Y-120245431D01*
X188199000Y-120296440D01*
X189499000Y-120296440D01*
X189734317Y-120252162D01*
X189950441Y-120113090D01*
X190095431Y-119900890D01*
X190146440Y-119649000D01*
X190146440Y-118349000D01*
X190102162Y-118113683D01*
X189963090Y-117897559D01*
X189750890Y-117752569D01*
X189499000Y-117701560D01*
X189303540Y-117701560D01*
X189575943Y-117589005D01*
X189937735Y-117227845D01*
X190133777Y-116755724D01*
X190134223Y-116244519D01*
X189939005Y-115772057D01*
X189577845Y-115410265D01*
X189105724Y-115214223D01*
X188594519Y-115213777D01*
X188122057Y-115408995D01*
X187760265Y-115770155D01*
X187564223Y-116242276D01*
X187563777Y-116753481D01*
X187758995Y-117225943D01*
X188120155Y-117587735D01*
X188394276Y-117701560D01*
X188199000Y-117701560D01*
X187963683Y-117745838D01*
X187747559Y-117884910D01*
X187602569Y-118097110D01*
X187551560Y-118349000D01*
X185599868Y-118349000D01*
X186264434Y-117684434D01*
X186292018Y-117643151D01*
X186445439Y-117413541D01*
X186509000Y-117094000D01*
X186509000Y-115977507D01*
X186598655Y-115940462D01*
X187058846Y-115481073D01*
X187308206Y-114880547D01*
X187308774Y-114230306D01*
X187060462Y-113629345D01*
X186601073Y-113169154D01*
X186000547Y-112919794D01*
X185350306Y-112919226D01*
X184749345Y-113167538D01*
X184289154Y-113626927D01*
X184177440Y-113895964D01*
X184177440Y-112634000D01*
X184133162Y-112398683D01*
X183994090Y-112182559D01*
X183781890Y-112037569D01*
X183530000Y-111986560D01*
X182230000Y-111986560D01*
X181994683Y-112030838D01*
X181778559Y-112169910D01*
X181633569Y-112382110D01*
X181582560Y-112634000D01*
X181582560Y-112796385D01*
X181509611Y-112620271D01*
X181279016Y-112564590D01*
X180559605Y-113284000D01*
X180200395Y-113284000D01*
X179480984Y-112564590D01*
X179250389Y-112620271D01*
X179082378Y-113103078D01*
X173741945Y-113103078D01*
X173300547Y-112919794D01*
X172650306Y-112919226D01*
X172049345Y-113167538D01*
X171589154Y-113626927D01*
X171499596Y-113842606D01*
X171162845Y-113505265D01*
X170690724Y-113309223D01*
X170179519Y-113308777D01*
X169707057Y-113503995D01*
X169345265Y-113865155D01*
X169149223Y-114337276D01*
X169148777Y-114848481D01*
X169343995Y-115320943D01*
X169705155Y-115682735D01*
X169979276Y-115796560D01*
X169784000Y-115796560D01*
X169548683Y-115840838D01*
X169332559Y-115979910D01*
X169187569Y-116192110D01*
X169136560Y-116444000D01*
X162179124Y-116444000D01*
X162179242Y-116309339D01*
X161967010Y-115795697D01*
X161574370Y-115402371D01*
X161366488Y-115316051D01*
X161572303Y-115231010D01*
X161965629Y-114838370D01*
X162178757Y-114325100D01*
X162179242Y-113769339D01*
X161967010Y-113255697D01*
X161574370Y-112862371D01*
X161366488Y-112776051D01*
X161572303Y-112691010D01*
X161878863Y-112384984D01*
X179660590Y-112384984D01*
X180380000Y-113104395D01*
X181099410Y-112384984D01*
X181043729Y-112154389D01*
X180560922Y-111986378D01*
X180050572Y-112015917D01*
X179716271Y-112154389D01*
X179660590Y-112384984D01*
X161878863Y-112384984D01*
X161965629Y-112298370D01*
X162178757Y-111785100D01*
X162179242Y-111229339D01*
X161967010Y-110715697D01*
X161574370Y-110322371D01*
X161366488Y-110236051D01*
X161572303Y-110151010D01*
X161965629Y-109758370D01*
X162178757Y-109245100D01*
X162179242Y-108689339D01*
X161967010Y-108175697D01*
X161574370Y-107782371D01*
X161061100Y-107569243D01*
X160505339Y-107568758D01*
X159991697Y-107780990D01*
X159598371Y-108173630D01*
X159385243Y-108686900D01*
X159384758Y-109242661D01*
X104902000Y-109242661D01*
X104902000Y-105411944D01*
X158414025Y-105411944D01*
X158613615Y-105893818D01*
X159051621Y-106366188D01*
X159637054Y-106634983D01*
X159893000Y-106516367D01*
X159893000Y-105156000D01*
X160147000Y-105156000D01*
X160147000Y-106516367D01*
X160402946Y-106634983D01*
X160988379Y-106366188D01*
X161426385Y-105893818D01*
X161573372Y-105538944D01*
X162224025Y-105538944D01*
X162423615Y-106020818D01*
X162861621Y-106493188D01*
X163447054Y-106761983D01*
X163703000Y-106643367D01*
X163703000Y-105283000D01*
X163957000Y-105283000D01*
X163957000Y-106643367D01*
X164212946Y-106761983D01*
X164798379Y-106493188D01*
X165236385Y-106020818D01*
X165435975Y-105538944D01*
X165316836Y-105283000D01*
X163957000Y-105283000D01*
X163703000Y-105283000D01*
X162343164Y-105283000D01*
X162224025Y-105538944D01*
X161573372Y-105538944D01*
X161625975Y-105411944D01*
X161506836Y-105156000D01*
X160147000Y-105156000D01*
X159893000Y-105156000D01*
X158533164Y-105156000D01*
X158414025Y-105411944D01*
X104902000Y-105411944D01*
X104902000Y-103653599D01*
X105334699Y-103653599D01*
X105598281Y-104291515D01*
X106085918Y-104780004D01*
X106723373Y-105044699D01*
X107413599Y-105045301D01*
X108051515Y-104781719D01*
X108540004Y-104294082D01*
X108804699Y-103656627D01*
X108804701Y-103653599D01*
X116764699Y-103653599D01*
X117028281Y-104291515D01*
X117515918Y-104780004D01*
X118153373Y-105044699D01*
X118843599Y-105045301D01*
X119481515Y-104781719D01*
X119970004Y-104294082D01*
X120234699Y-103656627D01*
X120234701Y-103653599D01*
X123114699Y-103653599D01*
X123378281Y-104291515D01*
X123865918Y-104780004D01*
X124503373Y-105044699D01*
X125193599Y-105045301D01*
X125831515Y-104781719D01*
X126320004Y-104294082D01*
X126584699Y-103656627D01*
X126584701Y-103653599D01*
X134544699Y-103653599D01*
X134808281Y-104291515D01*
X135295918Y-104780004D01*
X135933373Y-105044699D01*
X136623599Y-105045301D01*
X137261515Y-104781719D01*
X137750004Y-104294082D01*
X138014699Y-103656627D01*
X138014701Y-103653599D01*
X140894699Y-103653599D01*
X141158281Y-104291515D01*
X141645918Y-104780004D01*
X142283373Y-105044699D01*
X142973599Y-105045301D01*
X143611515Y-104781719D01*
X144100004Y-104294082D01*
X144364699Y-103656627D01*
X144364701Y-103653599D01*
X152324699Y-103653599D01*
X152588281Y-104291515D01*
X153075918Y-104780004D01*
X153713373Y-105044699D01*
X154403599Y-105045301D01*
X155041515Y-104781719D01*
X155530004Y-104294082D01*
X155794699Y-103656627D01*
X155795301Y-102966401D01*
X155531719Y-102328485D01*
X155044082Y-101839996D01*
X154406627Y-101575301D01*
X153716401Y-101574699D01*
X153078485Y-101838281D01*
X152589996Y-102325918D01*
X152325301Y-102963373D01*
X152324699Y-103653599D01*
X144364701Y-103653599D01*
X144365301Y-102966401D01*
X144101719Y-102328485D01*
X143614082Y-101839996D01*
X142976627Y-101575301D01*
X142286401Y-101574699D01*
X141648485Y-101838281D01*
X141159996Y-102325918D01*
X140895301Y-102963373D01*
X140894699Y-103653599D01*
X138014701Y-103653599D01*
X138015301Y-102966401D01*
X137751719Y-102328485D01*
X137264082Y-101839996D01*
X136626627Y-101575301D01*
X135936401Y-101574699D01*
X135298485Y-101838281D01*
X134809996Y-102325918D01*
X134545301Y-102963373D01*
X134544699Y-103653599D01*
X126584701Y-103653599D01*
X126585301Y-102966401D01*
X126321719Y-102328485D01*
X125834082Y-101839996D01*
X125196627Y-101575301D01*
X124506401Y-101574699D01*
X123868485Y-101838281D01*
X123379996Y-102325918D01*
X123115301Y-102963373D01*
X123114699Y-103653599D01*
X120234701Y-103653599D01*
X120235301Y-102966401D01*
X119971719Y-102328485D01*
X119484082Y-101839996D01*
X118846627Y-101575301D01*
X118156401Y-101574699D01*
X117518485Y-101838281D01*
X117029996Y-102325918D01*
X116765301Y-102963373D01*
X116764699Y-103653599D01*
X108804701Y-103653599D01*
X108805301Y-102966401D01*
X108541719Y-102328485D01*
X108054082Y-101839996D01*
X107416627Y-101575301D01*
X106726401Y-101574699D01*
X106088485Y-101838281D01*
X105599996Y-102325918D01*
X105335301Y-102963373D01*
X105334699Y-103653599D01*
X104902000Y-103653599D01*
X104902000Y-101473000D01*
X158356560Y-101473000D01*
X158356560Y-103505000D01*
X158400838Y-103740317D01*
X158539910Y-103956441D01*
X158702948Y-104067840D01*
X158613615Y-104164182D01*
X158414025Y-104646056D01*
X158533164Y-104902000D01*
X159893000Y-104902000D01*
X159893000Y-104882000D01*
X160147000Y-104882000D01*
X160147000Y-104902000D01*
X161506836Y-104902000D01*
X161625975Y-104646056D01*
X161426385Y-104164182D01*
X161335903Y-104066602D01*
X161487441Y-103969090D01*
X161632431Y-103756890D01*
X161683440Y-103505000D01*
X161683440Y-101600000D01*
X162166560Y-101600000D01*
X162166560Y-103632000D01*
X162210838Y-103867317D01*
X162349910Y-104083441D01*
X162512948Y-104194840D01*
X162423615Y-104291182D01*
X162224025Y-104773056D01*
X162343164Y-105029000D01*
X163703000Y-105029000D01*
X163703000Y-105009000D01*
X163957000Y-105009000D01*
X163957000Y-105029000D01*
X165316836Y-105029000D01*
X165435975Y-104773056D01*
X165236385Y-104291182D01*
X165145903Y-104193602D01*
X165297441Y-104096090D01*
X165442431Y-103883890D01*
X165489066Y-103653599D01*
X168834699Y-103653599D01*
X169098281Y-104291515D01*
X169585918Y-104780004D01*
X170223373Y-105044699D01*
X170913599Y-105045301D01*
X171551515Y-104781719D01*
X172040004Y-104294082D01*
X172304699Y-103656627D01*
X172304701Y-103653599D01*
X180264699Y-103653599D01*
X180528281Y-104291515D01*
X181015918Y-104780004D01*
X181653373Y-105044699D01*
X182343599Y-105045301D01*
X182981515Y-104781719D01*
X183470004Y-104294082D01*
X183734699Y-103656627D01*
X183734701Y-103653599D01*
X186614699Y-103653599D01*
X186878281Y-104291515D01*
X187365918Y-104780004D01*
X188003373Y-105044699D01*
X188693599Y-105045301D01*
X189331515Y-104781719D01*
X189820004Y-104294082D01*
X190084699Y-103656627D01*
X190084701Y-103653599D01*
X198044699Y-103653599D01*
X198308281Y-104291515D01*
X198795918Y-104780004D01*
X199433373Y-105044699D01*
X200123599Y-105045301D01*
X200761515Y-104781719D01*
X201250004Y-104294082D01*
X201514699Y-103656627D01*
X201515301Y-102966401D01*
X201251719Y-102328485D01*
X200764082Y-101839996D01*
X200126627Y-101575301D01*
X199436401Y-101574699D01*
X198798485Y-101838281D01*
X198309996Y-102325918D01*
X198045301Y-102963373D01*
X198044699Y-103653599D01*
X190084701Y-103653599D01*
X190085301Y-102966401D01*
X189821719Y-102328485D01*
X189334082Y-101839996D01*
X188696627Y-101575301D01*
X188006401Y-101574699D01*
X187368485Y-101838281D01*
X186879996Y-102325918D01*
X186615301Y-102963373D01*
X186614699Y-103653599D01*
X183734701Y-103653599D01*
X183735301Y-102966401D01*
X183471719Y-102328485D01*
X182984082Y-101839996D01*
X182346627Y-101575301D01*
X181656401Y-101574699D01*
X181018485Y-101838281D01*
X180529996Y-102325918D01*
X180265301Y-102963373D01*
X180264699Y-103653599D01*
X172304701Y-103653599D01*
X172305301Y-102966401D01*
X172041719Y-102328485D01*
X171554082Y-101839996D01*
X170916627Y-101575301D01*
X170226401Y-101574699D01*
X169588485Y-101838281D01*
X169099996Y-102325918D01*
X168835301Y-102963373D01*
X168834699Y-103653599D01*
X165489066Y-103653599D01*
X165493440Y-103632000D01*
X165493440Y-101600000D01*
X165449162Y-101364683D01*
X165310090Y-101148559D01*
X165097890Y-101003569D01*
X164846000Y-100952560D01*
X162814000Y-100952560D01*
X162578683Y-100996838D01*
X162362559Y-101135910D01*
X162217569Y-101348110D01*
X162166560Y-101600000D01*
X161683440Y-101600000D01*
X161683440Y-101473000D01*
X161639162Y-101237683D01*
X161500090Y-101021559D01*
X161287890Y-100876569D01*
X161036000Y-100825560D01*
X159004000Y-100825560D01*
X158768683Y-100869838D01*
X158552559Y-101008910D01*
X158407569Y-101221110D01*
X158356560Y-101473000D01*
X104902000Y-101473000D01*
X104902000Y-94153599D01*
X105334699Y-94153599D01*
X105598281Y-94791515D01*
X106085918Y-95280004D01*
X106338610Y-95384931D01*
X106088485Y-95488281D01*
X105599996Y-95975918D01*
X105335301Y-96613373D01*
X105334699Y-97303599D01*
X105598281Y-97941515D01*
X106085918Y-98430004D01*
X106723373Y-98694699D01*
X107413599Y-98695301D01*
X108051515Y-98431719D01*
X108540004Y-97944082D01*
X108804699Y-97306627D01*
X108805301Y-96616401D01*
X108541719Y-95978485D01*
X108054082Y-95489996D01*
X107801390Y-95385069D01*
X108051515Y-95281719D01*
X108540004Y-94794082D01*
X108804699Y-94156627D01*
X108804701Y-94153599D01*
X116764699Y-94153599D01*
X117028281Y-94791515D01*
X117515918Y-95280004D01*
X117768610Y-95384931D01*
X117518485Y-95488281D01*
X117029996Y-95975918D01*
X116765301Y-96613373D01*
X116764699Y-97303599D01*
X117028281Y-97941515D01*
X117515918Y-98430004D01*
X118153373Y-98694699D01*
X118843599Y-98695301D01*
X119481515Y-98431719D01*
X119970004Y-97944082D01*
X120234699Y-97306627D01*
X120235301Y-96616401D01*
X119971719Y-95978485D01*
X119484082Y-95489996D01*
X119231390Y-95385069D01*
X119481515Y-95281719D01*
X119970004Y-94794082D01*
X120234699Y-94156627D01*
X120234701Y-94153599D01*
X123114699Y-94153599D01*
X123378281Y-94791515D01*
X123865918Y-95280004D01*
X124118610Y-95384931D01*
X123868485Y-95488281D01*
X123379996Y-95975918D01*
X123115301Y-96613373D01*
X123114699Y-97303599D01*
X123378281Y-97941515D01*
X123865918Y-98430004D01*
X124503373Y-98694699D01*
X125193599Y-98695301D01*
X125831515Y-98431719D01*
X126320004Y-97944082D01*
X126584699Y-97306627D01*
X126585301Y-96616401D01*
X126321719Y-95978485D01*
X125834082Y-95489996D01*
X125581390Y-95385069D01*
X125831515Y-95281719D01*
X126320004Y-94794082D01*
X126584699Y-94156627D01*
X126584701Y-94153599D01*
X134544699Y-94153599D01*
X134808281Y-94791515D01*
X135295918Y-95280004D01*
X135548610Y-95384931D01*
X135298485Y-95488281D01*
X134809996Y-95975918D01*
X134545301Y-96613373D01*
X134544699Y-97303599D01*
X134808281Y-97941515D01*
X135295918Y-98430004D01*
X135933373Y-98694699D01*
X136623599Y-98695301D01*
X137261515Y-98431719D01*
X137750004Y-97944082D01*
X138014699Y-97306627D01*
X138015301Y-96616401D01*
X137751719Y-95978485D01*
X137264082Y-95489996D01*
X137011390Y-95385069D01*
X137261515Y-95281719D01*
X137750004Y-94794082D01*
X138014699Y-94156627D01*
X138014701Y-94153599D01*
X140894699Y-94153599D01*
X141158281Y-94791515D01*
X141645918Y-95280004D01*
X141898610Y-95384931D01*
X141648485Y-95488281D01*
X141159996Y-95975918D01*
X140895301Y-96613373D01*
X140894699Y-97303599D01*
X141158281Y-97941515D01*
X141645918Y-98430004D01*
X142283373Y-98694699D01*
X142973599Y-98695301D01*
X143611515Y-98431719D01*
X144100004Y-97944082D01*
X144364699Y-97306627D01*
X144365301Y-96616401D01*
X144101719Y-95978485D01*
X143614082Y-95489996D01*
X143361390Y-95385069D01*
X143611515Y-95281719D01*
X144100004Y-94794082D01*
X144364699Y-94156627D01*
X144364701Y-94153599D01*
X152324699Y-94153599D01*
X152588281Y-94791515D01*
X153075918Y-95280004D01*
X153328610Y-95384931D01*
X153078485Y-95488281D01*
X152589996Y-95975918D01*
X152325301Y-96613373D01*
X152324699Y-97303599D01*
X152588281Y-97941515D01*
X153075918Y-98430004D01*
X153713373Y-98694699D01*
X154403599Y-98695301D01*
X155041515Y-98431719D01*
X155360095Y-98113694D01*
X158385226Y-98113694D01*
X158633538Y-98714655D01*
X159092927Y-99174846D01*
X159693453Y-99424206D01*
X160343694Y-99424774D01*
X160944655Y-99176462D01*
X161404846Y-98717073D01*
X161607691Y-98228568D01*
X161808538Y-98714655D01*
X162267927Y-99174846D01*
X162868453Y-99424206D01*
X163518694Y-99424774D01*
X164119655Y-99176462D01*
X164579846Y-98717073D01*
X164829206Y-98116547D01*
X164829774Y-97466306D01*
X164581462Y-96865345D01*
X164122073Y-96405154D01*
X163521547Y-96155794D01*
X162871306Y-96155226D01*
X162270345Y-96403538D01*
X161810154Y-96862927D01*
X161607309Y-97351432D01*
X161406462Y-96865345D01*
X160947073Y-96405154D01*
X160346547Y-96155794D01*
X159696306Y-96155226D01*
X159095345Y-96403538D01*
X158635154Y-96862927D01*
X158385794Y-97463453D01*
X158385226Y-98113694D01*
X155360095Y-98113694D01*
X155530004Y-97944082D01*
X155794699Y-97306627D01*
X155795301Y-96616401D01*
X155531719Y-95978485D01*
X155044082Y-95489996D01*
X154791390Y-95385069D01*
X155041515Y-95281719D01*
X155530004Y-94794082D01*
X155794699Y-94156627D01*
X155794701Y-94153599D01*
X168834699Y-94153599D01*
X169098281Y-94791515D01*
X169585918Y-95280004D01*
X170223373Y-95544699D01*
X170913599Y-95545301D01*
X171551515Y-95281719D01*
X172040004Y-94794082D01*
X172304699Y-94156627D01*
X172304701Y-94153599D01*
X180264699Y-94153599D01*
X180528281Y-94791515D01*
X181015918Y-95280004D01*
X181653373Y-95544699D01*
X182343599Y-95545301D01*
X182981515Y-95281719D01*
X183470004Y-94794082D01*
X183734699Y-94156627D01*
X183734701Y-94153599D01*
X186614699Y-94153599D01*
X186878281Y-94791515D01*
X187365918Y-95280004D01*
X188003373Y-95544699D01*
X188693599Y-95545301D01*
X189331515Y-95281719D01*
X189820004Y-94794082D01*
X190084699Y-94156627D01*
X190084701Y-94153599D01*
X198044699Y-94153599D01*
X198308281Y-94791515D01*
X198795918Y-95280004D01*
X199433373Y-95544699D01*
X200123599Y-95545301D01*
X200761515Y-95281719D01*
X201250004Y-94794082D01*
X201514699Y-94156627D01*
X201515301Y-93466401D01*
X201251719Y-92828485D01*
X200764082Y-92339996D01*
X200464495Y-92215596D01*
X200714359Y-92112099D01*
X200825263Y-91834868D01*
X199780000Y-90789605D01*
X198734737Y-91834868D01*
X198845641Y-92112099D01*
X199107374Y-92210651D01*
X198798485Y-92338281D01*
X198309996Y-92825918D01*
X198045301Y-93463373D01*
X198044699Y-94153599D01*
X190084701Y-94153599D01*
X190085301Y-93466401D01*
X189821719Y-92828485D01*
X189334082Y-92339996D01*
X189034495Y-92215596D01*
X189284359Y-92112099D01*
X189395263Y-91834868D01*
X188350000Y-90789605D01*
X187304737Y-91834868D01*
X187415641Y-92112099D01*
X187677374Y-92210651D01*
X187368485Y-92338281D01*
X186879996Y-92825918D01*
X186615301Y-93463373D01*
X186614699Y-94153599D01*
X183734701Y-94153599D01*
X183735301Y-93466401D01*
X183471719Y-92828485D01*
X182984082Y-92339996D01*
X182684495Y-92215596D01*
X182934359Y-92112099D01*
X183045263Y-91834868D01*
X182000000Y-90789605D01*
X180954737Y-91834868D01*
X181065641Y-92112099D01*
X181327374Y-92210651D01*
X181018485Y-92338281D01*
X180529996Y-92825918D01*
X180265301Y-93463373D01*
X180264699Y-94153599D01*
X172304701Y-94153599D01*
X172305301Y-93466401D01*
X172041719Y-92828485D01*
X171554082Y-92339996D01*
X171254495Y-92215596D01*
X171504359Y-92112099D01*
X171615263Y-91834868D01*
X170570000Y-90789605D01*
X169524737Y-91834868D01*
X169635641Y-92112099D01*
X169897374Y-92210651D01*
X169588485Y-92338281D01*
X169099996Y-92825918D01*
X168835301Y-93463373D01*
X168834699Y-94153599D01*
X155794701Y-94153599D01*
X155795301Y-93466401D01*
X155531719Y-92828485D01*
X155044082Y-92339996D01*
X154744495Y-92215596D01*
X154994359Y-92112099D01*
X155105263Y-91834868D01*
X154060000Y-90789605D01*
X153014737Y-91834868D01*
X153125641Y-92112099D01*
X153387374Y-92210651D01*
X153078485Y-92338281D01*
X152589996Y-92825918D01*
X152325301Y-93463373D01*
X152324699Y-94153599D01*
X144364701Y-94153599D01*
X144365301Y-93466401D01*
X144101719Y-92828485D01*
X143614082Y-92339996D01*
X143314495Y-92215596D01*
X143564359Y-92112099D01*
X143675263Y-91834868D01*
X142630000Y-90789605D01*
X141584737Y-91834868D01*
X141695641Y-92112099D01*
X141957374Y-92210651D01*
X141648485Y-92338281D01*
X141159996Y-92825918D01*
X140895301Y-93463373D01*
X140894699Y-94153599D01*
X138014701Y-94153599D01*
X138015301Y-93466401D01*
X137751719Y-92828485D01*
X137264082Y-92339996D01*
X136964495Y-92215596D01*
X137214359Y-92112099D01*
X137325263Y-91834868D01*
X136280000Y-90789605D01*
X135234737Y-91834868D01*
X135345641Y-92112099D01*
X135607374Y-92210651D01*
X135298485Y-92338281D01*
X134809996Y-92825918D01*
X134545301Y-93463373D01*
X134544699Y-94153599D01*
X126584701Y-94153599D01*
X126585301Y-93466401D01*
X126321719Y-92828485D01*
X125834082Y-92339996D01*
X125534495Y-92215596D01*
X125784359Y-92112099D01*
X125895263Y-91834868D01*
X124850000Y-90789605D01*
X123804737Y-91834868D01*
X123915641Y-92112099D01*
X124177374Y-92210651D01*
X123868485Y-92338281D01*
X123379996Y-92825918D01*
X123115301Y-93463373D01*
X123114699Y-94153599D01*
X120234701Y-94153599D01*
X120235301Y-93466401D01*
X119971719Y-92828485D01*
X119484082Y-92339996D01*
X119184495Y-92215596D01*
X119434359Y-92112099D01*
X119545263Y-91834868D01*
X118500000Y-90789605D01*
X117454737Y-91834868D01*
X117565641Y-92112099D01*
X117827374Y-92210651D01*
X117518485Y-92338281D01*
X117029996Y-92825918D01*
X116765301Y-93463373D01*
X116764699Y-94153599D01*
X108804701Y-94153599D01*
X108805301Y-93466401D01*
X108541719Y-92828485D01*
X108054082Y-92339996D01*
X107754495Y-92215596D01*
X108004359Y-92112099D01*
X108115263Y-91834868D01*
X107070000Y-90789605D01*
X106024737Y-91834868D01*
X106135641Y-92112099D01*
X106397374Y-92210651D01*
X106088485Y-92338281D01*
X105599996Y-92825918D01*
X105335301Y-93463373D01*
X105334699Y-94153599D01*
X104902000Y-94153599D01*
X104902000Y-90321593D01*
X105324677Y-90321593D01*
X105347164Y-91011453D01*
X105567901Y-91544359D01*
X105845132Y-91655263D01*
X106890395Y-90610000D01*
X107249605Y-90610000D01*
X108294868Y-91655263D01*
X108572099Y-91544359D01*
X108815323Y-90898407D01*
X108796521Y-90321593D01*
X116754677Y-90321593D01*
X116777164Y-91011453D01*
X116997901Y-91544359D01*
X117275132Y-91655263D01*
X118320395Y-90610000D01*
X118679605Y-90610000D01*
X119724868Y-91655263D01*
X120002099Y-91544359D01*
X120245323Y-90898407D01*
X120226521Y-90321593D01*
X123104677Y-90321593D01*
X123127164Y-91011453D01*
X123347901Y-91544359D01*
X123625132Y-91655263D01*
X124670395Y-90610000D01*
X125029605Y-90610000D01*
X126074868Y-91655263D01*
X126352099Y-91544359D01*
X126595323Y-90898407D01*
X126576521Y-90321593D01*
X134534677Y-90321593D01*
X134557164Y-91011453D01*
X134777901Y-91544359D01*
X135055132Y-91655263D01*
X136100395Y-90610000D01*
X136459605Y-90610000D01*
X137504868Y-91655263D01*
X137782099Y-91544359D01*
X138025323Y-90898407D01*
X138006521Y-90321593D01*
X140884677Y-90321593D01*
X140907164Y-91011453D01*
X141127901Y-91544359D01*
X141405132Y-91655263D01*
X142450395Y-90610000D01*
X142809605Y-90610000D01*
X143854868Y-91655263D01*
X144132099Y-91544359D01*
X144375323Y-90898407D01*
X144356521Y-90321593D01*
X152314677Y-90321593D01*
X152337164Y-91011453D01*
X152557901Y-91544359D01*
X152835132Y-91655263D01*
X153880395Y-90610000D01*
X154239605Y-90610000D01*
X155284868Y-91655263D01*
X155562099Y-91544359D01*
X155805323Y-90898407D01*
X155792131Y-90493694D01*
X158385226Y-90493694D01*
X158633538Y-91094655D01*
X159092927Y-91554846D01*
X159693453Y-91804206D01*
X160343694Y-91804774D01*
X160944655Y-91556462D01*
X161404846Y-91097073D01*
X161607691Y-90608568D01*
X161808538Y-91094655D01*
X162267927Y-91554846D01*
X162868453Y-91804206D01*
X163518694Y-91804774D01*
X164119655Y-91556462D01*
X164579846Y-91097073D01*
X164829206Y-90496547D01*
X164829358Y-90321593D01*
X168824677Y-90321593D01*
X168847164Y-91011453D01*
X169067901Y-91544359D01*
X169345132Y-91655263D01*
X170390395Y-90610000D01*
X170749605Y-90610000D01*
X171794868Y-91655263D01*
X172072099Y-91544359D01*
X172315323Y-90898407D01*
X172296521Y-90321593D01*
X180254677Y-90321593D01*
X180277164Y-91011453D01*
X180497901Y-91544359D01*
X180775132Y-91655263D01*
X181820395Y-90610000D01*
X182179605Y-90610000D01*
X183224868Y-91655263D01*
X183502099Y-91544359D01*
X183745323Y-90898407D01*
X183726521Y-90321593D01*
X186604677Y-90321593D01*
X186627164Y-91011453D01*
X186847901Y-91544359D01*
X187125132Y-91655263D01*
X188170395Y-90610000D01*
X188529605Y-90610000D01*
X189574868Y-91655263D01*
X189852099Y-91544359D01*
X190095323Y-90898407D01*
X190076521Y-90321593D01*
X198034677Y-90321593D01*
X198057164Y-91011453D01*
X198277901Y-91544359D01*
X198555132Y-91655263D01*
X199600395Y-90610000D01*
X199959605Y-90610000D01*
X201004868Y-91655263D01*
X201282099Y-91544359D01*
X201525323Y-90898407D01*
X201502836Y-90208547D01*
X201282099Y-89675641D01*
X201004868Y-89564737D01*
X199959605Y-90610000D01*
X199600395Y-90610000D01*
X198555132Y-89564737D01*
X198277901Y-89675641D01*
X198034677Y-90321593D01*
X190076521Y-90321593D01*
X190072836Y-90208547D01*
X189852099Y-89675641D01*
X189574868Y-89564737D01*
X188529605Y-90610000D01*
X188170395Y-90610000D01*
X187125132Y-89564737D01*
X186847901Y-89675641D01*
X186604677Y-90321593D01*
X183726521Y-90321593D01*
X183722836Y-90208547D01*
X183502099Y-89675641D01*
X183224868Y-89564737D01*
X182179605Y-90610000D01*
X181820395Y-90610000D01*
X180775132Y-89564737D01*
X180497901Y-89675641D01*
X180254677Y-90321593D01*
X172296521Y-90321593D01*
X172292836Y-90208547D01*
X172072099Y-89675641D01*
X171794868Y-89564737D01*
X170749605Y-90610000D01*
X170390395Y-90610000D01*
X169345132Y-89564737D01*
X169067901Y-89675641D01*
X168824677Y-90321593D01*
X164829358Y-90321593D01*
X164829774Y-89846306D01*
X164639221Y-89385132D01*
X169524737Y-89385132D01*
X170570000Y-90430395D01*
X171615263Y-89385132D01*
X180954737Y-89385132D01*
X182000000Y-90430395D01*
X183045263Y-89385132D01*
X187304737Y-89385132D01*
X188350000Y-90430395D01*
X189395263Y-89385132D01*
X198734737Y-89385132D01*
X199780000Y-90430395D01*
X200825263Y-89385132D01*
X200714359Y-89107901D01*
X200068407Y-88864677D01*
X199378547Y-88887164D01*
X198845641Y-89107901D01*
X198734737Y-89385132D01*
X189395263Y-89385132D01*
X189284359Y-89107901D01*
X188638407Y-88864677D01*
X187948547Y-88887164D01*
X187415641Y-89107901D01*
X187304737Y-89385132D01*
X183045263Y-89385132D01*
X182934359Y-89107901D01*
X182288407Y-88864677D01*
X181598547Y-88887164D01*
X181065641Y-89107901D01*
X180954737Y-89385132D01*
X171615263Y-89385132D01*
X171504359Y-89107901D01*
X170858407Y-88864677D01*
X170168547Y-88887164D01*
X169635641Y-89107901D01*
X169524737Y-89385132D01*
X164639221Y-89385132D01*
X164581462Y-89245345D01*
X164122073Y-88785154D01*
X163521547Y-88535794D01*
X162871306Y-88535226D01*
X162270345Y-88783538D01*
X161810154Y-89242927D01*
X161607309Y-89731432D01*
X161406462Y-89245345D01*
X160947073Y-88785154D01*
X160346547Y-88535794D01*
X159696306Y-88535226D01*
X159095345Y-88783538D01*
X158635154Y-89242927D01*
X158385794Y-89843453D01*
X158385226Y-90493694D01*
X155792131Y-90493694D01*
X155782836Y-90208547D01*
X155562099Y-89675641D01*
X155284868Y-89564737D01*
X154239605Y-90610000D01*
X153880395Y-90610000D01*
X152835132Y-89564737D01*
X152557901Y-89675641D01*
X152314677Y-90321593D01*
X144356521Y-90321593D01*
X144352836Y-90208547D01*
X144132099Y-89675641D01*
X143854868Y-89564737D01*
X142809605Y-90610000D01*
X142450395Y-90610000D01*
X141405132Y-89564737D01*
X141127901Y-89675641D01*
X140884677Y-90321593D01*
X138006521Y-90321593D01*
X138002836Y-90208547D01*
X137782099Y-89675641D01*
X137504868Y-89564737D01*
X136459605Y-90610000D01*
X136100395Y-90610000D01*
X135055132Y-89564737D01*
X134777901Y-89675641D01*
X134534677Y-90321593D01*
X126576521Y-90321593D01*
X126572836Y-90208547D01*
X126352099Y-89675641D01*
X126074868Y-89564737D01*
X125029605Y-90610000D01*
X124670395Y-90610000D01*
X123625132Y-89564737D01*
X123347901Y-89675641D01*
X123104677Y-90321593D01*
X120226521Y-90321593D01*
X120222836Y-90208547D01*
X120002099Y-89675641D01*
X119724868Y-89564737D01*
X118679605Y-90610000D01*
X118320395Y-90610000D01*
X117275132Y-89564737D01*
X116997901Y-89675641D01*
X116754677Y-90321593D01*
X108796521Y-90321593D01*
X108792836Y-90208547D01*
X108572099Y-89675641D01*
X108294868Y-89564737D01*
X107249605Y-90610000D01*
X106890395Y-90610000D01*
X105845132Y-89564737D01*
X105567901Y-89675641D01*
X105324677Y-90321593D01*
X104902000Y-90321593D01*
X104902000Y-89385132D01*
X106024737Y-89385132D01*
X107070000Y-90430395D01*
X108115263Y-89385132D01*
X117454737Y-89385132D01*
X118500000Y-90430395D01*
X119545263Y-89385132D01*
X123804737Y-89385132D01*
X124850000Y-90430395D01*
X125895263Y-89385132D01*
X135234737Y-89385132D01*
X136280000Y-90430395D01*
X137325263Y-89385132D01*
X141584737Y-89385132D01*
X142630000Y-90430395D01*
X143675263Y-89385132D01*
X153014737Y-89385132D01*
X154060000Y-90430395D01*
X155105263Y-89385132D01*
X154994359Y-89107901D01*
X154348407Y-88864677D01*
X153658547Y-88887164D01*
X153125641Y-89107901D01*
X153014737Y-89385132D01*
X143675263Y-89385132D01*
X143564359Y-89107901D01*
X142918407Y-88864677D01*
X142228547Y-88887164D01*
X141695641Y-89107901D01*
X141584737Y-89385132D01*
X137325263Y-89385132D01*
X137214359Y-89107901D01*
X136568407Y-88864677D01*
X135878547Y-88887164D01*
X135345641Y-89107901D01*
X135234737Y-89385132D01*
X125895263Y-89385132D01*
X125784359Y-89107901D01*
X125138407Y-88864677D01*
X124448547Y-88887164D01*
X123915641Y-89107901D01*
X123804737Y-89385132D01*
X119545263Y-89385132D01*
X119434359Y-89107901D01*
X118788407Y-88864677D01*
X118098547Y-88887164D01*
X117565641Y-89107901D01*
X117454737Y-89385132D01*
X108115263Y-89385132D01*
X108004359Y-89107901D01*
X107358407Y-88864677D01*
X106668547Y-88887164D01*
X106135641Y-89107901D01*
X106024737Y-89385132D01*
X104902000Y-89385132D01*
X104902000Y-88708509D01*
X105002152Y-88205011D01*
X105395830Y-87615830D01*
X105985011Y-87222152D01*
X106488509Y-87122000D01*
X200851491Y-87122000D01*
X201354989Y-87222152D01*
M02*
