G04 #@! TF.FileFunction,Legend,Top*
%FSLAX46Y46*%
G04 Gerber Fmt 4.6, Leading zero omitted, Abs format (unit mm)*
G04 Created by KiCad (PCBNEW 4.0.2-4+6225~38~ubuntu14.04.1-stable) date mer. 25 mai 2016 20:43:00 CEST*
%MOMM*%
G01*
G04 APERTURE LIST*
%ADD10C,0.100000*%
%ADD11C,0.150000*%
%ADD12C,0.381000*%
%ADD13C,0.304800*%
G04 APERTURE END LIST*
D10*
D11*
X63500000Y-129540000D02*
G75*
G03X66040000Y-132080000I2540000J0D01*
G01*
X144780000Y-132080000D02*
G75*
G03X147320000Y-129540000I0J2540000D01*
G01*
X147320000Y-93980000D02*
G75*
G03X144780000Y-91440000I-2540000J0D01*
G01*
X66040000Y-91440000D02*
G75*
G03X63500000Y-93980000I0J-2540000D01*
G01*
X63500000Y-129540000D02*
X63500000Y-93980000D01*
X66040000Y-132080000D02*
X144780000Y-132080000D01*
X147320000Y-93980000D02*
X147320000Y-129540000D01*
X66040000Y-91440000D02*
X144780000Y-91440000D01*
D12*
X91089480Y-104409240D02*
X91089480Y-106410760D01*
X79090520Y-101409500D02*
X79090520Y-99410520D01*
X79090520Y-99410520D02*
X91089480Y-99410520D01*
X91089480Y-99410520D02*
X91089480Y-101409500D01*
X79090520Y-106410760D02*
X79090520Y-104409240D01*
X91089480Y-109410500D02*
X91089480Y-111409480D01*
X91089480Y-111409480D02*
X79090520Y-111409480D01*
X79090520Y-111409480D02*
X79090520Y-109410500D01*
X86360000Y-102870000D02*
X90170000Y-102870000D01*
X80010000Y-102870000D02*
X83820000Y-102870000D01*
X83820000Y-107950000D02*
X80010000Y-107950000D01*
X90170000Y-107950000D02*
X86360000Y-107950000D01*
X87929806Y-105410000D02*
G75*
G03X87929806Y-105410000I-2839806J0D01*
G01*
X79090520Y-119110760D02*
X79090520Y-117109240D01*
X91089480Y-122110500D02*
X91089480Y-124109480D01*
X91089480Y-124109480D02*
X79090520Y-124109480D01*
X79090520Y-124109480D02*
X79090520Y-122110500D01*
X91089480Y-117109240D02*
X91089480Y-119110760D01*
X79090520Y-114109500D02*
X79090520Y-112110520D01*
X79090520Y-112110520D02*
X91089480Y-112110520D01*
X91089480Y-112110520D02*
X91089480Y-114109500D01*
X83820000Y-120650000D02*
X80010000Y-120650000D01*
X90170000Y-120650000D02*
X86360000Y-120650000D01*
X86360000Y-115570000D02*
X90170000Y-115570000D01*
X80010000Y-115570000D02*
X83820000Y-115570000D01*
X87929806Y-118110000D02*
G75*
G03X87929806Y-118110000I-2839806J0D01*
G01*
X109570520Y-100060760D02*
X109570520Y-98059240D01*
X121569480Y-103060500D02*
X121569480Y-105059480D01*
X121569480Y-105059480D02*
X109570520Y-105059480D01*
X109570520Y-105059480D02*
X109570520Y-103060500D01*
X121569480Y-98059240D02*
X121569480Y-100060760D01*
X109570520Y-95059500D02*
X109570520Y-93060520D01*
X109570520Y-93060520D02*
X121569480Y-93060520D01*
X121569480Y-93060520D02*
X121569480Y-95059500D01*
X114300000Y-101600000D02*
X110490000Y-101600000D01*
X120650000Y-101600000D02*
X116840000Y-101600000D01*
X116840000Y-96520000D02*
X120650000Y-96520000D01*
X110490000Y-96520000D02*
X114300000Y-96520000D01*
X118409806Y-99060000D02*
G75*
G03X118409806Y-99060000I-2839806J0D01*
G01*
X109570520Y-112760760D02*
X109570520Y-110759240D01*
X121569480Y-115760500D02*
X121569480Y-117759480D01*
X121569480Y-117759480D02*
X109570520Y-117759480D01*
X109570520Y-117759480D02*
X109570520Y-115760500D01*
X121569480Y-110759240D02*
X121569480Y-112760760D01*
X109570520Y-107759500D02*
X109570520Y-105760520D01*
X109570520Y-105760520D02*
X121569480Y-105760520D01*
X121569480Y-105760520D02*
X121569480Y-107759500D01*
X114300000Y-114300000D02*
X110490000Y-114300000D01*
X120650000Y-114300000D02*
X116840000Y-114300000D01*
X116840000Y-109220000D02*
X120650000Y-109220000D01*
X110490000Y-109220000D02*
X114300000Y-109220000D01*
X118409806Y-111760000D02*
G75*
G03X118409806Y-111760000I-2839806J0D01*
G01*
X109570520Y-125460760D02*
X109570520Y-123459240D01*
X121569480Y-128460500D02*
X121569480Y-130459480D01*
X121569480Y-130459480D02*
X109570520Y-130459480D01*
X109570520Y-130459480D02*
X109570520Y-128460500D01*
X121569480Y-123459240D02*
X121569480Y-125460760D01*
X109570520Y-120459500D02*
X109570520Y-118460520D01*
X109570520Y-118460520D02*
X121569480Y-118460520D01*
X121569480Y-118460520D02*
X121569480Y-120459500D01*
X114300000Y-127000000D02*
X110490000Y-127000000D01*
X120650000Y-127000000D02*
X116840000Y-127000000D01*
X116840000Y-121920000D02*
X120650000Y-121920000D01*
X110490000Y-121920000D02*
X114300000Y-121920000D01*
X118409806Y-124460000D02*
G75*
G03X118409806Y-124460000I-2839806J0D01*
G01*
D11*
X96321000Y-100374000D02*
X96321000Y-100174000D01*
X96321000Y-97780000D02*
X96321000Y-97960000D01*
X99548744Y-98090357D02*
G75*
G03X96321000Y-97774000I-1727744J-1003643D01*
G01*
X98873006Y-97960932D02*
G75*
G03X96770000Y-97960000I-1052006J-1133068D01*
G01*
X96333780Y-100400726D02*
G75*
G03X99571000Y-100054000I1497220J1306726D01*
G01*
X96807111Y-100173253D02*
G75*
G03X98855000Y-100154000I1013889J1079253D01*
G01*
X96321000Y-108756000D02*
X96321000Y-108556000D01*
X96321000Y-106162000D02*
X96321000Y-106342000D01*
X99548744Y-106472357D02*
G75*
G03X96321000Y-106156000I-1727744J-1003643D01*
G01*
X98873006Y-106342932D02*
G75*
G03X96770000Y-106342000I-1052006J-1133068D01*
G01*
X96333780Y-108782726D02*
G75*
G03X99571000Y-108436000I1497220J1306726D01*
G01*
X96807111Y-108555253D02*
G75*
G03X98855000Y-108536000I1013889J1079253D01*
G01*
X96321000Y-117392000D02*
X96321000Y-117192000D01*
X96321000Y-114798000D02*
X96321000Y-114978000D01*
X99548744Y-115108357D02*
G75*
G03X96321000Y-114792000I-1727744J-1003643D01*
G01*
X98873006Y-114978932D02*
G75*
G03X96770000Y-114978000I-1052006J-1133068D01*
G01*
X96333780Y-117418726D02*
G75*
G03X99571000Y-117072000I1497220J1306726D01*
G01*
X96807111Y-117191253D02*
G75*
G03X98855000Y-117172000I1013889J1079253D01*
G01*
X96321000Y-125774000D02*
X96321000Y-125574000D01*
X96321000Y-123180000D02*
X96321000Y-123360000D01*
X99548744Y-123490357D02*
G75*
G03X96321000Y-123174000I-1727744J-1003643D01*
G01*
X98873006Y-123360932D02*
G75*
G03X96770000Y-123360000I-1052006J-1133068D01*
G01*
X96333780Y-125800726D02*
G75*
G03X99571000Y-125454000I1497220J1306726D01*
G01*
X96807111Y-125573253D02*
G75*
G03X98855000Y-125554000I1013889J1079253D01*
G01*
X131119000Y-100374000D02*
X131119000Y-100174000D01*
X131119000Y-97780000D02*
X131119000Y-97960000D01*
X134346744Y-98090357D02*
G75*
G03X131119000Y-97774000I-1727744J-1003643D01*
G01*
X133671006Y-97960932D02*
G75*
G03X131568000Y-97960000I-1052006J-1133068D01*
G01*
X131131780Y-100400726D02*
G75*
G03X134369000Y-100054000I1497220J1306726D01*
G01*
X131605111Y-100173253D02*
G75*
G03X133653000Y-100154000I1013889J1079253D01*
G01*
X131119000Y-113074000D02*
X131119000Y-112874000D01*
X131119000Y-110480000D02*
X131119000Y-110660000D01*
X134346744Y-110790357D02*
G75*
G03X131119000Y-110474000I-1727744J-1003643D01*
G01*
X133671006Y-110660932D02*
G75*
G03X131568000Y-110660000I-1052006J-1133068D01*
G01*
X131131780Y-113100726D02*
G75*
G03X134369000Y-112754000I1497220J1306726D01*
G01*
X131605111Y-112873253D02*
G75*
G03X133653000Y-112854000I1013889J1079253D01*
G01*
X131119000Y-125774000D02*
X131119000Y-125574000D01*
X131119000Y-123180000D02*
X131119000Y-123360000D01*
X134346744Y-123490357D02*
G75*
G03X131119000Y-123174000I-1727744J-1003643D01*
G01*
X133671006Y-123360932D02*
G75*
G03X131568000Y-123360000I-1052006J-1133068D01*
G01*
X131131780Y-125800726D02*
G75*
G03X134369000Y-125454000I1497220J1306726D01*
G01*
X131605111Y-125573253D02*
G75*
G03X133653000Y-125554000I1013889J1079253D01*
G01*
D13*
X83928857Y-106026857D02*
X84146571Y-106099429D01*
X84509428Y-106099429D01*
X84654571Y-106026857D01*
X84727142Y-105954286D01*
X84799714Y-105809143D01*
X84799714Y-105664000D01*
X84727142Y-105518857D01*
X84654571Y-105446286D01*
X84509428Y-105373714D01*
X84219142Y-105301143D01*
X84074000Y-105228571D01*
X84001428Y-105156000D01*
X83928857Y-105010857D01*
X83928857Y-104865714D01*
X84001428Y-104720571D01*
X84074000Y-104648000D01*
X84219142Y-104575429D01*
X84582000Y-104575429D01*
X84799714Y-104648000D01*
X86251143Y-106099429D02*
X85380286Y-106099429D01*
X85815714Y-106099429D02*
X85815714Y-104575429D01*
X85670571Y-104793143D01*
X85525429Y-104938286D01*
X85380286Y-105010857D01*
X83928857Y-118726857D02*
X84146571Y-118799429D01*
X84509428Y-118799429D01*
X84654571Y-118726857D01*
X84727142Y-118654286D01*
X84799714Y-118509143D01*
X84799714Y-118364000D01*
X84727142Y-118218857D01*
X84654571Y-118146286D01*
X84509428Y-118073714D01*
X84219142Y-118001143D01*
X84074000Y-117928571D01*
X84001428Y-117856000D01*
X83928857Y-117710857D01*
X83928857Y-117565714D01*
X84001428Y-117420571D01*
X84074000Y-117348000D01*
X84219142Y-117275429D01*
X84582000Y-117275429D01*
X84799714Y-117348000D01*
X85380286Y-117420571D02*
X85452857Y-117348000D01*
X85598000Y-117275429D01*
X85960857Y-117275429D01*
X86106000Y-117348000D01*
X86178571Y-117420571D01*
X86251143Y-117565714D01*
X86251143Y-117710857D01*
X86178571Y-117928571D01*
X85307714Y-118799429D01*
X86251143Y-118799429D01*
X114408857Y-99676857D02*
X114626571Y-99749429D01*
X114989428Y-99749429D01*
X115134571Y-99676857D01*
X115207142Y-99604286D01*
X115279714Y-99459143D01*
X115279714Y-99314000D01*
X115207142Y-99168857D01*
X115134571Y-99096286D01*
X114989428Y-99023714D01*
X114699142Y-98951143D01*
X114554000Y-98878571D01*
X114481428Y-98806000D01*
X114408857Y-98660857D01*
X114408857Y-98515714D01*
X114481428Y-98370571D01*
X114554000Y-98298000D01*
X114699142Y-98225429D01*
X115062000Y-98225429D01*
X115279714Y-98298000D01*
X115787714Y-98225429D02*
X116731143Y-98225429D01*
X116223143Y-98806000D01*
X116440857Y-98806000D01*
X116586000Y-98878571D01*
X116658571Y-98951143D01*
X116731143Y-99096286D01*
X116731143Y-99459143D01*
X116658571Y-99604286D01*
X116586000Y-99676857D01*
X116440857Y-99749429D01*
X116005429Y-99749429D01*
X115860286Y-99676857D01*
X115787714Y-99604286D01*
X114408857Y-112376857D02*
X114626571Y-112449429D01*
X114989428Y-112449429D01*
X115134571Y-112376857D01*
X115207142Y-112304286D01*
X115279714Y-112159143D01*
X115279714Y-112014000D01*
X115207142Y-111868857D01*
X115134571Y-111796286D01*
X114989428Y-111723714D01*
X114699142Y-111651143D01*
X114554000Y-111578571D01*
X114481428Y-111506000D01*
X114408857Y-111360857D01*
X114408857Y-111215714D01*
X114481428Y-111070571D01*
X114554000Y-110998000D01*
X114699142Y-110925429D01*
X115062000Y-110925429D01*
X115279714Y-110998000D01*
X116586000Y-111433429D02*
X116586000Y-112449429D01*
X116223143Y-110852857D02*
X115860286Y-111941429D01*
X116803714Y-111941429D01*
X114408857Y-125076857D02*
X114626571Y-125149429D01*
X114989428Y-125149429D01*
X115134571Y-125076857D01*
X115207142Y-125004286D01*
X115279714Y-124859143D01*
X115279714Y-124714000D01*
X115207142Y-124568857D01*
X115134571Y-124496286D01*
X114989428Y-124423714D01*
X114699142Y-124351143D01*
X114554000Y-124278571D01*
X114481428Y-124206000D01*
X114408857Y-124060857D01*
X114408857Y-123915714D01*
X114481428Y-123770571D01*
X114554000Y-123698000D01*
X114699142Y-123625429D01*
X115062000Y-123625429D01*
X115279714Y-123698000D01*
X116658571Y-123625429D02*
X115932857Y-123625429D01*
X115860286Y-124351143D01*
X115932857Y-124278571D01*
X116078000Y-124206000D01*
X116440857Y-124206000D01*
X116586000Y-124278571D01*
X116658571Y-124351143D01*
X116731143Y-124496286D01*
X116731143Y-124859143D01*
X116658571Y-125004286D01*
X116586000Y-125076857D01*
X116440857Y-125149429D01*
X116078000Y-125149429D01*
X115932857Y-125076857D01*
X115860286Y-125004286D01*
D11*
X97691905Y-102572381D02*
X97691905Y-101572381D01*
X97930000Y-101572381D01*
X98072858Y-101620000D01*
X98168096Y-101715238D01*
X98215715Y-101810476D01*
X98263334Y-102000952D01*
X98263334Y-102143810D01*
X98215715Y-102334286D01*
X98168096Y-102429524D01*
X98072858Y-102524762D01*
X97930000Y-102572381D01*
X97691905Y-102572381D01*
X99215715Y-102572381D02*
X98644286Y-102572381D01*
X98930000Y-102572381D02*
X98930000Y-101572381D01*
X98834762Y-101715238D01*
X98739524Y-101810476D01*
X98644286Y-101858095D01*
X94568095Y-101252381D02*
X94568095Y-100252381D01*
X95139524Y-101252381D02*
X94710952Y-100680952D01*
X95139524Y-100252381D02*
X94568095Y-100823810D01*
X97691905Y-110954381D02*
X97691905Y-109954381D01*
X97930000Y-109954381D01*
X98072858Y-110002000D01*
X98168096Y-110097238D01*
X98215715Y-110192476D01*
X98263334Y-110382952D01*
X98263334Y-110525810D01*
X98215715Y-110716286D01*
X98168096Y-110811524D01*
X98072858Y-110906762D01*
X97930000Y-110954381D01*
X97691905Y-110954381D01*
X98644286Y-110049619D02*
X98691905Y-110002000D01*
X98787143Y-109954381D01*
X99025239Y-109954381D01*
X99120477Y-110002000D01*
X99168096Y-110049619D01*
X99215715Y-110144857D01*
X99215715Y-110240095D01*
X99168096Y-110382952D01*
X98596667Y-110954381D01*
X99215715Y-110954381D01*
X94568095Y-109634381D02*
X94568095Y-108634381D01*
X95139524Y-109634381D02*
X94710952Y-109062952D01*
X95139524Y-108634381D02*
X94568095Y-109205810D01*
X97691905Y-119590381D02*
X97691905Y-118590381D01*
X97930000Y-118590381D01*
X98072858Y-118638000D01*
X98168096Y-118733238D01*
X98215715Y-118828476D01*
X98263334Y-119018952D01*
X98263334Y-119161810D01*
X98215715Y-119352286D01*
X98168096Y-119447524D01*
X98072858Y-119542762D01*
X97930000Y-119590381D01*
X97691905Y-119590381D01*
X98596667Y-118590381D02*
X99215715Y-118590381D01*
X98882381Y-118971333D01*
X99025239Y-118971333D01*
X99120477Y-119018952D01*
X99168096Y-119066571D01*
X99215715Y-119161810D01*
X99215715Y-119399905D01*
X99168096Y-119495143D01*
X99120477Y-119542762D01*
X99025239Y-119590381D01*
X98739524Y-119590381D01*
X98644286Y-119542762D01*
X98596667Y-119495143D01*
X94568095Y-118270381D02*
X94568095Y-117270381D01*
X95139524Y-118270381D02*
X94710952Y-117698952D01*
X95139524Y-117270381D02*
X94568095Y-117841810D01*
X97691905Y-127972381D02*
X97691905Y-126972381D01*
X97930000Y-126972381D01*
X98072858Y-127020000D01*
X98168096Y-127115238D01*
X98215715Y-127210476D01*
X98263334Y-127400952D01*
X98263334Y-127543810D01*
X98215715Y-127734286D01*
X98168096Y-127829524D01*
X98072858Y-127924762D01*
X97930000Y-127972381D01*
X97691905Y-127972381D01*
X99120477Y-127305714D02*
X99120477Y-127972381D01*
X98882381Y-126924762D02*
X98644286Y-127639048D01*
X99263334Y-127639048D01*
X94568095Y-126652381D02*
X94568095Y-125652381D01*
X95139524Y-126652381D02*
X94710952Y-126080952D01*
X95139524Y-125652381D02*
X94568095Y-126223810D01*
X128039905Y-97988381D02*
X128039905Y-96988381D01*
X128278000Y-96988381D01*
X128420858Y-97036000D01*
X128516096Y-97131238D01*
X128563715Y-97226476D01*
X128611334Y-97416952D01*
X128611334Y-97559810D01*
X128563715Y-97750286D01*
X128516096Y-97845524D01*
X128420858Y-97940762D01*
X128278000Y-97988381D01*
X128039905Y-97988381D01*
X129516096Y-96988381D02*
X129039905Y-96988381D01*
X128992286Y-97464571D01*
X129039905Y-97416952D01*
X129135143Y-97369333D01*
X129373239Y-97369333D01*
X129468477Y-97416952D01*
X129516096Y-97464571D01*
X129563715Y-97559810D01*
X129563715Y-97797905D01*
X129516096Y-97893143D01*
X129468477Y-97940762D01*
X129373239Y-97988381D01*
X129135143Y-97988381D01*
X129039905Y-97940762D01*
X128992286Y-97893143D01*
X129366095Y-101252381D02*
X129366095Y-100252381D01*
X129937524Y-101252381D02*
X129508952Y-100680952D01*
X129937524Y-100252381D02*
X129366095Y-100823810D01*
X128293905Y-110180381D02*
X128293905Y-109180381D01*
X128532000Y-109180381D01*
X128674858Y-109228000D01*
X128770096Y-109323238D01*
X128817715Y-109418476D01*
X128865334Y-109608952D01*
X128865334Y-109751810D01*
X128817715Y-109942286D01*
X128770096Y-110037524D01*
X128674858Y-110132762D01*
X128532000Y-110180381D01*
X128293905Y-110180381D01*
X129722477Y-109180381D02*
X129532000Y-109180381D01*
X129436762Y-109228000D01*
X129389143Y-109275619D01*
X129293905Y-109418476D01*
X129246286Y-109608952D01*
X129246286Y-109989905D01*
X129293905Y-110085143D01*
X129341524Y-110132762D01*
X129436762Y-110180381D01*
X129627239Y-110180381D01*
X129722477Y-110132762D01*
X129770096Y-110085143D01*
X129817715Y-109989905D01*
X129817715Y-109751810D01*
X129770096Y-109656571D01*
X129722477Y-109608952D01*
X129627239Y-109561333D01*
X129436762Y-109561333D01*
X129341524Y-109608952D01*
X129293905Y-109656571D01*
X129246286Y-109751810D01*
X129366095Y-113952381D02*
X129366095Y-112952381D01*
X129937524Y-113952381D02*
X129508952Y-113380952D01*
X129937524Y-112952381D02*
X129366095Y-113523810D01*
X128547905Y-123134381D02*
X128547905Y-122134381D01*
X128786000Y-122134381D01*
X128928858Y-122182000D01*
X129024096Y-122277238D01*
X129071715Y-122372476D01*
X129119334Y-122562952D01*
X129119334Y-122705810D01*
X129071715Y-122896286D01*
X129024096Y-122991524D01*
X128928858Y-123086762D01*
X128786000Y-123134381D01*
X128547905Y-123134381D01*
X129452667Y-122134381D02*
X130119334Y-122134381D01*
X129690762Y-123134381D01*
X129366095Y-126652381D02*
X129366095Y-125652381D01*
X129937524Y-126652381D02*
X129508952Y-126080952D01*
X129937524Y-125652381D02*
X129366095Y-126223810D01*
M02*
