M48
;DRILL file {KiCad 4.0.2-4+6225~38~ubuntu14.04.1-stable} date mer. 25 mai 2016 20:43:30 CEST
;FORMAT={-:-/ absolute / inch / decimal}
FMAT,2
INCH,TZ
T1C0.016
T2C0.031
T3C0.032
T4C0.039
T5C0.040
T6C0.051
T7C0.126
%
G90
G05
M72
T1
X3.72Y-4.42
X5.15Y-4.97
T2
X2.625Y-4.125
X2.625Y-4.225
X2.625Y-4.325
X2.625Y-4.425
X2.625Y-4.525
X2.625Y-4.625
X2.625Y-4.725
X2.625Y-4.825
X2.725Y-3.975
X2.925Y-4.125
X2.925Y-4.225
X2.925Y-4.325
X2.925Y-4.425
X2.925Y-4.525
X2.925Y-4.625
X2.925Y-4.725
X2.925Y-4.825
X5.4Y-4.
X5.4Y-4.1
X5.4Y-4.2
X5.4Y-4.3
X5.4Y-4.4
X5.4Y-4.5
X5.4Y-4.6
X5.4Y-4.7
X5.6Y-4.85
X5.7Y-4.
X5.7Y-4.1
X5.7Y-4.2
X5.7Y-4.3
X5.7Y-4.4
X5.7Y-4.5
X5.7Y-4.6
X5.7Y-4.7
T3
X2.6266Y-3.975
X5.6984Y-4.85
T4
X2.63Y-4.99
X2.63Y-5.11
X2.93Y-4.99
X2.93Y-5.11
X3.8Y-3.9
X3.8Y-4.23
X3.8Y-4.57
X3.8Y-4.9
X3.9Y-3.9
X3.9Y-4.23
X3.9Y-4.57
X3.9Y-4.9
X4.05Y-3.7
X4.05Y-4.
X4.05Y-4.1
X4.05Y-4.4
X4.05Y-4.5
X4.05Y-4.8
X4.15Y-4.8
X4.15Y-5.1
X4.93Y-3.71
X4.94Y-4.6
X4.95Y-4.07
X4.95Y-4.21
X5.17Y-3.9
X5.17Y-4.4
X5.17Y-4.9
X5.23Y-3.71
X5.24Y-4.6
X5.25Y-4.07
X5.25Y-4.21
X5.27Y-3.9
X5.27Y-4.4
X5.27Y-4.9
T5
X2.625Y-3.725
X2.725Y-3.725
X2.825Y-3.725
X2.925Y-3.725
X3.025Y-3.725
X3.575Y-5.1
X3.675Y-5.1
X3.775Y-5.1
X3.875Y-5.1
X3.975Y-5.1
X4.9Y-5.125
X5.Y-5.125
X5.1Y-5.125
X5.2Y-5.125
X5.3Y-5.125
T6
X3.1039Y-4.0516
X3.1039Y-4.2484
X3.1039Y-4.5516
X3.1039Y-4.7484
X3.5961Y-4.0516
X3.5961Y-4.2484
X3.5961Y-4.5516
X3.5961Y-4.7484
X4.3039Y-3.8016
X4.3039Y-3.9984
X4.3039Y-4.3016
X4.3039Y-4.4984
X4.3039Y-4.8016
X4.3039Y-4.9984
X4.7961Y-3.8016
X4.7961Y-3.9984
X4.7961Y-4.3016
X4.7961Y-4.4984
X4.7961Y-4.8016
X4.7961Y-4.9984
T7
X3.325Y-3.75
X3.325Y-5.05
X5.5Y-3.75
X5.5Y-5.05
T0
M30
