G04 #@! TF.FileFunction,Copper,L1,Top,Signal*
%FSLAX46Y46*%
G04 Gerber Fmt 4.6, Leading zero omitted, Abs format (unit mm)*
G04 Created by KiCad (PCBNEW 4.0.2-4+6225~38~ubuntu14.04.1-stable) date mer. 25 mai 2016 20:43:00 CEST*
%MOMM*%
G01*
G04 APERTURE LIST*
%ADD10C,0.100000*%
%ADD11C,0.150000*%
%ADD12O,2.999740X1.998980*%
%ADD13O,1.600000X1.600000*%
%ADD14R,1.300000X1.300000*%
%ADD15C,1.300000*%
%ADD16C,1.998980*%
%ADD17R,1.727200X2.032000*%
%ADD18O,1.727200X2.032000*%
%ADD19R,2.000000X2.000000*%
%ADD20C,2.000000*%
%ADD21C,0.600000*%
%ADD22C,0.400000*%
%ADD23C,0.250000*%
G04 APERTURE END LIST*
D10*
D11*
X63500000Y-129540000D02*
G75*
G03X66040000Y-132080000I2540000J0D01*
G01*
X144780000Y-132080000D02*
G75*
G03X147320000Y-129540000I0J2540000D01*
G01*
X147320000Y-93980000D02*
G75*
G03X144780000Y-91440000I-2540000J0D01*
G01*
X66040000Y-91440000D02*
G75*
G03X63500000Y-93980000I0J-2540000D01*
G01*
X63500000Y-129540000D02*
X63500000Y-93980000D01*
X66040000Y-132080000D02*
X144780000Y-132080000D01*
X147320000Y-93980000D02*
X147320000Y-129540000D01*
X66040000Y-91440000D02*
X144780000Y-91440000D01*
D12*
X91340940Y-107909360D03*
X78839060Y-107909360D03*
X78839060Y-102910640D03*
X91340940Y-102910640D03*
D13*
X137160000Y-119380000D03*
X137160000Y-116840000D03*
X137160000Y-114300000D03*
X137160000Y-111760000D03*
X137160000Y-109220000D03*
X137160000Y-106680000D03*
X137160000Y-104140000D03*
X137160000Y-101600000D03*
X144780000Y-101600000D03*
X144780000Y-104140000D03*
X144780000Y-106680000D03*
X144780000Y-109220000D03*
X144780000Y-111760000D03*
X144780000Y-114300000D03*
X144780000Y-116840000D03*
X144780000Y-119380000D03*
X74295000Y-104775000D03*
X74295000Y-107315000D03*
X74295000Y-109855000D03*
X74295000Y-112395000D03*
X74295000Y-114935000D03*
X74295000Y-117475000D03*
X74295000Y-120015000D03*
X74295000Y-122555000D03*
X66675000Y-122555000D03*
X66675000Y-120015000D03*
X66675000Y-117475000D03*
X66675000Y-114935000D03*
X66675000Y-112395000D03*
X66675000Y-109855000D03*
X66675000Y-107315000D03*
X66675000Y-104775000D03*
D14*
X69215000Y-100965000D03*
D15*
X66715000Y-100965000D03*
D14*
X142240000Y-123190000D03*
D15*
X144740000Y-123190000D03*
D16*
X132842000Y-94234000D03*
X125222000Y-94234000D03*
X74422000Y-126746000D03*
X66802000Y-126746000D03*
X102870000Y-101600000D03*
X102870000Y-93980000D03*
X102870000Y-104140000D03*
X102870000Y-111760000D03*
X102870000Y-114300000D03*
X102870000Y-121920000D03*
X105410000Y-121920000D03*
X105410000Y-129540000D03*
X125730000Y-103378000D03*
X133350000Y-103378000D03*
X125730000Y-106934000D03*
X133350000Y-106934000D03*
X125476000Y-116840000D03*
X133096000Y-116840000D03*
D17*
X90805000Y-129540000D03*
D18*
X93345000Y-129540000D03*
X95885000Y-129540000D03*
X98425000Y-129540000D03*
X100965000Y-129540000D03*
D12*
X78839060Y-115610640D03*
X91340940Y-115610640D03*
X91340940Y-120609360D03*
X78839060Y-120609360D03*
X109319060Y-96560640D03*
X121820940Y-96560640D03*
X121820940Y-101559360D03*
X109319060Y-101559360D03*
X109319060Y-109260640D03*
X121820940Y-109260640D03*
X121820940Y-114259360D03*
X109319060Y-114259360D03*
X109319060Y-121960640D03*
X121820940Y-121960640D03*
X121820940Y-126959360D03*
X109319060Y-126959360D03*
D17*
X76835000Y-94615000D03*
D18*
X74295000Y-94615000D03*
X71755000Y-94615000D03*
X69215000Y-94615000D03*
X66675000Y-94615000D03*
D17*
X124460000Y-130175000D03*
D18*
X127000000Y-130175000D03*
X129540000Y-130175000D03*
X132080000Y-130175000D03*
X134620000Y-130175000D03*
D16*
X66802000Y-129794000D03*
X74422000Y-129794000D03*
D19*
X96520000Y-99060000D03*
D20*
X99060000Y-99060000D03*
D19*
X96520000Y-107442000D03*
D20*
X99060000Y-107442000D03*
D19*
X96520000Y-116078000D03*
D20*
X99060000Y-116078000D03*
D19*
X96520000Y-124460000D03*
D20*
X99060000Y-124460000D03*
D19*
X131318000Y-99060000D03*
D20*
X133858000Y-99060000D03*
D19*
X131318000Y-111760000D03*
D20*
X133858000Y-111760000D03*
D19*
X131318000Y-124460000D03*
D20*
X133858000Y-124460000D03*
D21*
X94488000Y-112268000D03*
X130810000Y-126238000D03*
D22*
X132842000Y-94234000D02*
X134874000Y-94234000D01*
X134874000Y-94234000D02*
X144780000Y-104140000D01*
X66802000Y-129794000D02*
X70358000Y-126238000D01*
X70358000Y-126238000D02*
X70358000Y-124714000D01*
X64770000Y-123190000D02*
X66294000Y-124714000D01*
X72390000Y-124714000D02*
X74422000Y-126746000D01*
X66294000Y-124714000D02*
X70358000Y-124714000D01*
X70358000Y-124714000D02*
X72390000Y-124714000D01*
X132080000Y-130175000D02*
X133985000Y-128270000D01*
X142200000Y-125730000D02*
X144740000Y-123190000D01*
X138430000Y-125730000D02*
X142200000Y-125730000D01*
X135890000Y-128270000D02*
X138430000Y-125730000D01*
X133985000Y-128270000D02*
X135890000Y-128270000D01*
X66715000Y-100965000D02*
X66715000Y-97115000D01*
X66715000Y-97115000D02*
X69215000Y-94615000D01*
X66675000Y-104775000D02*
X64770000Y-106680000D01*
X64770000Y-106680000D02*
X64770000Y-123190000D01*
X66675000Y-104775000D02*
X66715000Y-104735000D01*
X66715000Y-104735000D02*
X66715000Y-100925000D01*
X144740000Y-123190000D02*
X144740000Y-119420000D01*
X144740000Y-119420000D02*
X144780000Y-119380000D01*
X144780000Y-119380000D02*
X146050000Y-118110000D01*
X146050000Y-105410000D02*
X144780000Y-104140000D01*
X146050000Y-118110000D02*
X146050000Y-105410000D01*
X90805000Y-127635000D02*
X87884000Y-124714000D01*
X90805000Y-129540000D02*
X90805000Y-127635000D01*
X87884000Y-124714000D02*
X72390000Y-124714000D01*
D23*
X99060000Y-107505500D02*
X99504500Y-107505500D01*
X99504500Y-107505500D02*
X102870000Y-104140000D01*
X99060000Y-116014500D02*
X101155500Y-116014500D01*
X101155500Y-116014500D02*
X102870000Y-114300000D01*
X125730000Y-103378000D02*
X129540000Y-103378000D01*
X129540000Y-103378000D02*
X133858000Y-99060000D01*
X125730000Y-106934000D02*
X126729489Y-107933489D01*
X126729489Y-107933489D02*
X130031489Y-107933489D01*
X130031489Y-107933489D02*
X132858001Y-110760001D01*
X132858001Y-110760001D02*
X133858000Y-111760000D01*
X133858000Y-124460000D02*
X138285001Y-120032999D01*
X138285001Y-120032999D02*
X138285001Y-116299999D01*
X138285001Y-116299999D02*
X137700001Y-115714999D01*
X137700001Y-115714999D02*
X136619999Y-115714999D01*
X136619999Y-115714999D02*
X134170507Y-118164491D01*
X134170507Y-118164491D02*
X126800491Y-118164491D01*
X126800491Y-118164491D02*
X126475489Y-117839489D01*
X126475489Y-117839489D02*
X125476000Y-116840000D01*
X67945000Y-108585000D02*
X71755000Y-104775000D01*
X65405000Y-121708333D02*
X65405000Y-109220000D01*
X65405000Y-109220000D02*
X66040000Y-108585000D01*
X66040000Y-108585000D02*
X67945000Y-108585000D01*
X71755000Y-104775000D02*
X71755000Y-94615000D01*
X66675000Y-122555000D02*
X65405000Y-121708333D01*
X74295000Y-104775000D02*
X76835000Y-102235000D01*
X76835000Y-102235000D02*
X76835000Y-94615000D01*
X76200000Y-95250000D02*
X76835000Y-94615000D01*
X74295000Y-107315000D02*
X73169999Y-106189999D01*
X73169999Y-106189999D02*
X73169999Y-97006001D01*
X73169999Y-97006001D02*
X74295000Y-95881000D01*
X74295000Y-95881000D02*
X74295000Y-94615000D01*
X92964000Y-131064000D02*
X99441000Y-131064000D01*
X86995000Y-122555000D02*
X92075000Y-127635000D01*
X86995000Y-119380000D02*
X81280000Y-113665000D01*
X81280000Y-113665000D02*
X67945000Y-113665000D01*
X66675000Y-114935000D02*
X67945000Y-113665000D01*
X86995000Y-119380000D02*
X86995000Y-122555000D01*
X92075000Y-130175000D02*
X92964000Y-131064000D01*
X92075000Y-127635000D02*
X92075000Y-130175000D01*
X99441000Y-131064000D02*
X100965000Y-129540000D01*
X100965000Y-129540000D02*
X101739700Y-129540000D01*
X101739700Y-129540000D02*
X109319060Y-121960640D01*
X109319060Y-121960640D02*
X109179360Y-121960640D01*
X102870000Y-93980000D02*
X104126140Y-95236140D01*
X104126140Y-95236140D02*
X113124215Y-95236140D01*
X113124215Y-95236140D02*
X123497584Y-105609509D01*
X123497584Y-105609509D02*
X136089509Y-105609509D01*
X136089509Y-105609509D02*
X136360001Y-105880001D01*
X136360001Y-105880001D02*
X137160000Y-106680000D01*
X137160000Y-109220000D02*
X135890000Y-110490000D01*
X103505000Y-112395000D02*
X128905000Y-112395000D01*
X135890000Y-112014000D02*
X135890000Y-110490000D01*
X133858000Y-114046000D02*
X135890000Y-112014000D01*
X130556000Y-114046000D02*
X133858000Y-114046000D01*
X128905000Y-112395000D02*
X130556000Y-114046000D01*
X102870000Y-111760000D02*
X103505000Y-112395000D01*
X124460000Y-120015000D02*
X125730000Y-121285000D01*
X125730000Y-121285000D02*
X133350000Y-121285000D01*
X133350000Y-121285000D02*
X137160000Y-117475000D01*
X102870000Y-121920000D02*
X104775000Y-120015000D01*
X104775000Y-120015000D02*
X124460000Y-120015000D01*
X137160000Y-117475000D02*
X137160000Y-116840000D01*
X105410000Y-129540000D02*
X114300000Y-129540000D01*
X134620000Y-121920000D02*
X137160000Y-119380000D01*
X125730000Y-121920000D02*
X134620000Y-121920000D01*
X122555000Y-125095000D02*
X125730000Y-121920000D01*
X118745000Y-125095000D02*
X122555000Y-125095000D01*
X114300000Y-129540000D02*
X118745000Y-125095000D01*
X133350000Y-103378000D02*
X136398000Y-103378000D01*
X136398000Y-103378000D02*
X137160000Y-104140000D01*
X133350000Y-106934000D02*
X134349489Y-107933489D01*
X138285001Y-108679999D02*
X138285001Y-110634999D01*
X134349489Y-107933489D02*
X137538491Y-107933489D01*
X137538491Y-107933489D02*
X138285001Y-108679999D01*
X138285001Y-110634999D02*
X137959999Y-110960001D01*
X137959999Y-110960001D02*
X137160000Y-111760000D01*
X137160000Y-112395000D02*
X137160000Y-111760000D01*
X133096000Y-116840000D02*
X135636000Y-114300000D01*
X135636000Y-114300000D02*
X137160000Y-114300000D01*
X95885000Y-129540000D02*
X95885000Y-127889000D01*
X94488000Y-126492000D02*
X94488000Y-112268000D01*
X95885000Y-127889000D02*
X94488000Y-126492000D01*
X66675000Y-109855000D02*
X69850000Y-109855000D01*
X71120000Y-108585000D02*
X78163420Y-108585000D01*
X69850000Y-109855000D02*
X71120000Y-108585000D01*
X78163420Y-108585000D02*
X78839060Y-107909360D01*
X93345000Y-129540000D02*
X93345000Y-117614700D01*
X93345000Y-117614700D02*
X91340940Y-115610640D01*
X66675000Y-117475000D02*
X71120000Y-117475000D01*
X72390000Y-116205000D02*
X78244700Y-116205000D01*
X71120000Y-117475000D02*
X72390000Y-116205000D01*
X78244700Y-116205000D02*
X78839060Y-115610640D01*
X93345000Y-129540000D02*
X93345000Y-128846580D01*
X121820940Y-96560640D02*
X122321320Y-96560640D01*
X122321320Y-96560640D02*
X124647960Y-94234000D01*
X124647960Y-94234000D02*
X125222000Y-94234000D01*
X74295000Y-109855000D02*
X80645000Y-109855000D01*
X93939360Y-96560640D02*
X109319060Y-96560640D01*
X80645000Y-109855000D02*
X93939360Y-96560640D01*
X109278420Y-96520000D02*
X109319060Y-96560640D01*
X67945000Y-111125000D02*
X95250000Y-111125000D01*
X95250000Y-111125000D02*
X99695000Y-111125000D01*
X95194999Y-111180001D02*
X95250000Y-111125000D01*
X98425000Y-129540000D02*
X98425000Y-129387600D01*
X98425000Y-129387600D02*
X95194999Y-126157599D01*
X95194999Y-126157599D02*
X95194999Y-111180001D01*
X66675000Y-112395000D02*
X67945000Y-111125000D01*
X101600000Y-109220000D02*
X109278420Y-109220000D01*
X99695000Y-111125000D02*
X101600000Y-109220000D01*
X109278420Y-109220000D02*
X109319060Y-109260640D01*
X142875000Y-120015000D02*
X142875000Y-116205000D01*
X130049410Y-130175000D02*
X132589410Y-127635000D01*
X129540000Y-130175000D02*
X130049410Y-130175000D01*
X142875000Y-116205000D02*
X144780000Y-114300000D01*
X132589410Y-127635000D02*
X135255000Y-127635000D01*
X135255000Y-127635000D02*
X142875000Y-120015000D01*
X129540000Y-130175000D02*
X130175000Y-129540000D01*
X130810000Y-126238000D02*
X131064000Y-125984000D01*
X131064000Y-125984000D02*
X134366000Y-125984000D01*
X134366000Y-125984000D02*
X141224000Y-119126000D01*
X141224000Y-119126000D02*
X141224000Y-110236000D01*
X141224000Y-110236000D02*
X144780000Y-106680000D01*
X134802824Y-126904631D02*
X142291012Y-119416443D01*
X124460000Y-130175000D02*
X124460000Y-130022600D01*
X124460000Y-130022600D02*
X125704600Y-128778000D01*
X125704600Y-128778000D02*
X130810000Y-128778000D01*
X130810000Y-128778000D02*
X132683369Y-126904631D01*
X132683369Y-126904631D02*
X134802824Y-126904631D01*
X142291012Y-119416443D02*
X142291012Y-111708988D01*
X142291012Y-111708988D02*
X144780000Y-109220000D01*
M02*
