G04 #@! TF.FileFunction,Copper,L2,Bot,Signal*
%FSLAX46Y46*%
G04 Gerber Fmt 4.6, Leading zero omitted, Abs format (unit mm)*
G04 Created by KiCad (PCBNEW 4.0.2-4+6225~38~ubuntu14.04.1-stable) date mer. 25 mai 2016 20:43:00 CEST*
%MOMM*%
G01*
G04 APERTURE LIST*
%ADD10C,0.100000*%
%ADD11C,0.150000*%
%ADD12O,2.999740X1.998980*%
%ADD13O,1.600000X1.600000*%
%ADD14R,1.300000X1.300000*%
%ADD15C,1.300000*%
%ADD16C,1.998980*%
%ADD17R,1.727200X2.032000*%
%ADD18O,1.727200X2.032000*%
%ADD19R,2.000000X2.000000*%
%ADD20C,2.000000*%
%ADD21C,0.600000*%
%ADD22C,0.400000*%
%ADD23C,0.250000*%
%ADD24C,0.254000*%
G04 APERTURE END LIST*
D10*
D11*
X63500000Y-129540000D02*
G75*
G03X66040000Y-132080000I2540000J0D01*
G01*
X144780000Y-132080000D02*
G75*
G03X147320000Y-129540000I0J2540000D01*
G01*
X147320000Y-93980000D02*
G75*
G03X144780000Y-91440000I-2540000J0D01*
G01*
X66040000Y-91440000D02*
G75*
G03X63500000Y-93980000I0J-2540000D01*
G01*
X63500000Y-129540000D02*
X63500000Y-93980000D01*
X66040000Y-132080000D02*
X144780000Y-132080000D01*
X147320000Y-93980000D02*
X147320000Y-129540000D01*
X66040000Y-91440000D02*
X144780000Y-91440000D01*
D12*
X91340940Y-107909360D03*
X78839060Y-107909360D03*
X78839060Y-102910640D03*
X91340940Y-102910640D03*
D13*
X137160000Y-119380000D03*
X137160000Y-116840000D03*
X137160000Y-114300000D03*
X137160000Y-111760000D03*
X137160000Y-109220000D03*
X137160000Y-106680000D03*
X137160000Y-104140000D03*
X137160000Y-101600000D03*
X144780000Y-101600000D03*
X144780000Y-104140000D03*
X144780000Y-106680000D03*
X144780000Y-109220000D03*
X144780000Y-111760000D03*
X144780000Y-114300000D03*
X144780000Y-116840000D03*
X144780000Y-119380000D03*
X74295000Y-104775000D03*
X74295000Y-107315000D03*
X74295000Y-109855000D03*
X74295000Y-112395000D03*
X74295000Y-114935000D03*
X74295000Y-117475000D03*
X74295000Y-120015000D03*
X74295000Y-122555000D03*
X66675000Y-122555000D03*
X66675000Y-120015000D03*
X66675000Y-117475000D03*
X66675000Y-114935000D03*
X66675000Y-112395000D03*
X66675000Y-109855000D03*
X66675000Y-107315000D03*
X66675000Y-104775000D03*
D14*
X69215000Y-100965000D03*
D15*
X66715000Y-100965000D03*
D14*
X142240000Y-123190000D03*
D15*
X144740000Y-123190000D03*
D16*
X132842000Y-94234000D03*
X125222000Y-94234000D03*
X74422000Y-126746000D03*
X66802000Y-126746000D03*
X102870000Y-101600000D03*
X102870000Y-93980000D03*
X102870000Y-104140000D03*
X102870000Y-111760000D03*
X102870000Y-114300000D03*
X102870000Y-121920000D03*
X105410000Y-121920000D03*
X105410000Y-129540000D03*
X125730000Y-103378000D03*
X133350000Y-103378000D03*
X125730000Y-106934000D03*
X133350000Y-106934000D03*
X125476000Y-116840000D03*
X133096000Y-116840000D03*
D17*
X90805000Y-129540000D03*
D18*
X93345000Y-129540000D03*
X95885000Y-129540000D03*
X98425000Y-129540000D03*
X100965000Y-129540000D03*
D12*
X78839060Y-115610640D03*
X91340940Y-115610640D03*
X91340940Y-120609360D03*
X78839060Y-120609360D03*
X109319060Y-96560640D03*
X121820940Y-96560640D03*
X121820940Y-101559360D03*
X109319060Y-101559360D03*
X109319060Y-109260640D03*
X121820940Y-109260640D03*
X121820940Y-114259360D03*
X109319060Y-114259360D03*
X109319060Y-121960640D03*
X121820940Y-121960640D03*
X121820940Y-126959360D03*
X109319060Y-126959360D03*
D17*
X76835000Y-94615000D03*
D18*
X74295000Y-94615000D03*
X71755000Y-94615000D03*
X69215000Y-94615000D03*
X66675000Y-94615000D03*
D17*
X124460000Y-130175000D03*
D18*
X127000000Y-130175000D03*
X129540000Y-130175000D03*
X132080000Y-130175000D03*
X134620000Y-130175000D03*
D16*
X66802000Y-129794000D03*
X74422000Y-129794000D03*
D19*
X96520000Y-99060000D03*
D20*
X99060000Y-99060000D03*
D19*
X96520000Y-107442000D03*
D20*
X99060000Y-107442000D03*
D19*
X96520000Y-116078000D03*
D20*
X99060000Y-116078000D03*
D19*
X96520000Y-124460000D03*
D20*
X99060000Y-124460000D03*
D19*
X131318000Y-99060000D03*
D20*
X133858000Y-99060000D03*
D19*
X131318000Y-111760000D03*
D20*
X133858000Y-111760000D03*
D19*
X131318000Y-124460000D03*
D20*
X133858000Y-124460000D03*
D21*
X94488000Y-112268000D03*
X130810000Y-126238000D03*
D22*
X66715000Y-100965000D02*
X66715000Y-100925000D01*
X144780000Y-123150000D02*
X144740000Y-123190000D01*
D23*
X99060000Y-99060000D02*
X100330000Y-99060000D01*
X100330000Y-99060000D02*
X102870000Y-101600000D01*
X99060000Y-124460000D02*
X102870000Y-124460000D01*
X102870000Y-124460000D02*
X105410000Y-121920000D01*
X66802000Y-126746000D02*
X68326000Y-125222000D01*
X68326000Y-121666000D02*
X66675000Y-120015000D01*
X68326000Y-125222000D02*
X68326000Y-121666000D01*
X137160000Y-116840000D02*
X137160000Y-117475000D01*
X94488000Y-111056420D02*
X91340940Y-107909360D01*
X94488000Y-112268000D02*
X94488000Y-111056420D01*
X127000000Y-130175000D02*
X127000000Y-130048000D01*
X127000000Y-130048000D02*
X130810000Y-126238000D01*
X72136000Y-117094000D02*
X72136000Y-114554000D01*
X72136000Y-114554000D02*
X74295000Y-112395000D01*
X72136000Y-119634000D02*
X72136000Y-117094000D01*
X72136000Y-117094000D02*
X74295000Y-114935000D01*
X74422000Y-129794000D02*
X72136000Y-127508000D01*
X72136000Y-119634000D02*
X74295000Y-117475000D01*
X72136000Y-127508000D02*
X72136000Y-119634000D01*
D24*
G36*
X146558000Y-95302606D02*
X146558000Y-128217394D01*
X143457394Y-131318000D01*
X135707637Y-131318000D01*
X135911954Y-131089320D01*
X136105184Y-130536913D01*
X135960924Y-130302000D01*
X134747000Y-130302000D01*
X134747000Y-130322000D01*
X134493000Y-130322000D01*
X134493000Y-130302000D01*
X134473000Y-130302000D01*
X134473000Y-130048000D01*
X134493000Y-130048000D01*
X134493000Y-128688783D01*
X134747000Y-128688783D01*
X134747000Y-130048000D01*
X135960924Y-130048000D01*
X136105184Y-129813087D01*
X135911954Y-129260680D01*
X135522036Y-128824268D01*
X135290258Y-128712619D01*
X137464613Y-128712619D01*
X137804155Y-129534372D01*
X138432321Y-130163636D01*
X139253481Y-130504611D01*
X140142619Y-130505387D01*
X140964372Y-130165845D01*
X141593636Y-129537679D01*
X141934611Y-128716519D01*
X141935387Y-127827381D01*
X141595845Y-127005628D01*
X140967679Y-126376364D01*
X140146519Y-126035389D01*
X139257381Y-126034613D01*
X138435628Y-126374155D01*
X137806364Y-127002321D01*
X137465389Y-127823481D01*
X137464613Y-128712619D01*
X135290258Y-128712619D01*
X134994791Y-128570291D01*
X134979026Y-128567642D01*
X134747000Y-128688783D01*
X134493000Y-128688783D01*
X134260974Y-128567642D01*
X134245209Y-128570291D01*
X133717964Y-128824268D01*
X133346461Y-129240069D01*
X133139670Y-128930585D01*
X132653489Y-128605729D01*
X132080000Y-128491655D01*
X131506511Y-128605729D01*
X131020330Y-128930585D01*
X130810000Y-129245366D01*
X130599670Y-128930585D01*
X130113489Y-128605729D01*
X129616025Y-128506777D01*
X130949680Y-127173122D01*
X130995167Y-127173162D01*
X131338943Y-127031117D01*
X131602192Y-126768327D01*
X131744838Y-126424799D01*
X131745125Y-126095000D01*
X132444310Y-126095000D01*
X132677699Y-125998327D01*
X132856327Y-125819698D01*
X132870630Y-125785166D01*
X132930637Y-125845278D01*
X133531352Y-126094716D01*
X134181795Y-126095284D01*
X134782943Y-125846894D01*
X135243278Y-125387363D01*
X135492716Y-124786648D01*
X135493284Y-124136205D01*
X135244894Y-123535057D01*
X135185691Y-123475750D01*
X140955000Y-123475750D01*
X140955000Y-123966310D01*
X141051673Y-124199699D01*
X141230302Y-124378327D01*
X141463691Y-124475000D01*
X141954250Y-124475000D01*
X142113000Y-124316250D01*
X142113000Y-123317000D01*
X141113750Y-123317000D01*
X140955000Y-123475750D01*
X135185691Y-123475750D01*
X134785363Y-123074722D01*
X134184648Y-122825284D01*
X133534205Y-122824716D01*
X132933057Y-123073106D01*
X132870803Y-123135251D01*
X132856327Y-123100302D01*
X132677699Y-122921673D01*
X132444310Y-122825000D01*
X131603750Y-122825000D01*
X131445000Y-122983750D01*
X131445000Y-124333000D01*
X131465000Y-124333000D01*
X131465000Y-124587000D01*
X131445000Y-124587000D01*
X131445000Y-124607000D01*
X131191000Y-124607000D01*
X131191000Y-124587000D01*
X129841750Y-124587000D01*
X129683000Y-124745750D01*
X129683000Y-125586309D01*
X129779673Y-125819698D01*
X129915069Y-125955095D01*
X129875162Y-126051201D01*
X129875121Y-126098077D01*
X127401650Y-128571548D01*
X127000000Y-128491655D01*
X126426511Y-128605729D01*
X125940330Y-128930585D01*
X125930757Y-128944913D01*
X125926762Y-128923683D01*
X125787690Y-128707559D01*
X125575490Y-128562569D01*
X125323600Y-128511560D01*
X123596400Y-128511560D01*
X123361083Y-128555838D01*
X123144959Y-128694910D01*
X122999969Y-128907110D01*
X122948960Y-129159000D01*
X122948960Y-131191000D01*
X122972857Y-131318000D01*
X75013788Y-131318000D01*
X75346655Y-131180462D01*
X75806846Y-130721073D01*
X76056206Y-130120547D01*
X76056774Y-129470306D01*
X75808462Y-128869345D01*
X75652010Y-128712619D01*
X82219613Y-128712619D01*
X82559155Y-129534372D01*
X83187321Y-130163636D01*
X84008481Y-130504611D01*
X84897619Y-130505387D01*
X85719372Y-130165845D01*
X86348636Y-129537679D01*
X86689611Y-128716519D01*
X86689779Y-128524000D01*
X89293960Y-128524000D01*
X89293960Y-130556000D01*
X89338238Y-130791317D01*
X89477310Y-131007441D01*
X89689510Y-131152431D01*
X89941400Y-131203440D01*
X91668600Y-131203440D01*
X91903917Y-131159162D01*
X92120041Y-131020090D01*
X92265031Y-130807890D01*
X92273400Y-130766561D01*
X92285330Y-130784415D01*
X92771511Y-131109271D01*
X93345000Y-131223345D01*
X93918489Y-131109271D01*
X94404670Y-130784415D01*
X94615000Y-130469634D01*
X94825330Y-130784415D01*
X95311511Y-131109271D01*
X95885000Y-131223345D01*
X96458489Y-131109271D01*
X96944670Y-130784415D01*
X97155000Y-130469634D01*
X97365330Y-130784415D01*
X97851511Y-131109271D01*
X98425000Y-131223345D01*
X98998489Y-131109271D01*
X99484670Y-130784415D01*
X99695000Y-130469634D01*
X99905330Y-130784415D01*
X100391511Y-131109271D01*
X100965000Y-131223345D01*
X101538489Y-131109271D01*
X102024670Y-130784415D01*
X102349526Y-130298234D01*
X102435961Y-129863694D01*
X103775226Y-129863694D01*
X104023538Y-130464655D01*
X104482927Y-130924846D01*
X105083453Y-131174206D01*
X105733694Y-131174774D01*
X106334655Y-130926462D01*
X106794846Y-130467073D01*
X107044206Y-129866547D01*
X107044774Y-129216306D01*
X106796462Y-128615345D01*
X106337073Y-128155154D01*
X105736547Y-127905794D01*
X105086306Y-127905226D01*
X104485345Y-128153538D01*
X104025154Y-128612927D01*
X103775794Y-129213453D01*
X103775226Y-129863694D01*
X102435961Y-129863694D01*
X102463600Y-129724745D01*
X102463600Y-129355255D01*
X102349526Y-128781766D01*
X102024670Y-128295585D01*
X101538489Y-127970729D01*
X100965000Y-127856655D01*
X100391511Y-127970729D01*
X99905330Y-128295585D01*
X99695000Y-128610366D01*
X99484670Y-128295585D01*
X98998489Y-127970729D01*
X98425000Y-127856655D01*
X97851511Y-127970729D01*
X97365330Y-128295585D01*
X97155000Y-128610366D01*
X96944670Y-128295585D01*
X96458489Y-127970729D01*
X95885000Y-127856655D01*
X95311511Y-127970729D01*
X94825330Y-128295585D01*
X94615000Y-128610366D01*
X94404670Y-128295585D01*
X93918489Y-127970729D01*
X93345000Y-127856655D01*
X92771511Y-127970729D01*
X92285330Y-128295585D01*
X92275757Y-128309913D01*
X92271762Y-128288683D01*
X92132690Y-128072559D01*
X91920490Y-127927569D01*
X91668600Y-127876560D01*
X89941400Y-127876560D01*
X89706083Y-127920838D01*
X89489959Y-128059910D01*
X89344969Y-128272110D01*
X89293960Y-128524000D01*
X86689779Y-128524000D01*
X86690387Y-127827381D01*
X86488887Y-127339714D01*
X107229061Y-127339714D01*
X107260007Y-127467519D01*
X107573118Y-128025316D01*
X108075855Y-128420831D01*
X108691680Y-128593850D01*
X109192060Y-128593850D01*
X109192060Y-127086360D01*
X109446060Y-127086360D01*
X109446060Y-128593850D01*
X109946440Y-128593850D01*
X110562265Y-128420831D01*
X111065002Y-128025316D01*
X111378113Y-127467519D01*
X111409059Y-127339714D01*
X119730941Y-127339714D01*
X119761887Y-127467519D01*
X120074998Y-128025316D01*
X120577735Y-128420831D01*
X121193560Y-128593850D01*
X121693940Y-128593850D01*
X121693940Y-127086360D01*
X121947940Y-127086360D01*
X121947940Y-128593850D01*
X122448320Y-128593850D01*
X123064145Y-128420831D01*
X123566882Y-128025316D01*
X123879993Y-127467519D01*
X123910939Y-127339714D01*
X123791585Y-127086360D01*
X121947940Y-127086360D01*
X121693940Y-127086360D01*
X119850295Y-127086360D01*
X119730941Y-127339714D01*
X111409059Y-127339714D01*
X111289705Y-127086360D01*
X109446060Y-127086360D01*
X109192060Y-127086360D01*
X107348415Y-127086360D01*
X107229061Y-127339714D01*
X86488887Y-127339714D01*
X86350845Y-127005628D01*
X85924968Y-126579006D01*
X107229061Y-126579006D01*
X107348415Y-126832360D01*
X109192060Y-126832360D01*
X109192060Y-125324870D01*
X109446060Y-125324870D01*
X109446060Y-126832360D01*
X111289705Y-126832360D01*
X111409059Y-126579006D01*
X119730941Y-126579006D01*
X119850295Y-126832360D01*
X121693940Y-126832360D01*
X121693940Y-125324870D01*
X121947940Y-125324870D01*
X121947940Y-126832360D01*
X123791585Y-126832360D01*
X123910939Y-126579006D01*
X123879993Y-126451201D01*
X123566882Y-125893404D01*
X123064145Y-125497889D01*
X122448320Y-125324870D01*
X121947940Y-125324870D01*
X121693940Y-125324870D01*
X121193560Y-125324870D01*
X120577735Y-125497889D01*
X120074998Y-125893404D01*
X119761887Y-126451201D01*
X119730941Y-126579006D01*
X111409059Y-126579006D01*
X111378113Y-126451201D01*
X111065002Y-125893404D01*
X110562265Y-125497889D01*
X109946440Y-125324870D01*
X109446060Y-125324870D01*
X109192060Y-125324870D01*
X108691680Y-125324870D01*
X108075855Y-125497889D01*
X107573118Y-125893404D01*
X107260007Y-126451201D01*
X107229061Y-126579006D01*
X85924968Y-126579006D01*
X85722679Y-126376364D01*
X84901519Y-126035389D01*
X84012381Y-126034613D01*
X83190628Y-126374155D01*
X82561364Y-127002321D01*
X82220389Y-127823481D01*
X82219613Y-128712619D01*
X75652010Y-128712619D01*
X75349073Y-128409154D01*
X75013870Y-128269966D01*
X75346655Y-128132462D01*
X75806846Y-127673073D01*
X76056206Y-127072547D01*
X76056774Y-126422306D01*
X75808462Y-125821345D01*
X75349073Y-125361154D01*
X74748547Y-125111794D01*
X74098306Y-125111226D01*
X73497345Y-125359538D01*
X73037154Y-125818927D01*
X72896000Y-126158864D01*
X72896000Y-124745750D01*
X94885000Y-124745750D01*
X94885000Y-125586309D01*
X94981673Y-125819698D01*
X95160301Y-125998327D01*
X95393690Y-126095000D01*
X96234250Y-126095000D01*
X96393000Y-125936250D01*
X96393000Y-124587000D01*
X95043750Y-124587000D01*
X94885000Y-124745750D01*
X72896000Y-124745750D01*
X72896000Y-122682002D01*
X73025084Y-122682002D01*
X72903096Y-122904039D01*
X73063959Y-123292423D01*
X73439866Y-123707389D01*
X73945959Y-123946914D01*
X74168000Y-123825629D01*
X74168000Y-122682000D01*
X74422000Y-122682000D01*
X74422000Y-123825629D01*
X74644041Y-123946914D01*
X75150134Y-123707389D01*
X75488657Y-123333691D01*
X94885000Y-123333691D01*
X94885000Y-124174250D01*
X95043750Y-124333000D01*
X96393000Y-124333000D01*
X96393000Y-122983750D01*
X96647000Y-122983750D01*
X96647000Y-124333000D01*
X96667000Y-124333000D01*
X96667000Y-124587000D01*
X96647000Y-124587000D01*
X96647000Y-125936250D01*
X96805750Y-126095000D01*
X97646310Y-126095000D01*
X97879699Y-125998327D01*
X98058327Y-125819698D01*
X98072630Y-125785166D01*
X98132637Y-125845278D01*
X98733352Y-126094716D01*
X99383795Y-126095284D01*
X99984943Y-125846894D01*
X100445278Y-125387363D01*
X100514773Y-125220000D01*
X102870000Y-125220000D01*
X103160839Y-125162148D01*
X103407401Y-124997401D01*
X104918917Y-123485885D01*
X105083453Y-123554206D01*
X105733694Y-123554774D01*
X106334655Y-123306462D01*
X106794846Y-122847073D01*
X107044206Y-122246547D01*
X107044455Y-121960640D01*
X107142365Y-121960640D01*
X107266783Y-122586132D01*
X107621096Y-123116399D01*
X108151363Y-123470712D01*
X108776855Y-123595130D01*
X109861265Y-123595130D01*
X110486757Y-123470712D01*
X111017024Y-123116399D01*
X111371337Y-122586132D01*
X111495755Y-121960640D01*
X119644245Y-121960640D01*
X119768663Y-122586132D01*
X120122976Y-123116399D01*
X120653243Y-123470712D01*
X121278735Y-123595130D01*
X122363145Y-123595130D01*
X122988637Y-123470712D01*
X123193703Y-123333691D01*
X129683000Y-123333691D01*
X129683000Y-124174250D01*
X129841750Y-124333000D01*
X131191000Y-124333000D01*
X131191000Y-122983750D01*
X131032250Y-122825000D01*
X130191690Y-122825000D01*
X129958301Y-122921673D01*
X129779673Y-123100302D01*
X129683000Y-123333691D01*
X123193703Y-123333691D01*
X123518904Y-123116399D01*
X123873217Y-122586132D01*
X123907517Y-122413690D01*
X140955000Y-122413690D01*
X140955000Y-122904250D01*
X141113750Y-123063000D01*
X142113000Y-123063000D01*
X142113000Y-122063750D01*
X142367000Y-122063750D01*
X142367000Y-123063000D01*
X142387000Y-123063000D01*
X142387000Y-123317000D01*
X142367000Y-123317000D01*
X142367000Y-124316250D01*
X142525750Y-124475000D01*
X143016309Y-124475000D01*
X143249698Y-124378327D01*
X143428327Y-124199699D01*
X143525000Y-123966310D01*
X143525000Y-123614433D01*
X143649995Y-123916943D01*
X144011155Y-124278735D01*
X144483276Y-124474777D01*
X144994481Y-124475223D01*
X145466943Y-124280005D01*
X145828735Y-123918845D01*
X146024777Y-123446724D01*
X146025223Y-122935519D01*
X145830005Y-122463057D01*
X145468845Y-122101265D01*
X144996724Y-121905223D01*
X144485519Y-121904777D01*
X144013057Y-122099995D01*
X143651265Y-122461155D01*
X143525000Y-122765235D01*
X143525000Y-122413690D01*
X143428327Y-122180301D01*
X143249698Y-122001673D01*
X143016309Y-121905000D01*
X142525750Y-121905000D01*
X142367000Y-122063750D01*
X142113000Y-122063750D01*
X141954250Y-121905000D01*
X141463691Y-121905000D01*
X141230302Y-122001673D01*
X141051673Y-122180301D01*
X140955000Y-122413690D01*
X123907517Y-122413690D01*
X123997635Y-121960640D01*
X123873217Y-121335148D01*
X123518904Y-120804881D01*
X122988637Y-120450568D01*
X122363145Y-120326150D01*
X121278735Y-120326150D01*
X120653243Y-120450568D01*
X120122976Y-120804881D01*
X119768663Y-121335148D01*
X119644245Y-121960640D01*
X111495755Y-121960640D01*
X111371337Y-121335148D01*
X111017024Y-120804881D01*
X110486757Y-120450568D01*
X109861265Y-120326150D01*
X108776855Y-120326150D01*
X108151363Y-120450568D01*
X107621096Y-120804881D01*
X107266783Y-121335148D01*
X107142365Y-121960640D01*
X107044455Y-121960640D01*
X107044774Y-121596306D01*
X106796462Y-120995345D01*
X106337073Y-120535154D01*
X105736547Y-120285794D01*
X105086306Y-120285226D01*
X104485345Y-120533538D01*
X104139801Y-120878480D01*
X103797073Y-120535154D01*
X103196547Y-120285794D01*
X102546306Y-120285226D01*
X101945345Y-120533538D01*
X101485154Y-120992927D01*
X101235794Y-121593453D01*
X101235226Y-122243694D01*
X101483538Y-122844655D01*
X101942927Y-123304846D01*
X102543453Y-123554206D01*
X102700855Y-123554343D01*
X102555198Y-123700000D01*
X100515047Y-123700000D01*
X100446894Y-123535057D01*
X99987363Y-123074722D01*
X99386648Y-122825284D01*
X98736205Y-122824716D01*
X98135057Y-123073106D01*
X98072803Y-123135251D01*
X98058327Y-123100302D01*
X97879699Y-122921673D01*
X97646310Y-122825000D01*
X96805750Y-122825000D01*
X96647000Y-122983750D01*
X96393000Y-122983750D01*
X96234250Y-122825000D01*
X95393690Y-122825000D01*
X95160301Y-122921673D01*
X94981673Y-123100302D01*
X94885000Y-123333691D01*
X75488657Y-123333691D01*
X75526041Y-123292423D01*
X75686904Y-122904039D01*
X75564915Y-122682000D01*
X74422000Y-122682000D01*
X74168000Y-122682000D01*
X74148000Y-122682000D01*
X74148000Y-122428000D01*
X74168000Y-122428000D01*
X74168000Y-122408000D01*
X74422000Y-122408000D01*
X74422000Y-122428000D01*
X75564915Y-122428000D01*
X75686904Y-122205961D01*
X75526041Y-121817577D01*
X75150134Y-121402611D01*
X74933297Y-121299986D01*
X75337811Y-121029698D01*
X75364527Y-120989714D01*
X76749061Y-120989714D01*
X76780007Y-121117519D01*
X77093118Y-121675316D01*
X77595855Y-122070831D01*
X78211680Y-122243850D01*
X78712060Y-122243850D01*
X78712060Y-120736360D01*
X78966060Y-120736360D01*
X78966060Y-122243850D01*
X79466440Y-122243850D01*
X80082265Y-122070831D01*
X80585002Y-121675316D01*
X80898113Y-121117519D01*
X80929059Y-120989714D01*
X89250941Y-120989714D01*
X89281887Y-121117519D01*
X89594998Y-121675316D01*
X90097735Y-122070831D01*
X90713560Y-122243850D01*
X91213940Y-122243850D01*
X91213940Y-120736360D01*
X91467940Y-120736360D01*
X91467940Y-122243850D01*
X91968320Y-122243850D01*
X92584145Y-122070831D01*
X93086882Y-121675316D01*
X93399993Y-121117519D01*
X93430939Y-120989714D01*
X93311585Y-120736360D01*
X91467940Y-120736360D01*
X91213940Y-120736360D01*
X89370295Y-120736360D01*
X89250941Y-120989714D01*
X80929059Y-120989714D01*
X80809705Y-120736360D01*
X78966060Y-120736360D01*
X78712060Y-120736360D01*
X76868415Y-120736360D01*
X76749061Y-120989714D01*
X75364527Y-120989714D01*
X75648880Y-120564151D01*
X75715544Y-120229006D01*
X76749061Y-120229006D01*
X76868415Y-120482360D01*
X78712060Y-120482360D01*
X78712060Y-118974870D01*
X78966060Y-118974870D01*
X78966060Y-120482360D01*
X80809705Y-120482360D01*
X80929059Y-120229006D01*
X89250941Y-120229006D01*
X89370295Y-120482360D01*
X91213940Y-120482360D01*
X91213940Y-118974870D01*
X91467940Y-118974870D01*
X91467940Y-120482360D01*
X93311585Y-120482360D01*
X93430939Y-120229006D01*
X93399993Y-120101201D01*
X93086882Y-119543404D01*
X92584145Y-119147889D01*
X91968320Y-118974870D01*
X91467940Y-118974870D01*
X91213940Y-118974870D01*
X90713560Y-118974870D01*
X90097735Y-119147889D01*
X89594998Y-119543404D01*
X89281887Y-120101201D01*
X89250941Y-120229006D01*
X80929059Y-120229006D01*
X80898113Y-120101201D01*
X80585002Y-119543404D01*
X80082265Y-119147889D01*
X79466440Y-118974870D01*
X78966060Y-118974870D01*
X78712060Y-118974870D01*
X78211680Y-118974870D01*
X77595855Y-119147889D01*
X77093118Y-119543404D01*
X76780007Y-120101201D01*
X76749061Y-120229006D01*
X75715544Y-120229006D01*
X75758113Y-120015000D01*
X75648880Y-119465849D01*
X75337811Y-119000302D01*
X74955725Y-118745000D01*
X75337811Y-118489698D01*
X75648880Y-118024151D01*
X75758113Y-117475000D01*
X75648880Y-116925849D01*
X75337811Y-116460302D01*
X74955725Y-116205000D01*
X75337811Y-115949698D01*
X75564362Y-115610640D01*
X76662365Y-115610640D01*
X76786783Y-116236132D01*
X77141096Y-116766399D01*
X77671363Y-117120712D01*
X78296855Y-117245130D01*
X79381265Y-117245130D01*
X80006757Y-117120712D01*
X80537024Y-116766399D01*
X80891337Y-116236132D01*
X81015755Y-115610640D01*
X89164245Y-115610640D01*
X89288663Y-116236132D01*
X89642976Y-116766399D01*
X90173243Y-117120712D01*
X90798735Y-117245130D01*
X91883145Y-117245130D01*
X92508637Y-117120712D01*
X93038904Y-116766399D01*
X93307945Y-116363750D01*
X94885000Y-116363750D01*
X94885000Y-117204309D01*
X94981673Y-117437698D01*
X95160301Y-117616327D01*
X95393690Y-117713000D01*
X96234250Y-117713000D01*
X96393000Y-117554250D01*
X96393000Y-116205000D01*
X95043750Y-116205000D01*
X94885000Y-116363750D01*
X93307945Y-116363750D01*
X93393217Y-116236132D01*
X93517635Y-115610640D01*
X93393217Y-114985148D01*
X93370862Y-114951691D01*
X94885000Y-114951691D01*
X94885000Y-115792250D01*
X95043750Y-115951000D01*
X96393000Y-115951000D01*
X96393000Y-114601750D01*
X96647000Y-114601750D01*
X96647000Y-115951000D01*
X96667000Y-115951000D01*
X96667000Y-116205000D01*
X96647000Y-116205000D01*
X96647000Y-117554250D01*
X96805750Y-117713000D01*
X97646310Y-117713000D01*
X97879699Y-117616327D01*
X98058327Y-117437698D01*
X98072630Y-117403166D01*
X98132637Y-117463278D01*
X98733352Y-117712716D01*
X99383795Y-117713284D01*
X99984943Y-117464894D01*
X100286669Y-117163694D01*
X123841226Y-117163694D01*
X124089538Y-117764655D01*
X124548927Y-118224846D01*
X125149453Y-118474206D01*
X125799694Y-118474774D01*
X126400655Y-118226462D01*
X126860846Y-117767073D01*
X127110206Y-117166547D01*
X127110208Y-117163694D01*
X131461226Y-117163694D01*
X131709538Y-117764655D01*
X132168927Y-118224846D01*
X132769453Y-118474206D01*
X133419694Y-118474774D01*
X134020655Y-118226462D01*
X134480846Y-117767073D01*
X134730206Y-117166547D01*
X134730774Y-116516306D01*
X134482462Y-115915345D01*
X134023073Y-115455154D01*
X133422547Y-115205794D01*
X132772306Y-115205226D01*
X132171345Y-115453538D01*
X131711154Y-115912927D01*
X131461794Y-116513453D01*
X131461226Y-117163694D01*
X127110208Y-117163694D01*
X127110774Y-116516306D01*
X126862462Y-115915345D01*
X126403073Y-115455154D01*
X125802547Y-115205794D01*
X125152306Y-115205226D01*
X124551345Y-115453538D01*
X124091154Y-115912927D01*
X123841794Y-116513453D01*
X123841226Y-117163694D01*
X100286669Y-117163694D01*
X100445278Y-117005363D01*
X100694716Y-116404648D01*
X100695284Y-115754205D01*
X100446894Y-115153057D01*
X99987363Y-114692722D01*
X99386648Y-114443284D01*
X98736205Y-114442716D01*
X98135057Y-114691106D01*
X98072803Y-114753251D01*
X98058327Y-114718302D01*
X97879699Y-114539673D01*
X97646310Y-114443000D01*
X96805750Y-114443000D01*
X96647000Y-114601750D01*
X96393000Y-114601750D01*
X96234250Y-114443000D01*
X95393690Y-114443000D01*
X95160301Y-114539673D01*
X94981673Y-114718302D01*
X94885000Y-114951691D01*
X93370862Y-114951691D01*
X93038904Y-114454881D01*
X92508637Y-114100568D01*
X91883145Y-113976150D01*
X90798735Y-113976150D01*
X90173243Y-114100568D01*
X89642976Y-114454881D01*
X89288663Y-114985148D01*
X89164245Y-115610640D01*
X81015755Y-115610640D01*
X80891337Y-114985148D01*
X80537024Y-114454881D01*
X80006757Y-114100568D01*
X79381265Y-113976150D01*
X78296855Y-113976150D01*
X77671363Y-114100568D01*
X77141096Y-114454881D01*
X76786783Y-114985148D01*
X76662365Y-115610640D01*
X75564362Y-115610640D01*
X75648880Y-115484151D01*
X75758113Y-114935000D01*
X75648880Y-114385849D01*
X75337811Y-113920302D01*
X74955725Y-113665000D01*
X75337811Y-113409698D01*
X75648880Y-112944151D01*
X75758113Y-112395000D01*
X75648880Y-111845849D01*
X75337811Y-111380302D01*
X74955725Y-111125000D01*
X75337811Y-110869698D01*
X75648880Y-110404151D01*
X75758113Y-109855000D01*
X75648880Y-109305849D01*
X75337811Y-108840302D01*
X74955725Y-108585000D01*
X75337811Y-108329698D01*
X75618672Y-107909360D01*
X76662365Y-107909360D01*
X76786783Y-108534852D01*
X77141096Y-109065119D01*
X77671363Y-109419432D01*
X78296855Y-109543850D01*
X79381265Y-109543850D01*
X80006757Y-109419432D01*
X80537024Y-109065119D01*
X80891337Y-108534852D01*
X81015755Y-107909360D01*
X89164245Y-107909360D01*
X89288663Y-108534852D01*
X89642976Y-109065119D01*
X90173243Y-109419432D01*
X90798735Y-109543850D01*
X91883145Y-109543850D01*
X91897727Y-109540949D01*
X93728000Y-111371222D01*
X93728000Y-111705537D01*
X93695808Y-111737673D01*
X93553162Y-112081201D01*
X93552838Y-112453167D01*
X93694883Y-112796943D01*
X93957673Y-113060192D01*
X94301201Y-113202838D01*
X94673167Y-113203162D01*
X95016943Y-113061117D01*
X95280192Y-112798327D01*
X95422838Y-112454799D01*
X95423161Y-112083694D01*
X101235226Y-112083694D01*
X101483538Y-112684655D01*
X101828480Y-113030199D01*
X101485154Y-113372927D01*
X101235794Y-113973453D01*
X101235226Y-114623694D01*
X101483538Y-115224655D01*
X101942927Y-115684846D01*
X102543453Y-115934206D01*
X103193694Y-115934774D01*
X103794655Y-115686462D01*
X104254846Y-115227073D01*
X104498738Y-114639714D01*
X107229061Y-114639714D01*
X107260007Y-114767519D01*
X107573118Y-115325316D01*
X108075855Y-115720831D01*
X108691680Y-115893850D01*
X109192060Y-115893850D01*
X109192060Y-114386360D01*
X109446060Y-114386360D01*
X109446060Y-115893850D01*
X109946440Y-115893850D01*
X110562265Y-115720831D01*
X111065002Y-115325316D01*
X111378113Y-114767519D01*
X111409059Y-114639714D01*
X119730941Y-114639714D01*
X119761887Y-114767519D01*
X120074998Y-115325316D01*
X120577735Y-115720831D01*
X121193560Y-115893850D01*
X121693940Y-115893850D01*
X121693940Y-114386360D01*
X121947940Y-114386360D01*
X121947940Y-115893850D01*
X122448320Y-115893850D01*
X123064145Y-115720831D01*
X123566882Y-115325316D01*
X123879993Y-114767519D01*
X123910939Y-114639714D01*
X123791585Y-114386360D01*
X121947940Y-114386360D01*
X121693940Y-114386360D01*
X119850295Y-114386360D01*
X119730941Y-114639714D01*
X111409059Y-114639714D01*
X111289705Y-114386360D01*
X109446060Y-114386360D01*
X109192060Y-114386360D01*
X107348415Y-114386360D01*
X107229061Y-114639714D01*
X104498738Y-114639714D01*
X104504206Y-114626547D01*
X104504774Y-113976306D01*
X104464571Y-113879006D01*
X107229061Y-113879006D01*
X107348415Y-114132360D01*
X109192060Y-114132360D01*
X109192060Y-112624870D01*
X109446060Y-112624870D01*
X109446060Y-114132360D01*
X111289705Y-114132360D01*
X111409059Y-113879006D01*
X119730941Y-113879006D01*
X119850295Y-114132360D01*
X121693940Y-114132360D01*
X121693940Y-112624870D01*
X121947940Y-112624870D01*
X121947940Y-114132360D01*
X123791585Y-114132360D01*
X123910939Y-113879006D01*
X123879993Y-113751201D01*
X123566882Y-113193404D01*
X123064145Y-112797889D01*
X122448320Y-112624870D01*
X121947940Y-112624870D01*
X121693940Y-112624870D01*
X121193560Y-112624870D01*
X120577735Y-112797889D01*
X120074998Y-113193404D01*
X119761887Y-113751201D01*
X119730941Y-113879006D01*
X111409059Y-113879006D01*
X111378113Y-113751201D01*
X111065002Y-113193404D01*
X110562265Y-112797889D01*
X109946440Y-112624870D01*
X109446060Y-112624870D01*
X109192060Y-112624870D01*
X108691680Y-112624870D01*
X108075855Y-112797889D01*
X107573118Y-113193404D01*
X107260007Y-113751201D01*
X107229061Y-113879006D01*
X104464571Y-113879006D01*
X104256462Y-113375345D01*
X103911520Y-113029801D01*
X104254846Y-112687073D01*
X104504206Y-112086547D01*
X104504241Y-112045750D01*
X129683000Y-112045750D01*
X129683000Y-112886309D01*
X129779673Y-113119698D01*
X129958301Y-113298327D01*
X130191690Y-113395000D01*
X131032250Y-113395000D01*
X131191000Y-113236250D01*
X131191000Y-111887000D01*
X129841750Y-111887000D01*
X129683000Y-112045750D01*
X104504241Y-112045750D01*
X104504774Y-111436306D01*
X104256462Y-110835345D01*
X103797073Y-110375154D01*
X103196547Y-110125794D01*
X102546306Y-110125226D01*
X101945345Y-110373538D01*
X101485154Y-110832927D01*
X101235794Y-111433453D01*
X101235226Y-112083694D01*
X95423161Y-112083694D01*
X95423162Y-112082833D01*
X95281117Y-111739057D01*
X95248000Y-111705882D01*
X95248000Y-111056420D01*
X95190148Y-110765581D01*
X95025401Y-110519019D01*
X93767022Y-109260640D01*
X107142365Y-109260640D01*
X107266783Y-109886132D01*
X107621096Y-110416399D01*
X108151363Y-110770712D01*
X108776855Y-110895130D01*
X109861265Y-110895130D01*
X110486757Y-110770712D01*
X111017024Y-110416399D01*
X111371337Y-109886132D01*
X111495755Y-109260640D01*
X119644245Y-109260640D01*
X119768663Y-109886132D01*
X120122976Y-110416399D01*
X120653243Y-110770712D01*
X121278735Y-110895130D01*
X122363145Y-110895130D01*
X122988637Y-110770712D01*
X123193703Y-110633691D01*
X129683000Y-110633691D01*
X129683000Y-111474250D01*
X129841750Y-111633000D01*
X131191000Y-111633000D01*
X131191000Y-110283750D01*
X131445000Y-110283750D01*
X131445000Y-111633000D01*
X131465000Y-111633000D01*
X131465000Y-111887000D01*
X131445000Y-111887000D01*
X131445000Y-113236250D01*
X131603750Y-113395000D01*
X132444310Y-113395000D01*
X132677699Y-113298327D01*
X132856327Y-113119698D01*
X132870630Y-113085166D01*
X132930637Y-113145278D01*
X133531352Y-113394716D01*
X134181795Y-113395284D01*
X134782943Y-113146894D01*
X135243278Y-112687363D01*
X135492716Y-112086648D01*
X135493284Y-111436205D01*
X135244894Y-110835057D01*
X134785363Y-110374722D01*
X134184648Y-110125284D01*
X133534205Y-110124716D01*
X132933057Y-110373106D01*
X132870803Y-110435251D01*
X132856327Y-110400302D01*
X132677699Y-110221673D01*
X132444310Y-110125000D01*
X131603750Y-110125000D01*
X131445000Y-110283750D01*
X131191000Y-110283750D01*
X131032250Y-110125000D01*
X130191690Y-110125000D01*
X129958301Y-110221673D01*
X129779673Y-110400302D01*
X129683000Y-110633691D01*
X123193703Y-110633691D01*
X123518904Y-110416399D01*
X123873217Y-109886132D01*
X123997635Y-109260640D01*
X123873217Y-108635148D01*
X123518904Y-108104881D01*
X122988637Y-107750568D01*
X122363145Y-107626150D01*
X121278735Y-107626150D01*
X120653243Y-107750568D01*
X120122976Y-108104881D01*
X119768663Y-108635148D01*
X119644245Y-109260640D01*
X111495755Y-109260640D01*
X111371337Y-108635148D01*
X111017024Y-108104881D01*
X110486757Y-107750568D01*
X109861265Y-107626150D01*
X108776855Y-107626150D01*
X108151363Y-107750568D01*
X107621096Y-108104881D01*
X107266783Y-108635148D01*
X107142365Y-109260640D01*
X93767022Y-109260640D01*
X93252232Y-108745850D01*
X93393217Y-108534852D01*
X93517635Y-107909360D01*
X93481511Y-107727750D01*
X94885000Y-107727750D01*
X94885000Y-108568309D01*
X94981673Y-108801698D01*
X95160301Y-108980327D01*
X95393690Y-109077000D01*
X96234250Y-109077000D01*
X96393000Y-108918250D01*
X96393000Y-107569000D01*
X95043750Y-107569000D01*
X94885000Y-107727750D01*
X93481511Y-107727750D01*
X93393217Y-107283868D01*
X93038904Y-106753601D01*
X92508637Y-106399288D01*
X92088367Y-106315691D01*
X94885000Y-106315691D01*
X94885000Y-107156250D01*
X95043750Y-107315000D01*
X96393000Y-107315000D01*
X96393000Y-105965750D01*
X96647000Y-105965750D01*
X96647000Y-107315000D01*
X96667000Y-107315000D01*
X96667000Y-107569000D01*
X96647000Y-107569000D01*
X96647000Y-108918250D01*
X96805750Y-109077000D01*
X97646310Y-109077000D01*
X97879699Y-108980327D01*
X98058327Y-108801698D01*
X98072630Y-108767166D01*
X98132637Y-108827278D01*
X98733352Y-109076716D01*
X99383795Y-109077284D01*
X99984943Y-108828894D01*
X100445278Y-108369363D01*
X100694716Y-107768648D01*
X100695162Y-107257694D01*
X124095226Y-107257694D01*
X124343538Y-107858655D01*
X124802927Y-108318846D01*
X125403453Y-108568206D01*
X126053694Y-108568774D01*
X126654655Y-108320462D01*
X127114846Y-107861073D01*
X127364206Y-107260547D01*
X127364208Y-107257694D01*
X131715226Y-107257694D01*
X131963538Y-107858655D01*
X132422927Y-108318846D01*
X133023453Y-108568206D01*
X133673694Y-108568774D01*
X134274655Y-108320462D01*
X134734846Y-107861073D01*
X134984206Y-107260547D01*
X134984774Y-106610306D01*
X134736462Y-106009345D01*
X134277073Y-105549154D01*
X133676547Y-105299794D01*
X133026306Y-105299226D01*
X132425345Y-105547538D01*
X131965154Y-106006927D01*
X131715794Y-106607453D01*
X131715226Y-107257694D01*
X127364208Y-107257694D01*
X127364774Y-106610306D01*
X127116462Y-106009345D01*
X126657073Y-105549154D01*
X126056547Y-105299794D01*
X125406306Y-105299226D01*
X124805345Y-105547538D01*
X124345154Y-106006927D01*
X124095794Y-106607453D01*
X124095226Y-107257694D01*
X100695162Y-107257694D01*
X100695284Y-107118205D01*
X100446894Y-106517057D01*
X99987363Y-106056722D01*
X99386648Y-105807284D01*
X98736205Y-105806716D01*
X98135057Y-106055106D01*
X98072803Y-106117251D01*
X98058327Y-106082302D01*
X97879699Y-105903673D01*
X97646310Y-105807000D01*
X96805750Y-105807000D01*
X96647000Y-105965750D01*
X96393000Y-105965750D01*
X96234250Y-105807000D01*
X95393690Y-105807000D01*
X95160301Y-105903673D01*
X94981673Y-106082302D01*
X94885000Y-106315691D01*
X92088367Y-106315691D01*
X91883145Y-106274870D01*
X90798735Y-106274870D01*
X90173243Y-106399288D01*
X89642976Y-106753601D01*
X89288663Y-107283868D01*
X89164245Y-107909360D01*
X81015755Y-107909360D01*
X80891337Y-107283868D01*
X80537024Y-106753601D01*
X80006757Y-106399288D01*
X79381265Y-106274870D01*
X78296855Y-106274870D01*
X77671363Y-106399288D01*
X77141096Y-106753601D01*
X76786783Y-107283868D01*
X76662365Y-107909360D01*
X75618672Y-107909360D01*
X75648880Y-107864151D01*
X75758113Y-107315000D01*
X75648880Y-106765849D01*
X75337811Y-106300302D01*
X74955725Y-106045000D01*
X75337811Y-105789698D01*
X75648880Y-105324151D01*
X75758113Y-104775000D01*
X75648880Y-104225849D01*
X75337811Y-103760302D01*
X74872264Y-103449233D01*
X74323113Y-103340000D01*
X74266887Y-103340000D01*
X73717736Y-103449233D01*
X73252189Y-103760302D01*
X72941120Y-104225849D01*
X72831887Y-104775000D01*
X72941120Y-105324151D01*
X73252189Y-105789698D01*
X73634275Y-106045000D01*
X73252189Y-106300302D01*
X72941120Y-106765849D01*
X72831887Y-107315000D01*
X72941120Y-107864151D01*
X73252189Y-108329698D01*
X73634275Y-108585000D01*
X73252189Y-108840302D01*
X72941120Y-109305849D01*
X72831887Y-109855000D01*
X72941120Y-110404151D01*
X73252189Y-110869698D01*
X73634275Y-111125000D01*
X73252189Y-111380302D01*
X72941120Y-111845849D01*
X72831887Y-112395000D01*
X72896312Y-112718886D01*
X71598599Y-114016599D01*
X71433852Y-114263161D01*
X71376000Y-114554000D01*
X71376000Y-127508000D01*
X71433852Y-127798839D01*
X71598599Y-128045401D01*
X72856115Y-129302917D01*
X72787794Y-129467453D01*
X72787226Y-130117694D01*
X73035538Y-130718655D01*
X73494927Y-131178846D01*
X73830047Y-131318000D01*
X67393788Y-131318000D01*
X67726655Y-131180462D01*
X68186846Y-130721073D01*
X68436206Y-130120547D01*
X68436774Y-129470306D01*
X68188462Y-128869345D01*
X67729073Y-128409154D01*
X67393870Y-128269966D01*
X67726655Y-128132462D01*
X68186846Y-127673073D01*
X68436206Y-127072547D01*
X68436774Y-126422306D01*
X68367691Y-126255111D01*
X68863401Y-125759401D01*
X69028148Y-125512840D01*
X69058320Y-125361154D01*
X69086000Y-125222000D01*
X69086000Y-121666000D01*
X69028148Y-121375161D01*
X68863401Y-121128599D01*
X68073688Y-120338886D01*
X68138113Y-120015000D01*
X68028880Y-119465849D01*
X67717811Y-119000302D01*
X67335725Y-118745000D01*
X67717811Y-118489698D01*
X68028880Y-118024151D01*
X68138113Y-117475000D01*
X68028880Y-116925849D01*
X67717811Y-116460302D01*
X67335725Y-116205000D01*
X67717811Y-115949698D01*
X68028880Y-115484151D01*
X68138113Y-114935000D01*
X68028880Y-114385849D01*
X67717811Y-113920302D01*
X67335725Y-113665000D01*
X67717811Y-113409698D01*
X68028880Y-112944151D01*
X68138113Y-112395000D01*
X68028880Y-111845849D01*
X67717811Y-111380302D01*
X67335725Y-111125000D01*
X67717811Y-110869698D01*
X68028880Y-110404151D01*
X68138113Y-109855000D01*
X68028880Y-109305849D01*
X67717811Y-108840302D01*
X67313297Y-108570014D01*
X67530134Y-108467389D01*
X67906041Y-108052423D01*
X68066904Y-107664039D01*
X67944915Y-107442000D01*
X66802000Y-107442000D01*
X66802000Y-107462000D01*
X66548000Y-107462000D01*
X66548000Y-107442000D01*
X65405085Y-107442000D01*
X65283096Y-107664039D01*
X65443959Y-108052423D01*
X65819866Y-108467389D01*
X66036703Y-108570014D01*
X65632189Y-108840302D01*
X65321120Y-109305849D01*
X65211887Y-109855000D01*
X65321120Y-110404151D01*
X65632189Y-110869698D01*
X66014275Y-111125000D01*
X65632189Y-111380302D01*
X65321120Y-111845849D01*
X65211887Y-112395000D01*
X65321120Y-112944151D01*
X65632189Y-113409698D01*
X66014275Y-113665000D01*
X65632189Y-113920302D01*
X65321120Y-114385849D01*
X65211887Y-114935000D01*
X65321120Y-115484151D01*
X65632189Y-115949698D01*
X66014275Y-116205000D01*
X65632189Y-116460302D01*
X65321120Y-116925849D01*
X65211887Y-117475000D01*
X65321120Y-118024151D01*
X65632189Y-118489698D01*
X66014275Y-118745000D01*
X65632189Y-119000302D01*
X65321120Y-119465849D01*
X65211887Y-120015000D01*
X65321120Y-120564151D01*
X65632189Y-121029698D01*
X66014275Y-121285000D01*
X65632189Y-121540302D01*
X65321120Y-122005849D01*
X65211887Y-122555000D01*
X65321120Y-123104151D01*
X65632189Y-123569698D01*
X66097736Y-123880767D01*
X66646887Y-123990000D01*
X66703113Y-123990000D01*
X67252264Y-123880767D01*
X67566000Y-123671135D01*
X67566000Y-124907198D01*
X67293083Y-125180115D01*
X67128547Y-125111794D01*
X66478306Y-125111226D01*
X65877345Y-125359538D01*
X65417154Y-125818927D01*
X65167794Y-126419453D01*
X65167226Y-127069694D01*
X65415538Y-127670655D01*
X65874927Y-128130846D01*
X66210130Y-128270034D01*
X65877345Y-128407538D01*
X65417154Y-128866927D01*
X65268803Y-129224197D01*
X64262000Y-128217394D01*
X64262000Y-104775000D01*
X65211887Y-104775000D01*
X65321120Y-105324151D01*
X65632189Y-105789698D01*
X66036703Y-106059986D01*
X65819866Y-106162611D01*
X65443959Y-106577577D01*
X65283096Y-106965961D01*
X65405085Y-107188000D01*
X66548000Y-107188000D01*
X66548000Y-107168000D01*
X66802000Y-107168000D01*
X66802000Y-107188000D01*
X67944915Y-107188000D01*
X68066904Y-106965961D01*
X67906041Y-106577577D01*
X67530134Y-106162611D01*
X67313297Y-106059986D01*
X67717811Y-105789698D01*
X68028880Y-105324151D01*
X68138113Y-104775000D01*
X68028880Y-104225849D01*
X67717811Y-103760302D01*
X67252264Y-103449233D01*
X66703113Y-103340000D01*
X66646887Y-103340000D01*
X66097736Y-103449233D01*
X65632189Y-103760302D01*
X65321120Y-104225849D01*
X65211887Y-104775000D01*
X64262000Y-104775000D01*
X64262000Y-103290994D01*
X76749061Y-103290994D01*
X76780007Y-103418799D01*
X77093118Y-103976596D01*
X77595855Y-104372111D01*
X78211680Y-104545130D01*
X78712060Y-104545130D01*
X78712060Y-103037640D01*
X78966060Y-103037640D01*
X78966060Y-104545130D01*
X79466440Y-104545130D01*
X80082265Y-104372111D01*
X80585002Y-103976596D01*
X80898113Y-103418799D01*
X80929059Y-103290994D01*
X89250941Y-103290994D01*
X89281887Y-103418799D01*
X89594998Y-103976596D01*
X90097735Y-104372111D01*
X90713560Y-104545130D01*
X91213940Y-104545130D01*
X91213940Y-103037640D01*
X91467940Y-103037640D01*
X91467940Y-104545130D01*
X91968320Y-104545130D01*
X92584145Y-104372111D01*
X93086882Y-103976596D01*
X93399993Y-103418799D01*
X93430939Y-103290994D01*
X93311585Y-103037640D01*
X91467940Y-103037640D01*
X91213940Y-103037640D01*
X89370295Y-103037640D01*
X89250941Y-103290994D01*
X80929059Y-103290994D01*
X80809705Y-103037640D01*
X78966060Y-103037640D01*
X78712060Y-103037640D01*
X76868415Y-103037640D01*
X76749061Y-103290994D01*
X64262000Y-103290994D01*
X64262000Y-102530286D01*
X76749061Y-102530286D01*
X76868415Y-102783640D01*
X78712060Y-102783640D01*
X78712060Y-101276150D01*
X78966060Y-101276150D01*
X78966060Y-102783640D01*
X80809705Y-102783640D01*
X80929059Y-102530286D01*
X89250941Y-102530286D01*
X89370295Y-102783640D01*
X91213940Y-102783640D01*
X91213940Y-101276150D01*
X91467940Y-101276150D01*
X91467940Y-102783640D01*
X93311585Y-102783640D01*
X93430939Y-102530286D01*
X93399993Y-102402481D01*
X93086882Y-101844684D01*
X92584145Y-101449169D01*
X91968320Y-101276150D01*
X91467940Y-101276150D01*
X91213940Y-101276150D01*
X90713560Y-101276150D01*
X90097735Y-101449169D01*
X89594998Y-101844684D01*
X89281887Y-102402481D01*
X89250941Y-102530286D01*
X80929059Y-102530286D01*
X80898113Y-102402481D01*
X80585002Y-101844684D01*
X80082265Y-101449169D01*
X79466440Y-101276150D01*
X78966060Y-101276150D01*
X78712060Y-101276150D01*
X78211680Y-101276150D01*
X77595855Y-101449169D01*
X77093118Y-101844684D01*
X76780007Y-102402481D01*
X76749061Y-102530286D01*
X64262000Y-102530286D01*
X64262000Y-101219481D01*
X65429777Y-101219481D01*
X65624995Y-101691943D01*
X65986155Y-102053735D01*
X66458276Y-102249777D01*
X66969481Y-102250223D01*
X67441943Y-102055005D01*
X67803735Y-101693845D01*
X67930000Y-101389765D01*
X67930000Y-101741310D01*
X68026673Y-101974699D01*
X68205302Y-102153327D01*
X68438691Y-102250000D01*
X68929250Y-102250000D01*
X69088000Y-102091250D01*
X69088000Y-101092000D01*
X69342000Y-101092000D01*
X69342000Y-102091250D01*
X69500750Y-102250000D01*
X69991309Y-102250000D01*
X70224698Y-102153327D01*
X70403327Y-101974699D01*
X70500000Y-101741310D01*
X70500000Y-101250750D01*
X70341250Y-101092000D01*
X69342000Y-101092000D01*
X69088000Y-101092000D01*
X69068000Y-101092000D01*
X69068000Y-100838000D01*
X69088000Y-100838000D01*
X69088000Y-99838750D01*
X69342000Y-99838750D01*
X69342000Y-100838000D01*
X70341250Y-100838000D01*
X70500000Y-100679250D01*
X70500000Y-100188690D01*
X70403327Y-99955301D01*
X70224698Y-99776673D01*
X69991309Y-99680000D01*
X69500750Y-99680000D01*
X69342000Y-99838750D01*
X69088000Y-99838750D01*
X68929250Y-99680000D01*
X68438691Y-99680000D01*
X68205302Y-99776673D01*
X68026673Y-99955301D01*
X67930000Y-100188690D01*
X67930000Y-100540567D01*
X67805005Y-100238057D01*
X67443845Y-99876265D01*
X66971724Y-99680223D01*
X66460519Y-99679777D01*
X65988057Y-99874995D01*
X65626265Y-100236155D01*
X65430223Y-100708276D01*
X65429777Y-101219481D01*
X64262000Y-101219481D01*
X64262000Y-99345750D01*
X94885000Y-99345750D01*
X94885000Y-100186309D01*
X94981673Y-100419698D01*
X95160301Y-100598327D01*
X95393690Y-100695000D01*
X96234250Y-100695000D01*
X96393000Y-100536250D01*
X96393000Y-99187000D01*
X95043750Y-99187000D01*
X94885000Y-99345750D01*
X64262000Y-99345750D01*
X64262000Y-97933691D01*
X94885000Y-97933691D01*
X94885000Y-98774250D01*
X95043750Y-98933000D01*
X96393000Y-98933000D01*
X96393000Y-97583750D01*
X96647000Y-97583750D01*
X96647000Y-98933000D01*
X96667000Y-98933000D01*
X96667000Y-99187000D01*
X96647000Y-99187000D01*
X96647000Y-100536250D01*
X96805750Y-100695000D01*
X97646310Y-100695000D01*
X97879699Y-100598327D01*
X98058327Y-100419698D01*
X98072630Y-100385166D01*
X98132637Y-100445278D01*
X98733352Y-100694716D01*
X99383795Y-100695284D01*
X99984943Y-100446894D01*
X100313805Y-100118607D01*
X101304115Y-101108917D01*
X101235794Y-101273453D01*
X101235226Y-101923694D01*
X101483538Y-102524655D01*
X101828480Y-102870199D01*
X101485154Y-103212927D01*
X101235794Y-103813453D01*
X101235226Y-104463694D01*
X101483538Y-105064655D01*
X101942927Y-105524846D01*
X102543453Y-105774206D01*
X103193694Y-105774774D01*
X103794655Y-105526462D01*
X104254846Y-105067073D01*
X104504206Y-104466547D01*
X104504774Y-103816306D01*
X104457418Y-103701694D01*
X124095226Y-103701694D01*
X124343538Y-104302655D01*
X124802927Y-104762846D01*
X125403453Y-105012206D01*
X126053694Y-105012774D01*
X126654655Y-104764462D01*
X127114846Y-104305073D01*
X127364206Y-103704547D01*
X127364208Y-103701694D01*
X131715226Y-103701694D01*
X131963538Y-104302655D01*
X132422927Y-104762846D01*
X133023453Y-105012206D01*
X133673694Y-105012774D01*
X134274655Y-104764462D01*
X134734846Y-104305073D01*
X134803390Y-104140000D01*
X135696887Y-104140000D01*
X135806120Y-104689151D01*
X136117189Y-105154698D01*
X136499275Y-105410000D01*
X136117189Y-105665302D01*
X135806120Y-106130849D01*
X135696887Y-106680000D01*
X135806120Y-107229151D01*
X136117189Y-107694698D01*
X136499275Y-107950000D01*
X136117189Y-108205302D01*
X135806120Y-108670849D01*
X135696887Y-109220000D01*
X135806120Y-109769151D01*
X136117189Y-110234698D01*
X136499275Y-110490000D01*
X136117189Y-110745302D01*
X135806120Y-111210849D01*
X135696887Y-111760000D01*
X135806120Y-112309151D01*
X136117189Y-112774698D01*
X136499275Y-113030000D01*
X136117189Y-113285302D01*
X135806120Y-113750849D01*
X135696887Y-114300000D01*
X135806120Y-114849151D01*
X136117189Y-115314698D01*
X136499275Y-115570000D01*
X136117189Y-115825302D01*
X135806120Y-116290849D01*
X135696887Y-116840000D01*
X135806120Y-117389151D01*
X136117189Y-117854698D01*
X136499275Y-118110000D01*
X136117189Y-118365302D01*
X135806120Y-118830849D01*
X135696887Y-119380000D01*
X135806120Y-119929151D01*
X136117189Y-120394698D01*
X136582736Y-120705767D01*
X137131887Y-120815000D01*
X137188113Y-120815000D01*
X137737264Y-120705767D01*
X138202811Y-120394698D01*
X138513880Y-119929151D01*
X138623113Y-119380000D01*
X138513880Y-118830849D01*
X138202811Y-118365302D01*
X137820725Y-118110000D01*
X138202811Y-117854698D01*
X138513880Y-117389151D01*
X138623113Y-116840000D01*
X138513880Y-116290849D01*
X138202811Y-115825302D01*
X137820725Y-115570000D01*
X138202811Y-115314698D01*
X138513880Y-114849151D01*
X138623113Y-114300000D01*
X143316887Y-114300000D01*
X143426120Y-114849151D01*
X143737189Y-115314698D01*
X144119275Y-115570000D01*
X143737189Y-115825302D01*
X143426120Y-116290849D01*
X143316887Y-116840000D01*
X143426120Y-117389151D01*
X143737189Y-117854698D01*
X144119275Y-118110000D01*
X143737189Y-118365302D01*
X143426120Y-118830849D01*
X143316887Y-119380000D01*
X143426120Y-119929151D01*
X143737189Y-120394698D01*
X144202736Y-120705767D01*
X144751887Y-120815000D01*
X144808113Y-120815000D01*
X145357264Y-120705767D01*
X145822811Y-120394698D01*
X146133880Y-119929151D01*
X146243113Y-119380000D01*
X146133880Y-118830849D01*
X145822811Y-118365302D01*
X145440725Y-118110000D01*
X145822811Y-117854698D01*
X146133880Y-117389151D01*
X146243113Y-116840000D01*
X146133880Y-116290849D01*
X145822811Y-115825302D01*
X145440725Y-115570000D01*
X145822811Y-115314698D01*
X146133880Y-114849151D01*
X146243113Y-114300000D01*
X146133880Y-113750849D01*
X145822811Y-113285302D01*
X145418297Y-113015014D01*
X145635134Y-112912389D01*
X146011041Y-112497423D01*
X146171904Y-112109039D01*
X146049915Y-111887000D01*
X144907000Y-111887000D01*
X144907000Y-111907000D01*
X144653000Y-111907000D01*
X144653000Y-111887000D01*
X143510085Y-111887000D01*
X143388096Y-112109039D01*
X143548959Y-112497423D01*
X143924866Y-112912389D01*
X144141703Y-113015014D01*
X143737189Y-113285302D01*
X143426120Y-113750849D01*
X143316887Y-114300000D01*
X138623113Y-114300000D01*
X138513880Y-113750849D01*
X138202811Y-113285302D01*
X137820725Y-113030000D01*
X138202811Y-112774698D01*
X138513880Y-112309151D01*
X138623113Y-111760000D01*
X138513880Y-111210849D01*
X138202811Y-110745302D01*
X137820725Y-110490000D01*
X138202811Y-110234698D01*
X138513880Y-109769151D01*
X138623113Y-109220000D01*
X138513880Y-108670849D01*
X138202811Y-108205302D01*
X137820725Y-107950000D01*
X138202811Y-107694698D01*
X138513880Y-107229151D01*
X138623113Y-106680000D01*
X138513880Y-106130849D01*
X138202811Y-105665302D01*
X137820725Y-105410000D01*
X138202811Y-105154698D01*
X138513880Y-104689151D01*
X138623113Y-104140000D01*
X138513880Y-103590849D01*
X138202811Y-103125302D01*
X137798297Y-102855014D01*
X138015134Y-102752389D01*
X138391041Y-102337423D01*
X138551904Y-101949039D01*
X138429915Y-101727000D01*
X137287000Y-101727000D01*
X137287000Y-101747000D01*
X137033000Y-101747000D01*
X137033000Y-101727000D01*
X135890085Y-101727000D01*
X135768096Y-101949039D01*
X135928959Y-102337423D01*
X136304866Y-102752389D01*
X136521703Y-102855014D01*
X136117189Y-103125302D01*
X135806120Y-103590849D01*
X135696887Y-104140000D01*
X134803390Y-104140000D01*
X134984206Y-103704547D01*
X134984774Y-103054306D01*
X134736462Y-102453345D01*
X134277073Y-101993154D01*
X133676547Y-101743794D01*
X133026306Y-101743226D01*
X132425345Y-101991538D01*
X131965154Y-102450927D01*
X131715794Y-103051453D01*
X131715226Y-103701694D01*
X127364208Y-103701694D01*
X127364774Y-103054306D01*
X127116462Y-102453345D01*
X126657073Y-101993154D01*
X126056547Y-101743794D01*
X125406306Y-101743226D01*
X124805345Y-101991538D01*
X124345154Y-102450927D01*
X124095794Y-103051453D01*
X124095226Y-103701694D01*
X104457418Y-103701694D01*
X104256462Y-103215345D01*
X103911520Y-102869801D01*
X104254846Y-102527073D01*
X104498738Y-101939714D01*
X107229061Y-101939714D01*
X107260007Y-102067519D01*
X107573118Y-102625316D01*
X108075855Y-103020831D01*
X108691680Y-103193850D01*
X109192060Y-103193850D01*
X109192060Y-101686360D01*
X109446060Y-101686360D01*
X109446060Y-103193850D01*
X109946440Y-103193850D01*
X110562265Y-103020831D01*
X111065002Y-102625316D01*
X111378113Y-102067519D01*
X111409059Y-101939714D01*
X119730941Y-101939714D01*
X119761887Y-102067519D01*
X120074998Y-102625316D01*
X120577735Y-103020831D01*
X121193560Y-103193850D01*
X121693940Y-103193850D01*
X121693940Y-101686360D01*
X121947940Y-101686360D01*
X121947940Y-103193850D01*
X122448320Y-103193850D01*
X123064145Y-103020831D01*
X123566882Y-102625316D01*
X123879993Y-102067519D01*
X123910939Y-101939714D01*
X123791585Y-101686360D01*
X121947940Y-101686360D01*
X121693940Y-101686360D01*
X119850295Y-101686360D01*
X119730941Y-101939714D01*
X111409059Y-101939714D01*
X111289705Y-101686360D01*
X109446060Y-101686360D01*
X109192060Y-101686360D01*
X107348415Y-101686360D01*
X107229061Y-101939714D01*
X104498738Y-101939714D01*
X104504206Y-101926547D01*
X104504491Y-101600000D01*
X143316887Y-101600000D01*
X143426120Y-102149151D01*
X143737189Y-102614698D01*
X144119275Y-102870000D01*
X143737189Y-103125302D01*
X143426120Y-103590849D01*
X143316887Y-104140000D01*
X143426120Y-104689151D01*
X143737189Y-105154698D01*
X144119275Y-105410000D01*
X143737189Y-105665302D01*
X143426120Y-106130849D01*
X143316887Y-106680000D01*
X143426120Y-107229151D01*
X143737189Y-107694698D01*
X144119275Y-107950000D01*
X143737189Y-108205302D01*
X143426120Y-108670849D01*
X143316887Y-109220000D01*
X143426120Y-109769151D01*
X143737189Y-110234698D01*
X144141703Y-110504986D01*
X143924866Y-110607611D01*
X143548959Y-111022577D01*
X143388096Y-111410961D01*
X143510085Y-111633000D01*
X144653000Y-111633000D01*
X144653000Y-111613000D01*
X144907000Y-111613000D01*
X144907000Y-111633000D01*
X146049915Y-111633000D01*
X146171904Y-111410961D01*
X146011041Y-111022577D01*
X145635134Y-110607611D01*
X145418297Y-110504986D01*
X145822811Y-110234698D01*
X146133880Y-109769151D01*
X146243113Y-109220000D01*
X146133880Y-108670849D01*
X145822811Y-108205302D01*
X145440725Y-107950000D01*
X145822811Y-107694698D01*
X146133880Y-107229151D01*
X146243113Y-106680000D01*
X146133880Y-106130849D01*
X145822811Y-105665302D01*
X145440725Y-105410000D01*
X145822811Y-105154698D01*
X146133880Y-104689151D01*
X146243113Y-104140000D01*
X146133880Y-103590849D01*
X145822811Y-103125302D01*
X145440725Y-102870000D01*
X145822811Y-102614698D01*
X146133880Y-102149151D01*
X146243113Y-101600000D01*
X146133880Y-101050849D01*
X145822811Y-100585302D01*
X145357264Y-100274233D01*
X144808113Y-100165000D01*
X144751887Y-100165000D01*
X144202736Y-100274233D01*
X143737189Y-100585302D01*
X143426120Y-101050849D01*
X143316887Y-101600000D01*
X104504491Y-101600000D01*
X104504774Y-101276306D01*
X104464571Y-101179006D01*
X107229061Y-101179006D01*
X107348415Y-101432360D01*
X109192060Y-101432360D01*
X109192060Y-99924870D01*
X109446060Y-99924870D01*
X109446060Y-101432360D01*
X111289705Y-101432360D01*
X111409059Y-101179006D01*
X119730941Y-101179006D01*
X119850295Y-101432360D01*
X121693940Y-101432360D01*
X121693940Y-99924870D01*
X121947940Y-99924870D01*
X121947940Y-101432360D01*
X123791585Y-101432360D01*
X123877041Y-101250961D01*
X135768096Y-101250961D01*
X135890085Y-101473000D01*
X137033000Y-101473000D01*
X137033000Y-100329371D01*
X137287000Y-100329371D01*
X137287000Y-101473000D01*
X138429915Y-101473000D01*
X138551904Y-101250961D01*
X138391041Y-100862577D01*
X138015134Y-100447611D01*
X137509041Y-100208086D01*
X137287000Y-100329371D01*
X137033000Y-100329371D01*
X136810959Y-100208086D01*
X136304866Y-100447611D01*
X135928959Y-100862577D01*
X135768096Y-101250961D01*
X123877041Y-101250961D01*
X123910939Y-101179006D01*
X123879993Y-101051201D01*
X123566882Y-100493404D01*
X123064145Y-100097889D01*
X122448320Y-99924870D01*
X121947940Y-99924870D01*
X121693940Y-99924870D01*
X121193560Y-99924870D01*
X120577735Y-100097889D01*
X120074998Y-100493404D01*
X119761887Y-101051201D01*
X119730941Y-101179006D01*
X111409059Y-101179006D01*
X111378113Y-101051201D01*
X111065002Y-100493404D01*
X110562265Y-100097889D01*
X109946440Y-99924870D01*
X109446060Y-99924870D01*
X109192060Y-99924870D01*
X108691680Y-99924870D01*
X108075855Y-100097889D01*
X107573118Y-100493404D01*
X107260007Y-101051201D01*
X107229061Y-101179006D01*
X104464571Y-101179006D01*
X104256462Y-100675345D01*
X103797073Y-100215154D01*
X103196547Y-99965794D01*
X102546306Y-99965226D01*
X102379111Y-100034309D01*
X101690552Y-99345750D01*
X129683000Y-99345750D01*
X129683000Y-100186309D01*
X129779673Y-100419698D01*
X129958301Y-100598327D01*
X130191690Y-100695000D01*
X131032250Y-100695000D01*
X131191000Y-100536250D01*
X131191000Y-99187000D01*
X129841750Y-99187000D01*
X129683000Y-99345750D01*
X101690552Y-99345750D01*
X100867401Y-98522599D01*
X100620839Y-98357852D01*
X100531618Y-98340105D01*
X100446894Y-98135057D01*
X99987363Y-97674722D01*
X99386648Y-97425284D01*
X98736205Y-97424716D01*
X98135057Y-97673106D01*
X98072803Y-97735251D01*
X98058327Y-97700302D01*
X97879699Y-97521673D01*
X97646310Y-97425000D01*
X96805750Y-97425000D01*
X96647000Y-97583750D01*
X96393000Y-97583750D01*
X96234250Y-97425000D01*
X95393690Y-97425000D01*
X95160301Y-97521673D01*
X94981673Y-97700302D01*
X94885000Y-97933691D01*
X64262000Y-97933691D01*
X64262000Y-95302606D01*
X64587693Y-94976913D01*
X65189816Y-94976913D01*
X65383046Y-95529320D01*
X65772964Y-95965732D01*
X66300209Y-96219709D01*
X66315974Y-96222358D01*
X66548000Y-96101217D01*
X66548000Y-94742000D01*
X65334076Y-94742000D01*
X65189816Y-94976913D01*
X64587693Y-94976913D01*
X65236119Y-94328487D01*
X65334076Y-94488000D01*
X66548000Y-94488000D01*
X66548000Y-93128783D01*
X66802000Y-93128783D01*
X66802000Y-94488000D01*
X66822000Y-94488000D01*
X66822000Y-94742000D01*
X66802000Y-94742000D01*
X66802000Y-96101217D01*
X67034026Y-96222358D01*
X67049791Y-96219709D01*
X67577036Y-95965732D01*
X67948539Y-95549931D01*
X68155330Y-95859415D01*
X68641511Y-96184271D01*
X69215000Y-96298345D01*
X69788489Y-96184271D01*
X70274670Y-95859415D01*
X70485000Y-95544634D01*
X70695330Y-95859415D01*
X71181511Y-96184271D01*
X71755000Y-96298345D01*
X72328489Y-96184271D01*
X72814670Y-95859415D01*
X73025000Y-95544634D01*
X73235330Y-95859415D01*
X73721511Y-96184271D01*
X74295000Y-96298345D01*
X74868489Y-96184271D01*
X75354670Y-95859415D01*
X75364243Y-95845087D01*
X75368238Y-95866317D01*
X75507310Y-96082441D01*
X75719510Y-96227431D01*
X75971400Y-96278440D01*
X77698600Y-96278440D01*
X77933917Y-96234162D01*
X78150041Y-96095090D01*
X78295031Y-95882890D01*
X78333561Y-95692619D01*
X82219613Y-95692619D01*
X82559155Y-96514372D01*
X83187321Y-97143636D01*
X84008481Y-97484611D01*
X84897619Y-97485387D01*
X85719372Y-97145845D01*
X86305599Y-96560640D01*
X107142365Y-96560640D01*
X107266783Y-97186132D01*
X107621096Y-97716399D01*
X108151363Y-98070712D01*
X108776855Y-98195130D01*
X109861265Y-98195130D01*
X110486757Y-98070712D01*
X111017024Y-97716399D01*
X111371337Y-97186132D01*
X111495755Y-96560640D01*
X119644245Y-96560640D01*
X119768663Y-97186132D01*
X120122976Y-97716399D01*
X120653243Y-98070712D01*
X121278735Y-98195130D01*
X122363145Y-98195130D01*
X122988637Y-98070712D01*
X123193703Y-97933691D01*
X129683000Y-97933691D01*
X129683000Y-98774250D01*
X129841750Y-98933000D01*
X131191000Y-98933000D01*
X131191000Y-97583750D01*
X131445000Y-97583750D01*
X131445000Y-98933000D01*
X131465000Y-98933000D01*
X131465000Y-99187000D01*
X131445000Y-99187000D01*
X131445000Y-100536250D01*
X131603750Y-100695000D01*
X132444310Y-100695000D01*
X132677699Y-100598327D01*
X132856327Y-100419698D01*
X132870630Y-100385166D01*
X132930637Y-100445278D01*
X133531352Y-100694716D01*
X134181795Y-100695284D01*
X134782943Y-100446894D01*
X135243278Y-99987363D01*
X135492716Y-99386648D01*
X135493284Y-98736205D01*
X135244894Y-98135057D01*
X134785363Y-97674722D01*
X134184648Y-97425284D01*
X133534205Y-97424716D01*
X132933057Y-97673106D01*
X132870803Y-97735251D01*
X132856327Y-97700302D01*
X132677699Y-97521673D01*
X132444310Y-97425000D01*
X131603750Y-97425000D01*
X131445000Y-97583750D01*
X131191000Y-97583750D01*
X131032250Y-97425000D01*
X130191690Y-97425000D01*
X129958301Y-97521673D01*
X129779673Y-97700302D01*
X129683000Y-97933691D01*
X123193703Y-97933691D01*
X123518904Y-97716399D01*
X123873217Y-97186132D01*
X123997635Y-96560640D01*
X123873217Y-95935148D01*
X123711165Y-95692619D01*
X137464613Y-95692619D01*
X137804155Y-96514372D01*
X138432321Y-97143636D01*
X139253481Y-97484611D01*
X140142619Y-97485387D01*
X140964372Y-97145845D01*
X141593636Y-96517679D01*
X141934611Y-95696519D01*
X141935387Y-94807381D01*
X141595845Y-93985628D01*
X140967679Y-93356364D01*
X140146519Y-93015389D01*
X139257381Y-93014613D01*
X138435628Y-93354155D01*
X137806364Y-93982321D01*
X137465389Y-94803481D01*
X137464613Y-95692619D01*
X123711165Y-95692619D01*
X123518904Y-95404881D01*
X122988637Y-95050568D01*
X122363145Y-94926150D01*
X121278735Y-94926150D01*
X120653243Y-95050568D01*
X120122976Y-95404881D01*
X119768663Y-95935148D01*
X119644245Y-96560640D01*
X111495755Y-96560640D01*
X111371337Y-95935148D01*
X111017024Y-95404881D01*
X110486757Y-95050568D01*
X109861265Y-94926150D01*
X108776855Y-94926150D01*
X108151363Y-95050568D01*
X107621096Y-95404881D01*
X107266783Y-95935148D01*
X107142365Y-96560640D01*
X86305599Y-96560640D01*
X86348636Y-96517679D01*
X86689611Y-95696519D01*
X86690387Y-94807381D01*
X86482268Y-94303694D01*
X101235226Y-94303694D01*
X101483538Y-94904655D01*
X101942927Y-95364846D01*
X102543453Y-95614206D01*
X103193694Y-95614774D01*
X103794655Y-95366462D01*
X104254846Y-94907073D01*
X104504206Y-94306547D01*
X104504208Y-94303694D01*
X125365226Y-94303694D01*
X125613538Y-94904655D01*
X126072927Y-95364846D01*
X126673453Y-95614206D01*
X127323694Y-95614774D01*
X127924655Y-95366462D01*
X128384846Y-94907073D01*
X128634206Y-94306547D01*
X128634208Y-94303694D01*
X132985226Y-94303694D01*
X133233538Y-94904655D01*
X133692927Y-95364846D01*
X134293453Y-95614206D01*
X134943694Y-95614774D01*
X135544655Y-95366462D01*
X136004846Y-94907073D01*
X136254206Y-94306547D01*
X136254774Y-93656306D01*
X136006462Y-93055345D01*
X135547073Y-92595154D01*
X134946547Y-92345794D01*
X134296306Y-92345226D01*
X133695345Y-92593538D01*
X133235154Y-93052927D01*
X132985794Y-93653453D01*
X132985226Y-94303694D01*
X128634208Y-94303694D01*
X128634774Y-93656306D01*
X128386462Y-93055345D01*
X127927073Y-92595154D01*
X127326547Y-92345794D01*
X126676306Y-92345226D01*
X126075345Y-92593538D01*
X125615154Y-93052927D01*
X125365794Y-93653453D01*
X125365226Y-94303694D01*
X104504208Y-94303694D01*
X104504774Y-93656306D01*
X104256462Y-93055345D01*
X103797073Y-92595154D01*
X103196547Y-92345794D01*
X102546306Y-92345226D01*
X101945345Y-92593538D01*
X101485154Y-93052927D01*
X101235794Y-93653453D01*
X101235226Y-94303694D01*
X86482268Y-94303694D01*
X86350845Y-93985628D01*
X85722679Y-93356364D01*
X84901519Y-93015389D01*
X84012381Y-93014613D01*
X83190628Y-93354155D01*
X82561364Y-93982321D01*
X82220389Y-94803481D01*
X82219613Y-95692619D01*
X78333561Y-95692619D01*
X78346040Y-95631000D01*
X78346040Y-93599000D01*
X78301762Y-93363683D01*
X78162690Y-93147559D01*
X77950490Y-93002569D01*
X77698600Y-92951560D01*
X75971400Y-92951560D01*
X75736083Y-92995838D01*
X75519959Y-93134910D01*
X75374969Y-93347110D01*
X75366600Y-93388439D01*
X75354670Y-93370585D01*
X74868489Y-93045729D01*
X74295000Y-92931655D01*
X73721511Y-93045729D01*
X73235330Y-93370585D01*
X73025000Y-93685366D01*
X72814670Y-93370585D01*
X72328489Y-93045729D01*
X71755000Y-92931655D01*
X71181511Y-93045729D01*
X70695330Y-93370585D01*
X70485000Y-93685366D01*
X70274670Y-93370585D01*
X69788489Y-93045729D01*
X69215000Y-92931655D01*
X68641511Y-93045729D01*
X68155330Y-93370585D01*
X67948539Y-93680069D01*
X67577036Y-93264268D01*
X67049791Y-93010291D01*
X67034026Y-93007642D01*
X66802000Y-93128783D01*
X66548000Y-93128783D01*
X66474301Y-93090305D01*
X67362606Y-92202000D01*
X143457394Y-92202000D01*
X146558000Y-95302606D01*
X146558000Y-95302606D01*
G37*
X146558000Y-95302606D02*
X146558000Y-128217394D01*
X143457394Y-131318000D01*
X135707637Y-131318000D01*
X135911954Y-131089320D01*
X136105184Y-130536913D01*
X135960924Y-130302000D01*
X134747000Y-130302000D01*
X134747000Y-130322000D01*
X134493000Y-130322000D01*
X134493000Y-130302000D01*
X134473000Y-130302000D01*
X134473000Y-130048000D01*
X134493000Y-130048000D01*
X134493000Y-128688783D01*
X134747000Y-128688783D01*
X134747000Y-130048000D01*
X135960924Y-130048000D01*
X136105184Y-129813087D01*
X135911954Y-129260680D01*
X135522036Y-128824268D01*
X135290258Y-128712619D01*
X137464613Y-128712619D01*
X137804155Y-129534372D01*
X138432321Y-130163636D01*
X139253481Y-130504611D01*
X140142619Y-130505387D01*
X140964372Y-130165845D01*
X141593636Y-129537679D01*
X141934611Y-128716519D01*
X141935387Y-127827381D01*
X141595845Y-127005628D01*
X140967679Y-126376364D01*
X140146519Y-126035389D01*
X139257381Y-126034613D01*
X138435628Y-126374155D01*
X137806364Y-127002321D01*
X137465389Y-127823481D01*
X137464613Y-128712619D01*
X135290258Y-128712619D01*
X134994791Y-128570291D01*
X134979026Y-128567642D01*
X134747000Y-128688783D01*
X134493000Y-128688783D01*
X134260974Y-128567642D01*
X134245209Y-128570291D01*
X133717964Y-128824268D01*
X133346461Y-129240069D01*
X133139670Y-128930585D01*
X132653489Y-128605729D01*
X132080000Y-128491655D01*
X131506511Y-128605729D01*
X131020330Y-128930585D01*
X130810000Y-129245366D01*
X130599670Y-128930585D01*
X130113489Y-128605729D01*
X129616025Y-128506777D01*
X130949680Y-127173122D01*
X130995167Y-127173162D01*
X131338943Y-127031117D01*
X131602192Y-126768327D01*
X131744838Y-126424799D01*
X131745125Y-126095000D01*
X132444310Y-126095000D01*
X132677699Y-125998327D01*
X132856327Y-125819698D01*
X132870630Y-125785166D01*
X132930637Y-125845278D01*
X133531352Y-126094716D01*
X134181795Y-126095284D01*
X134782943Y-125846894D01*
X135243278Y-125387363D01*
X135492716Y-124786648D01*
X135493284Y-124136205D01*
X135244894Y-123535057D01*
X135185691Y-123475750D01*
X140955000Y-123475750D01*
X140955000Y-123966310D01*
X141051673Y-124199699D01*
X141230302Y-124378327D01*
X141463691Y-124475000D01*
X141954250Y-124475000D01*
X142113000Y-124316250D01*
X142113000Y-123317000D01*
X141113750Y-123317000D01*
X140955000Y-123475750D01*
X135185691Y-123475750D01*
X134785363Y-123074722D01*
X134184648Y-122825284D01*
X133534205Y-122824716D01*
X132933057Y-123073106D01*
X132870803Y-123135251D01*
X132856327Y-123100302D01*
X132677699Y-122921673D01*
X132444310Y-122825000D01*
X131603750Y-122825000D01*
X131445000Y-122983750D01*
X131445000Y-124333000D01*
X131465000Y-124333000D01*
X131465000Y-124587000D01*
X131445000Y-124587000D01*
X131445000Y-124607000D01*
X131191000Y-124607000D01*
X131191000Y-124587000D01*
X129841750Y-124587000D01*
X129683000Y-124745750D01*
X129683000Y-125586309D01*
X129779673Y-125819698D01*
X129915069Y-125955095D01*
X129875162Y-126051201D01*
X129875121Y-126098077D01*
X127401650Y-128571548D01*
X127000000Y-128491655D01*
X126426511Y-128605729D01*
X125940330Y-128930585D01*
X125930757Y-128944913D01*
X125926762Y-128923683D01*
X125787690Y-128707559D01*
X125575490Y-128562569D01*
X125323600Y-128511560D01*
X123596400Y-128511560D01*
X123361083Y-128555838D01*
X123144959Y-128694910D01*
X122999969Y-128907110D01*
X122948960Y-129159000D01*
X122948960Y-131191000D01*
X122972857Y-131318000D01*
X75013788Y-131318000D01*
X75346655Y-131180462D01*
X75806846Y-130721073D01*
X76056206Y-130120547D01*
X76056774Y-129470306D01*
X75808462Y-128869345D01*
X75652010Y-128712619D01*
X82219613Y-128712619D01*
X82559155Y-129534372D01*
X83187321Y-130163636D01*
X84008481Y-130504611D01*
X84897619Y-130505387D01*
X85719372Y-130165845D01*
X86348636Y-129537679D01*
X86689611Y-128716519D01*
X86689779Y-128524000D01*
X89293960Y-128524000D01*
X89293960Y-130556000D01*
X89338238Y-130791317D01*
X89477310Y-131007441D01*
X89689510Y-131152431D01*
X89941400Y-131203440D01*
X91668600Y-131203440D01*
X91903917Y-131159162D01*
X92120041Y-131020090D01*
X92265031Y-130807890D01*
X92273400Y-130766561D01*
X92285330Y-130784415D01*
X92771511Y-131109271D01*
X93345000Y-131223345D01*
X93918489Y-131109271D01*
X94404670Y-130784415D01*
X94615000Y-130469634D01*
X94825330Y-130784415D01*
X95311511Y-131109271D01*
X95885000Y-131223345D01*
X96458489Y-131109271D01*
X96944670Y-130784415D01*
X97155000Y-130469634D01*
X97365330Y-130784415D01*
X97851511Y-131109271D01*
X98425000Y-131223345D01*
X98998489Y-131109271D01*
X99484670Y-130784415D01*
X99695000Y-130469634D01*
X99905330Y-130784415D01*
X100391511Y-131109271D01*
X100965000Y-131223345D01*
X101538489Y-131109271D01*
X102024670Y-130784415D01*
X102349526Y-130298234D01*
X102435961Y-129863694D01*
X103775226Y-129863694D01*
X104023538Y-130464655D01*
X104482927Y-130924846D01*
X105083453Y-131174206D01*
X105733694Y-131174774D01*
X106334655Y-130926462D01*
X106794846Y-130467073D01*
X107044206Y-129866547D01*
X107044774Y-129216306D01*
X106796462Y-128615345D01*
X106337073Y-128155154D01*
X105736547Y-127905794D01*
X105086306Y-127905226D01*
X104485345Y-128153538D01*
X104025154Y-128612927D01*
X103775794Y-129213453D01*
X103775226Y-129863694D01*
X102435961Y-129863694D01*
X102463600Y-129724745D01*
X102463600Y-129355255D01*
X102349526Y-128781766D01*
X102024670Y-128295585D01*
X101538489Y-127970729D01*
X100965000Y-127856655D01*
X100391511Y-127970729D01*
X99905330Y-128295585D01*
X99695000Y-128610366D01*
X99484670Y-128295585D01*
X98998489Y-127970729D01*
X98425000Y-127856655D01*
X97851511Y-127970729D01*
X97365330Y-128295585D01*
X97155000Y-128610366D01*
X96944670Y-128295585D01*
X96458489Y-127970729D01*
X95885000Y-127856655D01*
X95311511Y-127970729D01*
X94825330Y-128295585D01*
X94615000Y-128610366D01*
X94404670Y-128295585D01*
X93918489Y-127970729D01*
X93345000Y-127856655D01*
X92771511Y-127970729D01*
X92285330Y-128295585D01*
X92275757Y-128309913D01*
X92271762Y-128288683D01*
X92132690Y-128072559D01*
X91920490Y-127927569D01*
X91668600Y-127876560D01*
X89941400Y-127876560D01*
X89706083Y-127920838D01*
X89489959Y-128059910D01*
X89344969Y-128272110D01*
X89293960Y-128524000D01*
X86689779Y-128524000D01*
X86690387Y-127827381D01*
X86488887Y-127339714D01*
X107229061Y-127339714D01*
X107260007Y-127467519D01*
X107573118Y-128025316D01*
X108075855Y-128420831D01*
X108691680Y-128593850D01*
X109192060Y-128593850D01*
X109192060Y-127086360D01*
X109446060Y-127086360D01*
X109446060Y-128593850D01*
X109946440Y-128593850D01*
X110562265Y-128420831D01*
X111065002Y-128025316D01*
X111378113Y-127467519D01*
X111409059Y-127339714D01*
X119730941Y-127339714D01*
X119761887Y-127467519D01*
X120074998Y-128025316D01*
X120577735Y-128420831D01*
X121193560Y-128593850D01*
X121693940Y-128593850D01*
X121693940Y-127086360D01*
X121947940Y-127086360D01*
X121947940Y-128593850D01*
X122448320Y-128593850D01*
X123064145Y-128420831D01*
X123566882Y-128025316D01*
X123879993Y-127467519D01*
X123910939Y-127339714D01*
X123791585Y-127086360D01*
X121947940Y-127086360D01*
X121693940Y-127086360D01*
X119850295Y-127086360D01*
X119730941Y-127339714D01*
X111409059Y-127339714D01*
X111289705Y-127086360D01*
X109446060Y-127086360D01*
X109192060Y-127086360D01*
X107348415Y-127086360D01*
X107229061Y-127339714D01*
X86488887Y-127339714D01*
X86350845Y-127005628D01*
X85924968Y-126579006D01*
X107229061Y-126579006D01*
X107348415Y-126832360D01*
X109192060Y-126832360D01*
X109192060Y-125324870D01*
X109446060Y-125324870D01*
X109446060Y-126832360D01*
X111289705Y-126832360D01*
X111409059Y-126579006D01*
X119730941Y-126579006D01*
X119850295Y-126832360D01*
X121693940Y-126832360D01*
X121693940Y-125324870D01*
X121947940Y-125324870D01*
X121947940Y-126832360D01*
X123791585Y-126832360D01*
X123910939Y-126579006D01*
X123879993Y-126451201D01*
X123566882Y-125893404D01*
X123064145Y-125497889D01*
X122448320Y-125324870D01*
X121947940Y-125324870D01*
X121693940Y-125324870D01*
X121193560Y-125324870D01*
X120577735Y-125497889D01*
X120074998Y-125893404D01*
X119761887Y-126451201D01*
X119730941Y-126579006D01*
X111409059Y-126579006D01*
X111378113Y-126451201D01*
X111065002Y-125893404D01*
X110562265Y-125497889D01*
X109946440Y-125324870D01*
X109446060Y-125324870D01*
X109192060Y-125324870D01*
X108691680Y-125324870D01*
X108075855Y-125497889D01*
X107573118Y-125893404D01*
X107260007Y-126451201D01*
X107229061Y-126579006D01*
X85924968Y-126579006D01*
X85722679Y-126376364D01*
X84901519Y-126035389D01*
X84012381Y-126034613D01*
X83190628Y-126374155D01*
X82561364Y-127002321D01*
X82220389Y-127823481D01*
X82219613Y-128712619D01*
X75652010Y-128712619D01*
X75349073Y-128409154D01*
X75013870Y-128269966D01*
X75346655Y-128132462D01*
X75806846Y-127673073D01*
X76056206Y-127072547D01*
X76056774Y-126422306D01*
X75808462Y-125821345D01*
X75349073Y-125361154D01*
X74748547Y-125111794D01*
X74098306Y-125111226D01*
X73497345Y-125359538D01*
X73037154Y-125818927D01*
X72896000Y-126158864D01*
X72896000Y-124745750D01*
X94885000Y-124745750D01*
X94885000Y-125586309D01*
X94981673Y-125819698D01*
X95160301Y-125998327D01*
X95393690Y-126095000D01*
X96234250Y-126095000D01*
X96393000Y-125936250D01*
X96393000Y-124587000D01*
X95043750Y-124587000D01*
X94885000Y-124745750D01*
X72896000Y-124745750D01*
X72896000Y-122682002D01*
X73025084Y-122682002D01*
X72903096Y-122904039D01*
X73063959Y-123292423D01*
X73439866Y-123707389D01*
X73945959Y-123946914D01*
X74168000Y-123825629D01*
X74168000Y-122682000D01*
X74422000Y-122682000D01*
X74422000Y-123825629D01*
X74644041Y-123946914D01*
X75150134Y-123707389D01*
X75488657Y-123333691D01*
X94885000Y-123333691D01*
X94885000Y-124174250D01*
X95043750Y-124333000D01*
X96393000Y-124333000D01*
X96393000Y-122983750D01*
X96647000Y-122983750D01*
X96647000Y-124333000D01*
X96667000Y-124333000D01*
X96667000Y-124587000D01*
X96647000Y-124587000D01*
X96647000Y-125936250D01*
X96805750Y-126095000D01*
X97646310Y-126095000D01*
X97879699Y-125998327D01*
X98058327Y-125819698D01*
X98072630Y-125785166D01*
X98132637Y-125845278D01*
X98733352Y-126094716D01*
X99383795Y-126095284D01*
X99984943Y-125846894D01*
X100445278Y-125387363D01*
X100514773Y-125220000D01*
X102870000Y-125220000D01*
X103160839Y-125162148D01*
X103407401Y-124997401D01*
X104918917Y-123485885D01*
X105083453Y-123554206D01*
X105733694Y-123554774D01*
X106334655Y-123306462D01*
X106794846Y-122847073D01*
X107044206Y-122246547D01*
X107044455Y-121960640D01*
X107142365Y-121960640D01*
X107266783Y-122586132D01*
X107621096Y-123116399D01*
X108151363Y-123470712D01*
X108776855Y-123595130D01*
X109861265Y-123595130D01*
X110486757Y-123470712D01*
X111017024Y-123116399D01*
X111371337Y-122586132D01*
X111495755Y-121960640D01*
X119644245Y-121960640D01*
X119768663Y-122586132D01*
X120122976Y-123116399D01*
X120653243Y-123470712D01*
X121278735Y-123595130D01*
X122363145Y-123595130D01*
X122988637Y-123470712D01*
X123193703Y-123333691D01*
X129683000Y-123333691D01*
X129683000Y-124174250D01*
X129841750Y-124333000D01*
X131191000Y-124333000D01*
X131191000Y-122983750D01*
X131032250Y-122825000D01*
X130191690Y-122825000D01*
X129958301Y-122921673D01*
X129779673Y-123100302D01*
X129683000Y-123333691D01*
X123193703Y-123333691D01*
X123518904Y-123116399D01*
X123873217Y-122586132D01*
X123907517Y-122413690D01*
X140955000Y-122413690D01*
X140955000Y-122904250D01*
X141113750Y-123063000D01*
X142113000Y-123063000D01*
X142113000Y-122063750D01*
X142367000Y-122063750D01*
X142367000Y-123063000D01*
X142387000Y-123063000D01*
X142387000Y-123317000D01*
X142367000Y-123317000D01*
X142367000Y-124316250D01*
X142525750Y-124475000D01*
X143016309Y-124475000D01*
X143249698Y-124378327D01*
X143428327Y-124199699D01*
X143525000Y-123966310D01*
X143525000Y-123614433D01*
X143649995Y-123916943D01*
X144011155Y-124278735D01*
X144483276Y-124474777D01*
X144994481Y-124475223D01*
X145466943Y-124280005D01*
X145828735Y-123918845D01*
X146024777Y-123446724D01*
X146025223Y-122935519D01*
X145830005Y-122463057D01*
X145468845Y-122101265D01*
X144996724Y-121905223D01*
X144485519Y-121904777D01*
X144013057Y-122099995D01*
X143651265Y-122461155D01*
X143525000Y-122765235D01*
X143525000Y-122413690D01*
X143428327Y-122180301D01*
X143249698Y-122001673D01*
X143016309Y-121905000D01*
X142525750Y-121905000D01*
X142367000Y-122063750D01*
X142113000Y-122063750D01*
X141954250Y-121905000D01*
X141463691Y-121905000D01*
X141230302Y-122001673D01*
X141051673Y-122180301D01*
X140955000Y-122413690D01*
X123907517Y-122413690D01*
X123997635Y-121960640D01*
X123873217Y-121335148D01*
X123518904Y-120804881D01*
X122988637Y-120450568D01*
X122363145Y-120326150D01*
X121278735Y-120326150D01*
X120653243Y-120450568D01*
X120122976Y-120804881D01*
X119768663Y-121335148D01*
X119644245Y-121960640D01*
X111495755Y-121960640D01*
X111371337Y-121335148D01*
X111017024Y-120804881D01*
X110486757Y-120450568D01*
X109861265Y-120326150D01*
X108776855Y-120326150D01*
X108151363Y-120450568D01*
X107621096Y-120804881D01*
X107266783Y-121335148D01*
X107142365Y-121960640D01*
X107044455Y-121960640D01*
X107044774Y-121596306D01*
X106796462Y-120995345D01*
X106337073Y-120535154D01*
X105736547Y-120285794D01*
X105086306Y-120285226D01*
X104485345Y-120533538D01*
X104139801Y-120878480D01*
X103797073Y-120535154D01*
X103196547Y-120285794D01*
X102546306Y-120285226D01*
X101945345Y-120533538D01*
X101485154Y-120992927D01*
X101235794Y-121593453D01*
X101235226Y-122243694D01*
X101483538Y-122844655D01*
X101942927Y-123304846D01*
X102543453Y-123554206D01*
X102700855Y-123554343D01*
X102555198Y-123700000D01*
X100515047Y-123700000D01*
X100446894Y-123535057D01*
X99987363Y-123074722D01*
X99386648Y-122825284D01*
X98736205Y-122824716D01*
X98135057Y-123073106D01*
X98072803Y-123135251D01*
X98058327Y-123100302D01*
X97879699Y-122921673D01*
X97646310Y-122825000D01*
X96805750Y-122825000D01*
X96647000Y-122983750D01*
X96393000Y-122983750D01*
X96234250Y-122825000D01*
X95393690Y-122825000D01*
X95160301Y-122921673D01*
X94981673Y-123100302D01*
X94885000Y-123333691D01*
X75488657Y-123333691D01*
X75526041Y-123292423D01*
X75686904Y-122904039D01*
X75564915Y-122682000D01*
X74422000Y-122682000D01*
X74168000Y-122682000D01*
X74148000Y-122682000D01*
X74148000Y-122428000D01*
X74168000Y-122428000D01*
X74168000Y-122408000D01*
X74422000Y-122408000D01*
X74422000Y-122428000D01*
X75564915Y-122428000D01*
X75686904Y-122205961D01*
X75526041Y-121817577D01*
X75150134Y-121402611D01*
X74933297Y-121299986D01*
X75337811Y-121029698D01*
X75364527Y-120989714D01*
X76749061Y-120989714D01*
X76780007Y-121117519D01*
X77093118Y-121675316D01*
X77595855Y-122070831D01*
X78211680Y-122243850D01*
X78712060Y-122243850D01*
X78712060Y-120736360D01*
X78966060Y-120736360D01*
X78966060Y-122243850D01*
X79466440Y-122243850D01*
X80082265Y-122070831D01*
X80585002Y-121675316D01*
X80898113Y-121117519D01*
X80929059Y-120989714D01*
X89250941Y-120989714D01*
X89281887Y-121117519D01*
X89594998Y-121675316D01*
X90097735Y-122070831D01*
X90713560Y-122243850D01*
X91213940Y-122243850D01*
X91213940Y-120736360D01*
X91467940Y-120736360D01*
X91467940Y-122243850D01*
X91968320Y-122243850D01*
X92584145Y-122070831D01*
X93086882Y-121675316D01*
X93399993Y-121117519D01*
X93430939Y-120989714D01*
X93311585Y-120736360D01*
X91467940Y-120736360D01*
X91213940Y-120736360D01*
X89370295Y-120736360D01*
X89250941Y-120989714D01*
X80929059Y-120989714D01*
X80809705Y-120736360D01*
X78966060Y-120736360D01*
X78712060Y-120736360D01*
X76868415Y-120736360D01*
X76749061Y-120989714D01*
X75364527Y-120989714D01*
X75648880Y-120564151D01*
X75715544Y-120229006D01*
X76749061Y-120229006D01*
X76868415Y-120482360D01*
X78712060Y-120482360D01*
X78712060Y-118974870D01*
X78966060Y-118974870D01*
X78966060Y-120482360D01*
X80809705Y-120482360D01*
X80929059Y-120229006D01*
X89250941Y-120229006D01*
X89370295Y-120482360D01*
X91213940Y-120482360D01*
X91213940Y-118974870D01*
X91467940Y-118974870D01*
X91467940Y-120482360D01*
X93311585Y-120482360D01*
X93430939Y-120229006D01*
X93399993Y-120101201D01*
X93086882Y-119543404D01*
X92584145Y-119147889D01*
X91968320Y-118974870D01*
X91467940Y-118974870D01*
X91213940Y-118974870D01*
X90713560Y-118974870D01*
X90097735Y-119147889D01*
X89594998Y-119543404D01*
X89281887Y-120101201D01*
X89250941Y-120229006D01*
X80929059Y-120229006D01*
X80898113Y-120101201D01*
X80585002Y-119543404D01*
X80082265Y-119147889D01*
X79466440Y-118974870D01*
X78966060Y-118974870D01*
X78712060Y-118974870D01*
X78211680Y-118974870D01*
X77595855Y-119147889D01*
X77093118Y-119543404D01*
X76780007Y-120101201D01*
X76749061Y-120229006D01*
X75715544Y-120229006D01*
X75758113Y-120015000D01*
X75648880Y-119465849D01*
X75337811Y-119000302D01*
X74955725Y-118745000D01*
X75337811Y-118489698D01*
X75648880Y-118024151D01*
X75758113Y-117475000D01*
X75648880Y-116925849D01*
X75337811Y-116460302D01*
X74955725Y-116205000D01*
X75337811Y-115949698D01*
X75564362Y-115610640D01*
X76662365Y-115610640D01*
X76786783Y-116236132D01*
X77141096Y-116766399D01*
X77671363Y-117120712D01*
X78296855Y-117245130D01*
X79381265Y-117245130D01*
X80006757Y-117120712D01*
X80537024Y-116766399D01*
X80891337Y-116236132D01*
X81015755Y-115610640D01*
X89164245Y-115610640D01*
X89288663Y-116236132D01*
X89642976Y-116766399D01*
X90173243Y-117120712D01*
X90798735Y-117245130D01*
X91883145Y-117245130D01*
X92508637Y-117120712D01*
X93038904Y-116766399D01*
X93307945Y-116363750D01*
X94885000Y-116363750D01*
X94885000Y-117204309D01*
X94981673Y-117437698D01*
X95160301Y-117616327D01*
X95393690Y-117713000D01*
X96234250Y-117713000D01*
X96393000Y-117554250D01*
X96393000Y-116205000D01*
X95043750Y-116205000D01*
X94885000Y-116363750D01*
X93307945Y-116363750D01*
X93393217Y-116236132D01*
X93517635Y-115610640D01*
X93393217Y-114985148D01*
X93370862Y-114951691D01*
X94885000Y-114951691D01*
X94885000Y-115792250D01*
X95043750Y-115951000D01*
X96393000Y-115951000D01*
X96393000Y-114601750D01*
X96647000Y-114601750D01*
X96647000Y-115951000D01*
X96667000Y-115951000D01*
X96667000Y-116205000D01*
X96647000Y-116205000D01*
X96647000Y-117554250D01*
X96805750Y-117713000D01*
X97646310Y-117713000D01*
X97879699Y-117616327D01*
X98058327Y-117437698D01*
X98072630Y-117403166D01*
X98132637Y-117463278D01*
X98733352Y-117712716D01*
X99383795Y-117713284D01*
X99984943Y-117464894D01*
X100286669Y-117163694D01*
X123841226Y-117163694D01*
X124089538Y-117764655D01*
X124548927Y-118224846D01*
X125149453Y-118474206D01*
X125799694Y-118474774D01*
X126400655Y-118226462D01*
X126860846Y-117767073D01*
X127110206Y-117166547D01*
X127110208Y-117163694D01*
X131461226Y-117163694D01*
X131709538Y-117764655D01*
X132168927Y-118224846D01*
X132769453Y-118474206D01*
X133419694Y-118474774D01*
X134020655Y-118226462D01*
X134480846Y-117767073D01*
X134730206Y-117166547D01*
X134730774Y-116516306D01*
X134482462Y-115915345D01*
X134023073Y-115455154D01*
X133422547Y-115205794D01*
X132772306Y-115205226D01*
X132171345Y-115453538D01*
X131711154Y-115912927D01*
X131461794Y-116513453D01*
X131461226Y-117163694D01*
X127110208Y-117163694D01*
X127110774Y-116516306D01*
X126862462Y-115915345D01*
X126403073Y-115455154D01*
X125802547Y-115205794D01*
X125152306Y-115205226D01*
X124551345Y-115453538D01*
X124091154Y-115912927D01*
X123841794Y-116513453D01*
X123841226Y-117163694D01*
X100286669Y-117163694D01*
X100445278Y-117005363D01*
X100694716Y-116404648D01*
X100695284Y-115754205D01*
X100446894Y-115153057D01*
X99987363Y-114692722D01*
X99386648Y-114443284D01*
X98736205Y-114442716D01*
X98135057Y-114691106D01*
X98072803Y-114753251D01*
X98058327Y-114718302D01*
X97879699Y-114539673D01*
X97646310Y-114443000D01*
X96805750Y-114443000D01*
X96647000Y-114601750D01*
X96393000Y-114601750D01*
X96234250Y-114443000D01*
X95393690Y-114443000D01*
X95160301Y-114539673D01*
X94981673Y-114718302D01*
X94885000Y-114951691D01*
X93370862Y-114951691D01*
X93038904Y-114454881D01*
X92508637Y-114100568D01*
X91883145Y-113976150D01*
X90798735Y-113976150D01*
X90173243Y-114100568D01*
X89642976Y-114454881D01*
X89288663Y-114985148D01*
X89164245Y-115610640D01*
X81015755Y-115610640D01*
X80891337Y-114985148D01*
X80537024Y-114454881D01*
X80006757Y-114100568D01*
X79381265Y-113976150D01*
X78296855Y-113976150D01*
X77671363Y-114100568D01*
X77141096Y-114454881D01*
X76786783Y-114985148D01*
X76662365Y-115610640D01*
X75564362Y-115610640D01*
X75648880Y-115484151D01*
X75758113Y-114935000D01*
X75648880Y-114385849D01*
X75337811Y-113920302D01*
X74955725Y-113665000D01*
X75337811Y-113409698D01*
X75648880Y-112944151D01*
X75758113Y-112395000D01*
X75648880Y-111845849D01*
X75337811Y-111380302D01*
X74955725Y-111125000D01*
X75337811Y-110869698D01*
X75648880Y-110404151D01*
X75758113Y-109855000D01*
X75648880Y-109305849D01*
X75337811Y-108840302D01*
X74955725Y-108585000D01*
X75337811Y-108329698D01*
X75618672Y-107909360D01*
X76662365Y-107909360D01*
X76786783Y-108534852D01*
X77141096Y-109065119D01*
X77671363Y-109419432D01*
X78296855Y-109543850D01*
X79381265Y-109543850D01*
X80006757Y-109419432D01*
X80537024Y-109065119D01*
X80891337Y-108534852D01*
X81015755Y-107909360D01*
X89164245Y-107909360D01*
X89288663Y-108534852D01*
X89642976Y-109065119D01*
X90173243Y-109419432D01*
X90798735Y-109543850D01*
X91883145Y-109543850D01*
X91897727Y-109540949D01*
X93728000Y-111371222D01*
X93728000Y-111705537D01*
X93695808Y-111737673D01*
X93553162Y-112081201D01*
X93552838Y-112453167D01*
X93694883Y-112796943D01*
X93957673Y-113060192D01*
X94301201Y-113202838D01*
X94673167Y-113203162D01*
X95016943Y-113061117D01*
X95280192Y-112798327D01*
X95422838Y-112454799D01*
X95423161Y-112083694D01*
X101235226Y-112083694D01*
X101483538Y-112684655D01*
X101828480Y-113030199D01*
X101485154Y-113372927D01*
X101235794Y-113973453D01*
X101235226Y-114623694D01*
X101483538Y-115224655D01*
X101942927Y-115684846D01*
X102543453Y-115934206D01*
X103193694Y-115934774D01*
X103794655Y-115686462D01*
X104254846Y-115227073D01*
X104498738Y-114639714D01*
X107229061Y-114639714D01*
X107260007Y-114767519D01*
X107573118Y-115325316D01*
X108075855Y-115720831D01*
X108691680Y-115893850D01*
X109192060Y-115893850D01*
X109192060Y-114386360D01*
X109446060Y-114386360D01*
X109446060Y-115893850D01*
X109946440Y-115893850D01*
X110562265Y-115720831D01*
X111065002Y-115325316D01*
X111378113Y-114767519D01*
X111409059Y-114639714D01*
X119730941Y-114639714D01*
X119761887Y-114767519D01*
X120074998Y-115325316D01*
X120577735Y-115720831D01*
X121193560Y-115893850D01*
X121693940Y-115893850D01*
X121693940Y-114386360D01*
X121947940Y-114386360D01*
X121947940Y-115893850D01*
X122448320Y-115893850D01*
X123064145Y-115720831D01*
X123566882Y-115325316D01*
X123879993Y-114767519D01*
X123910939Y-114639714D01*
X123791585Y-114386360D01*
X121947940Y-114386360D01*
X121693940Y-114386360D01*
X119850295Y-114386360D01*
X119730941Y-114639714D01*
X111409059Y-114639714D01*
X111289705Y-114386360D01*
X109446060Y-114386360D01*
X109192060Y-114386360D01*
X107348415Y-114386360D01*
X107229061Y-114639714D01*
X104498738Y-114639714D01*
X104504206Y-114626547D01*
X104504774Y-113976306D01*
X104464571Y-113879006D01*
X107229061Y-113879006D01*
X107348415Y-114132360D01*
X109192060Y-114132360D01*
X109192060Y-112624870D01*
X109446060Y-112624870D01*
X109446060Y-114132360D01*
X111289705Y-114132360D01*
X111409059Y-113879006D01*
X119730941Y-113879006D01*
X119850295Y-114132360D01*
X121693940Y-114132360D01*
X121693940Y-112624870D01*
X121947940Y-112624870D01*
X121947940Y-114132360D01*
X123791585Y-114132360D01*
X123910939Y-113879006D01*
X123879993Y-113751201D01*
X123566882Y-113193404D01*
X123064145Y-112797889D01*
X122448320Y-112624870D01*
X121947940Y-112624870D01*
X121693940Y-112624870D01*
X121193560Y-112624870D01*
X120577735Y-112797889D01*
X120074998Y-113193404D01*
X119761887Y-113751201D01*
X119730941Y-113879006D01*
X111409059Y-113879006D01*
X111378113Y-113751201D01*
X111065002Y-113193404D01*
X110562265Y-112797889D01*
X109946440Y-112624870D01*
X109446060Y-112624870D01*
X109192060Y-112624870D01*
X108691680Y-112624870D01*
X108075855Y-112797889D01*
X107573118Y-113193404D01*
X107260007Y-113751201D01*
X107229061Y-113879006D01*
X104464571Y-113879006D01*
X104256462Y-113375345D01*
X103911520Y-113029801D01*
X104254846Y-112687073D01*
X104504206Y-112086547D01*
X104504241Y-112045750D01*
X129683000Y-112045750D01*
X129683000Y-112886309D01*
X129779673Y-113119698D01*
X129958301Y-113298327D01*
X130191690Y-113395000D01*
X131032250Y-113395000D01*
X131191000Y-113236250D01*
X131191000Y-111887000D01*
X129841750Y-111887000D01*
X129683000Y-112045750D01*
X104504241Y-112045750D01*
X104504774Y-111436306D01*
X104256462Y-110835345D01*
X103797073Y-110375154D01*
X103196547Y-110125794D01*
X102546306Y-110125226D01*
X101945345Y-110373538D01*
X101485154Y-110832927D01*
X101235794Y-111433453D01*
X101235226Y-112083694D01*
X95423161Y-112083694D01*
X95423162Y-112082833D01*
X95281117Y-111739057D01*
X95248000Y-111705882D01*
X95248000Y-111056420D01*
X95190148Y-110765581D01*
X95025401Y-110519019D01*
X93767022Y-109260640D01*
X107142365Y-109260640D01*
X107266783Y-109886132D01*
X107621096Y-110416399D01*
X108151363Y-110770712D01*
X108776855Y-110895130D01*
X109861265Y-110895130D01*
X110486757Y-110770712D01*
X111017024Y-110416399D01*
X111371337Y-109886132D01*
X111495755Y-109260640D01*
X119644245Y-109260640D01*
X119768663Y-109886132D01*
X120122976Y-110416399D01*
X120653243Y-110770712D01*
X121278735Y-110895130D01*
X122363145Y-110895130D01*
X122988637Y-110770712D01*
X123193703Y-110633691D01*
X129683000Y-110633691D01*
X129683000Y-111474250D01*
X129841750Y-111633000D01*
X131191000Y-111633000D01*
X131191000Y-110283750D01*
X131445000Y-110283750D01*
X131445000Y-111633000D01*
X131465000Y-111633000D01*
X131465000Y-111887000D01*
X131445000Y-111887000D01*
X131445000Y-113236250D01*
X131603750Y-113395000D01*
X132444310Y-113395000D01*
X132677699Y-113298327D01*
X132856327Y-113119698D01*
X132870630Y-113085166D01*
X132930637Y-113145278D01*
X133531352Y-113394716D01*
X134181795Y-113395284D01*
X134782943Y-113146894D01*
X135243278Y-112687363D01*
X135492716Y-112086648D01*
X135493284Y-111436205D01*
X135244894Y-110835057D01*
X134785363Y-110374722D01*
X134184648Y-110125284D01*
X133534205Y-110124716D01*
X132933057Y-110373106D01*
X132870803Y-110435251D01*
X132856327Y-110400302D01*
X132677699Y-110221673D01*
X132444310Y-110125000D01*
X131603750Y-110125000D01*
X131445000Y-110283750D01*
X131191000Y-110283750D01*
X131032250Y-110125000D01*
X130191690Y-110125000D01*
X129958301Y-110221673D01*
X129779673Y-110400302D01*
X129683000Y-110633691D01*
X123193703Y-110633691D01*
X123518904Y-110416399D01*
X123873217Y-109886132D01*
X123997635Y-109260640D01*
X123873217Y-108635148D01*
X123518904Y-108104881D01*
X122988637Y-107750568D01*
X122363145Y-107626150D01*
X121278735Y-107626150D01*
X120653243Y-107750568D01*
X120122976Y-108104881D01*
X119768663Y-108635148D01*
X119644245Y-109260640D01*
X111495755Y-109260640D01*
X111371337Y-108635148D01*
X111017024Y-108104881D01*
X110486757Y-107750568D01*
X109861265Y-107626150D01*
X108776855Y-107626150D01*
X108151363Y-107750568D01*
X107621096Y-108104881D01*
X107266783Y-108635148D01*
X107142365Y-109260640D01*
X93767022Y-109260640D01*
X93252232Y-108745850D01*
X93393217Y-108534852D01*
X93517635Y-107909360D01*
X93481511Y-107727750D01*
X94885000Y-107727750D01*
X94885000Y-108568309D01*
X94981673Y-108801698D01*
X95160301Y-108980327D01*
X95393690Y-109077000D01*
X96234250Y-109077000D01*
X96393000Y-108918250D01*
X96393000Y-107569000D01*
X95043750Y-107569000D01*
X94885000Y-107727750D01*
X93481511Y-107727750D01*
X93393217Y-107283868D01*
X93038904Y-106753601D01*
X92508637Y-106399288D01*
X92088367Y-106315691D01*
X94885000Y-106315691D01*
X94885000Y-107156250D01*
X95043750Y-107315000D01*
X96393000Y-107315000D01*
X96393000Y-105965750D01*
X96647000Y-105965750D01*
X96647000Y-107315000D01*
X96667000Y-107315000D01*
X96667000Y-107569000D01*
X96647000Y-107569000D01*
X96647000Y-108918250D01*
X96805750Y-109077000D01*
X97646310Y-109077000D01*
X97879699Y-108980327D01*
X98058327Y-108801698D01*
X98072630Y-108767166D01*
X98132637Y-108827278D01*
X98733352Y-109076716D01*
X99383795Y-109077284D01*
X99984943Y-108828894D01*
X100445278Y-108369363D01*
X100694716Y-107768648D01*
X100695162Y-107257694D01*
X124095226Y-107257694D01*
X124343538Y-107858655D01*
X124802927Y-108318846D01*
X125403453Y-108568206D01*
X126053694Y-108568774D01*
X126654655Y-108320462D01*
X127114846Y-107861073D01*
X127364206Y-107260547D01*
X127364208Y-107257694D01*
X131715226Y-107257694D01*
X131963538Y-107858655D01*
X132422927Y-108318846D01*
X133023453Y-108568206D01*
X133673694Y-108568774D01*
X134274655Y-108320462D01*
X134734846Y-107861073D01*
X134984206Y-107260547D01*
X134984774Y-106610306D01*
X134736462Y-106009345D01*
X134277073Y-105549154D01*
X133676547Y-105299794D01*
X133026306Y-105299226D01*
X132425345Y-105547538D01*
X131965154Y-106006927D01*
X131715794Y-106607453D01*
X131715226Y-107257694D01*
X127364208Y-107257694D01*
X127364774Y-106610306D01*
X127116462Y-106009345D01*
X126657073Y-105549154D01*
X126056547Y-105299794D01*
X125406306Y-105299226D01*
X124805345Y-105547538D01*
X124345154Y-106006927D01*
X124095794Y-106607453D01*
X124095226Y-107257694D01*
X100695162Y-107257694D01*
X100695284Y-107118205D01*
X100446894Y-106517057D01*
X99987363Y-106056722D01*
X99386648Y-105807284D01*
X98736205Y-105806716D01*
X98135057Y-106055106D01*
X98072803Y-106117251D01*
X98058327Y-106082302D01*
X97879699Y-105903673D01*
X97646310Y-105807000D01*
X96805750Y-105807000D01*
X96647000Y-105965750D01*
X96393000Y-105965750D01*
X96234250Y-105807000D01*
X95393690Y-105807000D01*
X95160301Y-105903673D01*
X94981673Y-106082302D01*
X94885000Y-106315691D01*
X92088367Y-106315691D01*
X91883145Y-106274870D01*
X90798735Y-106274870D01*
X90173243Y-106399288D01*
X89642976Y-106753601D01*
X89288663Y-107283868D01*
X89164245Y-107909360D01*
X81015755Y-107909360D01*
X80891337Y-107283868D01*
X80537024Y-106753601D01*
X80006757Y-106399288D01*
X79381265Y-106274870D01*
X78296855Y-106274870D01*
X77671363Y-106399288D01*
X77141096Y-106753601D01*
X76786783Y-107283868D01*
X76662365Y-107909360D01*
X75618672Y-107909360D01*
X75648880Y-107864151D01*
X75758113Y-107315000D01*
X75648880Y-106765849D01*
X75337811Y-106300302D01*
X74955725Y-106045000D01*
X75337811Y-105789698D01*
X75648880Y-105324151D01*
X75758113Y-104775000D01*
X75648880Y-104225849D01*
X75337811Y-103760302D01*
X74872264Y-103449233D01*
X74323113Y-103340000D01*
X74266887Y-103340000D01*
X73717736Y-103449233D01*
X73252189Y-103760302D01*
X72941120Y-104225849D01*
X72831887Y-104775000D01*
X72941120Y-105324151D01*
X73252189Y-105789698D01*
X73634275Y-106045000D01*
X73252189Y-106300302D01*
X72941120Y-106765849D01*
X72831887Y-107315000D01*
X72941120Y-107864151D01*
X73252189Y-108329698D01*
X73634275Y-108585000D01*
X73252189Y-108840302D01*
X72941120Y-109305849D01*
X72831887Y-109855000D01*
X72941120Y-110404151D01*
X73252189Y-110869698D01*
X73634275Y-111125000D01*
X73252189Y-111380302D01*
X72941120Y-111845849D01*
X72831887Y-112395000D01*
X72896312Y-112718886D01*
X71598599Y-114016599D01*
X71433852Y-114263161D01*
X71376000Y-114554000D01*
X71376000Y-127508000D01*
X71433852Y-127798839D01*
X71598599Y-128045401D01*
X72856115Y-129302917D01*
X72787794Y-129467453D01*
X72787226Y-130117694D01*
X73035538Y-130718655D01*
X73494927Y-131178846D01*
X73830047Y-131318000D01*
X67393788Y-131318000D01*
X67726655Y-131180462D01*
X68186846Y-130721073D01*
X68436206Y-130120547D01*
X68436774Y-129470306D01*
X68188462Y-128869345D01*
X67729073Y-128409154D01*
X67393870Y-128269966D01*
X67726655Y-128132462D01*
X68186846Y-127673073D01*
X68436206Y-127072547D01*
X68436774Y-126422306D01*
X68367691Y-126255111D01*
X68863401Y-125759401D01*
X69028148Y-125512840D01*
X69058320Y-125361154D01*
X69086000Y-125222000D01*
X69086000Y-121666000D01*
X69028148Y-121375161D01*
X68863401Y-121128599D01*
X68073688Y-120338886D01*
X68138113Y-120015000D01*
X68028880Y-119465849D01*
X67717811Y-119000302D01*
X67335725Y-118745000D01*
X67717811Y-118489698D01*
X68028880Y-118024151D01*
X68138113Y-117475000D01*
X68028880Y-116925849D01*
X67717811Y-116460302D01*
X67335725Y-116205000D01*
X67717811Y-115949698D01*
X68028880Y-115484151D01*
X68138113Y-114935000D01*
X68028880Y-114385849D01*
X67717811Y-113920302D01*
X67335725Y-113665000D01*
X67717811Y-113409698D01*
X68028880Y-112944151D01*
X68138113Y-112395000D01*
X68028880Y-111845849D01*
X67717811Y-111380302D01*
X67335725Y-111125000D01*
X67717811Y-110869698D01*
X68028880Y-110404151D01*
X68138113Y-109855000D01*
X68028880Y-109305849D01*
X67717811Y-108840302D01*
X67313297Y-108570014D01*
X67530134Y-108467389D01*
X67906041Y-108052423D01*
X68066904Y-107664039D01*
X67944915Y-107442000D01*
X66802000Y-107442000D01*
X66802000Y-107462000D01*
X66548000Y-107462000D01*
X66548000Y-107442000D01*
X65405085Y-107442000D01*
X65283096Y-107664039D01*
X65443959Y-108052423D01*
X65819866Y-108467389D01*
X66036703Y-108570014D01*
X65632189Y-108840302D01*
X65321120Y-109305849D01*
X65211887Y-109855000D01*
X65321120Y-110404151D01*
X65632189Y-110869698D01*
X66014275Y-111125000D01*
X65632189Y-111380302D01*
X65321120Y-111845849D01*
X65211887Y-112395000D01*
X65321120Y-112944151D01*
X65632189Y-113409698D01*
X66014275Y-113665000D01*
X65632189Y-113920302D01*
X65321120Y-114385849D01*
X65211887Y-114935000D01*
X65321120Y-115484151D01*
X65632189Y-115949698D01*
X66014275Y-116205000D01*
X65632189Y-116460302D01*
X65321120Y-116925849D01*
X65211887Y-117475000D01*
X65321120Y-118024151D01*
X65632189Y-118489698D01*
X66014275Y-118745000D01*
X65632189Y-119000302D01*
X65321120Y-119465849D01*
X65211887Y-120015000D01*
X65321120Y-120564151D01*
X65632189Y-121029698D01*
X66014275Y-121285000D01*
X65632189Y-121540302D01*
X65321120Y-122005849D01*
X65211887Y-122555000D01*
X65321120Y-123104151D01*
X65632189Y-123569698D01*
X66097736Y-123880767D01*
X66646887Y-123990000D01*
X66703113Y-123990000D01*
X67252264Y-123880767D01*
X67566000Y-123671135D01*
X67566000Y-124907198D01*
X67293083Y-125180115D01*
X67128547Y-125111794D01*
X66478306Y-125111226D01*
X65877345Y-125359538D01*
X65417154Y-125818927D01*
X65167794Y-126419453D01*
X65167226Y-127069694D01*
X65415538Y-127670655D01*
X65874927Y-128130846D01*
X66210130Y-128270034D01*
X65877345Y-128407538D01*
X65417154Y-128866927D01*
X65268803Y-129224197D01*
X64262000Y-128217394D01*
X64262000Y-104775000D01*
X65211887Y-104775000D01*
X65321120Y-105324151D01*
X65632189Y-105789698D01*
X66036703Y-106059986D01*
X65819866Y-106162611D01*
X65443959Y-106577577D01*
X65283096Y-106965961D01*
X65405085Y-107188000D01*
X66548000Y-107188000D01*
X66548000Y-107168000D01*
X66802000Y-107168000D01*
X66802000Y-107188000D01*
X67944915Y-107188000D01*
X68066904Y-106965961D01*
X67906041Y-106577577D01*
X67530134Y-106162611D01*
X67313297Y-106059986D01*
X67717811Y-105789698D01*
X68028880Y-105324151D01*
X68138113Y-104775000D01*
X68028880Y-104225849D01*
X67717811Y-103760302D01*
X67252264Y-103449233D01*
X66703113Y-103340000D01*
X66646887Y-103340000D01*
X66097736Y-103449233D01*
X65632189Y-103760302D01*
X65321120Y-104225849D01*
X65211887Y-104775000D01*
X64262000Y-104775000D01*
X64262000Y-103290994D01*
X76749061Y-103290994D01*
X76780007Y-103418799D01*
X77093118Y-103976596D01*
X77595855Y-104372111D01*
X78211680Y-104545130D01*
X78712060Y-104545130D01*
X78712060Y-103037640D01*
X78966060Y-103037640D01*
X78966060Y-104545130D01*
X79466440Y-104545130D01*
X80082265Y-104372111D01*
X80585002Y-103976596D01*
X80898113Y-103418799D01*
X80929059Y-103290994D01*
X89250941Y-103290994D01*
X89281887Y-103418799D01*
X89594998Y-103976596D01*
X90097735Y-104372111D01*
X90713560Y-104545130D01*
X91213940Y-104545130D01*
X91213940Y-103037640D01*
X91467940Y-103037640D01*
X91467940Y-104545130D01*
X91968320Y-104545130D01*
X92584145Y-104372111D01*
X93086882Y-103976596D01*
X93399993Y-103418799D01*
X93430939Y-103290994D01*
X93311585Y-103037640D01*
X91467940Y-103037640D01*
X91213940Y-103037640D01*
X89370295Y-103037640D01*
X89250941Y-103290994D01*
X80929059Y-103290994D01*
X80809705Y-103037640D01*
X78966060Y-103037640D01*
X78712060Y-103037640D01*
X76868415Y-103037640D01*
X76749061Y-103290994D01*
X64262000Y-103290994D01*
X64262000Y-102530286D01*
X76749061Y-102530286D01*
X76868415Y-102783640D01*
X78712060Y-102783640D01*
X78712060Y-101276150D01*
X78966060Y-101276150D01*
X78966060Y-102783640D01*
X80809705Y-102783640D01*
X80929059Y-102530286D01*
X89250941Y-102530286D01*
X89370295Y-102783640D01*
X91213940Y-102783640D01*
X91213940Y-101276150D01*
X91467940Y-101276150D01*
X91467940Y-102783640D01*
X93311585Y-102783640D01*
X93430939Y-102530286D01*
X93399993Y-102402481D01*
X93086882Y-101844684D01*
X92584145Y-101449169D01*
X91968320Y-101276150D01*
X91467940Y-101276150D01*
X91213940Y-101276150D01*
X90713560Y-101276150D01*
X90097735Y-101449169D01*
X89594998Y-101844684D01*
X89281887Y-102402481D01*
X89250941Y-102530286D01*
X80929059Y-102530286D01*
X80898113Y-102402481D01*
X80585002Y-101844684D01*
X80082265Y-101449169D01*
X79466440Y-101276150D01*
X78966060Y-101276150D01*
X78712060Y-101276150D01*
X78211680Y-101276150D01*
X77595855Y-101449169D01*
X77093118Y-101844684D01*
X76780007Y-102402481D01*
X76749061Y-102530286D01*
X64262000Y-102530286D01*
X64262000Y-101219481D01*
X65429777Y-101219481D01*
X65624995Y-101691943D01*
X65986155Y-102053735D01*
X66458276Y-102249777D01*
X66969481Y-102250223D01*
X67441943Y-102055005D01*
X67803735Y-101693845D01*
X67930000Y-101389765D01*
X67930000Y-101741310D01*
X68026673Y-101974699D01*
X68205302Y-102153327D01*
X68438691Y-102250000D01*
X68929250Y-102250000D01*
X69088000Y-102091250D01*
X69088000Y-101092000D01*
X69342000Y-101092000D01*
X69342000Y-102091250D01*
X69500750Y-102250000D01*
X69991309Y-102250000D01*
X70224698Y-102153327D01*
X70403327Y-101974699D01*
X70500000Y-101741310D01*
X70500000Y-101250750D01*
X70341250Y-101092000D01*
X69342000Y-101092000D01*
X69088000Y-101092000D01*
X69068000Y-101092000D01*
X69068000Y-100838000D01*
X69088000Y-100838000D01*
X69088000Y-99838750D01*
X69342000Y-99838750D01*
X69342000Y-100838000D01*
X70341250Y-100838000D01*
X70500000Y-100679250D01*
X70500000Y-100188690D01*
X70403327Y-99955301D01*
X70224698Y-99776673D01*
X69991309Y-99680000D01*
X69500750Y-99680000D01*
X69342000Y-99838750D01*
X69088000Y-99838750D01*
X68929250Y-99680000D01*
X68438691Y-99680000D01*
X68205302Y-99776673D01*
X68026673Y-99955301D01*
X67930000Y-100188690D01*
X67930000Y-100540567D01*
X67805005Y-100238057D01*
X67443845Y-99876265D01*
X66971724Y-99680223D01*
X66460519Y-99679777D01*
X65988057Y-99874995D01*
X65626265Y-100236155D01*
X65430223Y-100708276D01*
X65429777Y-101219481D01*
X64262000Y-101219481D01*
X64262000Y-99345750D01*
X94885000Y-99345750D01*
X94885000Y-100186309D01*
X94981673Y-100419698D01*
X95160301Y-100598327D01*
X95393690Y-100695000D01*
X96234250Y-100695000D01*
X96393000Y-100536250D01*
X96393000Y-99187000D01*
X95043750Y-99187000D01*
X94885000Y-99345750D01*
X64262000Y-99345750D01*
X64262000Y-97933691D01*
X94885000Y-97933691D01*
X94885000Y-98774250D01*
X95043750Y-98933000D01*
X96393000Y-98933000D01*
X96393000Y-97583750D01*
X96647000Y-97583750D01*
X96647000Y-98933000D01*
X96667000Y-98933000D01*
X96667000Y-99187000D01*
X96647000Y-99187000D01*
X96647000Y-100536250D01*
X96805750Y-100695000D01*
X97646310Y-100695000D01*
X97879699Y-100598327D01*
X98058327Y-100419698D01*
X98072630Y-100385166D01*
X98132637Y-100445278D01*
X98733352Y-100694716D01*
X99383795Y-100695284D01*
X99984943Y-100446894D01*
X100313805Y-100118607D01*
X101304115Y-101108917D01*
X101235794Y-101273453D01*
X101235226Y-101923694D01*
X101483538Y-102524655D01*
X101828480Y-102870199D01*
X101485154Y-103212927D01*
X101235794Y-103813453D01*
X101235226Y-104463694D01*
X101483538Y-105064655D01*
X101942927Y-105524846D01*
X102543453Y-105774206D01*
X103193694Y-105774774D01*
X103794655Y-105526462D01*
X104254846Y-105067073D01*
X104504206Y-104466547D01*
X104504774Y-103816306D01*
X104457418Y-103701694D01*
X124095226Y-103701694D01*
X124343538Y-104302655D01*
X124802927Y-104762846D01*
X125403453Y-105012206D01*
X126053694Y-105012774D01*
X126654655Y-104764462D01*
X127114846Y-104305073D01*
X127364206Y-103704547D01*
X127364208Y-103701694D01*
X131715226Y-103701694D01*
X131963538Y-104302655D01*
X132422927Y-104762846D01*
X133023453Y-105012206D01*
X133673694Y-105012774D01*
X134274655Y-104764462D01*
X134734846Y-104305073D01*
X134803390Y-104140000D01*
X135696887Y-104140000D01*
X135806120Y-104689151D01*
X136117189Y-105154698D01*
X136499275Y-105410000D01*
X136117189Y-105665302D01*
X135806120Y-106130849D01*
X135696887Y-106680000D01*
X135806120Y-107229151D01*
X136117189Y-107694698D01*
X136499275Y-107950000D01*
X136117189Y-108205302D01*
X135806120Y-108670849D01*
X135696887Y-109220000D01*
X135806120Y-109769151D01*
X136117189Y-110234698D01*
X136499275Y-110490000D01*
X136117189Y-110745302D01*
X135806120Y-111210849D01*
X135696887Y-111760000D01*
X135806120Y-112309151D01*
X136117189Y-112774698D01*
X136499275Y-113030000D01*
X136117189Y-113285302D01*
X135806120Y-113750849D01*
X135696887Y-114300000D01*
X135806120Y-114849151D01*
X136117189Y-115314698D01*
X136499275Y-115570000D01*
X136117189Y-115825302D01*
X135806120Y-116290849D01*
X135696887Y-116840000D01*
X135806120Y-117389151D01*
X136117189Y-117854698D01*
X136499275Y-118110000D01*
X136117189Y-118365302D01*
X135806120Y-118830849D01*
X135696887Y-119380000D01*
X135806120Y-119929151D01*
X136117189Y-120394698D01*
X136582736Y-120705767D01*
X137131887Y-120815000D01*
X137188113Y-120815000D01*
X137737264Y-120705767D01*
X138202811Y-120394698D01*
X138513880Y-119929151D01*
X138623113Y-119380000D01*
X138513880Y-118830849D01*
X138202811Y-118365302D01*
X137820725Y-118110000D01*
X138202811Y-117854698D01*
X138513880Y-117389151D01*
X138623113Y-116840000D01*
X138513880Y-116290849D01*
X138202811Y-115825302D01*
X137820725Y-115570000D01*
X138202811Y-115314698D01*
X138513880Y-114849151D01*
X138623113Y-114300000D01*
X143316887Y-114300000D01*
X143426120Y-114849151D01*
X143737189Y-115314698D01*
X144119275Y-115570000D01*
X143737189Y-115825302D01*
X143426120Y-116290849D01*
X143316887Y-116840000D01*
X143426120Y-117389151D01*
X143737189Y-117854698D01*
X144119275Y-118110000D01*
X143737189Y-118365302D01*
X143426120Y-118830849D01*
X143316887Y-119380000D01*
X143426120Y-119929151D01*
X143737189Y-120394698D01*
X144202736Y-120705767D01*
X144751887Y-120815000D01*
X144808113Y-120815000D01*
X145357264Y-120705767D01*
X145822811Y-120394698D01*
X146133880Y-119929151D01*
X146243113Y-119380000D01*
X146133880Y-118830849D01*
X145822811Y-118365302D01*
X145440725Y-118110000D01*
X145822811Y-117854698D01*
X146133880Y-117389151D01*
X146243113Y-116840000D01*
X146133880Y-116290849D01*
X145822811Y-115825302D01*
X145440725Y-115570000D01*
X145822811Y-115314698D01*
X146133880Y-114849151D01*
X146243113Y-114300000D01*
X146133880Y-113750849D01*
X145822811Y-113285302D01*
X145418297Y-113015014D01*
X145635134Y-112912389D01*
X146011041Y-112497423D01*
X146171904Y-112109039D01*
X146049915Y-111887000D01*
X144907000Y-111887000D01*
X144907000Y-111907000D01*
X144653000Y-111907000D01*
X144653000Y-111887000D01*
X143510085Y-111887000D01*
X143388096Y-112109039D01*
X143548959Y-112497423D01*
X143924866Y-112912389D01*
X144141703Y-113015014D01*
X143737189Y-113285302D01*
X143426120Y-113750849D01*
X143316887Y-114300000D01*
X138623113Y-114300000D01*
X138513880Y-113750849D01*
X138202811Y-113285302D01*
X137820725Y-113030000D01*
X138202811Y-112774698D01*
X138513880Y-112309151D01*
X138623113Y-111760000D01*
X138513880Y-111210849D01*
X138202811Y-110745302D01*
X137820725Y-110490000D01*
X138202811Y-110234698D01*
X138513880Y-109769151D01*
X138623113Y-109220000D01*
X138513880Y-108670849D01*
X138202811Y-108205302D01*
X137820725Y-107950000D01*
X138202811Y-107694698D01*
X138513880Y-107229151D01*
X138623113Y-106680000D01*
X138513880Y-106130849D01*
X138202811Y-105665302D01*
X137820725Y-105410000D01*
X138202811Y-105154698D01*
X138513880Y-104689151D01*
X138623113Y-104140000D01*
X138513880Y-103590849D01*
X138202811Y-103125302D01*
X137798297Y-102855014D01*
X138015134Y-102752389D01*
X138391041Y-102337423D01*
X138551904Y-101949039D01*
X138429915Y-101727000D01*
X137287000Y-101727000D01*
X137287000Y-101747000D01*
X137033000Y-101747000D01*
X137033000Y-101727000D01*
X135890085Y-101727000D01*
X135768096Y-101949039D01*
X135928959Y-102337423D01*
X136304866Y-102752389D01*
X136521703Y-102855014D01*
X136117189Y-103125302D01*
X135806120Y-103590849D01*
X135696887Y-104140000D01*
X134803390Y-104140000D01*
X134984206Y-103704547D01*
X134984774Y-103054306D01*
X134736462Y-102453345D01*
X134277073Y-101993154D01*
X133676547Y-101743794D01*
X133026306Y-101743226D01*
X132425345Y-101991538D01*
X131965154Y-102450927D01*
X131715794Y-103051453D01*
X131715226Y-103701694D01*
X127364208Y-103701694D01*
X127364774Y-103054306D01*
X127116462Y-102453345D01*
X126657073Y-101993154D01*
X126056547Y-101743794D01*
X125406306Y-101743226D01*
X124805345Y-101991538D01*
X124345154Y-102450927D01*
X124095794Y-103051453D01*
X124095226Y-103701694D01*
X104457418Y-103701694D01*
X104256462Y-103215345D01*
X103911520Y-102869801D01*
X104254846Y-102527073D01*
X104498738Y-101939714D01*
X107229061Y-101939714D01*
X107260007Y-102067519D01*
X107573118Y-102625316D01*
X108075855Y-103020831D01*
X108691680Y-103193850D01*
X109192060Y-103193850D01*
X109192060Y-101686360D01*
X109446060Y-101686360D01*
X109446060Y-103193850D01*
X109946440Y-103193850D01*
X110562265Y-103020831D01*
X111065002Y-102625316D01*
X111378113Y-102067519D01*
X111409059Y-101939714D01*
X119730941Y-101939714D01*
X119761887Y-102067519D01*
X120074998Y-102625316D01*
X120577735Y-103020831D01*
X121193560Y-103193850D01*
X121693940Y-103193850D01*
X121693940Y-101686360D01*
X121947940Y-101686360D01*
X121947940Y-103193850D01*
X122448320Y-103193850D01*
X123064145Y-103020831D01*
X123566882Y-102625316D01*
X123879993Y-102067519D01*
X123910939Y-101939714D01*
X123791585Y-101686360D01*
X121947940Y-101686360D01*
X121693940Y-101686360D01*
X119850295Y-101686360D01*
X119730941Y-101939714D01*
X111409059Y-101939714D01*
X111289705Y-101686360D01*
X109446060Y-101686360D01*
X109192060Y-101686360D01*
X107348415Y-101686360D01*
X107229061Y-101939714D01*
X104498738Y-101939714D01*
X104504206Y-101926547D01*
X104504491Y-101600000D01*
X143316887Y-101600000D01*
X143426120Y-102149151D01*
X143737189Y-102614698D01*
X144119275Y-102870000D01*
X143737189Y-103125302D01*
X143426120Y-103590849D01*
X143316887Y-104140000D01*
X143426120Y-104689151D01*
X143737189Y-105154698D01*
X144119275Y-105410000D01*
X143737189Y-105665302D01*
X143426120Y-106130849D01*
X143316887Y-106680000D01*
X143426120Y-107229151D01*
X143737189Y-107694698D01*
X144119275Y-107950000D01*
X143737189Y-108205302D01*
X143426120Y-108670849D01*
X143316887Y-109220000D01*
X143426120Y-109769151D01*
X143737189Y-110234698D01*
X144141703Y-110504986D01*
X143924866Y-110607611D01*
X143548959Y-111022577D01*
X143388096Y-111410961D01*
X143510085Y-111633000D01*
X144653000Y-111633000D01*
X144653000Y-111613000D01*
X144907000Y-111613000D01*
X144907000Y-111633000D01*
X146049915Y-111633000D01*
X146171904Y-111410961D01*
X146011041Y-111022577D01*
X145635134Y-110607611D01*
X145418297Y-110504986D01*
X145822811Y-110234698D01*
X146133880Y-109769151D01*
X146243113Y-109220000D01*
X146133880Y-108670849D01*
X145822811Y-108205302D01*
X145440725Y-107950000D01*
X145822811Y-107694698D01*
X146133880Y-107229151D01*
X146243113Y-106680000D01*
X146133880Y-106130849D01*
X145822811Y-105665302D01*
X145440725Y-105410000D01*
X145822811Y-105154698D01*
X146133880Y-104689151D01*
X146243113Y-104140000D01*
X146133880Y-103590849D01*
X145822811Y-103125302D01*
X145440725Y-102870000D01*
X145822811Y-102614698D01*
X146133880Y-102149151D01*
X146243113Y-101600000D01*
X146133880Y-101050849D01*
X145822811Y-100585302D01*
X145357264Y-100274233D01*
X144808113Y-100165000D01*
X144751887Y-100165000D01*
X144202736Y-100274233D01*
X143737189Y-100585302D01*
X143426120Y-101050849D01*
X143316887Y-101600000D01*
X104504491Y-101600000D01*
X104504774Y-101276306D01*
X104464571Y-101179006D01*
X107229061Y-101179006D01*
X107348415Y-101432360D01*
X109192060Y-101432360D01*
X109192060Y-99924870D01*
X109446060Y-99924870D01*
X109446060Y-101432360D01*
X111289705Y-101432360D01*
X111409059Y-101179006D01*
X119730941Y-101179006D01*
X119850295Y-101432360D01*
X121693940Y-101432360D01*
X121693940Y-99924870D01*
X121947940Y-99924870D01*
X121947940Y-101432360D01*
X123791585Y-101432360D01*
X123877041Y-101250961D01*
X135768096Y-101250961D01*
X135890085Y-101473000D01*
X137033000Y-101473000D01*
X137033000Y-100329371D01*
X137287000Y-100329371D01*
X137287000Y-101473000D01*
X138429915Y-101473000D01*
X138551904Y-101250961D01*
X138391041Y-100862577D01*
X138015134Y-100447611D01*
X137509041Y-100208086D01*
X137287000Y-100329371D01*
X137033000Y-100329371D01*
X136810959Y-100208086D01*
X136304866Y-100447611D01*
X135928959Y-100862577D01*
X135768096Y-101250961D01*
X123877041Y-101250961D01*
X123910939Y-101179006D01*
X123879993Y-101051201D01*
X123566882Y-100493404D01*
X123064145Y-100097889D01*
X122448320Y-99924870D01*
X121947940Y-99924870D01*
X121693940Y-99924870D01*
X121193560Y-99924870D01*
X120577735Y-100097889D01*
X120074998Y-100493404D01*
X119761887Y-101051201D01*
X119730941Y-101179006D01*
X111409059Y-101179006D01*
X111378113Y-101051201D01*
X111065002Y-100493404D01*
X110562265Y-100097889D01*
X109946440Y-99924870D01*
X109446060Y-99924870D01*
X109192060Y-99924870D01*
X108691680Y-99924870D01*
X108075855Y-100097889D01*
X107573118Y-100493404D01*
X107260007Y-101051201D01*
X107229061Y-101179006D01*
X104464571Y-101179006D01*
X104256462Y-100675345D01*
X103797073Y-100215154D01*
X103196547Y-99965794D01*
X102546306Y-99965226D01*
X102379111Y-100034309D01*
X101690552Y-99345750D01*
X129683000Y-99345750D01*
X129683000Y-100186309D01*
X129779673Y-100419698D01*
X129958301Y-100598327D01*
X130191690Y-100695000D01*
X131032250Y-100695000D01*
X131191000Y-100536250D01*
X131191000Y-99187000D01*
X129841750Y-99187000D01*
X129683000Y-99345750D01*
X101690552Y-99345750D01*
X100867401Y-98522599D01*
X100620839Y-98357852D01*
X100531618Y-98340105D01*
X100446894Y-98135057D01*
X99987363Y-97674722D01*
X99386648Y-97425284D01*
X98736205Y-97424716D01*
X98135057Y-97673106D01*
X98072803Y-97735251D01*
X98058327Y-97700302D01*
X97879699Y-97521673D01*
X97646310Y-97425000D01*
X96805750Y-97425000D01*
X96647000Y-97583750D01*
X96393000Y-97583750D01*
X96234250Y-97425000D01*
X95393690Y-97425000D01*
X95160301Y-97521673D01*
X94981673Y-97700302D01*
X94885000Y-97933691D01*
X64262000Y-97933691D01*
X64262000Y-95302606D01*
X64587693Y-94976913D01*
X65189816Y-94976913D01*
X65383046Y-95529320D01*
X65772964Y-95965732D01*
X66300209Y-96219709D01*
X66315974Y-96222358D01*
X66548000Y-96101217D01*
X66548000Y-94742000D01*
X65334076Y-94742000D01*
X65189816Y-94976913D01*
X64587693Y-94976913D01*
X65236119Y-94328487D01*
X65334076Y-94488000D01*
X66548000Y-94488000D01*
X66548000Y-93128783D01*
X66802000Y-93128783D01*
X66802000Y-94488000D01*
X66822000Y-94488000D01*
X66822000Y-94742000D01*
X66802000Y-94742000D01*
X66802000Y-96101217D01*
X67034026Y-96222358D01*
X67049791Y-96219709D01*
X67577036Y-95965732D01*
X67948539Y-95549931D01*
X68155330Y-95859415D01*
X68641511Y-96184271D01*
X69215000Y-96298345D01*
X69788489Y-96184271D01*
X70274670Y-95859415D01*
X70485000Y-95544634D01*
X70695330Y-95859415D01*
X71181511Y-96184271D01*
X71755000Y-96298345D01*
X72328489Y-96184271D01*
X72814670Y-95859415D01*
X73025000Y-95544634D01*
X73235330Y-95859415D01*
X73721511Y-96184271D01*
X74295000Y-96298345D01*
X74868489Y-96184271D01*
X75354670Y-95859415D01*
X75364243Y-95845087D01*
X75368238Y-95866317D01*
X75507310Y-96082441D01*
X75719510Y-96227431D01*
X75971400Y-96278440D01*
X77698600Y-96278440D01*
X77933917Y-96234162D01*
X78150041Y-96095090D01*
X78295031Y-95882890D01*
X78333561Y-95692619D01*
X82219613Y-95692619D01*
X82559155Y-96514372D01*
X83187321Y-97143636D01*
X84008481Y-97484611D01*
X84897619Y-97485387D01*
X85719372Y-97145845D01*
X86305599Y-96560640D01*
X107142365Y-96560640D01*
X107266783Y-97186132D01*
X107621096Y-97716399D01*
X108151363Y-98070712D01*
X108776855Y-98195130D01*
X109861265Y-98195130D01*
X110486757Y-98070712D01*
X111017024Y-97716399D01*
X111371337Y-97186132D01*
X111495755Y-96560640D01*
X119644245Y-96560640D01*
X119768663Y-97186132D01*
X120122976Y-97716399D01*
X120653243Y-98070712D01*
X121278735Y-98195130D01*
X122363145Y-98195130D01*
X122988637Y-98070712D01*
X123193703Y-97933691D01*
X129683000Y-97933691D01*
X129683000Y-98774250D01*
X129841750Y-98933000D01*
X131191000Y-98933000D01*
X131191000Y-97583750D01*
X131445000Y-97583750D01*
X131445000Y-98933000D01*
X131465000Y-98933000D01*
X131465000Y-99187000D01*
X131445000Y-99187000D01*
X131445000Y-100536250D01*
X131603750Y-100695000D01*
X132444310Y-100695000D01*
X132677699Y-100598327D01*
X132856327Y-100419698D01*
X132870630Y-100385166D01*
X132930637Y-100445278D01*
X133531352Y-100694716D01*
X134181795Y-100695284D01*
X134782943Y-100446894D01*
X135243278Y-99987363D01*
X135492716Y-99386648D01*
X135493284Y-98736205D01*
X135244894Y-98135057D01*
X134785363Y-97674722D01*
X134184648Y-97425284D01*
X133534205Y-97424716D01*
X132933057Y-97673106D01*
X132870803Y-97735251D01*
X132856327Y-97700302D01*
X132677699Y-97521673D01*
X132444310Y-97425000D01*
X131603750Y-97425000D01*
X131445000Y-97583750D01*
X131191000Y-97583750D01*
X131032250Y-97425000D01*
X130191690Y-97425000D01*
X129958301Y-97521673D01*
X129779673Y-97700302D01*
X129683000Y-97933691D01*
X123193703Y-97933691D01*
X123518904Y-97716399D01*
X123873217Y-97186132D01*
X123997635Y-96560640D01*
X123873217Y-95935148D01*
X123711165Y-95692619D01*
X137464613Y-95692619D01*
X137804155Y-96514372D01*
X138432321Y-97143636D01*
X139253481Y-97484611D01*
X140142619Y-97485387D01*
X140964372Y-97145845D01*
X141593636Y-96517679D01*
X141934611Y-95696519D01*
X141935387Y-94807381D01*
X141595845Y-93985628D01*
X140967679Y-93356364D01*
X140146519Y-93015389D01*
X139257381Y-93014613D01*
X138435628Y-93354155D01*
X137806364Y-93982321D01*
X137465389Y-94803481D01*
X137464613Y-95692619D01*
X123711165Y-95692619D01*
X123518904Y-95404881D01*
X122988637Y-95050568D01*
X122363145Y-94926150D01*
X121278735Y-94926150D01*
X120653243Y-95050568D01*
X120122976Y-95404881D01*
X119768663Y-95935148D01*
X119644245Y-96560640D01*
X111495755Y-96560640D01*
X111371337Y-95935148D01*
X111017024Y-95404881D01*
X110486757Y-95050568D01*
X109861265Y-94926150D01*
X108776855Y-94926150D01*
X108151363Y-95050568D01*
X107621096Y-95404881D01*
X107266783Y-95935148D01*
X107142365Y-96560640D01*
X86305599Y-96560640D01*
X86348636Y-96517679D01*
X86689611Y-95696519D01*
X86690387Y-94807381D01*
X86482268Y-94303694D01*
X101235226Y-94303694D01*
X101483538Y-94904655D01*
X101942927Y-95364846D01*
X102543453Y-95614206D01*
X103193694Y-95614774D01*
X103794655Y-95366462D01*
X104254846Y-94907073D01*
X104504206Y-94306547D01*
X104504208Y-94303694D01*
X125365226Y-94303694D01*
X125613538Y-94904655D01*
X126072927Y-95364846D01*
X126673453Y-95614206D01*
X127323694Y-95614774D01*
X127924655Y-95366462D01*
X128384846Y-94907073D01*
X128634206Y-94306547D01*
X128634208Y-94303694D01*
X132985226Y-94303694D01*
X133233538Y-94904655D01*
X133692927Y-95364846D01*
X134293453Y-95614206D01*
X134943694Y-95614774D01*
X135544655Y-95366462D01*
X136004846Y-94907073D01*
X136254206Y-94306547D01*
X136254774Y-93656306D01*
X136006462Y-93055345D01*
X135547073Y-92595154D01*
X134946547Y-92345794D01*
X134296306Y-92345226D01*
X133695345Y-92593538D01*
X133235154Y-93052927D01*
X132985794Y-93653453D01*
X132985226Y-94303694D01*
X128634208Y-94303694D01*
X128634774Y-93656306D01*
X128386462Y-93055345D01*
X127927073Y-92595154D01*
X127326547Y-92345794D01*
X126676306Y-92345226D01*
X126075345Y-92593538D01*
X125615154Y-93052927D01*
X125365794Y-93653453D01*
X125365226Y-94303694D01*
X104504208Y-94303694D01*
X104504774Y-93656306D01*
X104256462Y-93055345D01*
X103797073Y-92595154D01*
X103196547Y-92345794D01*
X102546306Y-92345226D01*
X101945345Y-92593538D01*
X101485154Y-93052927D01*
X101235794Y-93653453D01*
X101235226Y-94303694D01*
X86482268Y-94303694D01*
X86350845Y-93985628D01*
X85722679Y-93356364D01*
X84901519Y-93015389D01*
X84012381Y-93014613D01*
X83190628Y-93354155D01*
X82561364Y-93982321D01*
X82220389Y-94803481D01*
X82219613Y-95692619D01*
X78333561Y-95692619D01*
X78346040Y-95631000D01*
X78346040Y-93599000D01*
X78301762Y-93363683D01*
X78162690Y-93147559D01*
X77950490Y-93002569D01*
X77698600Y-92951560D01*
X75971400Y-92951560D01*
X75736083Y-92995838D01*
X75519959Y-93134910D01*
X75374969Y-93347110D01*
X75366600Y-93388439D01*
X75354670Y-93370585D01*
X74868489Y-93045729D01*
X74295000Y-92931655D01*
X73721511Y-93045729D01*
X73235330Y-93370585D01*
X73025000Y-93685366D01*
X72814670Y-93370585D01*
X72328489Y-93045729D01*
X71755000Y-92931655D01*
X71181511Y-93045729D01*
X70695330Y-93370585D01*
X70485000Y-93685366D01*
X70274670Y-93370585D01*
X69788489Y-93045729D01*
X69215000Y-92931655D01*
X68641511Y-93045729D01*
X68155330Y-93370585D01*
X67948539Y-93680069D01*
X67577036Y-93264268D01*
X67049791Y-93010291D01*
X67034026Y-93007642D01*
X66802000Y-93128783D01*
X66548000Y-93128783D01*
X66474301Y-93090305D01*
X67362606Y-92202000D01*
X143457394Y-92202000D01*
X146558000Y-95302606D01*
M02*
