G04 #@! TF.FileFunction,Soldermask,Bot*
%FSLAX46Y46*%
G04 Gerber Fmt 4.6, Leading zero omitted, Abs format (unit mm)*
G04 Created by KiCad (PCBNEW 4.0.2-4+6225~38~ubuntu14.04.1-stable) date mer. 25 mai 2016 20:53:34 CEST*
%MOMM*%
G01*
G04 APERTURE LIST*
%ADD10C,0.100000*%
%ADD11C,0.150000*%
%ADD12O,2.940000X2.432000*%
%ADD13O,2.700000X2.000000*%
%ADD14R,2.432000X2.432000*%
%ADD15O,2.432000X2.432000*%
%ADD16O,2.000000X2.000000*%
%ADD17C,2.100000*%
%ADD18R,2.100000X2.100000*%
%ADD19R,2.127200X2.127200*%
%ADD20O,2.127200X2.127200*%
%ADD21O,2.000000X2.700000*%
%ADD22R,1.700000X1.700000*%
%ADD23C,1.700000*%
%ADD24C,1.400760*%
%ADD25C,2.398980*%
%ADD26R,1.600000X1.600000*%
%ADD27C,1.600000*%
%ADD28R,2.432000X2.127200*%
%ADD29O,2.432000X2.127200*%
%ADD30C,2.800300*%
%ADD31C,1.901140*%
%ADD32C,2.099260*%
%ADD33R,2.099260X2.099260*%
%ADD34R,2.127200X2.432000*%
%ADD35O,2.127200X2.432000*%
%ADD36R,2.940000X2.940000*%
%ADD37C,2.940000*%
%ADD38C,3.600000*%
%ADD39R,2.635200X2.635200*%
%ADD40C,2.400000*%
G04 APERTURE END LIST*
D10*
D11*
X30480000Y-123825000D02*
G75*
G03X33020000Y-126365000I2540000J0D01*
G01*
X33020000Y-126365000D02*
X127000000Y-126365000D01*
X127000000Y-126365000D02*
G75*
G03X129540000Y-123825000I0J2540000D01*
G01*
X129540000Y-29845000D02*
G75*
G03X127000000Y-27305000I-2540000J0D01*
G01*
X33020000Y-27305000D02*
G75*
G03X30480000Y-29845000I0J-2540000D01*
G01*
X129540000Y-123825000D02*
X129540000Y-29845000D01*
X30480000Y-29845000D02*
X30480000Y-123825000D01*
X33020000Y-27305000D02*
X127000000Y-27305000D01*
D12*
X65024000Y-77089000D03*
X65024000Y-79629000D03*
X65024000Y-74549000D03*
D13*
X104140000Y-45720000D03*
X104140000Y-48260000D03*
X104140000Y-50800000D03*
X104140000Y-53340000D03*
X104140000Y-55880000D03*
X104140000Y-58420000D03*
X104140000Y-60960000D03*
X104140000Y-63500000D03*
X104140000Y-66040000D03*
X104140000Y-68580000D03*
X104140000Y-71120000D03*
X104140000Y-73660000D03*
X104140000Y-76200000D03*
X104140000Y-78740000D03*
X119380000Y-78740000D03*
X119380000Y-76200000D03*
X119380000Y-73660000D03*
X119380000Y-71120000D03*
X119380000Y-68580000D03*
X119380000Y-66040000D03*
X119380000Y-63500000D03*
X119380000Y-60960000D03*
X119380000Y-58420000D03*
X119380000Y-55880000D03*
X119380000Y-53340000D03*
X119380000Y-50800000D03*
X119380000Y-48260000D03*
X119380000Y-45720000D03*
D14*
X39878000Y-76581000D03*
D15*
X39878000Y-74041000D03*
D16*
X51054000Y-43561000D03*
X51054000Y-46101000D03*
X51054000Y-48641000D03*
X51054000Y-51181000D03*
X58674000Y-51181000D03*
X58674000Y-48641000D03*
X58674000Y-46101000D03*
X58674000Y-43561000D03*
D17*
X55626000Y-72597000D03*
D18*
X55626000Y-77597000D03*
D17*
X55626000Y-58881000D03*
D18*
X55626000Y-63881000D03*
D14*
X66675000Y-32385000D03*
D15*
X66675000Y-29845000D03*
D19*
X34544000Y-41656000D03*
D20*
X37084000Y-41656000D03*
X34544000Y-44196000D03*
X37084000Y-44196000D03*
D21*
X120015000Y-86360000D03*
X117475000Y-86360000D03*
X114935000Y-86360000D03*
X112395000Y-86360000D03*
X109855000Y-86360000D03*
X107315000Y-86360000D03*
X104775000Y-86360000D03*
X102235000Y-86360000D03*
X102235000Y-93980000D03*
X104775000Y-93980000D03*
X107315000Y-93980000D03*
X109855000Y-93980000D03*
X112395000Y-93980000D03*
X114935000Y-93980000D03*
X117475000Y-93980000D03*
X120015000Y-93980000D03*
D13*
X76200000Y-45720000D03*
X76200000Y-48260000D03*
X76200000Y-50800000D03*
X76200000Y-53340000D03*
X76200000Y-55880000D03*
X76200000Y-58420000D03*
X76200000Y-60960000D03*
X76200000Y-63500000D03*
X76200000Y-66040000D03*
X76200000Y-68580000D03*
X76200000Y-71120000D03*
X76200000Y-73660000D03*
X76200000Y-76200000D03*
X76200000Y-78740000D03*
X91440000Y-78740000D03*
X91440000Y-76200000D03*
X91440000Y-73660000D03*
X91440000Y-71120000D03*
X91440000Y-68580000D03*
X91440000Y-66040000D03*
X91440000Y-63500000D03*
X91440000Y-60960000D03*
X91440000Y-58420000D03*
X91440000Y-55880000D03*
X91440000Y-53340000D03*
X91440000Y-50800000D03*
X91440000Y-48260000D03*
X91440000Y-45720000D03*
D16*
X39624000Y-114300000D03*
X42164000Y-114300000D03*
X44704000Y-114300000D03*
X47244000Y-114300000D03*
X49784000Y-114300000D03*
X52324000Y-114300000D03*
X54864000Y-114300000D03*
X57404000Y-114300000D03*
X59944000Y-114300000D03*
X62484000Y-114300000D03*
X65024000Y-114300000D03*
X67564000Y-114300000D03*
X70104000Y-114300000D03*
X72644000Y-114300000D03*
X75184000Y-114300000D03*
X77724000Y-114300000D03*
X80264000Y-114300000D03*
X82804000Y-114300000D03*
X85344000Y-114300000D03*
X87884000Y-114300000D03*
X87884000Y-99060000D03*
X85344000Y-99060000D03*
X82804000Y-99060000D03*
X80264000Y-99060000D03*
X77724000Y-99060000D03*
X75184000Y-99060000D03*
X72644000Y-99060000D03*
X70104000Y-99060000D03*
X67564000Y-99060000D03*
X65024000Y-99060000D03*
X62484000Y-99060000D03*
X59944000Y-99060000D03*
X57404000Y-99060000D03*
X54864000Y-99060000D03*
X52324000Y-99060000D03*
X49784000Y-99060000D03*
X47244000Y-99060000D03*
X44704000Y-99060000D03*
X42164000Y-99060000D03*
X39624000Y-99060000D03*
D22*
X101600000Y-38100000D03*
D23*
X101600000Y-35600000D03*
D24*
X107442000Y-38862000D03*
X106172000Y-37592000D03*
X108712000Y-37592000D03*
D25*
X108966000Y-41783000D03*
X116586000Y-41783000D03*
D24*
X88138000Y-38862000D03*
X86868000Y-37592000D03*
X89408000Y-37592000D03*
D19*
X39878000Y-92710000D03*
D20*
X39878000Y-90170000D03*
X42418000Y-92710000D03*
X42418000Y-90170000D03*
X44958000Y-92710000D03*
X44958000Y-90170000D03*
X47498000Y-92710000D03*
X47498000Y-90170000D03*
X50038000Y-92710000D03*
X50038000Y-90170000D03*
X52578000Y-92710000D03*
X52578000Y-90170000D03*
X55118000Y-92710000D03*
X55118000Y-90170000D03*
X57658000Y-92710000D03*
X57658000Y-90170000D03*
D26*
X65532000Y-117348000D03*
D27*
X65532000Y-119848000D03*
D26*
X80772000Y-117348000D03*
D27*
X80772000Y-119848000D03*
D26*
X100584000Y-45720000D03*
D27*
X100584000Y-48220000D03*
D26*
X100584000Y-50800000D03*
D27*
X100584000Y-53300000D03*
D26*
X72644000Y-45720000D03*
D27*
X72644000Y-48220000D03*
D26*
X72644000Y-50800000D03*
D27*
X72644000Y-53300000D03*
D26*
X124460000Y-91440000D03*
D27*
X124460000Y-93940000D03*
D26*
X62484000Y-119888000D03*
D27*
X62484000Y-117388000D03*
D26*
X106934000Y-116840000D03*
D27*
X106934000Y-114340000D03*
D26*
X123190000Y-57150000D03*
D27*
X123190000Y-54650000D03*
D26*
X97790000Y-92075000D03*
D27*
X97790000Y-94575000D03*
D26*
X117475000Y-30480000D03*
D27*
X114975000Y-30480000D03*
D26*
X84455000Y-30480000D03*
D27*
X86955000Y-30480000D03*
D26*
X108585000Y-30480000D03*
D27*
X111085000Y-30480000D03*
D26*
X78105000Y-30480000D03*
D27*
X80605000Y-30480000D03*
D16*
X114046000Y-110490000D03*
X114046000Y-107950000D03*
X114046000Y-105410000D03*
X114046000Y-102870000D03*
X106426000Y-102870000D03*
X106426000Y-105410000D03*
X106426000Y-107950000D03*
X106426000Y-110490000D03*
D19*
X37465000Y-53975000D03*
D20*
X37465000Y-56515000D03*
X34925000Y-53975000D03*
X34925000Y-56515000D03*
D14*
X37465000Y-59055000D03*
D15*
X34925000Y-59055000D03*
D19*
X93980000Y-103632000D03*
D20*
X96520000Y-103632000D03*
X93980000Y-106172000D03*
X96520000Y-106172000D03*
X93980000Y-108712000D03*
X96520000Y-108712000D03*
X93980000Y-111252000D03*
X96520000Y-111252000D03*
X93980000Y-113792000D03*
X96520000Y-113792000D03*
D28*
X123190000Y-102235000D03*
D29*
X123190000Y-104775000D03*
X123190000Y-107315000D03*
D28*
X123190000Y-111252000D03*
D29*
X123190000Y-113792000D03*
X123190000Y-116332000D03*
D14*
X124968000Y-41529000D03*
D15*
X124968000Y-38989000D03*
D14*
X113284000Y-115062000D03*
D15*
X110744000Y-115062000D03*
D14*
X55880000Y-86487000D03*
D15*
X53340000Y-86487000D03*
D25*
X40386000Y-59309000D03*
X48006000Y-59309000D03*
X40386000Y-56261000D03*
X48006000Y-56261000D03*
X90678000Y-117729000D03*
X98298000Y-117729000D03*
X35052000Y-106934000D03*
X35052000Y-114554000D03*
X119888000Y-37084000D03*
X112268000Y-37084000D03*
X81788000Y-37084000D03*
X74168000Y-37084000D03*
X74168000Y-40640000D03*
X81788000Y-40640000D03*
X112268000Y-33528000D03*
X119888000Y-33528000D03*
X81788000Y-33528000D03*
X74168000Y-33528000D03*
X34798000Y-85344000D03*
X34798000Y-92964000D03*
X102616000Y-107061000D03*
X102616000Y-99441000D03*
X102616000Y-111379000D03*
X102616000Y-118999000D03*
X114300000Y-98552000D03*
X106680000Y-98552000D03*
X114300000Y-119634000D03*
X106680000Y-119634000D03*
X124968000Y-98552000D03*
X117348000Y-98552000D03*
X61722000Y-91059000D03*
X61722000Y-83439000D03*
D30*
X33020000Y-97790000D03*
X35560000Y-100330000D03*
X33020000Y-102870000D03*
D21*
X93345000Y-86360000D03*
X90805000Y-86360000D03*
X88265000Y-86360000D03*
X85725000Y-86360000D03*
X83185000Y-86360000D03*
X80645000Y-86360000D03*
X78105000Y-86360000D03*
X75565000Y-86360000D03*
X75565000Y-93980000D03*
X78105000Y-93980000D03*
X80645000Y-93980000D03*
X83185000Y-93980000D03*
X85725000Y-93980000D03*
X88265000Y-93980000D03*
X90805000Y-93980000D03*
X93345000Y-93980000D03*
D16*
X51054000Y-31115000D03*
X51054000Y-33655000D03*
X51054000Y-36195000D03*
X51054000Y-38735000D03*
X58674000Y-38735000D03*
X58674000Y-36195000D03*
X58674000Y-33655000D03*
X58674000Y-31115000D03*
X40386000Y-43561000D03*
X40386000Y-46101000D03*
X40386000Y-48641000D03*
X40386000Y-51181000D03*
X48006000Y-51181000D03*
X48006000Y-48641000D03*
X48006000Y-46101000D03*
X48006000Y-43561000D03*
X40386000Y-31115000D03*
X40386000Y-33655000D03*
X40386000Y-36195000D03*
X40386000Y-38735000D03*
X48006000Y-38735000D03*
X48006000Y-36195000D03*
X48006000Y-33655000D03*
X48006000Y-31115000D03*
D31*
X75592940Y-118364000D03*
X70711060Y-118364000D03*
D22*
X95504000Y-38100000D03*
D23*
X95504000Y-35600000D03*
D26*
X94615000Y-50800000D03*
D27*
X94615000Y-53300000D03*
D26*
X61468000Y-93980000D03*
D27*
X61468000Y-96480000D03*
D32*
X117094000Y-102997000D03*
D33*
X117094000Y-110617000D03*
D32*
X58928000Y-83439000D03*
D33*
X51562000Y-83439000D03*
D34*
X101600000Y-31115000D03*
D35*
X99060000Y-31115000D03*
X96520000Y-31115000D03*
X93980000Y-31115000D03*
D26*
X125730000Y-51181000D03*
D27*
X123230000Y-51181000D03*
D26*
X65405000Y-41910000D03*
D27*
X67905000Y-41910000D03*
D22*
X124968000Y-47625000D03*
D23*
X124968000Y-45125000D03*
D22*
X66675000Y-38735000D03*
D23*
X66675000Y-36235000D03*
D26*
X44450000Y-75565000D03*
D27*
X46950000Y-75565000D03*
D26*
X64770000Y-86995000D03*
D27*
X67270000Y-86995000D03*
D26*
X44450000Y-62357000D03*
D27*
X46950000Y-62357000D03*
D26*
X64770000Y-53467000D03*
D27*
X67270000Y-53467000D03*
D22*
X67310000Y-92075000D03*
D23*
X64810000Y-92075000D03*
D22*
X67310000Y-48641000D03*
D23*
X64810000Y-48641000D03*
D12*
X65024000Y-62357000D03*
X65024000Y-64897000D03*
X65024000Y-59817000D03*
D36*
X34544000Y-65024000D03*
D37*
X34544000Y-70104000D03*
D36*
X34544000Y-75819000D03*
D37*
X34544000Y-80899000D03*
D38*
X34290000Y-122555000D03*
X125730000Y-122555000D03*
X34290000Y-31115000D03*
X125730000Y-31115000D03*
D19*
X40640000Y-121031000D03*
D20*
X40640000Y-118491000D03*
X43180000Y-121031000D03*
X43180000Y-118491000D03*
X45720000Y-121031000D03*
X45720000Y-118491000D03*
X48260000Y-121031000D03*
X48260000Y-118491000D03*
X50800000Y-121031000D03*
X50800000Y-118491000D03*
X53340000Y-121031000D03*
X53340000Y-118491000D03*
D28*
X57785000Y-117475000D03*
D29*
X57785000Y-120015000D03*
X57785000Y-122555000D03*
D26*
X94488000Y-41783000D03*
D27*
X91988000Y-41783000D03*
D26*
X121920000Y-41529000D03*
D27*
X119420000Y-41529000D03*
D39*
X60452000Y-68199000D03*
X50800000Y-68453000D03*
D40*
X41950000Y-85130000D03*
X47030000Y-85130000D03*
X47030000Y-80050000D03*
X41950000Y-80050000D03*
X41950000Y-71160000D03*
X47030000Y-71160000D03*
X47030000Y-66080000D03*
X41950000Y-66080000D03*
M02*
