M48
;DRILL file {KiCad 4.0.2-4+6225~38~ubuntu14.04.1-stable} date mer. 25 mai 2016 20:53:39 CEST
;FORMAT={-:-/ absolute / inch / decimal}
FMAT,2
INCH,TZ
T1C0.016
T2C0.024
T3C0.028
T4C0.028
T5C0.031
T6C0.032
T7C0.039
T8C0.039
T9C0.040
T10C0.045
T11C0.047
T12C0.059
T13C0.060
T14C0.126
%
G90
G05
M72
T1
X1.4Y-3.75
X2.55Y-3.98
X2.55Y-4.04
X2.9Y-2.6
X3.3Y-3.58
X3.3975Y-1.8975
X3.44Y-3.54
T2
X3.42Y-1.48
X3.47Y-1.53
X3.52Y-1.48
X4.18Y-1.48
X4.23Y-1.53
X4.28Y-1.48
T3
X1.75Y-2.455
X1.75Y-2.975
X1.8484Y-2.455
X1.8484Y-2.975
X2.42Y-3.7
X2.42Y-3.7984
X2.46Y-4.6216
X2.46Y-4.72
X2.55Y-2.105
X2.55Y-3.425
X2.575Y-1.65
X2.58Y-4.62
X2.58Y-4.7184
X2.6484Y-2.105
X2.6484Y-3.425
X2.6734Y-1.65
X2.86Y-1.8
X2.86Y-1.8984
X2.86Y-2.
X2.86Y-2.0984
X3.075Y-1.2
X3.1734Y-1.2
X3.18Y-4.62
X3.18Y-4.7184
X3.325Y-1.2
X3.4234Y-1.2
X3.6216Y-1.645
X3.72Y-1.645
X3.725Y-2.
X3.725Y-2.0984
X3.85Y-3.625
X3.85Y-3.7234
X3.96Y-1.8
X3.96Y-1.8984
X3.96Y-2.
X3.96Y-2.0984
X4.21Y-4.5016
X4.21Y-4.6
X4.275Y-1.2
X4.3734Y-1.2
X4.5266Y-1.2
X4.625Y-1.2
X4.7016Y-1.635
X4.8Y-1.635
X4.85Y-2.1516
X4.85Y-2.25
X4.8516Y-2.015
X4.9Y-3.6
X4.9Y-3.6984
X4.95Y-2.015
T4
X2.03Y-3.285
X2.32Y-3.285
X4.61Y-4.055
X4.61Y-4.355
T5
X1.56Y-3.9
X1.56Y-4.5
X1.59Y-1.225
X1.59Y-1.325
X1.59Y-1.425
X1.59Y-1.525
X1.59Y-1.715
X1.59Y-1.815
X1.59Y-1.915
X1.59Y-2.015
X1.66Y-3.9
X1.66Y-4.5
X1.76Y-3.9
X1.76Y-4.5
X1.86Y-3.9
X1.86Y-4.5
X1.89Y-1.225
X1.89Y-1.325
X1.89Y-1.425
X1.89Y-1.525
X1.89Y-1.715
X1.89Y-1.815
X1.89Y-1.915
X1.89Y-2.015
X1.96Y-3.9
X1.96Y-4.5
X2.01Y-1.225
X2.01Y-1.325
X2.01Y-1.425
X2.01Y-1.525
X2.01Y-1.715
X2.01Y-1.815
X2.01Y-1.915
X2.01Y-2.015
X2.06Y-3.9
X2.06Y-4.5
X2.16Y-3.9
X2.16Y-4.5
X2.26Y-3.9
X2.26Y-4.5
X2.31Y-1.225
X2.31Y-1.325
X2.31Y-1.425
X2.31Y-1.525
X2.31Y-1.715
X2.31Y-1.815
X2.31Y-1.915
X2.31Y-2.015
X2.36Y-3.9
X2.36Y-4.5
X2.46Y-3.9
X2.46Y-4.5
X2.5516Y-1.915
X2.5516Y-3.625
X2.56Y-3.9
X2.56Y-4.5
X2.625Y-1.4266
X2.625Y-1.525
X2.65Y-1.915
X2.65Y-3.625
X2.66Y-3.9
X2.66Y-4.5
X2.76Y-3.9
X2.76Y-4.5
X2.86Y-3.9
X2.86Y-4.5
X2.96Y-3.9
X2.96Y-4.5
X2.975Y-3.4
X2.975Y-3.7
X3.Y-1.8
X3.Y-1.9
X3.Y-2.
X3.Y-2.1
X3.Y-2.2
X3.Y-2.3
X3.Y-2.4
X3.Y-2.5
X3.Y-2.6
X3.Y-2.7
X3.Y-2.8
X3.Y-2.9
X3.Y-3.
X3.Y-3.1
X3.06Y-3.9
X3.06Y-4.5
X3.075Y-3.4
X3.075Y-3.7
X3.16Y-3.9
X3.16Y-4.5
X3.175Y-3.4
X3.175Y-3.7
X3.26Y-3.9
X3.26Y-4.5
X3.275Y-3.4
X3.275Y-3.7
X3.36Y-3.9
X3.36Y-4.5
X3.375Y-3.4
X3.375Y-3.7
X3.46Y-3.9
X3.46Y-4.5
X3.475Y-3.4
X3.475Y-3.7
X3.575Y-3.4
X3.575Y-3.7
X3.6Y-1.8
X3.6Y-1.9
X3.6Y-2.
X3.6Y-2.1
X3.6Y-2.2
X3.6Y-2.3
X3.6Y-2.4
X3.6Y-2.5
X3.6Y-2.6
X3.6Y-2.7
X3.6Y-2.8
X3.6Y-2.9
X3.6Y-3.
X3.6Y-3.1
X3.675Y-3.4
X3.675Y-3.7
X3.76Y-1.4016
X3.76Y-1.5
X4.Y-1.4016
X4.Y-1.5
X4.025Y-3.4
X4.025Y-3.7
X4.1Y-1.8
X4.1Y-1.9
X4.1Y-2.
X4.1Y-2.1
X4.1Y-2.2
X4.1Y-2.3
X4.1Y-2.4
X4.1Y-2.5
X4.1Y-2.6
X4.1Y-2.7
X4.1Y-2.8
X4.1Y-2.9
X4.1Y-3.
X4.1Y-3.1
X4.125Y-3.4
X4.125Y-3.7
X4.19Y-4.05
X4.19Y-4.15
X4.19Y-4.25
X4.19Y-4.35
X4.225Y-3.4
X4.225Y-3.7
X4.325Y-3.4
X4.325Y-3.7
X4.425Y-3.4
X4.425Y-3.7
X4.49Y-4.05
X4.49Y-4.15
X4.49Y-4.25
X4.49Y-4.35
X4.525Y-3.4
X4.525Y-3.7
X4.625Y-3.4
X4.625Y-3.7
X4.7Y-1.8
X4.7Y-1.9
X4.7Y-2.
X4.7Y-2.1
X4.7Y-2.2
X4.7Y-2.3
X4.7Y-2.4
X4.7Y-2.5
X4.7Y-2.6
X4.7Y-2.7
X4.7Y-2.8
X4.7Y-2.9
X4.7Y-3.
X4.7Y-3.1
X4.725Y-3.4
X4.725Y-3.7
X4.92Y-1.7766
X4.92Y-1.875
T6
X2.7839Y-4.66
X2.9761Y-4.66
T7
X1.6516Y-2.6016
X1.6516Y-2.8016
X1.6516Y-3.1516
X1.6516Y-3.3516
X1.8516Y-2.6016
X1.8516Y-2.8016
X1.8516Y-3.1516
X1.8516Y-3.3516
T8
X1.37Y-3.36
X1.37Y-3.66
X1.38Y-4.21
X1.38Y-4.51
X1.59Y-2.215
X1.59Y-2.335
X1.89Y-2.215
X1.89Y-2.335
X2.43Y-3.285
X2.43Y-3.585
X2.92Y-1.32
X2.92Y-1.46
X2.92Y-1.6
X3.22Y-1.32
X3.22Y-1.46
X3.22Y-1.6
X3.57Y-4.635
X3.87Y-4.635
X4.04Y-3.915
X4.04Y-4.215
X4.04Y-4.385
X4.04Y-4.685
X4.2Y-3.88
X4.2Y-4.71
X4.29Y-1.645
X4.42Y-1.32
X4.42Y-1.46
X4.5Y-3.88
X4.5Y-4.71
X4.59Y-1.645
X4.62Y-3.88
X4.72Y-1.32
X4.72Y-1.46
X4.92Y-3.88
T9
X1.36Y-1.64
X1.36Y-1.74
X1.375Y-2.125
X1.375Y-2.225
X1.375Y-2.325
X1.46Y-1.64
X1.46Y-1.74
X1.475Y-2.125
X1.475Y-2.225
X1.475Y-2.325
X1.57Y-2.915
X1.57Y-3.015
X1.57Y-3.55
X1.57Y-3.65
X1.6Y-4.665
X1.6Y-4.765
X1.67Y-3.55
X1.67Y-3.65
X1.7Y-4.665
X1.7Y-4.765
X1.77Y-3.55
X1.77Y-3.65
X1.8Y-4.665
X1.8Y-4.765
X1.87Y-3.55
X1.87Y-3.65
X1.9Y-4.665
X1.9Y-4.765
X1.97Y-3.55
X1.97Y-3.65
X2.Y-2.695
X2.Y-4.665
X2.Y-4.765
X2.07Y-3.55
X2.07Y-3.65
X2.1Y-3.405
X2.1Y-4.665
X2.1Y-4.765
X2.17Y-3.55
X2.17Y-3.65
X2.2Y-3.405
X2.27Y-3.55
X2.27Y-3.65
X2.275Y-4.625
X2.275Y-4.725
X2.275Y-4.825
X2.38Y-2.685
X2.625Y-1.175
X2.625Y-1.275
X3.7Y-1.225
X3.7Y-4.08
X3.7Y-4.18
X3.7Y-4.28
X3.7Y-4.38
X3.7Y-4.48
X3.8Y-1.225
X3.8Y-4.08
X3.8Y-4.18
X3.8Y-4.28
X3.8Y-4.38
X3.8Y-4.48
X3.9Y-1.225
X4.Y-1.225
X4.36Y-4.53
X4.46Y-4.53
X4.85Y-4.025
X4.85Y-4.125
X4.85Y-4.225
X4.85Y-4.38
X4.85Y-4.48
X4.85Y-4.58
X4.92Y-1.535
X4.92Y-1.635
T10
X2.56Y-2.355
X2.56Y-2.455
X2.56Y-2.555
X2.56Y-2.935
X2.56Y-3.035
X2.56Y-3.135
T11
X2.19Y-2.3181
X2.19Y-2.515
X2.19Y-2.8581
X2.19Y-3.055
T12
X1.3Y-3.85
X1.3Y-4.05
X1.4Y-3.95
T13
X1.36Y-2.56
X1.36Y-2.76
X1.36Y-2.985
X1.36Y-3.185
T14
X1.35Y-1.225
X1.35Y-4.825
X4.95Y-1.225
X4.95Y-4.825
T0
M30
