G04 #@! TF.FileFunction,Copper,L2,Bot,Signal*
%FSLAX46Y46*%
G04 Gerber Fmt 4.6, Leading zero omitted, Abs format (unit mm)*
G04 Created by KiCad (PCBNEW 4.0.2-4+6225~38~ubuntu14.04.1-stable) date jeu. 24 mars 2016 21:10:25 CET*
%MOMM*%
G01*
G04 APERTURE LIST*
%ADD10C,0.150000*%
%ADD11O,1.600000X2.300000*%
%ADD12R,1.727200X2.032000*%
%ADD13O,1.727200X2.032000*%
%ADD14R,1.750060X1.750060*%
%ADD15C,3.299460*%
%ADD16O,1.998980X2.999740*%
%ADD17R,1.300000X1.300000*%
%ADD18C,1.300000*%
%ADD19R,1.397000X1.397000*%
%ADD20C,1.397000*%
%ADD21C,1.998980*%
%ADD22C,0.400000*%
%ADD23C,0.254000*%
G04 APERTURE END LIST*
D10*
X168910000Y-88900000D02*
G75*
G03X166370000Y-86360000I-2540000J0D01*
G01*
X166370000Y-127000000D02*
G75*
G03X168910000Y-124460000I0J2540000D01*
G01*
X85090000Y-124460000D02*
G75*
G03X87630000Y-127000000I2540000J0D01*
G01*
X87630000Y-86360000D02*
G75*
G03X85090000Y-88900000I0J-2540000D01*
G01*
X85090000Y-124460000D02*
X85090000Y-88900000D01*
X166370000Y-127000000D02*
X87630000Y-127000000D01*
X168910000Y-88900000D02*
X168910000Y-124460000D01*
X87630000Y-86360000D02*
X166370000Y-86360000D01*
D11*
X121285000Y-89535000D03*
X123825000Y-89535000D03*
X126365000Y-89535000D03*
X128905000Y-89535000D03*
X131445000Y-89535000D03*
X133985000Y-89535000D03*
X136525000Y-89535000D03*
X139065000Y-89535000D03*
X139065000Y-97155000D03*
X136525000Y-97155000D03*
X133985000Y-97155000D03*
X131445000Y-97155000D03*
X128905000Y-97155000D03*
X126365000Y-97155000D03*
X123825000Y-97155000D03*
X121285000Y-97155000D03*
D12*
X88265000Y-95885000D03*
D13*
X90805000Y-95885000D03*
X93345000Y-95885000D03*
X95885000Y-95885000D03*
X98425000Y-95885000D03*
D12*
X88265000Y-92075000D03*
D13*
X90805000Y-92075000D03*
X93345000Y-92075000D03*
X95885000Y-92075000D03*
X98425000Y-92075000D03*
D14*
X157520640Y-90289380D03*
X160020000Y-90233500D03*
X162519360Y-90289380D03*
D15*
X154221180Y-97790000D03*
X165818820Y-97790000D03*
D14*
X157520640Y-104790240D03*
X162519360Y-104790240D03*
D16*
X93939360Y-100429060D03*
X93939360Y-112930940D03*
X88940640Y-112930940D03*
X88940640Y-100429060D03*
X107274360Y-100429060D03*
X107274360Y-112930940D03*
X102275640Y-112930940D03*
X102275640Y-100429060D03*
X120609360Y-100429060D03*
X120609360Y-112930940D03*
X115610640Y-112930940D03*
X115610640Y-100429060D03*
X133944360Y-100429060D03*
X133944360Y-112930940D03*
X128945640Y-112930940D03*
X128945640Y-100429060D03*
X147279360Y-100429060D03*
X147279360Y-112930940D03*
X142280640Y-112930940D03*
X142280640Y-100429060D03*
X157520640Y-120550940D03*
X157520640Y-108049060D03*
X162519360Y-108049060D03*
X162519360Y-120550940D03*
D17*
X116840000Y-96520000D03*
D18*
X114340000Y-96520000D03*
D19*
X116205000Y-120015000D03*
D20*
X118745000Y-120015000D03*
X121285000Y-120015000D03*
X123825000Y-120015000D03*
X126365000Y-120015000D03*
X128905000Y-120015000D03*
X131445000Y-120015000D03*
X133985000Y-120015000D03*
X136525000Y-120015000D03*
D21*
X96520000Y-88900000D03*
X88900000Y-88900000D03*
D22*
X121285000Y-97155000D02*
X117475000Y-97155000D01*
X117475000Y-97155000D02*
X116840000Y-96520000D01*
D23*
G36*
X168148000Y-90222606D02*
X168148000Y-123137394D01*
X165047394Y-126238000D01*
X88952606Y-126238000D01*
X86347225Y-123632619D01*
X103809613Y-123632619D01*
X104149155Y-124454372D01*
X104777321Y-125083636D01*
X105598481Y-125424611D01*
X106487619Y-125425387D01*
X107309372Y-125085845D01*
X107938636Y-124457679D01*
X108279611Y-123636519D01*
X108279614Y-123632619D01*
X146989613Y-123632619D01*
X147329155Y-124454372D01*
X147957321Y-125083636D01*
X148778481Y-125424611D01*
X149667619Y-125425387D01*
X150489372Y-125085845D01*
X151118636Y-124457679D01*
X151459611Y-123636519D01*
X151460387Y-122747381D01*
X151120845Y-121925628D01*
X150492679Y-121296364D01*
X149671519Y-120955389D01*
X148782381Y-120954613D01*
X147960628Y-121294155D01*
X147331364Y-121922321D01*
X146990389Y-122743481D01*
X146989613Y-123632619D01*
X108279614Y-123632619D01*
X108280387Y-122747381D01*
X107940845Y-121925628D01*
X107312679Y-121296364D01*
X106491519Y-120955389D01*
X105602381Y-120954613D01*
X104780628Y-121294155D01*
X104151364Y-121922321D01*
X103810389Y-122743481D01*
X103809613Y-123632619D01*
X86347225Y-123632619D01*
X85852000Y-123137394D01*
X85852000Y-119316500D01*
X114859060Y-119316500D01*
X114859060Y-120713500D01*
X114903338Y-120948817D01*
X115042410Y-121164941D01*
X115254610Y-121309931D01*
X115506500Y-121360940D01*
X116903500Y-121360940D01*
X117138817Y-121316662D01*
X117354941Y-121177590D01*
X117499931Y-120965390D01*
X117550940Y-120713500D01*
X117550940Y-120617116D01*
X117613854Y-120769380D01*
X117988647Y-121144827D01*
X118478587Y-121348268D01*
X119009086Y-121348731D01*
X119499380Y-121146146D01*
X119874827Y-120771353D01*
X120015094Y-120433554D01*
X120153854Y-120769380D01*
X120528647Y-121144827D01*
X121018587Y-121348268D01*
X121549086Y-121348731D01*
X122039380Y-121146146D01*
X122414827Y-120771353D01*
X122555094Y-120433554D01*
X122693854Y-120769380D01*
X123068647Y-121144827D01*
X123558587Y-121348268D01*
X124089086Y-121348731D01*
X124579380Y-121146146D01*
X124954827Y-120771353D01*
X125095094Y-120433554D01*
X125233854Y-120769380D01*
X125608647Y-121144827D01*
X126098587Y-121348268D01*
X126629086Y-121348731D01*
X127119380Y-121146146D01*
X127494827Y-120771353D01*
X127635094Y-120433554D01*
X127773854Y-120769380D01*
X128148647Y-121144827D01*
X128638587Y-121348268D01*
X129169086Y-121348731D01*
X129659380Y-121146146D01*
X130034827Y-120771353D01*
X130175094Y-120433554D01*
X130313854Y-120769380D01*
X130688647Y-121144827D01*
X131178587Y-121348268D01*
X131709086Y-121348731D01*
X132199380Y-121146146D01*
X132574827Y-120771353D01*
X132715094Y-120433554D01*
X132853854Y-120769380D01*
X133228647Y-121144827D01*
X133718587Y-121348268D01*
X134249086Y-121348731D01*
X134739380Y-121146146D01*
X135114827Y-120771353D01*
X135255094Y-120433554D01*
X135393854Y-120769380D01*
X135768647Y-121144827D01*
X136258587Y-121348268D01*
X136789086Y-121348731D01*
X137279380Y-121146146D01*
X137654827Y-120771353D01*
X137858268Y-120281413D01*
X137858505Y-120008735D01*
X155886150Y-120008735D01*
X155886150Y-121093145D01*
X156010568Y-121718637D01*
X156364881Y-122248904D01*
X156895148Y-122603217D01*
X157520640Y-122727635D01*
X158146132Y-122603217D01*
X158676399Y-122248904D01*
X159030712Y-121718637D01*
X159155130Y-121093145D01*
X159155130Y-120677940D01*
X160884870Y-120677940D01*
X160884870Y-121178320D01*
X161057889Y-121794145D01*
X161453404Y-122296882D01*
X162011201Y-122609993D01*
X162139006Y-122640939D01*
X162392360Y-122521585D01*
X162392360Y-120677940D01*
X162646360Y-120677940D01*
X162646360Y-122521585D01*
X162899714Y-122640939D01*
X163027519Y-122609993D01*
X163585316Y-122296882D01*
X163980831Y-121794145D01*
X164153850Y-121178320D01*
X164153850Y-120677940D01*
X162646360Y-120677940D01*
X162392360Y-120677940D01*
X160884870Y-120677940D01*
X159155130Y-120677940D01*
X159155130Y-120008735D01*
X159138188Y-119923560D01*
X160884870Y-119923560D01*
X160884870Y-120423940D01*
X162392360Y-120423940D01*
X162392360Y-118580295D01*
X162646360Y-118580295D01*
X162646360Y-120423940D01*
X164153850Y-120423940D01*
X164153850Y-119923560D01*
X163980831Y-119307735D01*
X163585316Y-118804998D01*
X163027519Y-118491887D01*
X162899714Y-118460941D01*
X162646360Y-118580295D01*
X162392360Y-118580295D01*
X162139006Y-118460941D01*
X162011201Y-118491887D01*
X161453404Y-118804998D01*
X161057889Y-119307735D01*
X160884870Y-119923560D01*
X159138188Y-119923560D01*
X159030712Y-119383243D01*
X158676399Y-118852976D01*
X158146132Y-118498663D01*
X157520640Y-118374245D01*
X156895148Y-118498663D01*
X156364881Y-118852976D01*
X156010568Y-119383243D01*
X155886150Y-120008735D01*
X137858505Y-120008735D01*
X137858731Y-119750914D01*
X137656146Y-119260620D01*
X137281353Y-118885173D01*
X136791413Y-118681732D01*
X136260914Y-118681269D01*
X135770620Y-118883854D01*
X135395173Y-119258647D01*
X135254906Y-119596446D01*
X135116146Y-119260620D01*
X134741353Y-118885173D01*
X134251413Y-118681732D01*
X133720914Y-118681269D01*
X133230620Y-118883854D01*
X132855173Y-119258647D01*
X132714906Y-119596446D01*
X132576146Y-119260620D01*
X132201353Y-118885173D01*
X131711413Y-118681732D01*
X131180914Y-118681269D01*
X130690620Y-118883854D01*
X130315173Y-119258647D01*
X130174906Y-119596446D01*
X130036146Y-119260620D01*
X129661353Y-118885173D01*
X129171413Y-118681732D01*
X128640914Y-118681269D01*
X128150620Y-118883854D01*
X127775173Y-119258647D01*
X127634906Y-119596446D01*
X127496146Y-119260620D01*
X127121353Y-118885173D01*
X126631413Y-118681732D01*
X126100914Y-118681269D01*
X125610620Y-118883854D01*
X125235173Y-119258647D01*
X125094906Y-119596446D01*
X124956146Y-119260620D01*
X124581353Y-118885173D01*
X124091413Y-118681732D01*
X123560914Y-118681269D01*
X123070620Y-118883854D01*
X122695173Y-119258647D01*
X122554906Y-119596446D01*
X122416146Y-119260620D01*
X122041353Y-118885173D01*
X121551413Y-118681732D01*
X121020914Y-118681269D01*
X120530620Y-118883854D01*
X120155173Y-119258647D01*
X120014906Y-119596446D01*
X119876146Y-119260620D01*
X119501353Y-118885173D01*
X119011413Y-118681732D01*
X118480914Y-118681269D01*
X117990620Y-118883854D01*
X117615173Y-119258647D01*
X117550940Y-119413337D01*
X117550940Y-119316500D01*
X117506662Y-119081183D01*
X117367590Y-118865059D01*
X117155390Y-118720069D01*
X116903500Y-118669060D01*
X115506500Y-118669060D01*
X115271183Y-118713338D01*
X115055059Y-118852410D01*
X114910069Y-119064610D01*
X114859060Y-119316500D01*
X85852000Y-119316500D01*
X85852000Y-113057940D01*
X87306150Y-113057940D01*
X87306150Y-113558320D01*
X87479169Y-114174145D01*
X87874684Y-114676882D01*
X88432481Y-114989993D01*
X88560286Y-115020939D01*
X88813640Y-114901585D01*
X88813640Y-113057940D01*
X89067640Y-113057940D01*
X89067640Y-114901585D01*
X89320994Y-115020939D01*
X89448799Y-114989993D01*
X90006596Y-114676882D01*
X90402111Y-114174145D01*
X90575130Y-113558320D01*
X90575130Y-113057940D01*
X89067640Y-113057940D01*
X88813640Y-113057940D01*
X87306150Y-113057940D01*
X85852000Y-113057940D01*
X85852000Y-112303560D01*
X87306150Y-112303560D01*
X87306150Y-112803940D01*
X88813640Y-112803940D01*
X88813640Y-110960295D01*
X89067640Y-110960295D01*
X89067640Y-112803940D01*
X90575130Y-112803940D01*
X90575130Y-112388735D01*
X92304870Y-112388735D01*
X92304870Y-113473145D01*
X92429288Y-114098637D01*
X92783601Y-114628904D01*
X93313868Y-114983217D01*
X93939360Y-115107635D01*
X94564852Y-114983217D01*
X95095119Y-114628904D01*
X95449432Y-114098637D01*
X95573850Y-113473145D01*
X95573850Y-113057940D01*
X100641150Y-113057940D01*
X100641150Y-113558320D01*
X100814169Y-114174145D01*
X101209684Y-114676882D01*
X101767481Y-114989993D01*
X101895286Y-115020939D01*
X102148640Y-114901585D01*
X102148640Y-113057940D01*
X102402640Y-113057940D01*
X102402640Y-114901585D01*
X102655994Y-115020939D01*
X102783799Y-114989993D01*
X103341596Y-114676882D01*
X103737111Y-114174145D01*
X103910130Y-113558320D01*
X103910130Y-113057940D01*
X102402640Y-113057940D01*
X102148640Y-113057940D01*
X100641150Y-113057940D01*
X95573850Y-113057940D01*
X95573850Y-112388735D01*
X95556908Y-112303560D01*
X100641150Y-112303560D01*
X100641150Y-112803940D01*
X102148640Y-112803940D01*
X102148640Y-110960295D01*
X102402640Y-110960295D01*
X102402640Y-112803940D01*
X103910130Y-112803940D01*
X103910130Y-112388735D01*
X105639870Y-112388735D01*
X105639870Y-113473145D01*
X105764288Y-114098637D01*
X106118601Y-114628904D01*
X106648868Y-114983217D01*
X107274360Y-115107635D01*
X107899852Y-114983217D01*
X108430119Y-114628904D01*
X108784432Y-114098637D01*
X108908850Y-113473145D01*
X108908850Y-113057940D01*
X113976150Y-113057940D01*
X113976150Y-113558320D01*
X114149169Y-114174145D01*
X114544684Y-114676882D01*
X115102481Y-114989993D01*
X115230286Y-115020939D01*
X115483640Y-114901585D01*
X115483640Y-113057940D01*
X115737640Y-113057940D01*
X115737640Y-114901585D01*
X115990994Y-115020939D01*
X116118799Y-114989993D01*
X116676596Y-114676882D01*
X117072111Y-114174145D01*
X117245130Y-113558320D01*
X117245130Y-113057940D01*
X115737640Y-113057940D01*
X115483640Y-113057940D01*
X113976150Y-113057940D01*
X108908850Y-113057940D01*
X108908850Y-112388735D01*
X108891908Y-112303560D01*
X113976150Y-112303560D01*
X113976150Y-112803940D01*
X115483640Y-112803940D01*
X115483640Y-110960295D01*
X115737640Y-110960295D01*
X115737640Y-112803940D01*
X117245130Y-112803940D01*
X117245130Y-112388735D01*
X118974870Y-112388735D01*
X118974870Y-113473145D01*
X119099288Y-114098637D01*
X119453601Y-114628904D01*
X119983868Y-114983217D01*
X120609360Y-115107635D01*
X121234852Y-114983217D01*
X121765119Y-114628904D01*
X122119432Y-114098637D01*
X122243850Y-113473145D01*
X122243850Y-113057940D01*
X127311150Y-113057940D01*
X127311150Y-113558320D01*
X127484169Y-114174145D01*
X127879684Y-114676882D01*
X128437481Y-114989993D01*
X128565286Y-115020939D01*
X128818640Y-114901585D01*
X128818640Y-113057940D01*
X129072640Y-113057940D01*
X129072640Y-114901585D01*
X129325994Y-115020939D01*
X129453799Y-114989993D01*
X130011596Y-114676882D01*
X130407111Y-114174145D01*
X130580130Y-113558320D01*
X130580130Y-113057940D01*
X129072640Y-113057940D01*
X128818640Y-113057940D01*
X127311150Y-113057940D01*
X122243850Y-113057940D01*
X122243850Y-112388735D01*
X122226908Y-112303560D01*
X127311150Y-112303560D01*
X127311150Y-112803940D01*
X128818640Y-112803940D01*
X128818640Y-110960295D01*
X129072640Y-110960295D01*
X129072640Y-112803940D01*
X130580130Y-112803940D01*
X130580130Y-112388735D01*
X132309870Y-112388735D01*
X132309870Y-113473145D01*
X132434288Y-114098637D01*
X132788601Y-114628904D01*
X133318868Y-114983217D01*
X133944360Y-115107635D01*
X134569852Y-114983217D01*
X135100119Y-114628904D01*
X135454432Y-114098637D01*
X135578850Y-113473145D01*
X135578850Y-113057940D01*
X140646150Y-113057940D01*
X140646150Y-113558320D01*
X140819169Y-114174145D01*
X141214684Y-114676882D01*
X141772481Y-114989993D01*
X141900286Y-115020939D01*
X142153640Y-114901585D01*
X142153640Y-113057940D01*
X142407640Y-113057940D01*
X142407640Y-114901585D01*
X142660994Y-115020939D01*
X142788799Y-114989993D01*
X143346596Y-114676882D01*
X143742111Y-114174145D01*
X143915130Y-113558320D01*
X143915130Y-113057940D01*
X142407640Y-113057940D01*
X142153640Y-113057940D01*
X140646150Y-113057940D01*
X135578850Y-113057940D01*
X135578850Y-112388735D01*
X135561908Y-112303560D01*
X140646150Y-112303560D01*
X140646150Y-112803940D01*
X142153640Y-112803940D01*
X142153640Y-110960295D01*
X142407640Y-110960295D01*
X142407640Y-112803940D01*
X143915130Y-112803940D01*
X143915130Y-112388735D01*
X145644870Y-112388735D01*
X145644870Y-113473145D01*
X145769288Y-114098637D01*
X146123601Y-114628904D01*
X146653868Y-114983217D01*
X147279360Y-115107635D01*
X147904852Y-114983217D01*
X148435119Y-114628904D01*
X148789432Y-114098637D01*
X148913850Y-113473145D01*
X148913850Y-112388735D01*
X148789432Y-111763243D01*
X148435119Y-111232976D01*
X147904852Y-110878663D01*
X147279360Y-110754245D01*
X146653868Y-110878663D01*
X146123601Y-111232976D01*
X145769288Y-111763243D01*
X145644870Y-112388735D01*
X143915130Y-112388735D01*
X143915130Y-112303560D01*
X143742111Y-111687735D01*
X143346596Y-111184998D01*
X142788799Y-110871887D01*
X142660994Y-110840941D01*
X142407640Y-110960295D01*
X142153640Y-110960295D01*
X141900286Y-110840941D01*
X141772481Y-110871887D01*
X141214684Y-111184998D01*
X140819169Y-111687735D01*
X140646150Y-112303560D01*
X135561908Y-112303560D01*
X135454432Y-111763243D01*
X135100119Y-111232976D01*
X134569852Y-110878663D01*
X133944360Y-110754245D01*
X133318868Y-110878663D01*
X132788601Y-111232976D01*
X132434288Y-111763243D01*
X132309870Y-112388735D01*
X130580130Y-112388735D01*
X130580130Y-112303560D01*
X130407111Y-111687735D01*
X130011596Y-111184998D01*
X129453799Y-110871887D01*
X129325994Y-110840941D01*
X129072640Y-110960295D01*
X128818640Y-110960295D01*
X128565286Y-110840941D01*
X128437481Y-110871887D01*
X127879684Y-111184998D01*
X127484169Y-111687735D01*
X127311150Y-112303560D01*
X122226908Y-112303560D01*
X122119432Y-111763243D01*
X121765119Y-111232976D01*
X121234852Y-110878663D01*
X120609360Y-110754245D01*
X119983868Y-110878663D01*
X119453601Y-111232976D01*
X119099288Y-111763243D01*
X118974870Y-112388735D01*
X117245130Y-112388735D01*
X117245130Y-112303560D01*
X117072111Y-111687735D01*
X116676596Y-111184998D01*
X116118799Y-110871887D01*
X115990994Y-110840941D01*
X115737640Y-110960295D01*
X115483640Y-110960295D01*
X115230286Y-110840941D01*
X115102481Y-110871887D01*
X114544684Y-111184998D01*
X114149169Y-111687735D01*
X113976150Y-112303560D01*
X108891908Y-112303560D01*
X108784432Y-111763243D01*
X108430119Y-111232976D01*
X107899852Y-110878663D01*
X107274360Y-110754245D01*
X106648868Y-110878663D01*
X106118601Y-111232976D01*
X105764288Y-111763243D01*
X105639870Y-112388735D01*
X103910130Y-112388735D01*
X103910130Y-112303560D01*
X103737111Y-111687735D01*
X103341596Y-111184998D01*
X102783799Y-110871887D01*
X102655994Y-110840941D01*
X102402640Y-110960295D01*
X102148640Y-110960295D01*
X101895286Y-110840941D01*
X101767481Y-110871887D01*
X101209684Y-111184998D01*
X100814169Y-111687735D01*
X100641150Y-112303560D01*
X95556908Y-112303560D01*
X95449432Y-111763243D01*
X95095119Y-111232976D01*
X94564852Y-110878663D01*
X93939360Y-110754245D01*
X93313868Y-110878663D01*
X92783601Y-111232976D01*
X92429288Y-111763243D01*
X92304870Y-112388735D01*
X90575130Y-112388735D01*
X90575130Y-112303560D01*
X90402111Y-111687735D01*
X90006596Y-111184998D01*
X89448799Y-110871887D01*
X89320994Y-110840941D01*
X89067640Y-110960295D01*
X88813640Y-110960295D01*
X88560286Y-110840941D01*
X88432481Y-110871887D01*
X87874684Y-111184998D01*
X87479169Y-111687735D01*
X87306150Y-112303560D01*
X85852000Y-112303560D01*
X85852000Y-107506855D01*
X155886150Y-107506855D01*
X155886150Y-108591265D01*
X156010568Y-109216757D01*
X156364881Y-109747024D01*
X156895148Y-110101337D01*
X157520640Y-110225755D01*
X158146132Y-110101337D01*
X158676399Y-109747024D01*
X159030712Y-109216757D01*
X159155130Y-108591265D01*
X159155130Y-108176060D01*
X160884870Y-108176060D01*
X160884870Y-108676440D01*
X161057889Y-109292265D01*
X161453404Y-109795002D01*
X162011201Y-110108113D01*
X162139006Y-110139059D01*
X162392360Y-110019705D01*
X162392360Y-108176060D01*
X162646360Y-108176060D01*
X162646360Y-110019705D01*
X162899714Y-110139059D01*
X163027519Y-110108113D01*
X163585316Y-109795002D01*
X163980831Y-109292265D01*
X164153850Y-108676440D01*
X164153850Y-108176060D01*
X162646360Y-108176060D01*
X162392360Y-108176060D01*
X160884870Y-108176060D01*
X159155130Y-108176060D01*
X159155130Y-107506855D01*
X159138188Y-107421680D01*
X160884870Y-107421680D01*
X160884870Y-107922060D01*
X162392360Y-107922060D01*
X162392360Y-104917240D01*
X162646360Y-104917240D01*
X162646360Y-107922060D01*
X164153850Y-107922060D01*
X164153850Y-107421680D01*
X163980831Y-106805855D01*
X163585316Y-106303118D01*
X163554961Y-106286079D01*
X163754089Y-106203597D01*
X163932717Y-106024968D01*
X164029390Y-105791579D01*
X164029390Y-105075990D01*
X163870640Y-104917240D01*
X162646360Y-104917240D01*
X162392360Y-104917240D01*
X161168080Y-104917240D01*
X161009330Y-105075990D01*
X161009330Y-105791579D01*
X161106003Y-106024968D01*
X161284631Y-106203597D01*
X161483759Y-106286079D01*
X161453404Y-106303118D01*
X161057889Y-106805855D01*
X160884870Y-107421680D01*
X159138188Y-107421680D01*
X159030712Y-106881363D01*
X158676399Y-106351096D01*
X158569889Y-106279928D01*
X158630987Y-106268432D01*
X158847111Y-106129360D01*
X158992101Y-105917160D01*
X159043110Y-105665270D01*
X159043110Y-103915210D01*
X159019344Y-103788901D01*
X161009330Y-103788901D01*
X161009330Y-104504490D01*
X161168080Y-104663240D01*
X162392360Y-104663240D01*
X162392360Y-103438960D01*
X162646360Y-103438960D01*
X162646360Y-104663240D01*
X163870640Y-104663240D01*
X164029390Y-104504490D01*
X164029390Y-103788901D01*
X163932717Y-103555512D01*
X163754089Y-103376883D01*
X163520700Y-103280210D01*
X162805110Y-103280210D01*
X162646360Y-103438960D01*
X162392360Y-103438960D01*
X162233610Y-103280210D01*
X161518020Y-103280210D01*
X161284631Y-103376883D01*
X161106003Y-103555512D01*
X161009330Y-103788901D01*
X159019344Y-103788901D01*
X158998832Y-103679893D01*
X158859760Y-103463769D01*
X158647560Y-103318779D01*
X158395670Y-103267770D01*
X156645610Y-103267770D01*
X156410293Y-103312048D01*
X156194169Y-103451120D01*
X156049179Y-103663320D01*
X155998170Y-103915210D01*
X155998170Y-105665270D01*
X156042448Y-105900587D01*
X156181520Y-106116711D01*
X156393720Y-106261701D01*
X156474261Y-106278011D01*
X156364881Y-106351096D01*
X156010568Y-106881363D01*
X155886150Y-107506855D01*
X85852000Y-107506855D01*
X85852000Y-100556060D01*
X87306150Y-100556060D01*
X87306150Y-101056440D01*
X87479169Y-101672265D01*
X87874684Y-102175002D01*
X88432481Y-102488113D01*
X88560286Y-102519059D01*
X88813640Y-102399705D01*
X88813640Y-100556060D01*
X89067640Y-100556060D01*
X89067640Y-102399705D01*
X89320994Y-102519059D01*
X89448799Y-102488113D01*
X90006596Y-102175002D01*
X90402111Y-101672265D01*
X90575130Y-101056440D01*
X90575130Y-100556060D01*
X89067640Y-100556060D01*
X88813640Y-100556060D01*
X87306150Y-100556060D01*
X85852000Y-100556060D01*
X85852000Y-99801680D01*
X87306150Y-99801680D01*
X87306150Y-100302060D01*
X88813640Y-100302060D01*
X88813640Y-98458415D01*
X89067640Y-98458415D01*
X89067640Y-100302060D01*
X90575130Y-100302060D01*
X90575130Y-99886855D01*
X92304870Y-99886855D01*
X92304870Y-100971265D01*
X92429288Y-101596757D01*
X92783601Y-102127024D01*
X93313868Y-102481337D01*
X93939360Y-102605755D01*
X94564852Y-102481337D01*
X95095119Y-102127024D01*
X95449432Y-101596757D01*
X95573850Y-100971265D01*
X95573850Y-100556060D01*
X100641150Y-100556060D01*
X100641150Y-101056440D01*
X100814169Y-101672265D01*
X101209684Y-102175002D01*
X101767481Y-102488113D01*
X101895286Y-102519059D01*
X102148640Y-102399705D01*
X102148640Y-100556060D01*
X102402640Y-100556060D01*
X102402640Y-102399705D01*
X102655994Y-102519059D01*
X102783799Y-102488113D01*
X103341596Y-102175002D01*
X103737111Y-101672265D01*
X103910130Y-101056440D01*
X103910130Y-100556060D01*
X102402640Y-100556060D01*
X102148640Y-100556060D01*
X100641150Y-100556060D01*
X95573850Y-100556060D01*
X95573850Y-99886855D01*
X95556908Y-99801680D01*
X100641150Y-99801680D01*
X100641150Y-100302060D01*
X102148640Y-100302060D01*
X102148640Y-98458415D01*
X102402640Y-98458415D01*
X102402640Y-100302060D01*
X103910130Y-100302060D01*
X103910130Y-99886855D01*
X105639870Y-99886855D01*
X105639870Y-100971265D01*
X105764288Y-101596757D01*
X106118601Y-102127024D01*
X106648868Y-102481337D01*
X107274360Y-102605755D01*
X107899852Y-102481337D01*
X108430119Y-102127024D01*
X108784432Y-101596757D01*
X108908850Y-100971265D01*
X108908850Y-100556060D01*
X113976150Y-100556060D01*
X113976150Y-101056440D01*
X114149169Y-101672265D01*
X114544684Y-102175002D01*
X115102481Y-102488113D01*
X115230286Y-102519059D01*
X115483640Y-102399705D01*
X115483640Y-100556060D01*
X115737640Y-100556060D01*
X115737640Y-102399705D01*
X115990994Y-102519059D01*
X116118799Y-102488113D01*
X116676596Y-102175002D01*
X117072111Y-101672265D01*
X117245130Y-101056440D01*
X117245130Y-100556060D01*
X115737640Y-100556060D01*
X115483640Y-100556060D01*
X113976150Y-100556060D01*
X108908850Y-100556060D01*
X108908850Y-99886855D01*
X108891908Y-99801680D01*
X113976150Y-99801680D01*
X113976150Y-100302060D01*
X115483640Y-100302060D01*
X115483640Y-98458415D01*
X115737640Y-98458415D01*
X115737640Y-100302060D01*
X117245130Y-100302060D01*
X117245130Y-99801680D01*
X117072111Y-99185855D01*
X116676596Y-98683118D01*
X116118799Y-98370007D01*
X115990994Y-98339061D01*
X115737640Y-98458415D01*
X115483640Y-98458415D01*
X115230286Y-98339061D01*
X115102481Y-98370007D01*
X114544684Y-98683118D01*
X114149169Y-99185855D01*
X113976150Y-99801680D01*
X108891908Y-99801680D01*
X108784432Y-99261363D01*
X108430119Y-98731096D01*
X107899852Y-98376783D01*
X107274360Y-98252365D01*
X106648868Y-98376783D01*
X106118601Y-98731096D01*
X105764288Y-99261363D01*
X105639870Y-99886855D01*
X103910130Y-99886855D01*
X103910130Y-99801680D01*
X103737111Y-99185855D01*
X103341596Y-98683118D01*
X102783799Y-98370007D01*
X102655994Y-98339061D01*
X102402640Y-98458415D01*
X102148640Y-98458415D01*
X101895286Y-98339061D01*
X101767481Y-98370007D01*
X101209684Y-98683118D01*
X100814169Y-99185855D01*
X100641150Y-99801680D01*
X95556908Y-99801680D01*
X95449432Y-99261363D01*
X95095119Y-98731096D01*
X94564852Y-98376783D01*
X93939360Y-98252365D01*
X93313868Y-98376783D01*
X92783601Y-98731096D01*
X92429288Y-99261363D01*
X92304870Y-99886855D01*
X90575130Y-99886855D01*
X90575130Y-99801680D01*
X90402111Y-99185855D01*
X90006596Y-98683118D01*
X89448799Y-98370007D01*
X89320994Y-98339061D01*
X89067640Y-98458415D01*
X88813640Y-98458415D01*
X88560286Y-98339061D01*
X88432481Y-98370007D01*
X87874684Y-98683118D01*
X87479169Y-99185855D01*
X87306150Y-99801680D01*
X85852000Y-99801680D01*
X85852000Y-96170750D01*
X86766400Y-96170750D01*
X86766400Y-97027309D01*
X86863073Y-97260698D01*
X87041701Y-97439327D01*
X87275090Y-97536000D01*
X87979250Y-97536000D01*
X88138000Y-97377250D01*
X88138000Y-96012000D01*
X86925150Y-96012000D01*
X86766400Y-96170750D01*
X85852000Y-96170750D01*
X85852000Y-94742691D01*
X86766400Y-94742691D01*
X86766400Y-95599250D01*
X86925150Y-95758000D01*
X88138000Y-95758000D01*
X88138000Y-94392750D01*
X88392000Y-94392750D01*
X88392000Y-95758000D01*
X88412000Y-95758000D01*
X88412000Y-96012000D01*
X88392000Y-96012000D01*
X88392000Y-97377250D01*
X88550750Y-97536000D01*
X89254910Y-97536000D01*
X89488299Y-97439327D01*
X89666927Y-97260698D01*
X89730500Y-97107220D01*
X89745330Y-97129415D01*
X90231511Y-97454271D01*
X90805000Y-97568345D01*
X91378489Y-97454271D01*
X91864670Y-97129415D01*
X92075000Y-96814634D01*
X92285330Y-97129415D01*
X92771511Y-97454271D01*
X93345000Y-97568345D01*
X93918489Y-97454271D01*
X94404670Y-97129415D01*
X94615000Y-96814634D01*
X94825330Y-97129415D01*
X95311511Y-97454271D01*
X95885000Y-97568345D01*
X96458489Y-97454271D01*
X96944670Y-97129415D01*
X97155000Y-96814634D01*
X97365330Y-97129415D01*
X97851511Y-97454271D01*
X98425000Y-97568345D01*
X98998489Y-97454271D01*
X99051251Y-97419016D01*
X113620590Y-97419016D01*
X113676271Y-97649611D01*
X114159078Y-97817622D01*
X114669428Y-97788083D01*
X115003729Y-97649611D01*
X115059410Y-97419016D01*
X114340000Y-96699605D01*
X113620590Y-97419016D01*
X99051251Y-97419016D01*
X99484670Y-97129415D01*
X99809526Y-96643234D01*
X99870026Y-96339078D01*
X113042378Y-96339078D01*
X113071917Y-96849428D01*
X113210389Y-97183729D01*
X113440984Y-97239410D01*
X114160395Y-96520000D01*
X114519605Y-96520000D01*
X115239016Y-97239410D01*
X115469611Y-97183729D01*
X115542560Y-96974098D01*
X115542560Y-97170000D01*
X115586838Y-97405317D01*
X115725910Y-97621441D01*
X115938110Y-97766431D01*
X116190000Y-97817440D01*
X116992330Y-97817440D01*
X117155460Y-97926440D01*
X117475000Y-97990000D01*
X119939517Y-97990000D01*
X119959233Y-98089121D01*
X120131784Y-98347361D01*
X119983868Y-98376783D01*
X119453601Y-98731096D01*
X119099288Y-99261363D01*
X118974870Y-99886855D01*
X118974870Y-100971265D01*
X119099288Y-101596757D01*
X119453601Y-102127024D01*
X119983868Y-102481337D01*
X120609360Y-102605755D01*
X121234852Y-102481337D01*
X121765119Y-102127024D01*
X122119432Y-101596757D01*
X122243850Y-100971265D01*
X122243850Y-100556060D01*
X127311150Y-100556060D01*
X127311150Y-101056440D01*
X127484169Y-101672265D01*
X127879684Y-102175002D01*
X128437481Y-102488113D01*
X128565286Y-102519059D01*
X128818640Y-102399705D01*
X128818640Y-100556060D01*
X129072640Y-100556060D01*
X129072640Y-102399705D01*
X129325994Y-102519059D01*
X129453799Y-102488113D01*
X130011596Y-102175002D01*
X130407111Y-101672265D01*
X130580130Y-101056440D01*
X130580130Y-100556060D01*
X129072640Y-100556060D01*
X128818640Y-100556060D01*
X127311150Y-100556060D01*
X122243850Y-100556060D01*
X122243850Y-99886855D01*
X122119432Y-99261363D01*
X121848622Y-98856068D01*
X122299698Y-98554668D01*
X122552149Y-98176849D01*
X122900104Y-98609500D01*
X123393181Y-98879367D01*
X123475961Y-98896904D01*
X123698000Y-98774915D01*
X123698000Y-97282000D01*
X123678000Y-97282000D01*
X123678000Y-97028000D01*
X123698000Y-97028000D01*
X123698000Y-95535085D01*
X123952000Y-95535085D01*
X123952000Y-97028000D01*
X123972000Y-97028000D01*
X123972000Y-97282000D01*
X123952000Y-97282000D01*
X123952000Y-98774915D01*
X124174039Y-98896904D01*
X124256819Y-98879367D01*
X124749896Y-98609500D01*
X125097851Y-98176849D01*
X125350302Y-98554668D01*
X125815849Y-98865737D01*
X126365000Y-98974970D01*
X126914151Y-98865737D01*
X127379698Y-98554668D01*
X127635000Y-98172582D01*
X127890302Y-98554668D01*
X127989926Y-98621235D01*
X127879684Y-98683118D01*
X127484169Y-99185855D01*
X127311150Y-99801680D01*
X127311150Y-100302060D01*
X128818640Y-100302060D01*
X128818640Y-100282060D01*
X129072640Y-100282060D01*
X129072640Y-100302060D01*
X130580130Y-100302060D01*
X130580130Y-99801680D01*
X130407111Y-99185855D01*
X130011596Y-98683118D01*
X129857182Y-98596440D01*
X129919698Y-98554668D01*
X130175000Y-98172582D01*
X130430302Y-98554668D01*
X130895849Y-98865737D01*
X131445000Y-98974970D01*
X131994151Y-98865737D01*
X132459698Y-98554668D01*
X132715000Y-98172582D01*
X132970302Y-98554668D01*
X133011473Y-98582178D01*
X132788601Y-98731096D01*
X132434288Y-99261363D01*
X132309870Y-99886855D01*
X132309870Y-100971265D01*
X132434288Y-101596757D01*
X132788601Y-102127024D01*
X133318868Y-102481337D01*
X133944360Y-102605755D01*
X134569852Y-102481337D01*
X135100119Y-102127024D01*
X135454432Y-101596757D01*
X135578850Y-100971265D01*
X135578850Y-100556060D01*
X140646150Y-100556060D01*
X140646150Y-101056440D01*
X140819169Y-101672265D01*
X141214684Y-102175002D01*
X141772481Y-102488113D01*
X141900286Y-102519059D01*
X142153640Y-102399705D01*
X142153640Y-100556060D01*
X142407640Y-100556060D01*
X142407640Y-102399705D01*
X142660994Y-102519059D01*
X142788799Y-102488113D01*
X143346596Y-102175002D01*
X143742111Y-101672265D01*
X143915130Y-101056440D01*
X143915130Y-100556060D01*
X142407640Y-100556060D01*
X142153640Y-100556060D01*
X140646150Y-100556060D01*
X135578850Y-100556060D01*
X135578850Y-99886855D01*
X135561908Y-99801680D01*
X140646150Y-99801680D01*
X140646150Y-100302060D01*
X142153640Y-100302060D01*
X142153640Y-98458415D01*
X142407640Y-98458415D01*
X142407640Y-100302060D01*
X143915130Y-100302060D01*
X143915130Y-99886855D01*
X145644870Y-99886855D01*
X145644870Y-100971265D01*
X145769288Y-101596757D01*
X146123601Y-102127024D01*
X146653868Y-102481337D01*
X147279360Y-102605755D01*
X147904852Y-102481337D01*
X148435119Y-102127024D01*
X148789432Y-101596757D01*
X148913850Y-100971265D01*
X148913850Y-99886855D01*
X148789432Y-99261363D01*
X148435119Y-98731096D01*
X147904852Y-98376783D01*
X147279360Y-98252365D01*
X146653868Y-98376783D01*
X146123601Y-98731096D01*
X145769288Y-99261363D01*
X145644870Y-99886855D01*
X143915130Y-99886855D01*
X143915130Y-99801680D01*
X143742111Y-99185855D01*
X143346596Y-98683118D01*
X142788799Y-98370007D01*
X142660994Y-98339061D01*
X142407640Y-98458415D01*
X142153640Y-98458415D01*
X141900286Y-98339061D01*
X141772481Y-98370007D01*
X141214684Y-98683118D01*
X140819169Y-99185855D01*
X140646150Y-99801680D01*
X135561908Y-99801680D01*
X135454432Y-99261363D01*
X135100119Y-98731096D01*
X134917887Y-98609332D01*
X134999698Y-98554668D01*
X135255000Y-98172582D01*
X135510302Y-98554668D01*
X135975849Y-98865737D01*
X136525000Y-98974970D01*
X137074151Y-98865737D01*
X137539698Y-98554668D01*
X137795000Y-98172582D01*
X138050302Y-98554668D01*
X138515849Y-98865737D01*
X139065000Y-98974970D01*
X139614151Y-98865737D01*
X140079698Y-98554668D01*
X140288304Y-98242467D01*
X151936054Y-98242467D01*
X152283150Y-99082505D01*
X152925294Y-99725771D01*
X153764725Y-100074333D01*
X154673647Y-100075126D01*
X155513685Y-99728030D01*
X156156951Y-99085886D01*
X156505513Y-98246455D01*
X156505516Y-98242467D01*
X163533694Y-98242467D01*
X163880790Y-99082505D01*
X164522934Y-99725771D01*
X165362365Y-100074333D01*
X166271287Y-100075126D01*
X167111325Y-99728030D01*
X167754591Y-99085886D01*
X168103153Y-98246455D01*
X168103946Y-97337533D01*
X167756850Y-96497495D01*
X167114706Y-95854229D01*
X166275275Y-95505667D01*
X165366353Y-95504874D01*
X164526315Y-95851970D01*
X163883049Y-96494114D01*
X163534487Y-97333545D01*
X163533694Y-98242467D01*
X156505516Y-98242467D01*
X156506306Y-97337533D01*
X156159210Y-96497495D01*
X155517066Y-95854229D01*
X154677635Y-95505667D01*
X153768713Y-95504874D01*
X152928675Y-95851970D01*
X152285409Y-96494114D01*
X151936847Y-97333545D01*
X151936054Y-98242467D01*
X140288304Y-98242467D01*
X140390767Y-98089121D01*
X140500000Y-97539970D01*
X140500000Y-96770030D01*
X140390767Y-96220879D01*
X140079698Y-95755332D01*
X139614151Y-95444263D01*
X139065000Y-95335030D01*
X138515849Y-95444263D01*
X138050302Y-95755332D01*
X137795000Y-96137418D01*
X137539698Y-95755332D01*
X137074151Y-95444263D01*
X136525000Y-95335030D01*
X135975849Y-95444263D01*
X135510302Y-95755332D01*
X135255000Y-96137418D01*
X134999698Y-95755332D01*
X134534151Y-95444263D01*
X133985000Y-95335030D01*
X133435849Y-95444263D01*
X132970302Y-95755332D01*
X132715000Y-96137418D01*
X132459698Y-95755332D01*
X131994151Y-95444263D01*
X131445000Y-95335030D01*
X130895849Y-95444263D01*
X130430302Y-95755332D01*
X130175000Y-96137418D01*
X129919698Y-95755332D01*
X129454151Y-95444263D01*
X128905000Y-95335030D01*
X128355849Y-95444263D01*
X127890302Y-95755332D01*
X127635000Y-96137418D01*
X127379698Y-95755332D01*
X126914151Y-95444263D01*
X126365000Y-95335030D01*
X125815849Y-95444263D01*
X125350302Y-95755332D01*
X125097851Y-96133151D01*
X124749896Y-95700500D01*
X124256819Y-95430633D01*
X124174039Y-95413096D01*
X123952000Y-95535085D01*
X123698000Y-95535085D01*
X123475961Y-95413096D01*
X123393181Y-95430633D01*
X122900104Y-95700500D01*
X122552149Y-96133151D01*
X122299698Y-95755332D01*
X121834151Y-95444263D01*
X121285000Y-95335030D01*
X120735849Y-95444263D01*
X120270302Y-95755332D01*
X119959233Y-96220879D01*
X119939517Y-96320000D01*
X118137440Y-96320000D01*
X118137440Y-95870000D01*
X118093162Y-95634683D01*
X117954090Y-95418559D01*
X117741890Y-95273569D01*
X117490000Y-95222560D01*
X116190000Y-95222560D01*
X115954683Y-95266838D01*
X115738559Y-95405910D01*
X115593569Y-95618110D01*
X115542560Y-95870000D01*
X115542560Y-96032385D01*
X115469611Y-95856271D01*
X115239016Y-95800590D01*
X114519605Y-96520000D01*
X114160395Y-96520000D01*
X113440984Y-95800590D01*
X113210389Y-95856271D01*
X113042378Y-96339078D01*
X99870026Y-96339078D01*
X99923600Y-96069745D01*
X99923600Y-95700255D01*
X99907833Y-95620984D01*
X113620590Y-95620984D01*
X114340000Y-96340395D01*
X115059410Y-95620984D01*
X115003729Y-95390389D01*
X114520922Y-95222378D01*
X114010572Y-95251917D01*
X113676271Y-95390389D01*
X113620590Y-95620984D01*
X99907833Y-95620984D01*
X99809526Y-95126766D01*
X99484670Y-94640585D01*
X98998489Y-94315729D01*
X98425000Y-94201655D01*
X97851511Y-94315729D01*
X97365330Y-94640585D01*
X97155000Y-94955366D01*
X96944670Y-94640585D01*
X96458489Y-94315729D01*
X95885000Y-94201655D01*
X95311511Y-94315729D01*
X94825330Y-94640585D01*
X94615000Y-94955366D01*
X94404670Y-94640585D01*
X93918489Y-94315729D01*
X93345000Y-94201655D01*
X92771511Y-94315729D01*
X92285330Y-94640585D01*
X92075000Y-94955366D01*
X91864670Y-94640585D01*
X91378489Y-94315729D01*
X90805000Y-94201655D01*
X90231511Y-94315729D01*
X89745330Y-94640585D01*
X89730500Y-94662780D01*
X89666927Y-94509302D01*
X89488299Y-94330673D01*
X89254910Y-94234000D01*
X88550750Y-94234000D01*
X88392000Y-94392750D01*
X88138000Y-94392750D01*
X87979250Y-94234000D01*
X87275090Y-94234000D01*
X87041701Y-94330673D01*
X86863073Y-94509302D01*
X86766400Y-94742691D01*
X85852000Y-94742691D01*
X85852000Y-92360750D01*
X86766400Y-92360750D01*
X86766400Y-93217309D01*
X86863073Y-93450698D01*
X87041701Y-93629327D01*
X87275090Y-93726000D01*
X87979250Y-93726000D01*
X88138000Y-93567250D01*
X88138000Y-92202000D01*
X86925150Y-92202000D01*
X86766400Y-92360750D01*
X85852000Y-92360750D01*
X85852000Y-90932691D01*
X86766400Y-90932691D01*
X86766400Y-91789250D01*
X86925150Y-91948000D01*
X88138000Y-91948000D01*
X88138000Y-90582750D01*
X87979250Y-90424000D01*
X87275090Y-90424000D01*
X87041701Y-90520673D01*
X86863073Y-90699302D01*
X86766400Y-90932691D01*
X85852000Y-90932691D01*
X85852000Y-90222606D01*
X87265588Y-88809018D01*
X87265226Y-89223694D01*
X87513538Y-89824655D01*
X87972927Y-90284846D01*
X88479540Y-90495210D01*
X88392000Y-90582750D01*
X88392000Y-91948000D01*
X88412000Y-91948000D01*
X88412000Y-92202000D01*
X88392000Y-92202000D01*
X88392000Y-93567250D01*
X88550750Y-93726000D01*
X89254910Y-93726000D01*
X89488299Y-93629327D01*
X89666927Y-93450698D01*
X89730500Y-93297220D01*
X89745330Y-93319415D01*
X90231511Y-93644271D01*
X90805000Y-93758345D01*
X91378489Y-93644271D01*
X91864670Y-93319415D01*
X92075000Y-93004634D01*
X92285330Y-93319415D01*
X92771511Y-93644271D01*
X93345000Y-93758345D01*
X93918489Y-93644271D01*
X94404670Y-93319415D01*
X94615000Y-93004634D01*
X94825330Y-93319415D01*
X95311511Y-93644271D01*
X95885000Y-93758345D01*
X96458489Y-93644271D01*
X96944670Y-93319415D01*
X97155000Y-93004634D01*
X97365330Y-93319415D01*
X97851511Y-93644271D01*
X98425000Y-93758345D01*
X98998489Y-93644271D01*
X99484670Y-93319415D01*
X99809526Y-92833234D01*
X99923600Y-92259745D01*
X99923600Y-91890255D01*
X99809526Y-91316766D01*
X99484670Y-90830585D01*
X99158462Y-90612619D01*
X103809613Y-90612619D01*
X104149155Y-91434372D01*
X104777321Y-92063636D01*
X105598481Y-92404611D01*
X106487619Y-92405387D01*
X107309372Y-92065845D01*
X107938636Y-91437679D01*
X108279611Y-90616519D01*
X108280387Y-89727381D01*
X108041831Y-89150030D01*
X119850000Y-89150030D01*
X119850000Y-89919970D01*
X119959233Y-90469121D01*
X120270302Y-90934668D01*
X120735849Y-91245737D01*
X121285000Y-91354970D01*
X121834151Y-91245737D01*
X122299698Y-90934668D01*
X122555000Y-90552582D01*
X122810302Y-90934668D01*
X123275849Y-91245737D01*
X123825000Y-91354970D01*
X124374151Y-91245737D01*
X124839698Y-90934668D01*
X125095000Y-90552582D01*
X125350302Y-90934668D01*
X125815849Y-91245737D01*
X126365000Y-91354970D01*
X126914151Y-91245737D01*
X127379698Y-90934668D01*
X127635000Y-90552582D01*
X127890302Y-90934668D01*
X128355849Y-91245737D01*
X128905000Y-91354970D01*
X129454151Y-91245737D01*
X129919698Y-90934668D01*
X130175000Y-90552582D01*
X130430302Y-90934668D01*
X130895849Y-91245737D01*
X131445000Y-91354970D01*
X131994151Y-91245737D01*
X132459698Y-90934668D01*
X132715000Y-90552582D01*
X132970302Y-90934668D01*
X133435849Y-91245737D01*
X133985000Y-91354970D01*
X134534151Y-91245737D01*
X134999698Y-90934668D01*
X135255000Y-90552582D01*
X135510302Y-90934668D01*
X135975849Y-91245737D01*
X136525000Y-91354970D01*
X137074151Y-91245737D01*
X137539698Y-90934668D01*
X137792149Y-90556849D01*
X138140104Y-90989500D01*
X138633181Y-91259367D01*
X138715961Y-91276904D01*
X138938000Y-91154915D01*
X138938000Y-89662000D01*
X139192000Y-89662000D01*
X139192000Y-91154915D01*
X139414039Y-91276904D01*
X139496819Y-91259367D01*
X139989896Y-90989500D01*
X140292998Y-90612619D01*
X146989613Y-90612619D01*
X147329155Y-91434372D01*
X147957321Y-92063636D01*
X148778481Y-92404611D01*
X149667619Y-92405387D01*
X150489372Y-92065845D01*
X151118636Y-91437679D01*
X151459611Y-90616519D01*
X151460387Y-89727381D01*
X151331046Y-89414350D01*
X155998170Y-89414350D01*
X155998170Y-91164410D01*
X156042448Y-91399727D01*
X156181520Y-91615851D01*
X156393720Y-91760841D01*
X156645610Y-91811850D01*
X158395670Y-91811850D01*
X158630987Y-91767572D01*
X158805538Y-91655252D01*
X159018660Y-91743530D01*
X159734250Y-91743530D01*
X159893000Y-91584780D01*
X159893000Y-90360500D01*
X159873000Y-90360500D01*
X159873000Y-90106500D01*
X159893000Y-90106500D01*
X159893000Y-88882220D01*
X160147000Y-88882220D01*
X160147000Y-90106500D01*
X160167000Y-90106500D01*
X160167000Y-90360500D01*
X160147000Y-90360500D01*
X160147000Y-91584780D01*
X160305750Y-91743530D01*
X161021340Y-91743530D01*
X161236606Y-91654364D01*
X161392440Y-91760841D01*
X161644330Y-91811850D01*
X163394390Y-91811850D01*
X163629707Y-91767572D01*
X163845831Y-91628500D01*
X163990821Y-91416300D01*
X164041830Y-91164410D01*
X164041830Y-89414350D01*
X163997552Y-89179033D01*
X163858480Y-88962909D01*
X163646280Y-88817919D01*
X163394390Y-88766910D01*
X161644330Y-88766910D01*
X161409013Y-88811188D01*
X161309688Y-88875102D01*
X161254729Y-88820143D01*
X161021340Y-88723470D01*
X160305750Y-88723470D01*
X160147000Y-88882220D01*
X159893000Y-88882220D01*
X159734250Y-88723470D01*
X159018660Y-88723470D01*
X158785271Y-88820143D01*
X158730693Y-88874721D01*
X158647560Y-88817919D01*
X158395670Y-88766910D01*
X156645610Y-88766910D01*
X156410293Y-88811188D01*
X156194169Y-88950260D01*
X156049179Y-89162460D01*
X155998170Y-89414350D01*
X151331046Y-89414350D01*
X151120845Y-88905628D01*
X150492679Y-88276364D01*
X149671519Y-87935389D01*
X148782381Y-87934613D01*
X147960628Y-88274155D01*
X147331364Y-88902321D01*
X146990389Y-89723481D01*
X146989613Y-90612619D01*
X140292998Y-90612619D01*
X140342166Y-90551483D01*
X140500000Y-90012000D01*
X140500000Y-89662000D01*
X139192000Y-89662000D01*
X138938000Y-89662000D01*
X138918000Y-89662000D01*
X138918000Y-89408000D01*
X138938000Y-89408000D01*
X138938000Y-87915085D01*
X139192000Y-87915085D01*
X139192000Y-89408000D01*
X140500000Y-89408000D01*
X140500000Y-89058000D01*
X140342166Y-88518517D01*
X139989896Y-88080500D01*
X139496819Y-87810633D01*
X139414039Y-87793096D01*
X139192000Y-87915085D01*
X138938000Y-87915085D01*
X138715961Y-87793096D01*
X138633181Y-87810633D01*
X138140104Y-88080500D01*
X137792149Y-88513151D01*
X137539698Y-88135332D01*
X137074151Y-87824263D01*
X136525000Y-87715030D01*
X135975849Y-87824263D01*
X135510302Y-88135332D01*
X135255000Y-88517418D01*
X134999698Y-88135332D01*
X134534151Y-87824263D01*
X133985000Y-87715030D01*
X133435849Y-87824263D01*
X132970302Y-88135332D01*
X132715000Y-88517418D01*
X132459698Y-88135332D01*
X131994151Y-87824263D01*
X131445000Y-87715030D01*
X130895849Y-87824263D01*
X130430302Y-88135332D01*
X130175000Y-88517418D01*
X129919698Y-88135332D01*
X129454151Y-87824263D01*
X128905000Y-87715030D01*
X128355849Y-87824263D01*
X127890302Y-88135332D01*
X127635000Y-88517418D01*
X127379698Y-88135332D01*
X126914151Y-87824263D01*
X126365000Y-87715030D01*
X125815849Y-87824263D01*
X125350302Y-88135332D01*
X125095000Y-88517418D01*
X124839698Y-88135332D01*
X124374151Y-87824263D01*
X123825000Y-87715030D01*
X123275849Y-87824263D01*
X122810302Y-88135332D01*
X122555000Y-88517418D01*
X122299698Y-88135332D01*
X121834151Y-87824263D01*
X121285000Y-87715030D01*
X120735849Y-87824263D01*
X120270302Y-88135332D01*
X119959233Y-88600879D01*
X119850000Y-89150030D01*
X108041831Y-89150030D01*
X107940845Y-88905628D01*
X107312679Y-88276364D01*
X106491519Y-87935389D01*
X105602381Y-87934613D01*
X104780628Y-88274155D01*
X104151364Y-88902321D01*
X103810389Y-89723481D01*
X103809613Y-90612619D01*
X99158462Y-90612619D01*
X98998489Y-90505729D01*
X98425000Y-90391655D01*
X97851511Y-90505729D01*
X97365330Y-90830585D01*
X97155000Y-91145366D01*
X96944670Y-90830585D01*
X96501511Y-90534475D01*
X96843694Y-90534774D01*
X97444655Y-90286462D01*
X97904846Y-89827073D01*
X98154206Y-89226547D01*
X98154774Y-88576306D01*
X97906462Y-87975345D01*
X97447073Y-87515154D01*
X96846547Y-87265794D01*
X96196306Y-87265226D01*
X95595345Y-87513538D01*
X95135154Y-87972927D01*
X94885794Y-88573453D01*
X94885226Y-89223694D01*
X95133538Y-89824655D01*
X95592927Y-90284846D01*
X95861439Y-90396342D01*
X95311511Y-90505729D01*
X94825330Y-90830585D01*
X94615000Y-91145366D01*
X94404670Y-90830585D01*
X93918489Y-90505729D01*
X93345000Y-90391655D01*
X92771511Y-90505729D01*
X92285330Y-90830585D01*
X92075000Y-91145366D01*
X91864670Y-90830585D01*
X91378489Y-90505729D01*
X90805000Y-90391655D01*
X90231511Y-90505729D01*
X89745330Y-90830585D01*
X89730500Y-90852780D01*
X89666927Y-90699302D01*
X89488299Y-90520673D01*
X89373202Y-90472998D01*
X89824655Y-90286462D01*
X90284846Y-89827073D01*
X90534206Y-89226547D01*
X90534774Y-88576306D01*
X90286462Y-87975345D01*
X89827073Y-87515154D01*
X89226547Y-87265794D01*
X88809177Y-87265429D01*
X88952606Y-87122000D01*
X165047394Y-87122000D01*
X168148000Y-90222606D01*
X168148000Y-90222606D01*
G37*
X168148000Y-90222606D02*
X168148000Y-123137394D01*
X165047394Y-126238000D01*
X88952606Y-126238000D01*
X86347225Y-123632619D01*
X103809613Y-123632619D01*
X104149155Y-124454372D01*
X104777321Y-125083636D01*
X105598481Y-125424611D01*
X106487619Y-125425387D01*
X107309372Y-125085845D01*
X107938636Y-124457679D01*
X108279611Y-123636519D01*
X108279614Y-123632619D01*
X146989613Y-123632619D01*
X147329155Y-124454372D01*
X147957321Y-125083636D01*
X148778481Y-125424611D01*
X149667619Y-125425387D01*
X150489372Y-125085845D01*
X151118636Y-124457679D01*
X151459611Y-123636519D01*
X151460387Y-122747381D01*
X151120845Y-121925628D01*
X150492679Y-121296364D01*
X149671519Y-120955389D01*
X148782381Y-120954613D01*
X147960628Y-121294155D01*
X147331364Y-121922321D01*
X146990389Y-122743481D01*
X146989613Y-123632619D01*
X108279614Y-123632619D01*
X108280387Y-122747381D01*
X107940845Y-121925628D01*
X107312679Y-121296364D01*
X106491519Y-120955389D01*
X105602381Y-120954613D01*
X104780628Y-121294155D01*
X104151364Y-121922321D01*
X103810389Y-122743481D01*
X103809613Y-123632619D01*
X86347225Y-123632619D01*
X85852000Y-123137394D01*
X85852000Y-119316500D01*
X114859060Y-119316500D01*
X114859060Y-120713500D01*
X114903338Y-120948817D01*
X115042410Y-121164941D01*
X115254610Y-121309931D01*
X115506500Y-121360940D01*
X116903500Y-121360940D01*
X117138817Y-121316662D01*
X117354941Y-121177590D01*
X117499931Y-120965390D01*
X117550940Y-120713500D01*
X117550940Y-120617116D01*
X117613854Y-120769380D01*
X117988647Y-121144827D01*
X118478587Y-121348268D01*
X119009086Y-121348731D01*
X119499380Y-121146146D01*
X119874827Y-120771353D01*
X120015094Y-120433554D01*
X120153854Y-120769380D01*
X120528647Y-121144827D01*
X121018587Y-121348268D01*
X121549086Y-121348731D01*
X122039380Y-121146146D01*
X122414827Y-120771353D01*
X122555094Y-120433554D01*
X122693854Y-120769380D01*
X123068647Y-121144827D01*
X123558587Y-121348268D01*
X124089086Y-121348731D01*
X124579380Y-121146146D01*
X124954827Y-120771353D01*
X125095094Y-120433554D01*
X125233854Y-120769380D01*
X125608647Y-121144827D01*
X126098587Y-121348268D01*
X126629086Y-121348731D01*
X127119380Y-121146146D01*
X127494827Y-120771353D01*
X127635094Y-120433554D01*
X127773854Y-120769380D01*
X128148647Y-121144827D01*
X128638587Y-121348268D01*
X129169086Y-121348731D01*
X129659380Y-121146146D01*
X130034827Y-120771353D01*
X130175094Y-120433554D01*
X130313854Y-120769380D01*
X130688647Y-121144827D01*
X131178587Y-121348268D01*
X131709086Y-121348731D01*
X132199380Y-121146146D01*
X132574827Y-120771353D01*
X132715094Y-120433554D01*
X132853854Y-120769380D01*
X133228647Y-121144827D01*
X133718587Y-121348268D01*
X134249086Y-121348731D01*
X134739380Y-121146146D01*
X135114827Y-120771353D01*
X135255094Y-120433554D01*
X135393854Y-120769380D01*
X135768647Y-121144827D01*
X136258587Y-121348268D01*
X136789086Y-121348731D01*
X137279380Y-121146146D01*
X137654827Y-120771353D01*
X137858268Y-120281413D01*
X137858505Y-120008735D01*
X155886150Y-120008735D01*
X155886150Y-121093145D01*
X156010568Y-121718637D01*
X156364881Y-122248904D01*
X156895148Y-122603217D01*
X157520640Y-122727635D01*
X158146132Y-122603217D01*
X158676399Y-122248904D01*
X159030712Y-121718637D01*
X159155130Y-121093145D01*
X159155130Y-120677940D01*
X160884870Y-120677940D01*
X160884870Y-121178320D01*
X161057889Y-121794145D01*
X161453404Y-122296882D01*
X162011201Y-122609993D01*
X162139006Y-122640939D01*
X162392360Y-122521585D01*
X162392360Y-120677940D01*
X162646360Y-120677940D01*
X162646360Y-122521585D01*
X162899714Y-122640939D01*
X163027519Y-122609993D01*
X163585316Y-122296882D01*
X163980831Y-121794145D01*
X164153850Y-121178320D01*
X164153850Y-120677940D01*
X162646360Y-120677940D01*
X162392360Y-120677940D01*
X160884870Y-120677940D01*
X159155130Y-120677940D01*
X159155130Y-120008735D01*
X159138188Y-119923560D01*
X160884870Y-119923560D01*
X160884870Y-120423940D01*
X162392360Y-120423940D01*
X162392360Y-118580295D01*
X162646360Y-118580295D01*
X162646360Y-120423940D01*
X164153850Y-120423940D01*
X164153850Y-119923560D01*
X163980831Y-119307735D01*
X163585316Y-118804998D01*
X163027519Y-118491887D01*
X162899714Y-118460941D01*
X162646360Y-118580295D01*
X162392360Y-118580295D01*
X162139006Y-118460941D01*
X162011201Y-118491887D01*
X161453404Y-118804998D01*
X161057889Y-119307735D01*
X160884870Y-119923560D01*
X159138188Y-119923560D01*
X159030712Y-119383243D01*
X158676399Y-118852976D01*
X158146132Y-118498663D01*
X157520640Y-118374245D01*
X156895148Y-118498663D01*
X156364881Y-118852976D01*
X156010568Y-119383243D01*
X155886150Y-120008735D01*
X137858505Y-120008735D01*
X137858731Y-119750914D01*
X137656146Y-119260620D01*
X137281353Y-118885173D01*
X136791413Y-118681732D01*
X136260914Y-118681269D01*
X135770620Y-118883854D01*
X135395173Y-119258647D01*
X135254906Y-119596446D01*
X135116146Y-119260620D01*
X134741353Y-118885173D01*
X134251413Y-118681732D01*
X133720914Y-118681269D01*
X133230620Y-118883854D01*
X132855173Y-119258647D01*
X132714906Y-119596446D01*
X132576146Y-119260620D01*
X132201353Y-118885173D01*
X131711413Y-118681732D01*
X131180914Y-118681269D01*
X130690620Y-118883854D01*
X130315173Y-119258647D01*
X130174906Y-119596446D01*
X130036146Y-119260620D01*
X129661353Y-118885173D01*
X129171413Y-118681732D01*
X128640914Y-118681269D01*
X128150620Y-118883854D01*
X127775173Y-119258647D01*
X127634906Y-119596446D01*
X127496146Y-119260620D01*
X127121353Y-118885173D01*
X126631413Y-118681732D01*
X126100914Y-118681269D01*
X125610620Y-118883854D01*
X125235173Y-119258647D01*
X125094906Y-119596446D01*
X124956146Y-119260620D01*
X124581353Y-118885173D01*
X124091413Y-118681732D01*
X123560914Y-118681269D01*
X123070620Y-118883854D01*
X122695173Y-119258647D01*
X122554906Y-119596446D01*
X122416146Y-119260620D01*
X122041353Y-118885173D01*
X121551413Y-118681732D01*
X121020914Y-118681269D01*
X120530620Y-118883854D01*
X120155173Y-119258647D01*
X120014906Y-119596446D01*
X119876146Y-119260620D01*
X119501353Y-118885173D01*
X119011413Y-118681732D01*
X118480914Y-118681269D01*
X117990620Y-118883854D01*
X117615173Y-119258647D01*
X117550940Y-119413337D01*
X117550940Y-119316500D01*
X117506662Y-119081183D01*
X117367590Y-118865059D01*
X117155390Y-118720069D01*
X116903500Y-118669060D01*
X115506500Y-118669060D01*
X115271183Y-118713338D01*
X115055059Y-118852410D01*
X114910069Y-119064610D01*
X114859060Y-119316500D01*
X85852000Y-119316500D01*
X85852000Y-113057940D01*
X87306150Y-113057940D01*
X87306150Y-113558320D01*
X87479169Y-114174145D01*
X87874684Y-114676882D01*
X88432481Y-114989993D01*
X88560286Y-115020939D01*
X88813640Y-114901585D01*
X88813640Y-113057940D01*
X89067640Y-113057940D01*
X89067640Y-114901585D01*
X89320994Y-115020939D01*
X89448799Y-114989993D01*
X90006596Y-114676882D01*
X90402111Y-114174145D01*
X90575130Y-113558320D01*
X90575130Y-113057940D01*
X89067640Y-113057940D01*
X88813640Y-113057940D01*
X87306150Y-113057940D01*
X85852000Y-113057940D01*
X85852000Y-112303560D01*
X87306150Y-112303560D01*
X87306150Y-112803940D01*
X88813640Y-112803940D01*
X88813640Y-110960295D01*
X89067640Y-110960295D01*
X89067640Y-112803940D01*
X90575130Y-112803940D01*
X90575130Y-112388735D01*
X92304870Y-112388735D01*
X92304870Y-113473145D01*
X92429288Y-114098637D01*
X92783601Y-114628904D01*
X93313868Y-114983217D01*
X93939360Y-115107635D01*
X94564852Y-114983217D01*
X95095119Y-114628904D01*
X95449432Y-114098637D01*
X95573850Y-113473145D01*
X95573850Y-113057940D01*
X100641150Y-113057940D01*
X100641150Y-113558320D01*
X100814169Y-114174145D01*
X101209684Y-114676882D01*
X101767481Y-114989993D01*
X101895286Y-115020939D01*
X102148640Y-114901585D01*
X102148640Y-113057940D01*
X102402640Y-113057940D01*
X102402640Y-114901585D01*
X102655994Y-115020939D01*
X102783799Y-114989993D01*
X103341596Y-114676882D01*
X103737111Y-114174145D01*
X103910130Y-113558320D01*
X103910130Y-113057940D01*
X102402640Y-113057940D01*
X102148640Y-113057940D01*
X100641150Y-113057940D01*
X95573850Y-113057940D01*
X95573850Y-112388735D01*
X95556908Y-112303560D01*
X100641150Y-112303560D01*
X100641150Y-112803940D01*
X102148640Y-112803940D01*
X102148640Y-110960295D01*
X102402640Y-110960295D01*
X102402640Y-112803940D01*
X103910130Y-112803940D01*
X103910130Y-112388735D01*
X105639870Y-112388735D01*
X105639870Y-113473145D01*
X105764288Y-114098637D01*
X106118601Y-114628904D01*
X106648868Y-114983217D01*
X107274360Y-115107635D01*
X107899852Y-114983217D01*
X108430119Y-114628904D01*
X108784432Y-114098637D01*
X108908850Y-113473145D01*
X108908850Y-113057940D01*
X113976150Y-113057940D01*
X113976150Y-113558320D01*
X114149169Y-114174145D01*
X114544684Y-114676882D01*
X115102481Y-114989993D01*
X115230286Y-115020939D01*
X115483640Y-114901585D01*
X115483640Y-113057940D01*
X115737640Y-113057940D01*
X115737640Y-114901585D01*
X115990994Y-115020939D01*
X116118799Y-114989993D01*
X116676596Y-114676882D01*
X117072111Y-114174145D01*
X117245130Y-113558320D01*
X117245130Y-113057940D01*
X115737640Y-113057940D01*
X115483640Y-113057940D01*
X113976150Y-113057940D01*
X108908850Y-113057940D01*
X108908850Y-112388735D01*
X108891908Y-112303560D01*
X113976150Y-112303560D01*
X113976150Y-112803940D01*
X115483640Y-112803940D01*
X115483640Y-110960295D01*
X115737640Y-110960295D01*
X115737640Y-112803940D01*
X117245130Y-112803940D01*
X117245130Y-112388735D01*
X118974870Y-112388735D01*
X118974870Y-113473145D01*
X119099288Y-114098637D01*
X119453601Y-114628904D01*
X119983868Y-114983217D01*
X120609360Y-115107635D01*
X121234852Y-114983217D01*
X121765119Y-114628904D01*
X122119432Y-114098637D01*
X122243850Y-113473145D01*
X122243850Y-113057940D01*
X127311150Y-113057940D01*
X127311150Y-113558320D01*
X127484169Y-114174145D01*
X127879684Y-114676882D01*
X128437481Y-114989993D01*
X128565286Y-115020939D01*
X128818640Y-114901585D01*
X128818640Y-113057940D01*
X129072640Y-113057940D01*
X129072640Y-114901585D01*
X129325994Y-115020939D01*
X129453799Y-114989993D01*
X130011596Y-114676882D01*
X130407111Y-114174145D01*
X130580130Y-113558320D01*
X130580130Y-113057940D01*
X129072640Y-113057940D01*
X128818640Y-113057940D01*
X127311150Y-113057940D01*
X122243850Y-113057940D01*
X122243850Y-112388735D01*
X122226908Y-112303560D01*
X127311150Y-112303560D01*
X127311150Y-112803940D01*
X128818640Y-112803940D01*
X128818640Y-110960295D01*
X129072640Y-110960295D01*
X129072640Y-112803940D01*
X130580130Y-112803940D01*
X130580130Y-112388735D01*
X132309870Y-112388735D01*
X132309870Y-113473145D01*
X132434288Y-114098637D01*
X132788601Y-114628904D01*
X133318868Y-114983217D01*
X133944360Y-115107635D01*
X134569852Y-114983217D01*
X135100119Y-114628904D01*
X135454432Y-114098637D01*
X135578850Y-113473145D01*
X135578850Y-113057940D01*
X140646150Y-113057940D01*
X140646150Y-113558320D01*
X140819169Y-114174145D01*
X141214684Y-114676882D01*
X141772481Y-114989993D01*
X141900286Y-115020939D01*
X142153640Y-114901585D01*
X142153640Y-113057940D01*
X142407640Y-113057940D01*
X142407640Y-114901585D01*
X142660994Y-115020939D01*
X142788799Y-114989993D01*
X143346596Y-114676882D01*
X143742111Y-114174145D01*
X143915130Y-113558320D01*
X143915130Y-113057940D01*
X142407640Y-113057940D01*
X142153640Y-113057940D01*
X140646150Y-113057940D01*
X135578850Y-113057940D01*
X135578850Y-112388735D01*
X135561908Y-112303560D01*
X140646150Y-112303560D01*
X140646150Y-112803940D01*
X142153640Y-112803940D01*
X142153640Y-110960295D01*
X142407640Y-110960295D01*
X142407640Y-112803940D01*
X143915130Y-112803940D01*
X143915130Y-112388735D01*
X145644870Y-112388735D01*
X145644870Y-113473145D01*
X145769288Y-114098637D01*
X146123601Y-114628904D01*
X146653868Y-114983217D01*
X147279360Y-115107635D01*
X147904852Y-114983217D01*
X148435119Y-114628904D01*
X148789432Y-114098637D01*
X148913850Y-113473145D01*
X148913850Y-112388735D01*
X148789432Y-111763243D01*
X148435119Y-111232976D01*
X147904852Y-110878663D01*
X147279360Y-110754245D01*
X146653868Y-110878663D01*
X146123601Y-111232976D01*
X145769288Y-111763243D01*
X145644870Y-112388735D01*
X143915130Y-112388735D01*
X143915130Y-112303560D01*
X143742111Y-111687735D01*
X143346596Y-111184998D01*
X142788799Y-110871887D01*
X142660994Y-110840941D01*
X142407640Y-110960295D01*
X142153640Y-110960295D01*
X141900286Y-110840941D01*
X141772481Y-110871887D01*
X141214684Y-111184998D01*
X140819169Y-111687735D01*
X140646150Y-112303560D01*
X135561908Y-112303560D01*
X135454432Y-111763243D01*
X135100119Y-111232976D01*
X134569852Y-110878663D01*
X133944360Y-110754245D01*
X133318868Y-110878663D01*
X132788601Y-111232976D01*
X132434288Y-111763243D01*
X132309870Y-112388735D01*
X130580130Y-112388735D01*
X130580130Y-112303560D01*
X130407111Y-111687735D01*
X130011596Y-111184998D01*
X129453799Y-110871887D01*
X129325994Y-110840941D01*
X129072640Y-110960295D01*
X128818640Y-110960295D01*
X128565286Y-110840941D01*
X128437481Y-110871887D01*
X127879684Y-111184998D01*
X127484169Y-111687735D01*
X127311150Y-112303560D01*
X122226908Y-112303560D01*
X122119432Y-111763243D01*
X121765119Y-111232976D01*
X121234852Y-110878663D01*
X120609360Y-110754245D01*
X119983868Y-110878663D01*
X119453601Y-111232976D01*
X119099288Y-111763243D01*
X118974870Y-112388735D01*
X117245130Y-112388735D01*
X117245130Y-112303560D01*
X117072111Y-111687735D01*
X116676596Y-111184998D01*
X116118799Y-110871887D01*
X115990994Y-110840941D01*
X115737640Y-110960295D01*
X115483640Y-110960295D01*
X115230286Y-110840941D01*
X115102481Y-110871887D01*
X114544684Y-111184998D01*
X114149169Y-111687735D01*
X113976150Y-112303560D01*
X108891908Y-112303560D01*
X108784432Y-111763243D01*
X108430119Y-111232976D01*
X107899852Y-110878663D01*
X107274360Y-110754245D01*
X106648868Y-110878663D01*
X106118601Y-111232976D01*
X105764288Y-111763243D01*
X105639870Y-112388735D01*
X103910130Y-112388735D01*
X103910130Y-112303560D01*
X103737111Y-111687735D01*
X103341596Y-111184998D01*
X102783799Y-110871887D01*
X102655994Y-110840941D01*
X102402640Y-110960295D01*
X102148640Y-110960295D01*
X101895286Y-110840941D01*
X101767481Y-110871887D01*
X101209684Y-111184998D01*
X100814169Y-111687735D01*
X100641150Y-112303560D01*
X95556908Y-112303560D01*
X95449432Y-111763243D01*
X95095119Y-111232976D01*
X94564852Y-110878663D01*
X93939360Y-110754245D01*
X93313868Y-110878663D01*
X92783601Y-111232976D01*
X92429288Y-111763243D01*
X92304870Y-112388735D01*
X90575130Y-112388735D01*
X90575130Y-112303560D01*
X90402111Y-111687735D01*
X90006596Y-111184998D01*
X89448799Y-110871887D01*
X89320994Y-110840941D01*
X89067640Y-110960295D01*
X88813640Y-110960295D01*
X88560286Y-110840941D01*
X88432481Y-110871887D01*
X87874684Y-111184998D01*
X87479169Y-111687735D01*
X87306150Y-112303560D01*
X85852000Y-112303560D01*
X85852000Y-107506855D01*
X155886150Y-107506855D01*
X155886150Y-108591265D01*
X156010568Y-109216757D01*
X156364881Y-109747024D01*
X156895148Y-110101337D01*
X157520640Y-110225755D01*
X158146132Y-110101337D01*
X158676399Y-109747024D01*
X159030712Y-109216757D01*
X159155130Y-108591265D01*
X159155130Y-108176060D01*
X160884870Y-108176060D01*
X160884870Y-108676440D01*
X161057889Y-109292265D01*
X161453404Y-109795002D01*
X162011201Y-110108113D01*
X162139006Y-110139059D01*
X162392360Y-110019705D01*
X162392360Y-108176060D01*
X162646360Y-108176060D01*
X162646360Y-110019705D01*
X162899714Y-110139059D01*
X163027519Y-110108113D01*
X163585316Y-109795002D01*
X163980831Y-109292265D01*
X164153850Y-108676440D01*
X164153850Y-108176060D01*
X162646360Y-108176060D01*
X162392360Y-108176060D01*
X160884870Y-108176060D01*
X159155130Y-108176060D01*
X159155130Y-107506855D01*
X159138188Y-107421680D01*
X160884870Y-107421680D01*
X160884870Y-107922060D01*
X162392360Y-107922060D01*
X162392360Y-104917240D01*
X162646360Y-104917240D01*
X162646360Y-107922060D01*
X164153850Y-107922060D01*
X164153850Y-107421680D01*
X163980831Y-106805855D01*
X163585316Y-106303118D01*
X163554961Y-106286079D01*
X163754089Y-106203597D01*
X163932717Y-106024968D01*
X164029390Y-105791579D01*
X164029390Y-105075990D01*
X163870640Y-104917240D01*
X162646360Y-104917240D01*
X162392360Y-104917240D01*
X161168080Y-104917240D01*
X161009330Y-105075990D01*
X161009330Y-105791579D01*
X161106003Y-106024968D01*
X161284631Y-106203597D01*
X161483759Y-106286079D01*
X161453404Y-106303118D01*
X161057889Y-106805855D01*
X160884870Y-107421680D01*
X159138188Y-107421680D01*
X159030712Y-106881363D01*
X158676399Y-106351096D01*
X158569889Y-106279928D01*
X158630987Y-106268432D01*
X158847111Y-106129360D01*
X158992101Y-105917160D01*
X159043110Y-105665270D01*
X159043110Y-103915210D01*
X159019344Y-103788901D01*
X161009330Y-103788901D01*
X161009330Y-104504490D01*
X161168080Y-104663240D01*
X162392360Y-104663240D01*
X162392360Y-103438960D01*
X162646360Y-103438960D01*
X162646360Y-104663240D01*
X163870640Y-104663240D01*
X164029390Y-104504490D01*
X164029390Y-103788901D01*
X163932717Y-103555512D01*
X163754089Y-103376883D01*
X163520700Y-103280210D01*
X162805110Y-103280210D01*
X162646360Y-103438960D01*
X162392360Y-103438960D01*
X162233610Y-103280210D01*
X161518020Y-103280210D01*
X161284631Y-103376883D01*
X161106003Y-103555512D01*
X161009330Y-103788901D01*
X159019344Y-103788901D01*
X158998832Y-103679893D01*
X158859760Y-103463769D01*
X158647560Y-103318779D01*
X158395670Y-103267770D01*
X156645610Y-103267770D01*
X156410293Y-103312048D01*
X156194169Y-103451120D01*
X156049179Y-103663320D01*
X155998170Y-103915210D01*
X155998170Y-105665270D01*
X156042448Y-105900587D01*
X156181520Y-106116711D01*
X156393720Y-106261701D01*
X156474261Y-106278011D01*
X156364881Y-106351096D01*
X156010568Y-106881363D01*
X155886150Y-107506855D01*
X85852000Y-107506855D01*
X85852000Y-100556060D01*
X87306150Y-100556060D01*
X87306150Y-101056440D01*
X87479169Y-101672265D01*
X87874684Y-102175002D01*
X88432481Y-102488113D01*
X88560286Y-102519059D01*
X88813640Y-102399705D01*
X88813640Y-100556060D01*
X89067640Y-100556060D01*
X89067640Y-102399705D01*
X89320994Y-102519059D01*
X89448799Y-102488113D01*
X90006596Y-102175002D01*
X90402111Y-101672265D01*
X90575130Y-101056440D01*
X90575130Y-100556060D01*
X89067640Y-100556060D01*
X88813640Y-100556060D01*
X87306150Y-100556060D01*
X85852000Y-100556060D01*
X85852000Y-99801680D01*
X87306150Y-99801680D01*
X87306150Y-100302060D01*
X88813640Y-100302060D01*
X88813640Y-98458415D01*
X89067640Y-98458415D01*
X89067640Y-100302060D01*
X90575130Y-100302060D01*
X90575130Y-99886855D01*
X92304870Y-99886855D01*
X92304870Y-100971265D01*
X92429288Y-101596757D01*
X92783601Y-102127024D01*
X93313868Y-102481337D01*
X93939360Y-102605755D01*
X94564852Y-102481337D01*
X95095119Y-102127024D01*
X95449432Y-101596757D01*
X95573850Y-100971265D01*
X95573850Y-100556060D01*
X100641150Y-100556060D01*
X100641150Y-101056440D01*
X100814169Y-101672265D01*
X101209684Y-102175002D01*
X101767481Y-102488113D01*
X101895286Y-102519059D01*
X102148640Y-102399705D01*
X102148640Y-100556060D01*
X102402640Y-100556060D01*
X102402640Y-102399705D01*
X102655994Y-102519059D01*
X102783799Y-102488113D01*
X103341596Y-102175002D01*
X103737111Y-101672265D01*
X103910130Y-101056440D01*
X103910130Y-100556060D01*
X102402640Y-100556060D01*
X102148640Y-100556060D01*
X100641150Y-100556060D01*
X95573850Y-100556060D01*
X95573850Y-99886855D01*
X95556908Y-99801680D01*
X100641150Y-99801680D01*
X100641150Y-100302060D01*
X102148640Y-100302060D01*
X102148640Y-98458415D01*
X102402640Y-98458415D01*
X102402640Y-100302060D01*
X103910130Y-100302060D01*
X103910130Y-99886855D01*
X105639870Y-99886855D01*
X105639870Y-100971265D01*
X105764288Y-101596757D01*
X106118601Y-102127024D01*
X106648868Y-102481337D01*
X107274360Y-102605755D01*
X107899852Y-102481337D01*
X108430119Y-102127024D01*
X108784432Y-101596757D01*
X108908850Y-100971265D01*
X108908850Y-100556060D01*
X113976150Y-100556060D01*
X113976150Y-101056440D01*
X114149169Y-101672265D01*
X114544684Y-102175002D01*
X115102481Y-102488113D01*
X115230286Y-102519059D01*
X115483640Y-102399705D01*
X115483640Y-100556060D01*
X115737640Y-100556060D01*
X115737640Y-102399705D01*
X115990994Y-102519059D01*
X116118799Y-102488113D01*
X116676596Y-102175002D01*
X117072111Y-101672265D01*
X117245130Y-101056440D01*
X117245130Y-100556060D01*
X115737640Y-100556060D01*
X115483640Y-100556060D01*
X113976150Y-100556060D01*
X108908850Y-100556060D01*
X108908850Y-99886855D01*
X108891908Y-99801680D01*
X113976150Y-99801680D01*
X113976150Y-100302060D01*
X115483640Y-100302060D01*
X115483640Y-98458415D01*
X115737640Y-98458415D01*
X115737640Y-100302060D01*
X117245130Y-100302060D01*
X117245130Y-99801680D01*
X117072111Y-99185855D01*
X116676596Y-98683118D01*
X116118799Y-98370007D01*
X115990994Y-98339061D01*
X115737640Y-98458415D01*
X115483640Y-98458415D01*
X115230286Y-98339061D01*
X115102481Y-98370007D01*
X114544684Y-98683118D01*
X114149169Y-99185855D01*
X113976150Y-99801680D01*
X108891908Y-99801680D01*
X108784432Y-99261363D01*
X108430119Y-98731096D01*
X107899852Y-98376783D01*
X107274360Y-98252365D01*
X106648868Y-98376783D01*
X106118601Y-98731096D01*
X105764288Y-99261363D01*
X105639870Y-99886855D01*
X103910130Y-99886855D01*
X103910130Y-99801680D01*
X103737111Y-99185855D01*
X103341596Y-98683118D01*
X102783799Y-98370007D01*
X102655994Y-98339061D01*
X102402640Y-98458415D01*
X102148640Y-98458415D01*
X101895286Y-98339061D01*
X101767481Y-98370007D01*
X101209684Y-98683118D01*
X100814169Y-99185855D01*
X100641150Y-99801680D01*
X95556908Y-99801680D01*
X95449432Y-99261363D01*
X95095119Y-98731096D01*
X94564852Y-98376783D01*
X93939360Y-98252365D01*
X93313868Y-98376783D01*
X92783601Y-98731096D01*
X92429288Y-99261363D01*
X92304870Y-99886855D01*
X90575130Y-99886855D01*
X90575130Y-99801680D01*
X90402111Y-99185855D01*
X90006596Y-98683118D01*
X89448799Y-98370007D01*
X89320994Y-98339061D01*
X89067640Y-98458415D01*
X88813640Y-98458415D01*
X88560286Y-98339061D01*
X88432481Y-98370007D01*
X87874684Y-98683118D01*
X87479169Y-99185855D01*
X87306150Y-99801680D01*
X85852000Y-99801680D01*
X85852000Y-96170750D01*
X86766400Y-96170750D01*
X86766400Y-97027309D01*
X86863073Y-97260698D01*
X87041701Y-97439327D01*
X87275090Y-97536000D01*
X87979250Y-97536000D01*
X88138000Y-97377250D01*
X88138000Y-96012000D01*
X86925150Y-96012000D01*
X86766400Y-96170750D01*
X85852000Y-96170750D01*
X85852000Y-94742691D01*
X86766400Y-94742691D01*
X86766400Y-95599250D01*
X86925150Y-95758000D01*
X88138000Y-95758000D01*
X88138000Y-94392750D01*
X88392000Y-94392750D01*
X88392000Y-95758000D01*
X88412000Y-95758000D01*
X88412000Y-96012000D01*
X88392000Y-96012000D01*
X88392000Y-97377250D01*
X88550750Y-97536000D01*
X89254910Y-97536000D01*
X89488299Y-97439327D01*
X89666927Y-97260698D01*
X89730500Y-97107220D01*
X89745330Y-97129415D01*
X90231511Y-97454271D01*
X90805000Y-97568345D01*
X91378489Y-97454271D01*
X91864670Y-97129415D01*
X92075000Y-96814634D01*
X92285330Y-97129415D01*
X92771511Y-97454271D01*
X93345000Y-97568345D01*
X93918489Y-97454271D01*
X94404670Y-97129415D01*
X94615000Y-96814634D01*
X94825330Y-97129415D01*
X95311511Y-97454271D01*
X95885000Y-97568345D01*
X96458489Y-97454271D01*
X96944670Y-97129415D01*
X97155000Y-96814634D01*
X97365330Y-97129415D01*
X97851511Y-97454271D01*
X98425000Y-97568345D01*
X98998489Y-97454271D01*
X99051251Y-97419016D01*
X113620590Y-97419016D01*
X113676271Y-97649611D01*
X114159078Y-97817622D01*
X114669428Y-97788083D01*
X115003729Y-97649611D01*
X115059410Y-97419016D01*
X114340000Y-96699605D01*
X113620590Y-97419016D01*
X99051251Y-97419016D01*
X99484670Y-97129415D01*
X99809526Y-96643234D01*
X99870026Y-96339078D01*
X113042378Y-96339078D01*
X113071917Y-96849428D01*
X113210389Y-97183729D01*
X113440984Y-97239410D01*
X114160395Y-96520000D01*
X114519605Y-96520000D01*
X115239016Y-97239410D01*
X115469611Y-97183729D01*
X115542560Y-96974098D01*
X115542560Y-97170000D01*
X115586838Y-97405317D01*
X115725910Y-97621441D01*
X115938110Y-97766431D01*
X116190000Y-97817440D01*
X116992330Y-97817440D01*
X117155460Y-97926440D01*
X117475000Y-97990000D01*
X119939517Y-97990000D01*
X119959233Y-98089121D01*
X120131784Y-98347361D01*
X119983868Y-98376783D01*
X119453601Y-98731096D01*
X119099288Y-99261363D01*
X118974870Y-99886855D01*
X118974870Y-100971265D01*
X119099288Y-101596757D01*
X119453601Y-102127024D01*
X119983868Y-102481337D01*
X120609360Y-102605755D01*
X121234852Y-102481337D01*
X121765119Y-102127024D01*
X122119432Y-101596757D01*
X122243850Y-100971265D01*
X122243850Y-100556060D01*
X127311150Y-100556060D01*
X127311150Y-101056440D01*
X127484169Y-101672265D01*
X127879684Y-102175002D01*
X128437481Y-102488113D01*
X128565286Y-102519059D01*
X128818640Y-102399705D01*
X128818640Y-100556060D01*
X129072640Y-100556060D01*
X129072640Y-102399705D01*
X129325994Y-102519059D01*
X129453799Y-102488113D01*
X130011596Y-102175002D01*
X130407111Y-101672265D01*
X130580130Y-101056440D01*
X130580130Y-100556060D01*
X129072640Y-100556060D01*
X128818640Y-100556060D01*
X127311150Y-100556060D01*
X122243850Y-100556060D01*
X122243850Y-99886855D01*
X122119432Y-99261363D01*
X121848622Y-98856068D01*
X122299698Y-98554668D01*
X122552149Y-98176849D01*
X122900104Y-98609500D01*
X123393181Y-98879367D01*
X123475961Y-98896904D01*
X123698000Y-98774915D01*
X123698000Y-97282000D01*
X123678000Y-97282000D01*
X123678000Y-97028000D01*
X123698000Y-97028000D01*
X123698000Y-95535085D01*
X123952000Y-95535085D01*
X123952000Y-97028000D01*
X123972000Y-97028000D01*
X123972000Y-97282000D01*
X123952000Y-97282000D01*
X123952000Y-98774915D01*
X124174039Y-98896904D01*
X124256819Y-98879367D01*
X124749896Y-98609500D01*
X125097851Y-98176849D01*
X125350302Y-98554668D01*
X125815849Y-98865737D01*
X126365000Y-98974970D01*
X126914151Y-98865737D01*
X127379698Y-98554668D01*
X127635000Y-98172582D01*
X127890302Y-98554668D01*
X127989926Y-98621235D01*
X127879684Y-98683118D01*
X127484169Y-99185855D01*
X127311150Y-99801680D01*
X127311150Y-100302060D01*
X128818640Y-100302060D01*
X128818640Y-100282060D01*
X129072640Y-100282060D01*
X129072640Y-100302060D01*
X130580130Y-100302060D01*
X130580130Y-99801680D01*
X130407111Y-99185855D01*
X130011596Y-98683118D01*
X129857182Y-98596440D01*
X129919698Y-98554668D01*
X130175000Y-98172582D01*
X130430302Y-98554668D01*
X130895849Y-98865737D01*
X131445000Y-98974970D01*
X131994151Y-98865737D01*
X132459698Y-98554668D01*
X132715000Y-98172582D01*
X132970302Y-98554668D01*
X133011473Y-98582178D01*
X132788601Y-98731096D01*
X132434288Y-99261363D01*
X132309870Y-99886855D01*
X132309870Y-100971265D01*
X132434288Y-101596757D01*
X132788601Y-102127024D01*
X133318868Y-102481337D01*
X133944360Y-102605755D01*
X134569852Y-102481337D01*
X135100119Y-102127024D01*
X135454432Y-101596757D01*
X135578850Y-100971265D01*
X135578850Y-100556060D01*
X140646150Y-100556060D01*
X140646150Y-101056440D01*
X140819169Y-101672265D01*
X141214684Y-102175002D01*
X141772481Y-102488113D01*
X141900286Y-102519059D01*
X142153640Y-102399705D01*
X142153640Y-100556060D01*
X142407640Y-100556060D01*
X142407640Y-102399705D01*
X142660994Y-102519059D01*
X142788799Y-102488113D01*
X143346596Y-102175002D01*
X143742111Y-101672265D01*
X143915130Y-101056440D01*
X143915130Y-100556060D01*
X142407640Y-100556060D01*
X142153640Y-100556060D01*
X140646150Y-100556060D01*
X135578850Y-100556060D01*
X135578850Y-99886855D01*
X135561908Y-99801680D01*
X140646150Y-99801680D01*
X140646150Y-100302060D01*
X142153640Y-100302060D01*
X142153640Y-98458415D01*
X142407640Y-98458415D01*
X142407640Y-100302060D01*
X143915130Y-100302060D01*
X143915130Y-99886855D01*
X145644870Y-99886855D01*
X145644870Y-100971265D01*
X145769288Y-101596757D01*
X146123601Y-102127024D01*
X146653868Y-102481337D01*
X147279360Y-102605755D01*
X147904852Y-102481337D01*
X148435119Y-102127024D01*
X148789432Y-101596757D01*
X148913850Y-100971265D01*
X148913850Y-99886855D01*
X148789432Y-99261363D01*
X148435119Y-98731096D01*
X147904852Y-98376783D01*
X147279360Y-98252365D01*
X146653868Y-98376783D01*
X146123601Y-98731096D01*
X145769288Y-99261363D01*
X145644870Y-99886855D01*
X143915130Y-99886855D01*
X143915130Y-99801680D01*
X143742111Y-99185855D01*
X143346596Y-98683118D01*
X142788799Y-98370007D01*
X142660994Y-98339061D01*
X142407640Y-98458415D01*
X142153640Y-98458415D01*
X141900286Y-98339061D01*
X141772481Y-98370007D01*
X141214684Y-98683118D01*
X140819169Y-99185855D01*
X140646150Y-99801680D01*
X135561908Y-99801680D01*
X135454432Y-99261363D01*
X135100119Y-98731096D01*
X134917887Y-98609332D01*
X134999698Y-98554668D01*
X135255000Y-98172582D01*
X135510302Y-98554668D01*
X135975849Y-98865737D01*
X136525000Y-98974970D01*
X137074151Y-98865737D01*
X137539698Y-98554668D01*
X137795000Y-98172582D01*
X138050302Y-98554668D01*
X138515849Y-98865737D01*
X139065000Y-98974970D01*
X139614151Y-98865737D01*
X140079698Y-98554668D01*
X140288304Y-98242467D01*
X151936054Y-98242467D01*
X152283150Y-99082505D01*
X152925294Y-99725771D01*
X153764725Y-100074333D01*
X154673647Y-100075126D01*
X155513685Y-99728030D01*
X156156951Y-99085886D01*
X156505513Y-98246455D01*
X156505516Y-98242467D01*
X163533694Y-98242467D01*
X163880790Y-99082505D01*
X164522934Y-99725771D01*
X165362365Y-100074333D01*
X166271287Y-100075126D01*
X167111325Y-99728030D01*
X167754591Y-99085886D01*
X168103153Y-98246455D01*
X168103946Y-97337533D01*
X167756850Y-96497495D01*
X167114706Y-95854229D01*
X166275275Y-95505667D01*
X165366353Y-95504874D01*
X164526315Y-95851970D01*
X163883049Y-96494114D01*
X163534487Y-97333545D01*
X163533694Y-98242467D01*
X156505516Y-98242467D01*
X156506306Y-97337533D01*
X156159210Y-96497495D01*
X155517066Y-95854229D01*
X154677635Y-95505667D01*
X153768713Y-95504874D01*
X152928675Y-95851970D01*
X152285409Y-96494114D01*
X151936847Y-97333545D01*
X151936054Y-98242467D01*
X140288304Y-98242467D01*
X140390767Y-98089121D01*
X140500000Y-97539970D01*
X140500000Y-96770030D01*
X140390767Y-96220879D01*
X140079698Y-95755332D01*
X139614151Y-95444263D01*
X139065000Y-95335030D01*
X138515849Y-95444263D01*
X138050302Y-95755332D01*
X137795000Y-96137418D01*
X137539698Y-95755332D01*
X137074151Y-95444263D01*
X136525000Y-95335030D01*
X135975849Y-95444263D01*
X135510302Y-95755332D01*
X135255000Y-96137418D01*
X134999698Y-95755332D01*
X134534151Y-95444263D01*
X133985000Y-95335030D01*
X133435849Y-95444263D01*
X132970302Y-95755332D01*
X132715000Y-96137418D01*
X132459698Y-95755332D01*
X131994151Y-95444263D01*
X131445000Y-95335030D01*
X130895849Y-95444263D01*
X130430302Y-95755332D01*
X130175000Y-96137418D01*
X129919698Y-95755332D01*
X129454151Y-95444263D01*
X128905000Y-95335030D01*
X128355849Y-95444263D01*
X127890302Y-95755332D01*
X127635000Y-96137418D01*
X127379698Y-95755332D01*
X126914151Y-95444263D01*
X126365000Y-95335030D01*
X125815849Y-95444263D01*
X125350302Y-95755332D01*
X125097851Y-96133151D01*
X124749896Y-95700500D01*
X124256819Y-95430633D01*
X124174039Y-95413096D01*
X123952000Y-95535085D01*
X123698000Y-95535085D01*
X123475961Y-95413096D01*
X123393181Y-95430633D01*
X122900104Y-95700500D01*
X122552149Y-96133151D01*
X122299698Y-95755332D01*
X121834151Y-95444263D01*
X121285000Y-95335030D01*
X120735849Y-95444263D01*
X120270302Y-95755332D01*
X119959233Y-96220879D01*
X119939517Y-96320000D01*
X118137440Y-96320000D01*
X118137440Y-95870000D01*
X118093162Y-95634683D01*
X117954090Y-95418559D01*
X117741890Y-95273569D01*
X117490000Y-95222560D01*
X116190000Y-95222560D01*
X115954683Y-95266838D01*
X115738559Y-95405910D01*
X115593569Y-95618110D01*
X115542560Y-95870000D01*
X115542560Y-96032385D01*
X115469611Y-95856271D01*
X115239016Y-95800590D01*
X114519605Y-96520000D01*
X114160395Y-96520000D01*
X113440984Y-95800590D01*
X113210389Y-95856271D01*
X113042378Y-96339078D01*
X99870026Y-96339078D01*
X99923600Y-96069745D01*
X99923600Y-95700255D01*
X99907833Y-95620984D01*
X113620590Y-95620984D01*
X114340000Y-96340395D01*
X115059410Y-95620984D01*
X115003729Y-95390389D01*
X114520922Y-95222378D01*
X114010572Y-95251917D01*
X113676271Y-95390389D01*
X113620590Y-95620984D01*
X99907833Y-95620984D01*
X99809526Y-95126766D01*
X99484670Y-94640585D01*
X98998489Y-94315729D01*
X98425000Y-94201655D01*
X97851511Y-94315729D01*
X97365330Y-94640585D01*
X97155000Y-94955366D01*
X96944670Y-94640585D01*
X96458489Y-94315729D01*
X95885000Y-94201655D01*
X95311511Y-94315729D01*
X94825330Y-94640585D01*
X94615000Y-94955366D01*
X94404670Y-94640585D01*
X93918489Y-94315729D01*
X93345000Y-94201655D01*
X92771511Y-94315729D01*
X92285330Y-94640585D01*
X92075000Y-94955366D01*
X91864670Y-94640585D01*
X91378489Y-94315729D01*
X90805000Y-94201655D01*
X90231511Y-94315729D01*
X89745330Y-94640585D01*
X89730500Y-94662780D01*
X89666927Y-94509302D01*
X89488299Y-94330673D01*
X89254910Y-94234000D01*
X88550750Y-94234000D01*
X88392000Y-94392750D01*
X88138000Y-94392750D01*
X87979250Y-94234000D01*
X87275090Y-94234000D01*
X87041701Y-94330673D01*
X86863073Y-94509302D01*
X86766400Y-94742691D01*
X85852000Y-94742691D01*
X85852000Y-92360750D01*
X86766400Y-92360750D01*
X86766400Y-93217309D01*
X86863073Y-93450698D01*
X87041701Y-93629327D01*
X87275090Y-93726000D01*
X87979250Y-93726000D01*
X88138000Y-93567250D01*
X88138000Y-92202000D01*
X86925150Y-92202000D01*
X86766400Y-92360750D01*
X85852000Y-92360750D01*
X85852000Y-90932691D01*
X86766400Y-90932691D01*
X86766400Y-91789250D01*
X86925150Y-91948000D01*
X88138000Y-91948000D01*
X88138000Y-90582750D01*
X87979250Y-90424000D01*
X87275090Y-90424000D01*
X87041701Y-90520673D01*
X86863073Y-90699302D01*
X86766400Y-90932691D01*
X85852000Y-90932691D01*
X85852000Y-90222606D01*
X87265588Y-88809018D01*
X87265226Y-89223694D01*
X87513538Y-89824655D01*
X87972927Y-90284846D01*
X88479540Y-90495210D01*
X88392000Y-90582750D01*
X88392000Y-91948000D01*
X88412000Y-91948000D01*
X88412000Y-92202000D01*
X88392000Y-92202000D01*
X88392000Y-93567250D01*
X88550750Y-93726000D01*
X89254910Y-93726000D01*
X89488299Y-93629327D01*
X89666927Y-93450698D01*
X89730500Y-93297220D01*
X89745330Y-93319415D01*
X90231511Y-93644271D01*
X90805000Y-93758345D01*
X91378489Y-93644271D01*
X91864670Y-93319415D01*
X92075000Y-93004634D01*
X92285330Y-93319415D01*
X92771511Y-93644271D01*
X93345000Y-93758345D01*
X93918489Y-93644271D01*
X94404670Y-93319415D01*
X94615000Y-93004634D01*
X94825330Y-93319415D01*
X95311511Y-93644271D01*
X95885000Y-93758345D01*
X96458489Y-93644271D01*
X96944670Y-93319415D01*
X97155000Y-93004634D01*
X97365330Y-93319415D01*
X97851511Y-93644271D01*
X98425000Y-93758345D01*
X98998489Y-93644271D01*
X99484670Y-93319415D01*
X99809526Y-92833234D01*
X99923600Y-92259745D01*
X99923600Y-91890255D01*
X99809526Y-91316766D01*
X99484670Y-90830585D01*
X99158462Y-90612619D01*
X103809613Y-90612619D01*
X104149155Y-91434372D01*
X104777321Y-92063636D01*
X105598481Y-92404611D01*
X106487619Y-92405387D01*
X107309372Y-92065845D01*
X107938636Y-91437679D01*
X108279611Y-90616519D01*
X108280387Y-89727381D01*
X108041831Y-89150030D01*
X119850000Y-89150030D01*
X119850000Y-89919970D01*
X119959233Y-90469121D01*
X120270302Y-90934668D01*
X120735849Y-91245737D01*
X121285000Y-91354970D01*
X121834151Y-91245737D01*
X122299698Y-90934668D01*
X122555000Y-90552582D01*
X122810302Y-90934668D01*
X123275849Y-91245737D01*
X123825000Y-91354970D01*
X124374151Y-91245737D01*
X124839698Y-90934668D01*
X125095000Y-90552582D01*
X125350302Y-90934668D01*
X125815849Y-91245737D01*
X126365000Y-91354970D01*
X126914151Y-91245737D01*
X127379698Y-90934668D01*
X127635000Y-90552582D01*
X127890302Y-90934668D01*
X128355849Y-91245737D01*
X128905000Y-91354970D01*
X129454151Y-91245737D01*
X129919698Y-90934668D01*
X130175000Y-90552582D01*
X130430302Y-90934668D01*
X130895849Y-91245737D01*
X131445000Y-91354970D01*
X131994151Y-91245737D01*
X132459698Y-90934668D01*
X132715000Y-90552582D01*
X132970302Y-90934668D01*
X133435849Y-91245737D01*
X133985000Y-91354970D01*
X134534151Y-91245737D01*
X134999698Y-90934668D01*
X135255000Y-90552582D01*
X135510302Y-90934668D01*
X135975849Y-91245737D01*
X136525000Y-91354970D01*
X137074151Y-91245737D01*
X137539698Y-90934668D01*
X137792149Y-90556849D01*
X138140104Y-90989500D01*
X138633181Y-91259367D01*
X138715961Y-91276904D01*
X138938000Y-91154915D01*
X138938000Y-89662000D01*
X139192000Y-89662000D01*
X139192000Y-91154915D01*
X139414039Y-91276904D01*
X139496819Y-91259367D01*
X139989896Y-90989500D01*
X140292998Y-90612619D01*
X146989613Y-90612619D01*
X147329155Y-91434372D01*
X147957321Y-92063636D01*
X148778481Y-92404611D01*
X149667619Y-92405387D01*
X150489372Y-92065845D01*
X151118636Y-91437679D01*
X151459611Y-90616519D01*
X151460387Y-89727381D01*
X151331046Y-89414350D01*
X155998170Y-89414350D01*
X155998170Y-91164410D01*
X156042448Y-91399727D01*
X156181520Y-91615851D01*
X156393720Y-91760841D01*
X156645610Y-91811850D01*
X158395670Y-91811850D01*
X158630987Y-91767572D01*
X158805538Y-91655252D01*
X159018660Y-91743530D01*
X159734250Y-91743530D01*
X159893000Y-91584780D01*
X159893000Y-90360500D01*
X159873000Y-90360500D01*
X159873000Y-90106500D01*
X159893000Y-90106500D01*
X159893000Y-88882220D01*
X160147000Y-88882220D01*
X160147000Y-90106500D01*
X160167000Y-90106500D01*
X160167000Y-90360500D01*
X160147000Y-90360500D01*
X160147000Y-91584780D01*
X160305750Y-91743530D01*
X161021340Y-91743530D01*
X161236606Y-91654364D01*
X161392440Y-91760841D01*
X161644330Y-91811850D01*
X163394390Y-91811850D01*
X163629707Y-91767572D01*
X163845831Y-91628500D01*
X163990821Y-91416300D01*
X164041830Y-91164410D01*
X164041830Y-89414350D01*
X163997552Y-89179033D01*
X163858480Y-88962909D01*
X163646280Y-88817919D01*
X163394390Y-88766910D01*
X161644330Y-88766910D01*
X161409013Y-88811188D01*
X161309688Y-88875102D01*
X161254729Y-88820143D01*
X161021340Y-88723470D01*
X160305750Y-88723470D01*
X160147000Y-88882220D01*
X159893000Y-88882220D01*
X159734250Y-88723470D01*
X159018660Y-88723470D01*
X158785271Y-88820143D01*
X158730693Y-88874721D01*
X158647560Y-88817919D01*
X158395670Y-88766910D01*
X156645610Y-88766910D01*
X156410293Y-88811188D01*
X156194169Y-88950260D01*
X156049179Y-89162460D01*
X155998170Y-89414350D01*
X151331046Y-89414350D01*
X151120845Y-88905628D01*
X150492679Y-88276364D01*
X149671519Y-87935389D01*
X148782381Y-87934613D01*
X147960628Y-88274155D01*
X147331364Y-88902321D01*
X146990389Y-89723481D01*
X146989613Y-90612619D01*
X140292998Y-90612619D01*
X140342166Y-90551483D01*
X140500000Y-90012000D01*
X140500000Y-89662000D01*
X139192000Y-89662000D01*
X138938000Y-89662000D01*
X138918000Y-89662000D01*
X138918000Y-89408000D01*
X138938000Y-89408000D01*
X138938000Y-87915085D01*
X139192000Y-87915085D01*
X139192000Y-89408000D01*
X140500000Y-89408000D01*
X140500000Y-89058000D01*
X140342166Y-88518517D01*
X139989896Y-88080500D01*
X139496819Y-87810633D01*
X139414039Y-87793096D01*
X139192000Y-87915085D01*
X138938000Y-87915085D01*
X138715961Y-87793096D01*
X138633181Y-87810633D01*
X138140104Y-88080500D01*
X137792149Y-88513151D01*
X137539698Y-88135332D01*
X137074151Y-87824263D01*
X136525000Y-87715030D01*
X135975849Y-87824263D01*
X135510302Y-88135332D01*
X135255000Y-88517418D01*
X134999698Y-88135332D01*
X134534151Y-87824263D01*
X133985000Y-87715030D01*
X133435849Y-87824263D01*
X132970302Y-88135332D01*
X132715000Y-88517418D01*
X132459698Y-88135332D01*
X131994151Y-87824263D01*
X131445000Y-87715030D01*
X130895849Y-87824263D01*
X130430302Y-88135332D01*
X130175000Y-88517418D01*
X129919698Y-88135332D01*
X129454151Y-87824263D01*
X128905000Y-87715030D01*
X128355849Y-87824263D01*
X127890302Y-88135332D01*
X127635000Y-88517418D01*
X127379698Y-88135332D01*
X126914151Y-87824263D01*
X126365000Y-87715030D01*
X125815849Y-87824263D01*
X125350302Y-88135332D01*
X125095000Y-88517418D01*
X124839698Y-88135332D01*
X124374151Y-87824263D01*
X123825000Y-87715030D01*
X123275849Y-87824263D01*
X122810302Y-88135332D01*
X122555000Y-88517418D01*
X122299698Y-88135332D01*
X121834151Y-87824263D01*
X121285000Y-87715030D01*
X120735849Y-87824263D01*
X120270302Y-88135332D01*
X119959233Y-88600879D01*
X119850000Y-89150030D01*
X108041831Y-89150030D01*
X107940845Y-88905628D01*
X107312679Y-88276364D01*
X106491519Y-87935389D01*
X105602381Y-87934613D01*
X104780628Y-88274155D01*
X104151364Y-88902321D01*
X103810389Y-89723481D01*
X103809613Y-90612619D01*
X99158462Y-90612619D01*
X98998489Y-90505729D01*
X98425000Y-90391655D01*
X97851511Y-90505729D01*
X97365330Y-90830585D01*
X97155000Y-91145366D01*
X96944670Y-90830585D01*
X96501511Y-90534475D01*
X96843694Y-90534774D01*
X97444655Y-90286462D01*
X97904846Y-89827073D01*
X98154206Y-89226547D01*
X98154774Y-88576306D01*
X97906462Y-87975345D01*
X97447073Y-87515154D01*
X96846547Y-87265794D01*
X96196306Y-87265226D01*
X95595345Y-87513538D01*
X95135154Y-87972927D01*
X94885794Y-88573453D01*
X94885226Y-89223694D01*
X95133538Y-89824655D01*
X95592927Y-90284846D01*
X95861439Y-90396342D01*
X95311511Y-90505729D01*
X94825330Y-90830585D01*
X94615000Y-91145366D01*
X94404670Y-90830585D01*
X93918489Y-90505729D01*
X93345000Y-90391655D01*
X92771511Y-90505729D01*
X92285330Y-90830585D01*
X92075000Y-91145366D01*
X91864670Y-90830585D01*
X91378489Y-90505729D01*
X90805000Y-90391655D01*
X90231511Y-90505729D01*
X89745330Y-90830585D01*
X89730500Y-90852780D01*
X89666927Y-90699302D01*
X89488299Y-90520673D01*
X89373202Y-90472998D01*
X89824655Y-90286462D01*
X90284846Y-89827073D01*
X90534206Y-89226547D01*
X90534774Y-88576306D01*
X90286462Y-87975345D01*
X89827073Y-87515154D01*
X89226547Y-87265794D01*
X88809177Y-87265429D01*
X88952606Y-87122000D01*
X165047394Y-87122000D01*
X168148000Y-90222606D01*
M02*
