G04 #@! TF.FileFunction,Legend,Bot*
%FSLAX46Y46*%
G04 Gerber Fmt 4.6, Leading zero omitted, Abs format (unit mm)*
G04 Created by KiCad (PCBNEW 4.0.2-4+6225~38~ubuntu14.04.1-stable) date jeu. 24 mars 2016 21:10:25 CET*
%MOMM*%
G01*
G04 APERTURE LIST*
%ADD10C,0.150000*%
%ADD11C,0.200000*%
%ADD12C,0.300000*%
G04 APERTURE END LIST*
D10*
D11*
X99305333Y-98496381D02*
X99638667Y-98020190D01*
X99876762Y-98496381D02*
X99876762Y-97496381D01*
X99495809Y-97496381D01*
X99400571Y-97544000D01*
X99352952Y-97591619D01*
X99305333Y-97686857D01*
X99305333Y-97829714D01*
X99352952Y-97924952D01*
X99400571Y-97972571D01*
X99495809Y-98020190D01*
X99876762Y-98020190D01*
X98305333Y-98401143D02*
X98352952Y-98448762D01*
X98495809Y-98496381D01*
X98591047Y-98496381D01*
X98733905Y-98448762D01*
X98829143Y-98353524D01*
X98876762Y-98258286D01*
X98924381Y-98067810D01*
X98924381Y-97924952D01*
X98876762Y-97734476D01*
X98829143Y-97639238D01*
X98733905Y-97544000D01*
X98591047Y-97496381D01*
X98495809Y-97496381D01*
X98352952Y-97544000D01*
X98305333Y-97591619D01*
X97162476Y-98448762D02*
X97019619Y-98496381D01*
X96781523Y-98496381D01*
X96686285Y-98448762D01*
X96638666Y-98401143D01*
X96591047Y-98305905D01*
X96591047Y-98210667D01*
X96638666Y-98115429D01*
X96686285Y-98067810D01*
X96781523Y-98020190D01*
X96972000Y-97972571D01*
X97067238Y-97924952D01*
X97114857Y-97877333D01*
X97162476Y-97782095D01*
X97162476Y-97686857D01*
X97114857Y-97591619D01*
X97067238Y-97544000D01*
X96972000Y-97496381D01*
X96733904Y-97496381D01*
X96591047Y-97544000D01*
X95591047Y-98401143D02*
X95638666Y-98448762D01*
X95781523Y-98496381D01*
X95876761Y-98496381D01*
X96019619Y-98448762D01*
X96114857Y-98353524D01*
X96162476Y-98258286D01*
X96210095Y-98067810D01*
X96210095Y-97924952D01*
X96162476Y-97734476D01*
X96114857Y-97639238D01*
X96019619Y-97544000D01*
X95876761Y-97496381D01*
X95781523Y-97496381D01*
X95638666Y-97544000D01*
X95591047Y-97591619D01*
X94448190Y-98448762D02*
X94305333Y-98496381D01*
X94067237Y-98496381D01*
X93971999Y-98448762D01*
X93924380Y-98401143D01*
X93876761Y-98305905D01*
X93876761Y-98210667D01*
X93924380Y-98115429D01*
X93971999Y-98067810D01*
X94067237Y-98020190D01*
X94257714Y-97972571D01*
X94352952Y-97924952D01*
X94400571Y-97877333D01*
X94448190Y-97782095D01*
X94448190Y-97686857D01*
X94400571Y-97591619D01*
X94352952Y-97544000D01*
X94257714Y-97496381D01*
X94019618Y-97496381D01*
X93876761Y-97544000D01*
X93448190Y-98496381D02*
X93448190Y-97496381D01*
X91733904Y-97496381D02*
X92210095Y-97496381D01*
X92257714Y-97972571D01*
X92210095Y-97924952D01*
X92114857Y-97877333D01*
X91876761Y-97877333D01*
X91781523Y-97924952D01*
X91733904Y-97972571D01*
X91686285Y-98067810D01*
X91686285Y-98305905D01*
X91733904Y-98401143D01*
X91781523Y-98448762D01*
X91876761Y-98496381D01*
X92114857Y-98496381D01*
X92210095Y-98448762D01*
X92257714Y-98401143D01*
X91400571Y-97496381D02*
X91067238Y-98496381D01*
X90733904Y-97496381D01*
X89114856Y-97544000D02*
X89210094Y-97496381D01*
X89352951Y-97496381D01*
X89495809Y-97544000D01*
X89591047Y-97639238D01*
X89638666Y-97734476D01*
X89686285Y-97924952D01*
X89686285Y-98067810D01*
X89638666Y-98258286D01*
X89591047Y-98353524D01*
X89495809Y-98448762D01*
X89352951Y-98496381D01*
X89257713Y-98496381D01*
X89114856Y-98448762D01*
X89067237Y-98401143D01*
X89067237Y-98067810D01*
X89257713Y-98067810D01*
X88638666Y-98496381D02*
X88638666Y-97496381D01*
X88067237Y-98496381D01*
X88067237Y-97496381D01*
X87591047Y-98496381D02*
X87591047Y-97496381D01*
X87352952Y-97496381D01*
X87210094Y-97544000D01*
X87114856Y-97639238D01*
X87067237Y-97734476D01*
X87019618Y-97924952D01*
X87019618Y-98067810D01*
X87067237Y-98258286D01*
X87114856Y-98353524D01*
X87210094Y-98448762D01*
X87352952Y-98496381D01*
X87591047Y-98496381D01*
X138239524Y-124229762D02*
X138096667Y-124277381D01*
X137858571Y-124277381D01*
X137763333Y-124229762D01*
X137715714Y-124182143D01*
X137668095Y-124086905D01*
X137668095Y-123991667D01*
X137715714Y-123896429D01*
X137763333Y-123848810D01*
X137858571Y-123801190D01*
X138049048Y-123753571D01*
X138144286Y-123705952D01*
X138191905Y-123658333D01*
X138239524Y-123563095D01*
X138239524Y-123467857D01*
X138191905Y-123372619D01*
X138144286Y-123325000D01*
X138049048Y-123277381D01*
X137810952Y-123277381D01*
X137668095Y-123325000D01*
X137239524Y-124277381D02*
X137239524Y-123277381D01*
X136763334Y-124277381D02*
X136763334Y-123277381D01*
X136525239Y-123277381D01*
X136382381Y-123325000D01*
X136287143Y-123420238D01*
X136239524Y-123515476D01*
X136191905Y-123705952D01*
X136191905Y-123848810D01*
X136239524Y-124039286D01*
X136287143Y-124134524D01*
X136382381Y-124229762D01*
X136525239Y-124277381D01*
X136763334Y-124277381D01*
X135191905Y-124182143D02*
X135239524Y-124229762D01*
X135382381Y-124277381D01*
X135477619Y-124277381D01*
X135620477Y-124229762D01*
X135715715Y-124134524D01*
X135763334Y-124039286D01*
X135810953Y-123848810D01*
X135810953Y-123705952D01*
X135763334Y-123515476D01*
X135715715Y-123420238D01*
X135620477Y-123325000D01*
X135477619Y-123277381D01*
X135382381Y-123277381D01*
X135239524Y-123325000D01*
X135191905Y-123372619D01*
X134810953Y-124229762D02*
X134668096Y-124277381D01*
X134430000Y-124277381D01*
X134334762Y-124229762D01*
X134287143Y-124182143D01*
X134239524Y-124086905D01*
X134239524Y-123991667D01*
X134287143Y-123896429D01*
X134334762Y-123848810D01*
X134430000Y-123801190D01*
X134620477Y-123753571D01*
X134715715Y-123705952D01*
X134763334Y-123658333D01*
X134810953Y-123563095D01*
X134810953Y-123467857D01*
X134763334Y-123372619D01*
X134715715Y-123325000D01*
X134620477Y-123277381D01*
X134382381Y-123277381D01*
X134239524Y-123325000D01*
X133287143Y-124277381D02*
X133858572Y-124277381D01*
X133572858Y-124277381D02*
X133572858Y-123277381D01*
X133668096Y-123420238D01*
X133763334Y-123515476D01*
X133858572Y-123563095D01*
X132191905Y-123610714D02*
X131953810Y-124277381D01*
X131715714Y-123610714D01*
X131144286Y-123277381D02*
X131049047Y-123277381D01*
X130953809Y-123325000D01*
X130906190Y-123372619D01*
X130858571Y-123467857D01*
X130810952Y-123658333D01*
X130810952Y-123896429D01*
X130858571Y-124086905D01*
X130906190Y-124182143D01*
X130953809Y-124229762D01*
X131049047Y-124277381D01*
X131144286Y-124277381D01*
X131239524Y-124229762D01*
X131287143Y-124182143D01*
X131334762Y-124086905D01*
X131382381Y-123896429D01*
X131382381Y-123658333D01*
X131334762Y-123467857D01*
X131287143Y-123372619D01*
X131239524Y-123325000D01*
X131144286Y-123277381D01*
X130382381Y-124182143D02*
X130334762Y-124229762D01*
X130382381Y-124277381D01*
X130430000Y-124229762D01*
X130382381Y-124182143D01*
X130382381Y-124277381D01*
X129382381Y-124277381D02*
X129953810Y-124277381D01*
X129668096Y-124277381D02*
X129668096Y-123277381D01*
X129763334Y-123420238D01*
X129858572Y-123515476D01*
X129953810Y-123563095D01*
X127525238Y-124277381D02*
X127001428Y-123610714D01*
X127525238Y-123610714D02*
X127001428Y-124277381D01*
X126191904Y-124277381D02*
X126191904Y-123753571D01*
X126239523Y-123658333D01*
X126334761Y-123610714D01*
X126525238Y-123610714D01*
X126620476Y-123658333D01*
X126191904Y-124229762D02*
X126287142Y-124277381D01*
X126525238Y-124277381D01*
X126620476Y-124229762D01*
X126668095Y-124134524D01*
X126668095Y-124039286D01*
X126620476Y-123944048D01*
X126525238Y-123896429D01*
X126287142Y-123896429D01*
X126191904Y-123848810D01*
X125810952Y-123610714D02*
X125572857Y-124277381D01*
X125334761Y-123610714D01*
X124953809Y-124277381D02*
X124953809Y-123610714D01*
X124953809Y-123277381D02*
X125001428Y-123325000D01*
X124953809Y-123372619D01*
X124906190Y-123325000D01*
X124953809Y-123277381D01*
X124953809Y-123372619D01*
X124096666Y-124229762D02*
X124191904Y-124277381D01*
X124382381Y-124277381D01*
X124477619Y-124229762D01*
X124525238Y-124134524D01*
X124525238Y-123753571D01*
X124477619Y-123658333D01*
X124382381Y-123610714D01*
X124191904Y-123610714D01*
X124096666Y-123658333D01*
X124049047Y-123753571D01*
X124049047Y-123848810D01*
X124525238Y-123944048D01*
X123620476Y-124277381D02*
X123620476Y-123610714D01*
X123620476Y-123801190D02*
X123572857Y-123705952D01*
X123525238Y-123658333D01*
X123430000Y-123610714D01*
X123334761Y-123610714D01*
X122239523Y-124277381D02*
X122239523Y-123277381D01*
X121810951Y-124277381D02*
X121810951Y-123753571D01*
X121858570Y-123658333D01*
X121953808Y-123610714D01*
X122096666Y-123610714D01*
X122191904Y-123658333D01*
X122239523Y-123705952D01*
X121191904Y-124277381D02*
X121287142Y-124229762D01*
X121334761Y-124182143D01*
X121382380Y-124086905D01*
X121382380Y-123801190D01*
X121334761Y-123705952D01*
X121287142Y-123658333D01*
X121191904Y-123610714D01*
X121049046Y-123610714D01*
X120953808Y-123658333D01*
X120906189Y-123705952D01*
X120858570Y-123801190D01*
X120858570Y-124086905D01*
X120906189Y-124182143D01*
X120953808Y-124229762D01*
X121049046Y-124277381D01*
X121191904Y-124277381D01*
X120477618Y-124229762D02*
X120382380Y-124277381D01*
X120191904Y-124277381D01*
X120096665Y-124229762D01*
X120049046Y-124134524D01*
X120049046Y-124086905D01*
X120096665Y-123991667D01*
X120191904Y-123944048D01*
X120334761Y-123944048D01*
X120429999Y-123896429D01*
X120477618Y-123801190D01*
X120477618Y-123753571D01*
X120429999Y-123658333D01*
X120334761Y-123610714D01*
X120191904Y-123610714D01*
X120096665Y-123658333D01*
X119715713Y-124277381D02*
X119191903Y-123610714D01*
X119715713Y-123610714D02*
X119191903Y-124277381D01*
X118429998Y-124229762D02*
X118525236Y-124277381D01*
X118715713Y-124277381D01*
X118810951Y-124229762D01*
X118858570Y-124134524D01*
X118858570Y-123753571D01*
X118810951Y-123658333D01*
X118715713Y-123610714D01*
X118525236Y-123610714D01*
X118429998Y-123658333D01*
X118382379Y-123753571D01*
X118382379Y-123848810D01*
X118858570Y-123944048D01*
X117239522Y-123372619D02*
X117191903Y-123325000D01*
X117096665Y-123277381D01*
X116858569Y-123277381D01*
X116763331Y-123325000D01*
X116715712Y-123372619D01*
X116668093Y-123467857D01*
X116668093Y-123563095D01*
X116715712Y-123705952D01*
X117287141Y-124277381D01*
X116668093Y-124277381D01*
X116049046Y-123277381D02*
X115953807Y-123277381D01*
X115858569Y-123325000D01*
X115810950Y-123372619D01*
X115763331Y-123467857D01*
X115715712Y-123658333D01*
X115715712Y-123896429D01*
X115763331Y-124086905D01*
X115810950Y-124182143D01*
X115858569Y-124229762D01*
X115953807Y-124277381D01*
X116049046Y-124277381D01*
X116144284Y-124229762D01*
X116191903Y-124182143D01*
X116239522Y-124086905D01*
X116287141Y-123896429D01*
X116287141Y-123658333D01*
X116239522Y-123467857D01*
X116191903Y-123372619D01*
X116144284Y-123325000D01*
X116049046Y-123277381D01*
X114763331Y-124277381D02*
X115334760Y-124277381D01*
X115049046Y-124277381D02*
X115049046Y-123277381D01*
X115144284Y-123420238D01*
X115239522Y-123515476D01*
X115334760Y-123563095D01*
X113906188Y-123277381D02*
X114096665Y-123277381D01*
X114191903Y-123325000D01*
X114239522Y-123372619D01*
X114334760Y-123515476D01*
X114382379Y-123705952D01*
X114382379Y-124086905D01*
X114334760Y-124182143D01*
X114287141Y-124229762D01*
X114191903Y-124277381D01*
X114001426Y-124277381D01*
X113906188Y-124229762D01*
X113858569Y-124182143D01*
X113810950Y-124086905D01*
X113810950Y-123848810D01*
X113858569Y-123753571D01*
X113906188Y-123705952D01*
X114001426Y-123658333D01*
X114191903Y-123658333D01*
X114287141Y-123705952D01*
X114334760Y-123753571D01*
X114382379Y-123848810D01*
D12*
X132136571Y-105929333D02*
X132136571Y-104529333D01*
X131536571Y-105529333D01*
X130936571Y-104529333D01*
X130936571Y-105929333D01*
X130079428Y-105929333D02*
X130079428Y-104996000D01*
X130079428Y-104529333D02*
X130165142Y-104596000D01*
X130079428Y-104662667D01*
X129993713Y-104596000D01*
X130079428Y-104529333D01*
X130079428Y-104662667D01*
X128450856Y-105929333D02*
X128450856Y-104529333D01*
X128450856Y-105862667D02*
X128622285Y-105929333D01*
X128965142Y-105929333D01*
X129136570Y-105862667D01*
X129222285Y-105796000D01*
X129307999Y-105662667D01*
X129307999Y-105262667D01*
X129222285Y-105129333D01*
X129136570Y-105062667D01*
X128965142Y-104996000D01*
X128622285Y-104996000D01*
X128450856Y-105062667D01*
X127593714Y-105929333D02*
X127593714Y-104996000D01*
X127593714Y-104529333D02*
X127679428Y-104596000D01*
X127593714Y-104662667D01*
X127507999Y-104596000D01*
X127593714Y-104529333D01*
X127593714Y-104662667D01*
X126736571Y-105929333D02*
X126736571Y-104529333D01*
X126736571Y-105062667D02*
X126565142Y-104996000D01*
X126222285Y-104996000D01*
X126050856Y-105062667D01*
X125965142Y-105129333D01*
X125879428Y-105262667D01*
X125879428Y-105662667D01*
X125965142Y-105796000D01*
X126050856Y-105862667D01*
X126222285Y-105929333D01*
X126565142Y-105929333D01*
X126736571Y-105862667D01*
X124850857Y-105929333D02*
X125022285Y-105862667D01*
X125108000Y-105796000D01*
X125193714Y-105662667D01*
X125193714Y-105262667D01*
X125108000Y-105129333D01*
X125022285Y-105062667D01*
X124850857Y-104996000D01*
X124593714Y-104996000D01*
X124422285Y-105062667D01*
X124336571Y-105129333D01*
X124250857Y-105262667D01*
X124250857Y-105662667D01*
X124336571Y-105796000D01*
X124422285Y-105862667D01*
X124593714Y-105929333D01*
X124850857Y-105929333D01*
X123650857Y-105929333D02*
X122708000Y-104996000D01*
X123650857Y-104996000D02*
X122708000Y-105929333D01*
X137279427Y-107256000D02*
X136936570Y-108189333D01*
X136593713Y-107522667D01*
X136250856Y-108189333D01*
X135907999Y-107256000D01*
X135393713Y-107256000D02*
X135050856Y-108189333D01*
X134707999Y-107522667D01*
X134365142Y-108189333D01*
X134022285Y-107256000D01*
X133507999Y-107256000D02*
X133165142Y-108189333D01*
X132822285Y-107522667D01*
X132479428Y-108189333D01*
X132136571Y-107256000D01*
X131450857Y-108056000D02*
X131365142Y-108122667D01*
X131450857Y-108189333D01*
X131536571Y-108122667D01*
X131450857Y-108056000D01*
X131450857Y-108189333D01*
X129822285Y-107256000D02*
X129822285Y-108189333D01*
X130593714Y-107256000D02*
X130593714Y-107989333D01*
X130507999Y-108122667D01*
X130336571Y-108189333D01*
X130079428Y-108189333D01*
X129907999Y-108122667D01*
X129822285Y-108056000D01*
X128193714Y-108122667D02*
X128365143Y-108189333D01*
X128708000Y-108189333D01*
X128879428Y-108122667D01*
X128965143Y-108056000D01*
X129050857Y-107922667D01*
X129050857Y-107522667D01*
X128965143Y-107389333D01*
X128879428Y-107322667D01*
X128708000Y-107256000D01*
X128365143Y-107256000D01*
X128193714Y-107322667D01*
X126650857Y-108189333D02*
X126650857Y-107456000D01*
X126736571Y-107322667D01*
X126908000Y-107256000D01*
X127250857Y-107256000D01*
X127422286Y-107322667D01*
X126650857Y-108122667D02*
X126822286Y-108189333D01*
X127250857Y-108189333D01*
X127422286Y-108122667D01*
X127508000Y-107989333D01*
X127508000Y-107856000D01*
X127422286Y-107722667D01*
X127250857Y-107656000D01*
X126822286Y-107656000D01*
X126650857Y-107589333D01*
X125793715Y-107256000D02*
X125793715Y-108656000D01*
X125793715Y-107322667D02*
X125622286Y-107256000D01*
X125279429Y-107256000D01*
X125108000Y-107322667D01*
X125022286Y-107389333D01*
X124936572Y-107522667D01*
X124936572Y-107922667D01*
X125022286Y-108056000D01*
X125108000Y-108122667D01*
X125279429Y-108189333D01*
X125622286Y-108189333D01*
X125793715Y-108122667D01*
X124165144Y-107256000D02*
X124165144Y-108656000D01*
X124165144Y-107322667D02*
X123993715Y-107256000D01*
X123650858Y-107256000D01*
X123479429Y-107322667D01*
X123393715Y-107389333D01*
X123308001Y-107522667D01*
X123308001Y-107922667D01*
X123393715Y-108056000D01*
X123479429Y-108122667D01*
X123650858Y-108189333D01*
X123993715Y-108189333D01*
X124165144Y-108122667D01*
X122622287Y-108122667D02*
X122450858Y-108189333D01*
X122108001Y-108189333D01*
X121936573Y-108122667D01*
X121850858Y-107989333D01*
X121850858Y-107922667D01*
X121936573Y-107789333D01*
X122108001Y-107722667D01*
X122365144Y-107722667D01*
X122536573Y-107656000D01*
X122622287Y-107522667D01*
X122622287Y-107456000D01*
X122536573Y-107322667D01*
X122365144Y-107256000D01*
X122108001Y-107256000D01*
X121936573Y-107322667D01*
X121079430Y-108056000D02*
X120993715Y-108122667D01*
X121079430Y-108189333D01*
X121165144Y-108122667D01*
X121079430Y-108056000D01*
X121079430Y-108189333D01*
X119450858Y-108189333D02*
X119450858Y-106789333D01*
X119450858Y-108122667D02*
X119622287Y-108189333D01*
X119965144Y-108189333D01*
X120136572Y-108122667D01*
X120222287Y-108056000D01*
X120308001Y-107922667D01*
X120308001Y-107522667D01*
X120222287Y-107389333D01*
X120136572Y-107322667D01*
X119965144Y-107256000D01*
X119622287Y-107256000D01*
X119450858Y-107322667D01*
X117908001Y-108122667D02*
X118079430Y-108189333D01*
X118422287Y-108189333D01*
X118593716Y-108122667D01*
X118679430Y-107989333D01*
X118679430Y-107456000D01*
X118593716Y-107322667D01*
X118422287Y-107256000D01*
X118079430Y-107256000D01*
X117908001Y-107322667D01*
X117822287Y-107456000D01*
X117822287Y-107589333D01*
X118679430Y-107722667D01*
D10*
X168910000Y-88900000D02*
G75*
G03X166370000Y-86360000I-2540000J0D01*
G01*
X166370000Y-127000000D02*
G75*
G03X168910000Y-124460000I0J2540000D01*
G01*
X85090000Y-124460000D02*
G75*
G03X87630000Y-127000000I2540000J0D01*
G01*
X87630000Y-86360000D02*
G75*
G03X85090000Y-88900000I0J-2540000D01*
G01*
X85090000Y-124460000D02*
X85090000Y-88900000D01*
X166370000Y-127000000D02*
X87630000Y-127000000D01*
X168910000Y-88900000D02*
X168910000Y-124460000D01*
X87630000Y-86360000D02*
X166370000Y-86360000D01*
X118990000Y-89670000D02*
X120260000Y-89670000D01*
X118990000Y-97020000D02*
X120260000Y-97020000D01*
X141360000Y-97020000D02*
X140090000Y-97020000D01*
X141360000Y-89670000D02*
X140090000Y-89670000D01*
X118990000Y-89670000D02*
X118990000Y-97020000D01*
X141360000Y-89670000D02*
X141360000Y-97020000D01*
X120260000Y-89670000D02*
X120260000Y-88385000D01*
X88265000Y-94335000D02*
X86715000Y-94335000D01*
X86715000Y-94335000D02*
X86715000Y-97435000D01*
X86715000Y-97435000D02*
X88265000Y-97435000D01*
X89535000Y-97155000D02*
X99695000Y-97155000D01*
X99695000Y-97155000D02*
X99695000Y-94615000D01*
X99695000Y-94615000D02*
X89535000Y-94615000D01*
X89535000Y-97155000D02*
X89535000Y-94615000D01*
X88265000Y-90525000D02*
X86715000Y-90525000D01*
X86715000Y-90525000D02*
X86715000Y-93625000D01*
X86715000Y-93625000D02*
X88265000Y-93625000D01*
X89535000Y-93345000D02*
X99695000Y-93345000D01*
X99695000Y-93345000D02*
X99695000Y-90805000D01*
X99695000Y-90805000D02*
X89535000Y-90805000D01*
X89535000Y-93345000D02*
X89535000Y-90805000D01*
X117090000Y-95270000D02*
X114090000Y-95270000D01*
X114090000Y-97770000D02*
X117090000Y-97770000D01*
X137795000Y-121285000D02*
X137795000Y-118745000D01*
X137795000Y-118745000D02*
X114935000Y-118745000D01*
X114935000Y-118745000D02*
X114935000Y-121285000D01*
X137795000Y-121285000D02*
X114935000Y-121285000D01*
X117475000Y-121285000D02*
X117475000Y-118745000D01*
X95250000Y-87630000D02*
X90170000Y-87630000D01*
X90170000Y-87630000D02*
X90170000Y-90170000D01*
X90170000Y-90170000D02*
X95250000Y-90170000D01*
X95250000Y-90170000D02*
X95250000Y-87630000D01*
X132801905Y-92797381D02*
X132135238Y-92797381D01*
X132563810Y-93797381D01*
X131325714Y-93130714D02*
X131325714Y-93797381D01*
X131563810Y-92749762D02*
X131801905Y-93464048D01*
X131182857Y-93464048D01*
X130801905Y-93797381D02*
X130801905Y-92797381D01*
X130801905Y-93273571D02*
X130230476Y-93273571D01*
X130230476Y-93797381D02*
X130230476Y-92797381D01*
X129182857Y-93702143D02*
X129230476Y-93749762D01*
X129373333Y-93797381D01*
X129468571Y-93797381D01*
X129611429Y-93749762D01*
X129706667Y-93654524D01*
X129754286Y-93559286D01*
X129801905Y-93368810D01*
X129801905Y-93225952D01*
X129754286Y-93035476D01*
X129706667Y-92940238D01*
X129611429Y-92845000D01*
X129468571Y-92797381D01*
X129373333Y-92797381D01*
X129230476Y-92845000D01*
X129182857Y-92892619D01*
X128230476Y-93797381D02*
X128801905Y-93797381D01*
X128516191Y-93797381D02*
X128516191Y-92797381D01*
X128611429Y-92940238D01*
X128706667Y-93035476D01*
X128801905Y-93083095D01*
X127373333Y-92797381D02*
X127563810Y-92797381D01*
X127659048Y-92845000D01*
X127706667Y-92892619D01*
X127801905Y-93035476D01*
X127849524Y-93225952D01*
X127849524Y-93606905D01*
X127801905Y-93702143D01*
X127754286Y-93749762D01*
X127659048Y-93797381D01*
X127468571Y-93797381D01*
X127373333Y-93749762D01*
X127325714Y-93702143D01*
X127278095Y-93606905D01*
X127278095Y-93368810D01*
X127325714Y-93273571D01*
X127373333Y-93225952D01*
X127468571Y-93178333D01*
X127659048Y-93178333D01*
X127754286Y-93225952D01*
X127801905Y-93273571D01*
X127849524Y-93368810D01*
X126373333Y-92797381D02*
X126849524Y-92797381D01*
X126897143Y-93273571D01*
X126849524Y-93225952D01*
X126754286Y-93178333D01*
X126516190Y-93178333D01*
X126420952Y-93225952D01*
X126373333Y-93273571D01*
X126325714Y-93368810D01*
X126325714Y-93606905D01*
X126373333Y-93702143D01*
X126420952Y-93749762D01*
X126516190Y-93797381D01*
X126754286Y-93797381D01*
X126849524Y-93749762D01*
X126897143Y-93702143D01*
X101417381Y-95361191D02*
X100417381Y-95361191D01*
X101417381Y-95837381D02*
X100417381Y-95837381D01*
X101417381Y-96408810D01*
X100417381Y-96408810D01*
X100417381Y-91075000D02*
X100417381Y-91265477D01*
X100465000Y-91360715D01*
X100560238Y-91455953D01*
X100750714Y-91503572D01*
X101084048Y-91503572D01*
X101274524Y-91455953D01*
X101369762Y-91360715D01*
X101417381Y-91265477D01*
X101417381Y-91075000D01*
X101369762Y-90979762D01*
X101274524Y-90884524D01*
X101084048Y-90836905D01*
X100750714Y-90836905D01*
X100560238Y-90884524D01*
X100465000Y-90979762D01*
X100417381Y-91075000D01*
X100417381Y-91932143D02*
X101226905Y-91932143D01*
X101322143Y-91979762D01*
X101369762Y-92027381D01*
X101417381Y-92122619D01*
X101417381Y-92313096D01*
X101369762Y-92408334D01*
X101322143Y-92455953D01*
X101226905Y-92503572D01*
X100417381Y-92503572D01*
X100417381Y-92836905D02*
X100417381Y-93408334D01*
X101417381Y-93122619D02*
X100417381Y-93122619D01*
X117117619Y-94432381D02*
X117689048Y-94432381D01*
X117403334Y-94432381D02*
X117403334Y-93432381D01*
X117498572Y-93575238D01*
X117593810Y-93670476D01*
X117689048Y-93718095D01*
X116498572Y-93432381D02*
X116403333Y-93432381D01*
X116308095Y-93480000D01*
X116260476Y-93527619D01*
X116212857Y-93622857D01*
X116165238Y-93813333D01*
X116165238Y-94051429D01*
X116212857Y-94241905D01*
X116260476Y-94337143D01*
X116308095Y-94384762D01*
X116403333Y-94432381D01*
X116498572Y-94432381D01*
X116593810Y-94384762D01*
X116641429Y-94337143D01*
X116689048Y-94241905D01*
X116736667Y-94051429D01*
X116736667Y-93813333D01*
X116689048Y-93622857D01*
X116641429Y-93527619D01*
X116593810Y-93480000D01*
X116498572Y-93432381D01*
X115546191Y-93432381D02*
X115450952Y-93432381D01*
X115355714Y-93480000D01*
X115308095Y-93527619D01*
X115260476Y-93622857D01*
X115212857Y-93813333D01*
X115212857Y-94051429D01*
X115260476Y-94241905D01*
X115308095Y-94337143D01*
X115355714Y-94384762D01*
X115450952Y-94432381D01*
X115546191Y-94432381D01*
X115641429Y-94384762D01*
X115689048Y-94337143D01*
X115736667Y-94241905D01*
X115784286Y-94051429D01*
X115784286Y-93813333D01*
X115736667Y-93622857D01*
X115689048Y-93527619D01*
X115641429Y-93480000D01*
X115546191Y-93432381D01*
X114784286Y-93765714D02*
X114784286Y-94432381D01*
X114784286Y-93860952D02*
X114736667Y-93813333D01*
X114641429Y-93765714D01*
X114498571Y-93765714D01*
X114403333Y-93813333D01*
X114355714Y-93908571D01*
X114355714Y-94432381D01*
X113546190Y-93908571D02*
X113879524Y-93908571D01*
X113879524Y-94432381D02*
X113879524Y-93432381D01*
X113403333Y-93432381D01*
X127031666Y-118435381D02*
X127365000Y-117959190D01*
X127603095Y-118435381D02*
X127603095Y-117435381D01*
X127222142Y-117435381D01*
X127126904Y-117483000D01*
X127079285Y-117530619D01*
X127031666Y-117625857D01*
X127031666Y-117768714D01*
X127079285Y-117863952D01*
X127126904Y-117911571D01*
X127222142Y-117959190D01*
X127603095Y-117959190D01*
X126031666Y-118435381D02*
X126365000Y-117959190D01*
X126603095Y-118435381D02*
X126603095Y-117435381D01*
X126222142Y-117435381D01*
X126126904Y-117483000D01*
X126079285Y-117530619D01*
X126031666Y-117625857D01*
X126031666Y-117768714D01*
X126079285Y-117863952D01*
X126126904Y-117911571D01*
X126222142Y-117959190D01*
X126603095Y-117959190D01*
X125460238Y-117863952D02*
X125555476Y-117816333D01*
X125603095Y-117768714D01*
X125650714Y-117673476D01*
X125650714Y-117625857D01*
X125603095Y-117530619D01*
X125555476Y-117483000D01*
X125460238Y-117435381D01*
X125269761Y-117435381D01*
X125174523Y-117483000D01*
X125126904Y-117530619D01*
X125079285Y-117625857D01*
X125079285Y-117673476D01*
X125126904Y-117768714D01*
X125174523Y-117816333D01*
X125269761Y-117863952D01*
X125460238Y-117863952D01*
X125555476Y-117911571D01*
X125603095Y-117959190D01*
X125650714Y-118054429D01*
X125650714Y-118244905D01*
X125603095Y-118340143D01*
X125555476Y-118387762D01*
X125460238Y-118435381D01*
X125269761Y-118435381D01*
X125174523Y-118387762D01*
X125126904Y-118340143D01*
X125079285Y-118244905D01*
X125079285Y-118054429D01*
X125126904Y-117959190D01*
X125174523Y-117911571D01*
X125269761Y-117863952D01*
X93305238Y-89352381D02*
X93876667Y-89352381D01*
X93590953Y-89352381D02*
X93590953Y-88352381D01*
X93686191Y-88495238D01*
X93781429Y-88590476D01*
X93876667Y-88638095D01*
X92686191Y-88352381D02*
X92590952Y-88352381D01*
X92495714Y-88400000D01*
X92448095Y-88447619D01*
X92400476Y-88542857D01*
X92352857Y-88733333D01*
X92352857Y-88971429D01*
X92400476Y-89161905D01*
X92448095Y-89257143D01*
X92495714Y-89304762D01*
X92590952Y-89352381D01*
X92686191Y-89352381D01*
X92781429Y-89304762D01*
X92829048Y-89257143D01*
X92876667Y-89161905D01*
X92924286Y-88971429D01*
X92924286Y-88733333D01*
X92876667Y-88542857D01*
X92829048Y-88447619D01*
X92781429Y-88400000D01*
X92686191Y-88352381D01*
X91924286Y-89352381D02*
X91924286Y-88352381D01*
X91829048Y-88971429D02*
X91543333Y-89352381D01*
X91543333Y-88685714D02*
X91924286Y-89066667D01*
M02*
